<?xml version="1.0" encoding="utf-8"?>
<!-- Generator: Adobe Illustrator 23.0.5, SVG Export Plug-In . SVG Version: 6.00 Build 0)  -->
<svg version="1.1" id="Layer_1" xmlns="http://www.w3.org/2000/svg" xmlns:xlink="http://www.w3.org/1999/xlink" x="0px" y="0px"
	 viewBox="0 0 50 50" style="enable-background:new 0 0 50 50;" xml:space="preserve">
<style type="text/css">
	.st0{fill:#00A0E4;}
</style>
<path id="XMLID_65_" class="st0" d="M6.9,31.5l13.2,1.4c0,0-1.7-2.3-0.6-5c1.1-2.7,14.2-19.3,14.2-19.3L24,1.7
	C17.2,10.4,8.4,20.6,7.4,24.2C6.5,27.8,7,29.1,6.9,31.5z"/>
<path id="XMLID_66_" class="st0" d="M31.6,13.2L23.9,24c0,0,2.8-0.4,4.7,1.9c1.8,2.3,9.9,21.8,9.9,21.8l10.8-5
	c-4.3-10.3-8.8-22.9-11.5-25.5C35,14.6,33.6,14.5,31.6,13.2z"/>
<path id="XMLID_67_" class="st0" d="M34.9,43.6l-5.4-12.1c0,0-1.1,2.6-4,3C22.6,34.9,1.7,32,1.7,32L0.6,43.8c11,1.5,24.2,4.1,27.8,3
	C32,45.8,32.8,44.7,34.9,43.6z"/>
</svg>
