<?xml version="1.0" encoding="utf-8"?>
<!-- Generator: Adobe Illustrator 23.0.5, SVG Export Plug-In . SVG Version: 6.00 Build 0)  -->
<svg version="1.1" id="Layer_1" xmlns="http://www.w3.org/2000/svg" xmlns:xlink="http://www.w3.org/1999/xlink" x="0px" y="0px"
	 viewBox="0 0 50 50" style="enable-background:new 0 0 50 50;" xml:space="preserve">
<style type="text/css">
	.st0{fill-rule:evenodd;clip-rule:evenodd;fill:#005AA9;}
	.st1{fill-rule:evenodd;clip-rule:evenodd;fill:#EC1C24;}
</style>
<path class="st0" d="M34.6,49.2c-7.7,0-14.1-5.9-14.8-13.4c-0.1-1.3-0.1-3.1-0.1-4.4V19.7h11.2v0.3v13.4c0,0.3,0,0.7,0,1
	c0.1,1.9,1.8,3.4,3.7,3.4c2.1,0,3.7-1.7,3.7-3.7c0-2.1-1.7-3.7-3.7-3.7c-0.5,0-1,0.1-1.5,0.3V19.5c0.5,0,1-0.1,1.5-0.1
	c8.2,0,14.9,6.7,14.9,14.9C49.4,42.5,42.8,49.2,34.6,49.2L34.6,49.2z M23.9,0.9h7v7C29.3,4.9,26.8,2.5,23.9,0.9L23.9,0.9z"/>
<path class="st1" d="M15.9,1C23.6,1,30,6.8,30.7,14.3c0.1,1.3,0.1,3.1,0.1,4.4v11.8H19.6v-0.3V16.8c0-0.3,0-0.7,0-1
	c-0.1-1.9-1.8-3.4-3.7-3.4c-2.1,0-3.7,1.7-3.7,3.7c0,2.1,1.7,3.7,3.7,3.7c0.5,0,1-0.1,1.5-0.3v11.1c-0.5,0-1,0.1-1.5,0.1
	C7.7,30.7,1,24,1,15.8S7.7,1,15.9,1L15.9,1z"/>
</svg>
