<?xml version="1.0" encoding="utf-8"?>
<!-- Generator: Adobe Illustrator 23.0.5, SVG Export Plug-In . SVG Version: 6.00 Build 0)  -->
<svg version="1.1" id="Layer_1" xmlns="http://www.w3.org/2000/svg" xmlns:xlink="http://www.w3.org/1999/xlink" x="0px" y="0px"
	 viewBox="0 0 50 50" style="enable-background:new 0 0 50 50;" xml:space="preserve">
<style type="text/css">
	.st0{fill-rule:evenodd;clip-rule:evenodd;fill:#007DC4;}
	.st1{fill-rule:evenodd;clip-rule:evenodd;fill:#231F20;}
	.st2{fill-rule:evenodd;clip-rule:evenodd;fill:#EE4023;}
	.st3{fill-rule:evenodd;clip-rule:evenodd;fill:#FFFFFF;}
	.st4{fill-rule:evenodd;clip-rule:evenodd;fill:#F48120;}
</style>
<rect x="0.7" y="0.6" class="st0" width="48.7" height="48.7"/>
<polygon class="st1" points="24,36.7 12.7,46.7 19,33 6.1,25.6 20.8,27.1 24,3.6 27.1,27.1 41.8,25.6 28.9,33 35.3,46.7 24,36.7 "/>
<polygon class="st2" points="24,36.4 13.3,45.8 19.3,32.9 7.1,25.9 21,27.4 24,5.3 26.9,27.4 40.8,25.9 28.7,32.9 34.6,45.8 
	24,36.4 "/>
<polygon class="st0" points="26.9,27.4 21,27.4 19.3,32.9 24,36.4 28.7,32.9 26.9,27.4 "/>
<path class="st1" d="M23.9,35.2c-2.1,0-3.8-1.7-3.8-3.8c0-2.1,1.7-3.8,3.8-3.8c2.1,0,3.8,1.7,3.8,3.8C27.8,33.5,26,35.2,23.9,35.2
	L23.9,35.2z"/>
<path class="st3" d="M23.9,35c-2,0-3.6-1.6-3.6-3.6c0-2,1.6-3.6,3.6-3.6c2,0,3.6,1.6,3.6,3.6C27.5,33.4,25.9,35,23.9,35L23.9,35z"/>
<path class="st1" d="M23.8,28.9C23.8,28.9,23.8,28.9,23.8,28.9C23.8,29,23.8,29,23.8,28.9C23.8,29,23.8,29,23.8,28.9
	C23.8,29,23.8,28.9,23.8,28.9L23.8,28.9z M23.8,28.9C23.9,28.9,23.9,28.9,23.8,28.9C23.9,28.9,23.9,29,23.8,28.9
	C23.8,29,23.9,29,23.8,28.9C23.9,28.9,23.9,28.9,23.8,28.9L23.8,28.9z M23.8,29C23.8,29,23.8,29,23.8,29c0.1,0,0.1,0,0.2,0
	c0,0,0-0.1-0.1-0.1c0,0,0,0-0.1,0C23.8,28.9,23.8,28.9,23.8,29c0-0.1,0-0.1,0.1-0.1c0,0,0.1,0,0,0.1C23.9,28.9,23.9,28.9,23.8,29
	C23.8,28.9,23.8,28.9,23.8,29C23.7,28.9,23.7,28.9,23.8,29L23.8,29C23.7,29,23.7,29,23.8,29L23.8,29z M24.1,28.9
	C24.1,28.9,24.1,28.9,24.1,28.9C24.1,29,24.1,29,24.1,28.9C24,29,24,29,24.1,28.9C24,29,24,28.9,24.1,28.9L24.1,28.9z M24.1,28.9
	C24.1,28.9,24.1,28.9,24.1,28.9L24.1,28.9C24.1,28.9,24.1,28.9,24.1,28.9C24.1,28.9,24.1,28.9,24.1,28.9
	C24.1,28.9,24.1,29,24.1,28.9C24.1,29,24.1,29,24.1,28.9C24.1,28.9,24.1,28.9,24.1,28.9L24.1,28.9z M23.9,29.1
	C23.9,29.1,23.9,29.1,23.9,29.1C24,29.1,24,29.1,23.9,29.1c0.1,0,0.1-0.1,0.1-0.1c0,0,0,0,0,0c0,0,0.1,0,0.1,0c0,0,0,0,0,0
	c0,0,0,0,0,0c0,0,0,0,0,0c0,0,0,0,0,0c0,0-0.1,0-0.1,0c0,0-0.1,0-0.1,0c0-0.1,0.1-0.1,0.1,0c0,0,0,0,0,0c0,0-0.1,0-0.1,0
	C24,28.9,24,29,23.9,29.1C24,29,24,29,23.9,29.1C24,29.1,24,29.1,23.9,29.1C23.9,29.1,23.9,29.1,23.9,29.1L23.9,29.1z M25.6,33.7
	C25.6,33.7,25.5,33.6,25.6,33.7c-0.1-0.1-0.1-0.1-0.1-0.1c0,0,0,0,0,0c0,0-0.1,0-0.1,0c0,0,0,0,0,0c0,0,0,0,0,0c-0.1,0-0.1,0-0.2,0
	c-0.1,0-0.2,0-0.3,0c0,0-0.1,0-0.1,0c0,0,0,0,0,0c0,0-0.1,0-0.1,0c0,0,0,0,0,0c0,0,0,0-0.1,0c0,0,0,0,0,0c0,0,0,0,0,0c0,0,0,0,0.1,0
	c0.1,0,0.1,0,0.2,0c0.2,0,0.4,0,0.5,0.1c0,0,0.1,0,0.1,0C25.4,33.6,25.5,33.7,25.6,33.7C25.6,33.7,25.6,33.8,25.6,33.7
	c0.1,0.1,0.1,0.1,0.1,0.1C25.7,33.7,25.6,33.7,25.6,33.7L25.6,33.7z M26.5,33.5C26.6,33.5,26.6,33.5,26.5,33.5
	C26.6,33.6,26.6,33.6,26.5,33.5C26.5,33.6,26.5,33.5,26.5,33.5C26.5,33.5,26.5,33.5,26.5,33.5c-0.1,0.1,0,0.1,0,0.1c0,0,0,0-0.1,0
	c0,0,0,0,0,0c0,0,0-0.1-0.1,0c0,0,0,0,0,0.1c0,0-0.1,0-0.1,0c0,0,0,0,0,0c0,0,0,0,0,0c0,0,0,0,0,0c0,0,0,0,0,0
	c0-0.1-0.1-0.1-0.1-0.1c-0.1,0-0.2,0-0.3,0c0,0,0-0.1-0.1-0.1c-0.1,0-0.1,0-0.2,0c0,0-0.1,0-0.1,0c0,0,0,0,0,0
	c0.1,0,0.1-0.1,0.2-0.1c0.1,0,0.2,0.1,0.3,0.1c0,0,0,0,0.1,0c0,0,0,0,0.1,0C26.3,33.4,26.4,33.4,26.5,33.5
	C26.6,33.4,26.6,33.5,26.5,33.5C26.6,33.5,26.6,33.5,26.5,33.5C26.5,33.5,26.5,33.5,26.5,33.5C26.5,33.5,26.5,33.5,26.5,33.5
	L26.5,33.5z M26.3,33.6C26.2,33.6,26.2,33.6,26.3,33.6c-0.1,0-0.2,0-0.2,0c0,0-0.1,0-0.1,0c0,0,0.1,0,0.1,0
	C26.1,33.6,26.2,33.6,26.3,33.6C26.3,33.6,26.3,33.6,26.3,33.6C26.3,33.6,26.3,33.6,26.3,33.6L26.3,33.6z M25.9,33.6
	C25.9,33.7,25.9,33.7,25.9,33.6c0,0.1,0,0.1,0,0.1C25.9,33.7,25.9,33.7,25.9,33.6C25.9,33.7,25.9,33.7,25.9,33.6
	C25.9,33.7,25.9,33.7,25.9,33.6c-0.1,0.1,0,0.1,0,0.1c0,0,0,0.1-0.1,0.1c0,0,0,0,0,0c0,0,0,0,0-0.1c0,0,0,0,0,0c0,0,0,0-0.1,0
	c0,0,0,0,0,0.1c0,0,0,0-0.1,0c0,0-0.1,0-0.1,0c0,0,0,0,0,0c0,0,0,0-0.1,0c0,0,0,0,0,0c0,0,0,0-0.1,0c-0.1,0-0.1,0-0.2-0.1
	c-0.1,0-0.3,0-0.4,0c0,0-0.1,0-0.1,0c0,0-0.1,0-0.1,0c0,0-0.1,0-0.1-0.1c0-0.1,0-0.2-0.1-0.2c0,0,0-0.1,0-0.1c0,0,0-0.1,0-0.1
	c0,0,0-0.1,0-0.1c0-0.1,0-0.1,0.1-0.2c0,0,0,0,0,0c0,0,0.1,0,0.1,0.1c0,0,0,0,0,0c0,0.1,0,0.2,0.1,0.2c0,0,0,0,0,0c0,0-0.1,0-0.1,0
	c0,0,0.1,0,0.1,0c0,0,0.1,0,0.1,0c0,0,0,0,0.1,0.1c0,0,0.1,0,0.2,0c0.1,0,0.1,0,0.2,0c0.1,0,0.2,0,0.2,0.1c0,0,0,0,0,0c0,0,0,0,0,0
	c0,0,0.1,0,0.1,0c0,0,0.1,0,0.1,0c0,0,0.1,0,0.1,0c0,0,0,0,0,0C25.8,33.5,25.8,33.5,25.9,33.6C25.8,33.5,25.9,33.6,25.9,33.6
	C25.9,33.6,25.9,33.6,25.9,33.6C25.9,33.6,25.9,33.6,25.9,33.6L25.9,33.6z M24.6,33.8c0,0-0.1-0.1-0.1-0.1c0,0,0,0,0,0c0,0,0,0,0,0
	C24.5,33.7,24.6,33.7,24.6,33.8C24.6,33.8,24.6,33.8,24.6,33.8C24.6,33.8,24.6,33.8,24.6,33.8c-0.1,0-0.1,0-0.1,0c0,0,0,0,0,0
	c0,0,0,0,0,0c0,0,0.1,0,0.1,0c0,0,0,0,0,0C24.5,33.8,24.5,33.8,24.6,33.8C24.5,33.8,24.5,33.8,24.6,33.8
	C24.6,33.8,24.6,33.8,24.6,33.8c-0.1,0.1-0.1,0-0.2,0c0,0-0.1,0-0.1,0c0,0,0,0-0.1-0.1c0,0-0.1,0-0.1,0c0,0,0-0.1,0.1-0.1
	c0,0,0.1-0.1,0.1,0c0,0,0.1,0,0.1,0c0,0,0,0,0,0c0,0,0,0,0,0C24.5,33.7,24.6,33.7,24.6,33.8C24.6,33.7,24.6,33.7,24.6,33.8
	C24.6,33.7,24.6,33.7,24.6,33.8C24.6,33.7,24.6,33.7,24.6,33.8c-0.1-0.1-0.1-0.1-0.2-0.1c0,0,0,0,0,0C24.6,33.7,24.6,33.7,24.6,33.8
	C24.6,33.7,24.7,33.7,24.6,33.8L24.6,33.8z M24.1,33.4c0-0.2,0-0.4,0-0.7c0,0,0,0,0,0c0,0,0,0,0,0c0,0,0,0,0,0c0,0.1,0,0.2,0,0.3
	c0,0.1,0,0.2,0,0.3C24.2,33.4,24.2,33.4,24.1,33.4C24.1,33.4,24.1,33.4,24.1,33.4L24.1,33.4z M24.3,33.3
	C24.3,33.3,24.3,33.3,24.3,33.3c-0.1-0.2-0.1-0.3-0.1-0.5c0-0.2,0-0.4,0-0.6c0,0,0,0,0,0c0,0,0,0.1,0,0.1c0,0.1,0,0.3,0,0.4
	c0,0.1,0,0.2,0,0.3C24.3,33.1,24.3,33.2,24.3,33.3L24.3,33.3z M24.3,32.7c0-0.2,0-0.3,0-0.5c0,0,0,0,0-0.1c0,0,0-0.1,0-0.1
	c0,0,0,0,0,0c0,0,0,0,0,0c0,0,0-0.1,0-0.1c0,0,0,0,0,0C24.4,32.2,24.4,32.5,24.3,32.7c0.1,0.2,0.1,0.2,0.1,0.3
	C24.3,32.9,24.3,32.8,24.3,32.7L24.3,32.7z M24,32.1C24,32.2,24,32.2,24,32.1c-0.1,0.1-0.1,0.1-0.1,0.1c0.1-0.2,0.2-0.5,0.3-0.7
	c0-0.1,0.1-0.3,0.1-0.4c0-0.1,0-0.3,0.1-0.4c0,0,0,0,0,0c0,0,0,0,0,0c0,0,0,0,0,0.1c0,0.1,0,0.2,0.1,0.3c0,0.1,0,0.1,0,0.2
	c0,0,0,0.1,0,0.1c0,0,0,0.1,0,0.1c0,0,0,0.1-0.1,0.1c0,0,0,0.1-0.1,0.1c0,0.1-0.1,0.1-0.1,0.2C24.2,32,24.1,32.1,24,32.1L24,32.1z
	 M24.1,32.4c0,0.2,0,0.4,0,0.5c0,0.2,0,0.4,0,0.6c0,0-0.1,0-0.1,0c0,0-0.1,0-0.1,0c0.1-0.2,0.2-0.5,0.2-0.7
	C24,32.6,24,32.4,24.1,32.4C24.1,32.3,24.1,32.3,24.1,32.4C24.1,32.3,24.1,32.3,24.1,32.4L24.1,32.4z M23.7,33.6c0,0,0-0.1,0-0.1h0
	C23.8,33.6,23.8,33.6,23.7,33.6C23.8,33.6,23.8,33.6,23.7,33.6L23.7,33.6z M24,33.7c0,0,0,0.1-0.1,0.1c0,0,0,0,0,0
	c0,0,0,0.1-0.1,0.1c0,0,0,0,0,0c0,0,0,0,0,0c0,0,0-0.1,0.1-0.1c0,0,0,0,0,0c0,0,0,0,0,0c0,0,0,0,0,0c0,0,0,0,0,0
	c0-0.1,0-0.1,0.1-0.1c0,0,0,0,0,0c0,0,0,0-0.1,0c0,0,0,0.1,0,0.1c0,0,0,0,0,0c0,0,0,0,0,0c0,0,0,0,0,0c0,0,0-0.1,0-0.1
	c0,0,0,0-0.1,0c0,0,0,0,0,0c0,0,0-0.1,0-0.1c0,0,0,0,0,0c0,0,0,0,0,0c0,0,0,0,0,0c0,0,0,0,0,0c0,0,0,0,0,0c0,0,0,0,0,0
	c0,0,0.1,0,0.1,0C23.9,33.7,23.9,33.7,24,33.7C23.9,33.7,24,33.7,24,33.7C24,33.7,24,33.7,24,33.7L24,33.7z M23.7,33.9
	C23.7,33.9,23.7,33.9,23.7,33.9C23.7,33.9,23.7,33.9,23.7,33.9C23.8,33.9,23.7,33.9,23.7,33.9L23.7,33.9z M23.5,33.7
	c-0.1,0-0.2,0-0.2,0c0-0.1,0-0.2-0.1-0.2c0.1,0,0.2,0,0.3,0c0,0,0,0,0,0c0,0,0,0,0.1,0C23.6,33.6,23.6,33.6,23.5,33.7
	C23.6,33.7,23.6,33.7,23.5,33.7c0.1-0.1,0.1-0.1,0.1,0C23.7,33.7,23.6,33.7,23.5,33.7C23.6,33.7,23.6,33.7,23.5,33.7L23.5,33.7z
	 M23.3,33.8C23.3,33.8,23.3,33.8,23.3,33.8C23.3,33.8,23.3,33.8,23.3,33.8c0.1,0,0.2-0.1,0.3-0.1c0,0,0,0,0,0
	C23.5,33.8,23.4,33.8,23.3,33.8L23.3,33.8z M23.2,33.9c0,0-0.1,0-0.2,0c0,0-0.1,0-0.1,0c0,0-0.1,0-0.1,0c0,0,0,0,0,0c0,0,0,0,0-0.1
	c0,0,0,0,0,0c0,0,0,0,0,0c0,0,0,0,0,0c0,0,0,0,0,0c0,0,0,0-0.1,0c0,0,0,0,0,0c0,0,0,0,0,0c0,0,0,0,0,0c0,0,0,0-0.1,0
	c0,0-0.1-0.1-0.1-0.1c0,0,0,0,0-0.1c0,0,0,0,0-0.1c0,0,0,0,0-0.1c0,0,0,0,0,0c0,0,0,0,0,0c0,0,0,0,0,0c0,0,0,0.1,0,0.1
	c0,0,0,0.1,0,0.1c0,0,0,0,0,0.1c0,0,0,0.1,0.1,0.1c0,0,0,0,0,0c0,0,0.1,0,0.1,0.1c0,0,0,0,0.1,0c0,0,0.1,0,0.1,0c0,0,0,0,0.1,0
	c0.1,0,0.2,0.1,0.3,0.1c0,0,0.1,0,0.1,0.1c0,0,0,0,0,0.1c0,0,0,0,0,0c0,0,0,0-0.1,0c0,0,0,0,0,0c0,0,0,0,0,0c0,0,0,0,0,0
	c0,0,0,0,0,0c0,0,0,0,0,0c0,0,0,0,0,0c0,0,0,0,0,0c0,0,0,0,0,0c0,0,0,0,0,0c0,0,0,0,0,0c0,0,0,0,0,0c0,0,0,0,0,0c0,0,0,0,0,0
	c0,0.1,0,0.1,0,0.2c0,0,0-0.1,0-0.1c0,0,0-0.1,0-0.1C23,34.1,22.9,34,22.7,34c0,0-0.1,0-0.1,0c-0.1,0-0.2-0.1-0.2-0.1
	c0,0-0.1-0.1-0.1-0.1c0,0,0,0-0.1-0.1c0,0,0,0,0-0.1c0,0,0,0,0-0.1c0,0,0-0.1,0-0.1c0-0.1,0-0.1,0.1-0.2c0,0,0.1-0.1,0.1-0.1
	c0,0,0.1-0.1,0.1-0.1c0-0.1,0.1-0.1,0.1-0.1c0,0,0.1,0,0.1-0.1c0.1,0,0.2-0.1,0.3-0.1c0.1,0.2,0.1,0.4,0.2,0.6c0,0,0,0.1,0,0.1
	c0,0-0.1,0-0.2,0c0,0,0,0.1,0,0.1c0,0,0,0,0,0c0,0,0,0,0,0c0,0,0,0,0,0c0,0,0,0,0,0c0,0,0,0.1,0,0c0,0,0,0,0.1,0c0,0,0.1,0,0.2,0
	C23.2,33.6,23.2,33.7,23.2,33.9c0-0.1-0.1-0.1-0.1-0.1c0,0-0.1,0-0.1,0c0,0,0,0,0,0c0,0-0.1,0-0.1,0c0,0,0,0.1,0.1,0.1c0,0,0,0,0,0
	C23.1,33.9,23.2,33.9,23.2,33.9C23.2,33.9,23.2,33.9,23.2,33.9L23.2,33.9z M23.1,34.2C23.1,34.2,23.2,34.2,23.1,34.2
	C23.2,34.2,23.1,34.2,23.1,34.2L23.1,34.2z M22.9,32.1c0-0.2-0.1-0.4-0.1-0.5c0,0,0-0.1,0-0.1c0,0,0-0.1,0-0.1
	c-0.1-0.3-0.1-0.6-0.2-0.8c0,0,0,0,0,0c0,0,0.1,0,0.1,0c0,0,0,0.1,0.1,0.1c0,0,0,0,0,0c0,0,0.1,0,0.1,0c0.2,0.1,0.3,0.1,0.5,0.2
	c0,0.2,0,0.4,0,0.6c0,0.1,0,0.1,0,0.2c0,0.1,0,0.3,0,0.4c0,0.1,0,0.2,0,0.3c0,0,0,0.1,0,0.1c0,0,0,0.1,0,0.1c0,0,0,0,0,0
	c0,0,0.1,0.1,0.2,0.1c0,0,0,0,0,0c-0.1,0-0.2,0-0.3,0C23,32.4,22.9,32.2,22.9,32.1L22.9,32.1z M22.4,30.3
	C22.4,30.3,22.5,30.3,22.4,30.3C22.5,30.3,22.5,30.2,22.4,30.3C22.5,30.2,22.5,30.2,22.4,30.3c0.1,0,0.1,0,0.1,0c0,0,0,0,0,0
	C22.6,30.3,22.5,30.3,22.4,30.3c0.1-0.1,0.1-0.1,0-0.1c0,0,0,0,0,0c0,0,0,0,0-0.1c0,0,0,0,0,0c0,0,0,0,0,0c0,0,0.1,0,0.1,0
	c0.1,0,0.1,0.1,0.1,0.1c0,0,0,0,0.1,0c0,0,0,0.1-0.1,0.1c0,0,0,0-0.1,0C22.5,30.4,22.5,30.4,22.4,30.3
	C22.4,30.3,22.4,30.3,22.4,30.3L22.4,30.3z M22.4,30.3C22.4,30.3,22.4,30.3,22.4,30.3C22.3,30.3,22.3,30.2,22.4,30.3
	C22.4,30.2,22.4,30.2,22.4,30.3C22.5,30.3,22.4,30.3,22.4,30.3L22.4,30.3z M22.3,30.2c0,0,0.1,0,0.1,0c0,0,0,0,0,0
	C22.4,30.2,22.3,30.2,22.3,30.2C22.3,30.2,22.3,30.2,22.3,30.2L22.3,30.2z M22.3,30.1C22.3,30.1,22.3,30.1,22.3,30.1
	c0.1,0,0.1,0,0.1,0c0,0,0,0,0,0c0,0,0,0,0,0C22.4,30.2,22.4,30.2,22.3,30.1C22.3,30.2,22.3,30.2,22.3,30.1
	C22.3,30.2,22.3,30.1,22.3,30.1L22.3,30.1z M22.4,30.1C22.4,30.1,22.4,30.1,22.4,30.1c-0.1,0-0.1,0-0.2,0
	C22.3,30,22.5,30.1,22.4,30.1L22.4,30.1z M22.3,30C22.3,30,22.3,30,22.3,30C22.3,30,22.4,30,22.3,30C22.4,30,22.3,30,22.3,30
	C22.3,30,22.3,30,22.3,30L22.3,30z M22.7,30.3C22.7,30.3,22.7,30.3,22.7,30.3c0,0,0,0.1,0,0.1c0,0,0,0.1-0.1,0.1c0,0,0,0,0,0
	c0,0,0,0,0,0C22.7,30.4,22.7,30.3,22.7,30.3L22.7,30.3z M22.8,30.3C22.8,30.3,22.8,30.3,22.8,30.3C22.8,30.3,22.8,30.3,22.8,30.3
	C22.8,30.4,22.8,30.4,22.8,30.3c0,0.1,0,0.1,0,0.1c0,0,0,0,0,0c0,0,0,0,0,0c0,0,0,0,0,0c0,0,0,0,0,0C22.7,30.4,22.8,30.4,22.8,30.3
	L22.8,30.3z M22.8,30.4C22.8,30.4,22.8,30.4,22.8,30.4C22.8,30.4,22.8,30.4,22.8,30.4C22.8,30.4,22.8,30.4,22.8,30.4
	c0.1-0.1,0.2-0.1,0.3,0c0,0,0,0,0.1,0c0,0,0,0,0,0c0,0,0,0,0,0c0,0,0-0.1-0.1-0.1c0,0,0,0,0,0c0,0,0,0,0,0c0.1,0,0.1,0,0.2,0.1
	c0,0.1-0.1,0.1-0.1,0.2c0,0,0,0.1-0.1,0.1c0,0-0.1,0-0.1,0c0,0-0.1,0-0.1,0c0,0-0.1,0-0.1,0C22.9,30.6,22.9,30.5,22.8,30.4
	C22.8,30.5,22.8,30.5,22.8,30.4L22.8,30.4z M23.2,30.3c0.1,0,0.2,0,0.2,0.1c0,0,0,0,0,0C23.4,30.3,23.3,30.3,23.2,30.3
	C23.2,30.3,23.2,30.3,23.2,30.3L23.2,30.3z M23.3,30.1c0-0.1,0-0.2,0-0.3c0-0.1,0-0.1,0.1-0.2c0,0,0,0,0,0c0,0,0,0,0,0
	c0,0,0,0,0.1-0.1c0,0,0,0,0,0c0,0,0.1,0,0.1,0c0,0,0,0,0,0l0,0c0,0.1,0,0.1,0,0.2c0,0,0,0.1,0,0.1c0,0-0.1,0.1-0.1,0.1c0,0,0,0,0,0
	c0,0,0,0,0,0c0,0,0,0,0,0c0,0,0,0.1,0,0.1c0,0,0,0.1,0,0.1c0,0,0,0,0,0.1C23.4,30.2,23.3,30.2,23.3,30.1
	C23.3,30.1,23.3,30.1,23.3,30.1L23.3,30.1z M23.7,29.8C23.7,29.8,23.7,29.8,23.7,29.8c0,0.1,0,0.1,0,0.1c0,0,0,0,0,0
	C23.6,29.9,23.6,29.9,23.7,29.8C23.6,29.8,23.6,29.8,23.7,29.8C23.6,29.8,23.7,29.8,23.7,29.8L23.7,29.8z M23.7,29.4
	C23.7,29.4,23.7,29.4,23.7,29.4c0,0.1,0,0.1,0,0.2c0,0,0,0,0,0.1c0,0,0,0-0.1,0C23.7,29.6,23.7,29.5,23.7,29.4
	C23.7,29.4,23.7,29.4,23.7,29.4L23.7,29.4z M23.7,28.9C23.7,28.8,23.7,28.8,23.7,28.9c0-0.1,0-0.1,0-0.1c0-0.1,0.1-0.1,0.2-0.1
	c0,0,0,0,0,0c0,0,0,0,0,0c0.1,0,0.1,0,0.1,0.1c0,0,0.1,0.1,0.1,0.1c0,0,0,0,0,0.1c0,0,0,0,0,0.1c0,0.1-0.1,0.2-0.1,0.3
	c0,0-0.1,0.1-0.1,0c0,0-0.1,0-0.1-0.1c0,0-0.1-0.1-0.1-0.1c0-0.1-0.1-0.1,0-0.2C23.7,28.9,23.7,28.9,23.7,28.9L23.7,28.9z
	 M24.1,29.5C24.2,29.4,24.2,29.4,24.1,29.5C24.2,29.4,24.2,29.4,24.1,29.5C24.2,29.4,24.2,29.4,24.1,29.5L24.1,29.5z M24.1,29.3
	C24.1,29.3,24.1,29.3,24.1,29.3C24.1,29.3,24.1,29.3,24.1,29.3C24.1,29.3,24.1,29.3,24.1,29.3c0,0.1,0,0.1,0,0.1
	c-0.1,0-0.2,0.1-0.3,0.1c0,0,0-0.1-0.1-0.2c0,0,0-0.1,0-0.1c0,0,0,0,0-0.1c0,0,0,0,0,0c0,0,0.1,0.1,0.1,0.1
	C24,29.4,24,29.4,24.1,29.3C24,29.4,24.1,29.4,24.1,29.3C24.1,29.4,24.1,29.4,24.1,29.3C24.1,29.3,24.1,29.3,24.1,29.3L24.1,29.3z
	 M24.3,29.5c0,0-0.1,0.1-0.1,0.1c-0.1,0.1-0.2,0.1-0.2,0.2c0,0,0,0-0.1,0c0,0-0.1,0,0,0.1c0,0,0,0,0.1,0c0.1-0.1,0.1-0.1,0.2-0.2
	c0,0,0,0,0,0v0C24.1,29.7,24.2,29.7,24.3,29.5C24.2,29.6,24.3,29.6,24.3,29.5C24.3,29.6,24.3,29.6,24.3,29.5L24.3,29.5
	C24.3,29.6,24.3,29.5,24.3,29.5c0.1,0,0.1,0,0.1,0c0,0,0.1,0,0.1,0c0,0-0.1,0-0.1,0c0,0-0.1,0-0.1,0.1c0,0,0,0,0,0
	c0,0-0.1,0.1-0.1,0.1c0,0,0,0.1-0.1,0.1c0,0.1-0.1,0.1-0.1,0.2c-0.1,0.1-0.2,0.2-0.2,0.3c0,0-0.1,0.1-0.1,0c0,0,0,0,0,0
	c0,0,0.1,0,0.1-0.1c0,0,0,0,0-0.1c0,0,0,0-0.1,0c0,0,0,0-0.1,0c-0.1,0-0.1,0-0.1-0.1c0,0,0-0.1,0-0.1c0,0,0-0.1,0.1-0.1
	c0.1,0,0.1-0.1,0.1-0.1c0,0,0,0,0,0c0,0,0.1,0,0.1-0.1c0.1-0.1,0.2-0.1,0.2-0.1v0C24.1,29.6,24.2,29.6,24.3,29.5L24.3,29.5
	C24.2,29.6,24.3,29.6,24.3,29.5L24.3,29.5z M24.3,30.5L24.3,30.5C24.3,30.5,24.3,30.5,24.3,30.5C24.3,30.5,24.3,30.5,24.3,30.5
	C24.3,30.5,24.3,30.5,24.3,30.5C24.3,30.5,24.3,30.5,24.3,30.5C24.3,30.5,24.3,30.5,24.3,30.5C24.3,30.5,24.3,30.6,24.3,30.5
	C24.3,30.6,24.3,30.6,24.3,30.5L24.3,30.5z M23.8,32.3c0,0,0,0.1-0.1,0.1c0,0,0,0.1-0.1,0.1c-0.1,0.1-0.1,0.1-0.2,0.2
	c0,0.1-0.1,0.1-0.1,0.2c0,0,0,0,0,0c0,0,0-0.1,0-0.1c0-0.1,0-0.2,0-0.3c0-0.1,0-0.1,0.1-0.2c0,0,0,0,0-0.1c0-0.1,0.1-0.2,0.1-0.2
	c0-0.1,0.1-0.1,0.1-0.2c0.1-0.1,0.2-0.2,0.2-0.4c0.1-0.1,0.1-0.2,0.1-0.3c0-0.1,0.1-0.1,0.1-0.2c0,0,0.1-0.1,0.1-0.1c0,0,0,0,0,0
	c0,0,0,0.1,0,0.1c0,0,0,0.1,0,0.1c-0.1,0.2-0.1,0.4-0.2,0.6c0,0,0,0.1,0,0.1c0,0,0,0.1,0,0.1c0,0,0,0,0,0c0,0,0,0,0,0
	c0,0,0,0.1,0,0.1c0,0,0,0,0,0.1c0,0,0,0.1-0.1,0.1C23.8,32.2,23.8,32.2,23.8,32.3c0-0.1,0-0.1,0-0.1c0,0,0,0,0-0.1
	c0.1-0.1,0.1-0.3,0.2-0.5c0.1-0.2,0.1-0.3,0.2-0.5c0,0,0-0.1,0-0.1c0,0,0,0,0,0c0,0.1,0,0.1,0,0.2c0,0,0,0.1,0,0.1
	c0,0.1,0,0.2-0.1,0.3C24.1,31.7,24,31.9,24,32c0,0,0,0.1-0.1,0.1C23.9,32.2,23.9,32.2,23.8,32.3L23.8,32.3z M23.4,33.1
	C23.5,33.1,23.5,33.1,23.4,33.1c0.1-0.1,0.1-0.1,0.1-0.2c0-0.1,0.1-0.1,0.1-0.2c0,0,0,0,0.1-0.1c0,0,0.1-0.1,0.1-0.1c0,0,0,0,0,0
	c0,0,0,0,0,0.1c0,0.1,0,0.2-0.1,0.3c0,0,0,0.1,0,0.1c0,0,0,0,0-0.1c0-0.1,0.1-0.1,0.1-0.2c0-0.1,0-0.1,0.1-0.2c0,0,0,0,0-0.1
	c0,0,0,0,0,0c0,0,0,0,0,0c0,0,0,0.1,0,0.1c0,0.1,0,0.1,0,0.2c0,0.1,0,0.2-0.1,0.2c0,0,0,0.1,0,0.1c0,0.1-0.1,0.2-0.1,0.3
	c0,0,0,0,0,0.1c0,0,0,0.1,0,0.1c0,0,0,0-0.1,0c-0.1,0-0.1,0-0.2-0.1c0,0,0-0.1,0-0.1C23.4,33.2,23.4,33.2,23.4,33.1L23.4,33.1z
	 M23.3,32.7c0,0.1,0,0.2,0,0.3c-0.1,0-0.1,0-0.2,0c0,0,0,0,0,0c0,0,0,0,0,0.1c0,0,0,0,0,0c0,0,0.1,0,0.1,0c0,0,0,0,0,0c0,0,0,0,0,0
	c0,0,0,0,0.1,0.1c0,0.1,0,0.1,0,0.2c0,0.1,0,0.1,0,0.2c0,0,0,0,0,0c0,0-0.1,0-0.1,0c0,0-0.1,0-0.1,0c-0.1-0.2-0.1-0.5-0.2-0.7
	c0,0,0.1,0,0.1,0C23.2,32.7,23.2,32.7,23.3,32.7C23.3,32.7,23.3,32.7,23.3,32.7L23.3,32.7z M23.7,30.6
	C23.7,30.6,23.7,30.6,23.7,30.6c0-0.1,0-0.1,0-0.1C23.7,30.5,23.7,30.6,23.7,30.6L23.7,30.6z M23.7,30.5
	C23.7,30.5,23.7,30.5,23.7,30.5C23.7,30.4,23.7,30.4,23.7,30.5C23.7,30.4,23.7,30.4,23.7,30.5C23.8,30.4,23.8,30.4,23.7,30.5
	c0.1-0.1,0.1-0.1,0.1-0.1C23.8,30.4,23.8,30.4,23.7,30.5L23.7,30.5z M23.8,30.6C23.8,30.6,23.8,30.5,23.8,30.6
	c0-0.1,0.1-0.1,0.1-0.1c0.1,0,0.1,0,0.1,0.1c0,0.1,0,0.1,0,0.1C24,30.7,23.9,30.7,23.8,30.6L23.8,30.6z M23.7,31.5
	C23.6,31.5,23.6,31.6,23.7,31.5c-0.1,0.1-0.1,0.2-0.1,0.3c-0.1,0.1-0.1,0.3-0.2,0.4c0,0,0,0,0,0c0,0,0,0,0-0.1c0-0.1,0-0.2,0-0.3
	c0,0,0-0.1,0-0.1c0,0,0-0.1,0-0.1c0,0,0,0,0-0.1c0,0,0,0,0-0.1c0,0,0,0,0,0c0-0.1,0.1-0.2,0.1-0.3c0-0.1,0.1-0.1,0.2-0.2
	c0.1-0.1,0.1-0.2,0.2-0.2c0.1,0,0.1-0.1,0.1-0.1c0,0,0,0,0,0c0,0,0,0,0,0.1c0,0-0.1,0.1-0.1,0.1c-0.1,0.1-0.1,0.2-0.2,0.3
	c0,0-0.1,0.1-0.1,0.1c-0.1,0.1-0.2,0.3-0.2,0.4c0,0-0.1,0.1-0.1,0.2c0,0,0,0,0,0c0.1-0.2,0.2-0.4,0.3-0.6c0.1-0.1,0.1-0.2,0.2-0.3
	c0.1-0.1,0.1-0.1,0.1-0.2c0,0,0-0.1,0-0.1c0,0,0,0,0,0.1c0,0,0,0,0,0c0,0,0,0.1-0.1,0.1c0,0.1-0.1,0.1-0.1,0.2
	c-0.1,0.1-0.1,0.2-0.2,0.4C23.8,31.5,23.8,31.5,23.7,31.5c0,0.2-0.1,0.4-0.2,0.5c0,0,0,0,0,0c0,0,0,0,0-0.1c0-0.1,0.1-0.2,0.1-0.3
	C23.6,31.7,23.6,31.7,23.7,31.5C23.7,31.6,23.7,31.6,23.7,31.5L23.7,31.5z M24.1,30.4C24.2,30.4,24.2,30.4,24.1,30.4L24.1,30.4
	C24.2,30.3,24.2,30.3,24.1,30.4C24.2,30.4,24.2,30.4,24.1,30.4C24.2,30.4,24.2,30.4,24.1,30.4C24.1,30.5,24.1,30.5,24.1,30.4
	c-0.1,0.1-0.2,0-0.3,0.1c0,0,0,0-0.1,0c0,0,0,0,0,0c0,0,0.1,0,0.1-0.1c0,0,0,0,0.1,0C24,30.4,24,30.4,24.1,30.4
	C24.1,30.4,24.1,30.4,24.1,30.4L24.1,30.4C24.1,30.4,24.1,30.4,24.1,30.4L24.1,30.4z M23.6,30.6c0,0,0-0.1,0-0.1c0,0,0,0,0,0
	C23.6,30.5,23.6,30.6,23.6,30.6L23.6,30.6z M23.4,30.6C23.4,30.6,23.4,30.6,23.4,30.6c0-0.1,0-0.1,0-0.1
	C23.5,30.5,23.5,30.5,23.4,30.6C23.5,30.6,23.5,30.6,23.4,30.6c0.1,0.1,0.1,0.1,0,0.2c0,0,0,0,0,0.1C23.4,30.8,23.4,30.7,23.4,30.6
	L23.4,30.6z M23.5,30.9C23.5,30.8,23.5,30.8,23.5,30.9c0.1-0.1,0.1-0.1,0.1-0.2c0,0,0,0,0-0.1c0.1,0,0.1,0,0.2,0c0,0,0,0,0.1,0
	c0,0,0,0,0.1,0c0,0,0.1,0,0.1,0c0,0-0.1,0.1-0.1,0.1c0,0-0.1,0.1-0.1,0.1c-0.1,0.1-0.1,0.1-0.2,0.2c-0.1,0.1-0.1,0.1-0.1,0.2
	c0,0.1-0.1,0.1-0.1,0.2c0,0,0,0,0,0c0-0.1,0-0.2,0-0.3c0,0,0-0.1,0-0.1C23.4,31,23.4,30.9,23.5,30.9L23.5,30.9z M23.3,32
	c0,0.1,0,0.2,0,0.3c0,0,0,0.1,0,0.1c0,0,0,0.1,0,0.1c0,0,0,0,0,0C23.2,32.2,23.2,32.1,23.3,32C23.3,31.9,23.3,31.9,23.3,32
	C23.3,31.9,23.3,31.9,23.3,32L23.3,32z M23.3,31.9C23.3,31.9,23.3,31.9,23.3,31.9c0-0.2-0.1-0.4,0-0.6c0,0,0-0.1,0-0.1
	c0,0,0-0.1,0-0.1c0-0.1,0-0.2,0-0.3c0,0,0,0,0.1,0c0,0,0,0,0,0c0,0,0,0.1,0,0.2c0,0.1,0,0.1,0,0.2c0,0,0,0,0,0.1c0,0,0,0,0,0.1
	c0,0,0,0.1,0,0.1c0,0,0,0,0,0c0,0,0,0,0,0C23.3,31.4,23.3,31.6,23.3,31.9L23.3,31.9z M24.5,29.6C24.5,29.6,24.5,29.6,24.5,29.6
	c0,0.1,0,0.2,0.1,0.2c0,0,0,0.1,0,0.1c0,0,0,0.1,0,0.1c0,0,0,0,0,0c-0.1,0-0.2,0-0.2,0c0,0,0,0,0,0c0,0,0,0,0,0c0,0,0,0,0,0
	c0,0,0,0,0,0c0,0,0-0.1,0,0c0,0,0,0,0,0c0,0.1,0,0.1,0,0.1c0,0,0,0.1,0,0.2c0,0,0,0,0,0c0,0,0,0,0,0c0,0,0,0-0.1,0c0,0,0,0-0.1,0
	c0,0-0.1,0-0.1,0c0,0,0,0-0.1,0c-0.1,0-0.1,0-0.1,0c0-0.1,0.1-0.1,0.1-0.2c0-0.1,0.1-0.1,0.1-0.2v0c0,0,0-0.1,0.1-0.1
	c0,0,0.1-0.1,0.1-0.1c0,0,0,0,0,0c0,0.1,0,0.1-0.1,0.1c0,0,0,0,0,0c0,0,0,0,0,0v0c0,0,0,0,0.1,0c0,0,0-0.1,0.1-0.1
	C24.3,29.7,24.4,29.6,24.5,29.6C24.5,29.6,24.5,29.6,24.5,29.6L24.5,29.6z M24.7,30.1C24.6,30.2,24.6,30.2,24.7,30.1
	C24.6,30.1,24.6,30.1,24.7,30.1C24.6,30.1,24.6,30.1,24.7,30.1C24.6,30.1,24.6,30.1,24.7,30.1L24.7,30.1z M24.7,30.2
	C24.7,30.2,24.7,30.2,24.7,30.2C24.7,30.2,24.6,30.2,24.7,30.2c-0.1,0.1-0.2,0.1-0.3,0.1c0,0,0,0,0,0c0,0,0,0,0,0c0,0,0,0,0,0
	C24.5,30.2,24.5,30.2,24.7,30.2C24.6,30.2,24.6,30.2,24.7,30.2L24.7,30.2L24.7,30.2z M24.7,30.7c0,0.1,0.1,0.3,0.1,0.4
	c0,0,0,0.1,0,0.1c0,0-0.1,0-0.1,0c0,0,0,0,0,0c0,0,0,0,0-0.1c0-0.1-0.1-0.4-0.2-0.5c0,0,0-0.1,0-0.1c0,0,0-0.1,0-0.1
	c0.1,0,0.1,0,0.2,0c0,0,0,0,0,0.1c0,0,0,0,0,0.1l0,0.1C24.7,30.6,24.7,30.6,24.7,30.7C24.7,30.6,24.7,30.7,24.7,30.7L24.7,30.7z
	 M24.9,31.2L24.9,31.2C24.9,31.2,24.9,31.2,24.9,31.2c0,0.1-0.1,0.1-0.2,0.1c0,0-0.1,0,0,0C24.7,31.3,24.8,31.2,24.9,31.2L24.9,31.2
	z M24.9,31.2C24.9,31.2,24.9,31.2,24.9,31.2C24.9,31.3,24.9,31.3,24.9,31.2C24.8,31.3,24.8,31.3,24.9,31.2
	C24.8,31.3,24.8,31.3,24.9,31.2C24.8,31.3,24.8,31.3,24.9,31.2c-0.1,0.1-0.1,0.1-0.1,0.1c0,0,0,0,0,0c0,0,0,0,0,0c0,0,0,0,0,0
	c0,0,0,0,0.1,0C24.7,31.3,24.8,31.3,24.9,31.2C24.8,31.3,24.9,31.2,24.9,31.2L24.9,31.2z M24.9,31.3c0.1,0,0.2,0.1,0.2,0.1
	c0,0,0.1,0,0.1,0.1c0,0,0,0,0,0c0,0,0,0,0,0c0,0,0,0,0,0c0,0,0,0,0,0c-0.1,0-0.1-0.1-0.2-0.1c0,0,0,0,0,0c0.1,0,0.2,0.1,0.2,0.1
	c0,0,0,0,0,0c0,0,0,0,0,0c-0.1-0.1-0.2-0.1-0.3-0.1c0,0,0,0,0,0c0.1,0,0.1,0,0.2,0.1c0,0,0,0,0,0c0,0,0,0,0,0c0,0-0.1,0-0.1,0
	c0,0,0,0-0.1,0c0,0-0.1,0-0.1,0c0,0-0.1,0-0.1,0c0,0,0,0-0.1,0c0,0,0,0,0,0c0,0,0,0,0,0c0,0,0.1,0,0.1,0c0,0,0.1,0,0.1,0
	c0,0-0.1,0-0.1,0c-0.1,0-0.1,0-0.2,0c0,0-0.1,0-0.1,0c0,0,0,0,0,0c0,0,0,0,0,0c0,0,0,0,0,0c0,0,0,0,0,0c0,0,0,0,0,0
	C24.8,31.3,24.8,31.4,24.9,31.3C24.8,31.3,24.8,31.3,24.9,31.3C24.9,31.3,24.9,31.3,24.9,31.3L24.9,31.3z M25.3,31.4
	C25.3,31.4,25.3,31.4,25.3,31.4C25.3,31.4,25.4,31.4,25.3,31.4c0.1,0,0.1,0.1,0.2,0.1c0,0,0,0,0,0.1c0,0-0.1,0-0.1,0c0,0,0,0,0,0
	c0,0,0,0,0,0c0,0,0,0,0,0c0,0,0,0,0,0c0,0,0.1,0,0.1-0.1c0,0,0,0,0,0c0,0,0,0,0,0C25.4,31.5,25.3,31.5,25.3,31.4
	C25.3,31.4,25.3,31.4,25.3,31.4C25.3,31.4,25.3,31.4,25.3,31.4C25.3,31.4,25.3,31.4,25.3,31.4L25.3,31.4z M25.4,31.4
	C25.5,31.4,25.5,31.5,25.4,31.4c0.1,0,0.1,0,0.1,0c0,0,0,0,0,0c0,0,0,0,0,0c0,0,0,0,0,0c0,0,0,0-0.1,0.1c0,0-0.1,0-0.1,0
	c0,0,0,0-0.1,0c0,0,0,0-0.1,0c0,0,0,0,0.1,0C25.4,31.6,25.5,31.6,25.4,31.4C25.5,31.5,25.4,31.5,25.4,31.4
	C25.4,31.4,25.4,31.4,25.4,31.4L25.4,31.4z M25.7,31.6C25.7,31.6,25.7,31.6,25.7,31.6c0.1,0.1,0.1,0.2,0.2,0.3c0,0,0,0,0,0.1
	c0,0.1,0,0.1,0,0.2c0,0.1,0,0.2,0,0.2c0,0.1,0,0.2,0,0.4c0,0,0,0,0,0.1c0,0,0,0,0,0c0,0,0-0.1,0-0.1c0,0,0-0.1,0-0.1
	c0-0.1,0-0.1,0-0.2c0,0,0,0,0,0c0,0,0,0,0,0c0-0.1,0-0.1,0-0.2c0,0,0-0.1,0-0.1c0-0.1,0-0.2-0.1-0.2c0,0,0,0,0.1-0.1
	C25.7,31.7,25.7,31.7,25.7,31.6C25.7,31.6,25.7,31.6,25.7,31.6C25.7,31.6,25.6,31.6,25.7,31.6C25.6,31.6,25.6,31.6,25.7,31.6
	c-0.1,0.1-0.1,0.1-0.1,0.1C25.6,31.6,25.6,31.6,25.7,31.6L25.7,31.6z M25.4,33.2c0,0,0-0.1,0-0.1c0,0,0-0.1,0-0.1c0,0,0-0.1,0.1-0.1
	c0,0,0-0.1,0-0.1c0,0,0,0,0-0.1c0,0,0,0,0-0.1c0,0,0,0,0-0.1c0,0,0,0,0,0c0,0,0,0,0,0c0,0,0,0,0-0.1c0,0,0,0,0,0c0,0,0,0,0,0
	c0,0.1,0,0.1,0,0.2c0,0,0,0,0,0c0,0,0,0,0,0c0,0,0,0,0,0.1c0,0,0,0,0,0.1c0,0,0,0,0,0c0,0,0,0.1,0,0.1c0,0,0,0,0,0.1
	c0,0,0,0.1,0,0.1c0,0,0,0,0,0.1c0,0,0,0.1,0,0.1c0,0,0,0,0,0c0,0,0,0,0,0c0,0,0,0,0,0c0-0.1,0.1-0.1,0-0.2c0,0,0,0.1,0,0.1
	C25.5,33.1,25.5,33.1,25.4,33.2C25.5,33.1,25.5,33.2,25.4,33.2C25.5,33.2,25.5,33.2,25.4,33.2C25.5,33.3,25.4,33.3,25.4,33.2
	C25.4,33.3,25.4,33.3,25.4,33.2L25.4,33.2z M25.1,32.8C25.1,32.9,25.1,32.9,25.1,32.8C25.1,32.8,25.1,32.8,25.1,32.8
	c0-0.1-0.1-0.2-0.1-0.2c0,0,0,0,0,0c0,0,0,0,0,0c0,0,0,0,0,0c0,0,0,0,0,0C25.1,32.7,25.1,32.8,25.1,32.8
	C25.1,32.8,25.1,32.8,25.1,32.8L25.1,32.8z M25,33.1c0,0,0-0.1,0-0.1c0,0,0-0.1,0-0.1c0-0.1-0.1-0.1-0.1-0.2c0,0,0,0,0,0
	c0,0,0,0,0,0c0-0.1-0.1-0.1,0-0.2c0,0,0,0,0,0c0,0,0,0,0,0.1c0,0,0,0,0,0.1c0,0,0,0.1,0,0.1c0,0.1,0,0.1,0,0.2c0,0,0,0.1,0.1,0.1
	c0,0,0,0,0,0c0,0.1,0,0.1,0,0.2c0,0,0,0,0,0c0,0,0,0,0,0c0,0,0,0,0-0.1c0,0,0,0,0,0C25,33.1,25,33.1,25,33.1L25,33.1z M25,33.1
	C25,33.1,25,33.1,25,33.1c0,0,0,0.1,0,0.1c0,0,0,0-0.1,0C25,33.2,25,33.2,25,33.1L25,33.1z M24.9,33c0,0,0-0.1,0-0.2
	c0,0,0-0.1,0-0.1c0,0-0.1-0.1-0.1-0.1c0-0.1,0-0.1,0.1-0.2c0,0,0-0.1,0-0.1c0,0,0,0,0,0c0,0,0,0,0,0c0,0,0,0,0,0.1c0,0,0,0,0,0
	c0,0,0,0,0,0.1c0,0,0,0.1,0,0.1c0,0,0,0,0,0c0,0,0,0.1,0,0.1c0,0,0,0,0,0.1C25,32.8,25,32.9,24.9,33C25,33,24.9,33,24.9,33
	C24.9,33,24.9,33,24.9,33L24.9,33z M24.7,32.9C24.7,32.9,24.7,32.9,24.7,32.9C24.7,32.8,24.7,32.8,24.7,32.9c0-0.1,0-0.1,0-0.1
	c0-0.1,0-0.1-0.1-0.1c0-0.1-0.1-0.1-0.1-0.2c0,0,0,0,0,0c0,0,0,0.1,0.1,0.1c0,0.1,0,0.1,0,0.2c0,0,0,0,0,0.1c0,0,0,0,0,0.1
	C24.8,32.8,24.8,32.8,24.7,32.9c0,0,0,0.1,0,0.1c0,0,0.1,0,0,0.1c0,0,0,0,0,0.1c0,0,0,0-0.1-0.1C24.7,33.1,24.7,33,24.7,32.9
	C24.7,33,24.7,33,24.7,32.9L24.7,32.9z M24.8,31.6C24.8,31.6,24.8,31.6,24.8,31.6c0,0.1,0,0.1,0,0.1c0,0-0.1,0-0.1,0.1
	c0,0,0,0,0,0.1c0,0,0,0,0,0c0,0,0,0.1,0,0.1c0,0,0,0.1-0.1,0.1c0,0,0,0,0,0c0,0,0,0.1,0,0.1c0,0,0,0,0,0c0,0,0,0,0,0c0,0,0,0,0,0
	c0,0,0,0.1,0,0.1c0,0,0,0,0,0.1c0,0.1,0,0.1,0.1,0.2c0,0,0,0,0,0c0,0-0.1,0-0.1-0.1c0,0,0-0.1,0-0.1c0-0.1,0-0.1,0-0.2
	c0,0,0-0.1,0-0.1c0,0,0-0.1,0-0.1c0-0.1,0-0.2,0-0.2c0-0.1,0-0.1,0.1-0.1C24.7,31.7,24.7,31.6,24.8,31.6
	C24.8,31.6,24.8,31.6,24.8,31.6C24.8,31.6,24.8,31.6,24.8,31.6L24.8,31.6z M24.8,31.8C24.8,31.8,24.8,31.8,24.8,31.8
	C24.9,31.8,24.9,31.8,24.8,31.8c0,0,0,0.1,0,0.1C24.8,31.9,24.8,31.9,24.8,31.8C24.8,31.9,24.8,31.8,24.8,31.8L24.8,31.8z
	 M24.7,32.1C24.7,32.1,24.7,32.1,24.7,32.1c0-0.1,0.1-0.1,0.1-0.2v0c0,0,0,0,0,0c0,0.1,0,0.2,0,0.3c0,0,0,0.1,0,0.1c0,0,0,0,0,0.1
	c0,0,0,0-0.1-0.1c0,0,0,0,0,0C24.6,32.3,24.6,32.2,24.7,32.1L24.7,32.1z M24.7,31.8C24.7,31.8,24.7,31.8,24.7,31.8c0,0,0,0.1,0,0.1
	c0,0,0,0,0,0C24.7,31.9,24.7,31.8,24.7,31.8L24.7,31.8z M24.6,32.1L24.6,32.1c0-0.1,0.1-0.1,0.1-0.2c0,0,0,0,0,0
	c0,0.1-0.1,0.2-0.1,0.3C24.6,32.2,24.6,32.1,24.6,32.1C24.6,32.1,24.6,32.1,24.6,32.1C24.6,32.1,24.6,32.1,24.6,32.1
	C24.6,32.1,24.6,32.1,24.6,32.1L24.6,32.1z M24.8,32c0,0,0,0.1,0,0.1c0,0,0,0.1,0,0.1c0,0,0,0,0,0c0,0,0,0,0,0c0,0,0,0.1,0,0.1
	c0,0,0-0.1,0-0.2C24.7,32.1,24.8,32.1,24.8,32c0,0,0-0.1,0-0.2c0,0,0-0.1,0.1-0.1c0,0,0,0,0,0c0,0,0,0,0,0c0.1,0,0.1-0.1,0.2,0
	c0,0-0.1,0-0.1,0c-0.1,0-0.1,0.1-0.2,0.1c0,0,0,0,0,0c0,0,0,0.1,0,0.1C24.8,31.9,24.8,32,24.8,32L24.8,32z M25.5,31.9
	c0,0.1,0,0.2,0,0.2c0,0,0,0.1-0.1,0.1c0,0,0,0,0,0.1c0,0-0.1,0-0.1,0c0,0,0,0,0.1,0.1c0,0,0,0,0,0c0,0,0,0-0.1,0c0,0,0,0,0,0
	c0,0,0,0.1,0.1,0.1c0,0,0,0,0,0c0,0,0-0.1-0.1-0.1c0,0,0,0,0,0.1c-0.1,0-0.1-0.1-0.1-0.1c0,0,0.1,0,0.1-0.1c0,0,0,0,0,0c0,0,0,0,0,0
	c0,0,0,0,0,0.1c0,0,0,0,0,0c0,0-0.1,0-0.1,0c0,0,0,0,0,0c0,0,0,0,0,0c0,0,0,0,0,0c0,0,0,0,0,0.1c0,0,0,0,0,0c0,0,0.1,0,0.1,0
	c0,0,0,0,0,0c0,0,0,0.1-0.1,0.1c0,0,0-0.1,0-0.1c0,0,0,0,0,0c0,0,0,0-0.1,0c0,0,0.1,0,0.1-0.1c0,0,0,0-0.1,0c0,0,0,0,0,0
	c0,0,0.1,0,0.1-0.1c0,0-0.1,0-0.1,0c0,0,0,0,0,0c-0.1-0.1-0.1-0.2-0.1-0.3c0-0.1,0-0.1,0-0.2c0,0,0,0,0-0.1c0,0,0,0,0,0
	c0,0,0.1,0,0.1,0c0,0,0.1,0,0.1,0c0,0,0.1,0,0.1,0c0.1,0,0.1,0,0.1,0c0,0,0,0,0,0C25.5,31.8,25.5,31.9,25.5,31.9L25.5,31.9z
	 M25.5,32.6C25.5,32.6,25.5,32.6,25.5,32.6c0,0.1,0,0.1,0,0.1c0-0.1-0.1-0.1-0.1-0.2c0,0,0,0,0-0.1c0,0,0-0.1,0-0.2c0,0,0,0,0,0
	c0,0,0-0.1,0-0.1c0,0,0,0,0,0c0,0,0,0.1,0,0.1c0,0,0,0.1,0,0.1C25.5,32.5,25.5,32.5,25.5,32.6C25.5,32.6,25.5,32.6,25.5,32.6
	L25.5,32.6z M25.5,31.8C25.5,31.8,25.5,31.8,25.5,31.8C25.5,31.8,25.5,31.8,25.5,31.8c0,0,0.1,0.1,0.1,0.1c0,0,0,0.1,0,0.1
	c0,0,0,0.1,0,0.1c0,0,0,0,0,0c0,0,0,0,0,0.1c0,0,0,0,0-0.1c0,0,0,0,0-0.1c0,0,0,0,0-0.1C25.6,32,25.6,31.9,25.5,31.8L25.5,31.8z
	 M25.7,32.3C25.7,32.4,25.7,32.4,25.7,32.3c0,0.1-0.1,0.1-0.1,0.1c0,0,0,0.1,0,0.1c0,0,0,0,0,0c0,0,0,0,0,0
	C25.6,32.5,25.7,32.4,25.7,32.3c-0.1,0-0.1,0-0.1,0c0,0,0-0.1,0-0.1c0,0,0,0,0-0.1c0,0,0,0,0,0c0,0,0-0.1,0-0.1c0-0.1,0-0.1,0-0.1
	c0,0,0,0,0,0c0,0,0,0.1,0.1,0.1c0,0,0,0.1,0,0.1c0,0,0,0.1,0,0.2C25.7,32.3,25.7,32.3,25.7,32.3L25.7,32.3z M25.6,31.7
	C25.6,31.7,25.6,31.6,25.6,31.7C25.7,31.6,25.7,31.6,25.6,31.7c0.1,0.1,0,0.2,0,0.2c0,0-0.1,0-0.1,0c0,0,0,0,0,0
	C25.6,31.8,25.6,31.8,25.6,31.7C25.7,31.7,25.7,31.7,25.6,31.7L25.6,31.7z M25.6,31.7C25.6,31.7,25.6,31.7,25.6,31.7
	C25.6,31.7,25.6,31.7,25.6,31.7C25.6,31.7,25.6,31.7,25.6,31.7c-0.1,0.1-0.1,0.1-0.1,0.1C25.5,31.7,25.6,31.7,25.6,31.7L25.6,31.7z
	 M25.2,31.6C25.2,31.5,25.2,31.5,25.2,31.6C25.2,31.5,25.2,31.6,25.2,31.6L25.2,31.6z M25.2,31.6C25.2,31.6,25.2,31.6,25.2,31.6
	C25.3,31.6,25.2,31.6,25.2,31.6C25.2,31.6,25.2,31.6,25.2,31.6c-0.1,0-0.1,0-0.1,0c-0.1,0-0.1,0-0.2,0c0,0-0.1,0-0.1,0.1
	c0-0.1,0.1-0.1,0.2-0.1c0,0,0.1,0,0.1,0C25.1,31.6,25.2,31.6,25.2,31.6L25.2,31.6z M24.4,30.3C24.4,30.3,24.5,30.3,24.4,30.3
	c0.1,0,0.1,0,0.2,0c0,0,0,0,0,0v0C24.6,30.3,24.6,30.3,24.4,30.3C24.5,30.3,24.5,30.4,24.4,30.3C24.4,30.4,24.4,30.4,24.4,30.3
	L24.4,30.3z M24.3,30.5C24.3,30.4,24.3,30.4,24.3,30.5C24.3,30.4,24.3,30.4,24.3,30.5C24.4,30.4,24.4,30.4,24.3,30.5
	C24.4,30.4,24.4,30.5,24.3,30.5C24.4,30.5,24.4,30.5,24.3,30.5c0.1,0.1,0.1,0.2,0.1,0.2c0,0,0,0.2,0.1,0.2c0,0.1,0.1,0.2,0.2,0.4
	c0,0,0,0,0,0c0,0,0,0,0,0c0,0,0,0,0,0c0,0,0.1,0,0.1,0c0,0,0,0,0,0.1c0,0,0,0,0,0.1c0,0,0,0,0,0c0,0,0,0-0.1,0.1
	c0,0.1-0.1,0.1-0.1,0.2c0,0,0,0,0,0c0-0.5,0-0.9-0.2-1.2c0,0,0,0,0,0h0L24.3,30.5C24.3,30.5,24.3,30.5,24.3,30.5L24.3,30.5z
	 M24.4,32.5C24.4,32.5,24.4,32.5,24.4,32.5c0-0.1,0-0.1,0-0.1c0,0,0,0,0,0c0,0,0,0,0,0C24.5,32.4,24.5,32.4,24.4,32.5
	C24.5,32.5,24.4,32.5,24.4,32.5L24.4,32.5z M24.5,32.4C24.5,32.4,24.5,32.4,24.5,32.4L24.5,32.4c0,0.1,0,0.2,0.1,0.3
	c0,0,0.1,0.1,0.1,0.1c0,0,0,0,0,0.1c0,0,0,0,0,0.1c0,0,0,0,0,0.1c0,0,0,0,0,0c0,0,0,0,0-0.1c0,0-0.1,0-0.1-0.1c0,0-0.1-0.1-0.1-0.2
	C24.5,32.5,24.5,32.5,24.5,32.4L24.5,32.4z M24.8,33C24.8,33,24.9,33.1,24.8,33C24.8,33.1,24.8,33,24.8,33c0,0-0.1-0.1,0-0.1
	c0-0.1,0-0.1,0-0.2c0,0,0,0,0-0.1c0,0,0-0.1,0-0.1c0,0,0-0.1,0-0.1c0-0.1,0-0.1,0-0.1c0,0,0-0.1,0-0.1c0,0,0,0,0,0c0,0,0,0.1,0,0.1
	c0,0,0,0.1,0,0.1c0,0,0,0.1,0,0.2c0,0,0,0,0,0.1c0,0,0.1,0.1,0.1,0.1c0,0,0,0,0,0.1C24.9,32.9,24.9,32.9,24.8,33
	C24.9,33,24.9,33,24.8,33c0.1,0.1,0.1,0.2,0.1,0.2c0,0,0,0,0,0C24.9,33.2,24.9,33.1,24.8,33L24.8,33z M25.3,32.9
	C25.3,32.9,25.3,32.9,25.3,32.9C25.3,32.8,25.3,32.8,25.3,32.9c0-0.1,0-0.1,0-0.2c0,0,0,0,0-0.1c0,0,0,0,0-0.1c0,0,0-0.1,0-0.1
	c0,0,0,0,0,0.1c0,0,0,0,0,0c0,0,0,0,0,0.1c0,0,0,0.1,0,0.1C25.3,32.8,25.3,32.8,25.3,32.9C25.3,32.9,25.3,32.9,25.3,32.9
	C25.3,32.9,25.3,33,25.3,32.9c0,0.2,0,0.2-0.1,0.3c0,0,0,0-0.1,0c0,0,0,0.1-0.1,0c0,0,0,0,0,0c0,0,0.1,0,0.1-0.1
	C25.2,33.1,25.2,33,25.3,32.9C25.2,32.9,25.2,32.9,25.3,32.9C25.2,32.9,25.2,32.8,25.3,32.9c-0.1-0.1-0.1-0.2-0.1-0.2c0,0,0,0,0-0.1
	c0,0,0,0,0,0c0,0-0.1,0-0.1,0c0,0,0,0,0,0c0,0,0,0,0,0c0,0,0,0,0,0.1c0,0,0,0,0,0.1c0,0.1,0,0.1,0,0.2c0,0,0,0,0,0c0,0,0,0,0,0
	c0,0,0,0,0,0c0,0,0,0,0,0c0,0,0,0,0-0.1c0,0,0,0,0,0c0,0,0-0.1,0-0.1c0,0,0,0,0,0c0,0-0.1,0-0.1,0c0,0,0-0.1,0-0.1c0,0,0,0,0.1,0
	c0,0,0,0,0,0c0,0,0,0,0.1,0c0,0,0,0,0,0c0,0,0,0,0.1,0c0,0,0,0,0,0c0,0,0,0,0.1,0c0,0,0.1-0.1,0.1-0.1c0,0.1,0,0.1,0,0.2
	c0,0.1,0,0.1,0.1,0.1c0,0,0,0,0,0c0,0.1,0,0.1-0.1,0.2C25.4,32.9,25.4,32.9,25.3,32.9c0.1-0.1,0.1-0.1,0.1-0.1c0-0.1,0-0.1,0-0.1
	c0,0,0,0,0-0.1c0,0,0,0,0,0c0,0,0,0,0,0c0,0,0,0,0,0c0,0,0,0.1,0.1,0.1c0,0,0,0,0,0c0,0,0,0,0,0.1C25.4,32.8,25.3,32.8,25.3,32.9
	C25.3,32.8,25.3,32.9,25.3,32.9C25.4,32.9,25.4,32.9,25.3,32.9c0.1,0.1,0.1,0.1,0.1,0.1c0,0,0,0,0,0.1c0,0,0,0.1,0,0.1
	c0,0,0,0,0,0.1c0,0,0,0,0,0c0,0,0,0-0.1,0c0,0,0,0,0,0c0,0,0,0-0.1,0c0-0.1,0.1-0.1,0.1-0.1c0,0,0.1-0.1,0-0.2
	C25.3,33,25.3,32.9,25.3,32.9L25.3,32.9z M25.8,33C25.8,33,25.8,33,25.8,33c0,0.1,0,0.1-0.1,0.1c0,0-0.1,0.1-0.2,0.1c0,0,0,0,0,0
	c0,0,0,0-0.1,0c0,0,0,0,0,0c0,0,0,0,0,0c0,0,0,0,0,0c0,0,0,0,0,0c0,0,0.1-0.1,0.1-0.1c0,0,0,0,0-0.1c0,0,0,0,0,0c0,0,0,0,0,0
	c0,0,0,0,0,0C25.7,33,25.7,33,25.8,33c-0.1-0.1-0.1-0.2-0.1-0.2c0,0,0,0.1,0,0.1c0,0.1,0,0.1-0.1,0.1c0,0,0,0,0-0.1c0,0,0,0,0-0.1
	c0,0,0-0.1,0-0.1c0,0,0,0,0-0.1c0,0,0,0,0-0.1c0,0,0,0,0,0c0,0,0,0,0-0.1c0,0,0,0,0,0c0,0,0-0.1,0-0.1c0,0,0,0,0,0c0,0,0,0,0,0
	c0,0,0,0.1,0,0.1c0,0,0,0.1,0,0.1c0,0,0,0.1,0,0.1C25.8,32.8,25.8,32.9,25.8,33C25.8,33,25.8,33,25.8,33L25.8,33z M22.2,29.2
	C22.2,29.2,22.2,29.2,22.2,29.2C22.2,29.2,22.2,29.2,22.2,29.2C22.2,29.2,22.2,29.2,22.2,29.2L22.2,29.2z M22.2,29.5
	c0,0,0-0.1,0-0.1C22.1,29.4,22.1,29.4,22.2,29.5C22.2,29.5,22.2,29.5,22.2,29.5C22.2,29.5,22.2,29.5,22.2,29.5L22.2,29.5z
	 M22.1,29.2C22.1,29.2,22.1,29.2,22.1,29.2C22.1,29.2,22.1,29.2,22.1,29.2C22.1,29.3,22.1,29.3,22.1,29.2
	C22.1,29.3,22.1,29.3,22.1,29.2C22.1,29.3,22.1,29.2,22.1,29.2L22.1,29.2z M22.1,29.1c0,0-0.1-0.1-0.1-0.1c0,0,0-0.1,0-0.1
	c0,0,0,0,0,0c0,0,0,0.1,0,0.1C22,29,22.1,29.1,22.1,29.1C22.1,29.1,22.1,29.1,22.1,29.1L22.1,29.1z M22,29.3
	C22,29.3,22,29.3,22,29.3c-0.1,0-0.1,0-0.1,0c0-0.1,0-0.2,0-0.2c0,0,0,0.1,0,0.1c0,0,0,0.1,0,0.1C21.9,29.3,22,29.3,22,29.3
	C22,29.3,22,29.3,22,29.3C22,29.3,22.1,29.3,22,29.3C22.1,29.3,22.1,29.3,22,29.3L22,29.3z M26.5,33.4
	C26.5,33.4,26.5,33.4,26.5,33.4c-0.1,0-0.1,0-0.1,0c0,0-0.1,0-0.1,0c0,0-0.1,0-0.1,0c0,0,0,0-0.1,0c-0.1,0-0.2-0.1-0.3-0.1
	c0,0,0-0.1,0.1-0.1c0,0,0-0.1,0-0.1c0,0,0-0.1,0-0.1c0-0.1,0-0.1,0-0.2c0-0.2,0-0.4,0-0.5c0-0.1,0-0.2,0-0.2c0-0.1,0-0.1-0.1-0.2
	c0,0,0,0,0-0.1c0,0,0,0,0,0c0,0,0,0,0,0c0,0,0,0-0.1,0c0,0,0,0,0,0c0,0,0,0,0,0c0,0,0,0,0,0c0,0,0,0,0,0c0,0-0.1,0-0.1,0
	c0,0,0,0,0,0c-0.1,0-0.2,0-0.2,0c-0.1,0-0.1-0.1-0.2-0.1c0,0,0,0,0-0.1c0,0,0-0.1,0-0.1c0,0,0,0,0,0c0-0.1-0.1-0.2-0.1-0.4
	c0-0.1,0-0.1-0.1-0.2c0,0,0-0.1,0-0.1c0,0,0-0.1,0-0.1c0-0.1,0-0.1,0-0.1c0,0,0.1,0,0.1-0.1c0,0,0,0,0,0c0,0,0,0,0-0.1
	c0-0.1,0-0.2-0.1-0.2c0-0.1,0-0.2-0.1-0.2c0,0,0,0,0-0.1c0,0,0,0,0,0c0-0.1,0-0.1-0.1-0.1c0,0,0,0,0,0c0,0,0,0,0,0c0,0,0,0,0-0.1
	c0,0,0,0,0,0c0,0,0,0,0,0c0,0,0,0,0,0c0,0,0-0.1,0-0.1c0,0,0,0,0-0.1c0,0,0-0.1,0-0.1c0,0,0-0.1,0-0.1c0,0,0-0.1,0-0.1c0,0,0,0,0,0
	c0,0,0,0,0,0c0,0,0,0,0,0c0,0,0,0,0,0c0-0.1,0-0.1-0.1-0.2c-0.1-0.1-0.2-0.1-0.2-0.1h0c-0.1,0-0.2,0-0.2,0.1c0,0-0.1,0.1-0.1,0.1
	c0,0,0,0,0,0c0,0,0,0.1,0,0.1c0,0,0,0.1,0,0.1c0,0,0,0,0,0c0,0,0,0,0,0c0,0,0,0,0,0c0,0,0,0,0,0.1c0,0,0,0.1,0,0.1c0,0,0,0.1,0,0.1
	c0,0,0,0,0,0c0,0,0,0,0,0c0,0,0,0,0,0c0,0,0,0,0,0.1c0,0,0,0,0,0.1c0,0,0,0,0,0c0,0,0,0,0,0c0,0,0,0,0,0c0,0,0,0,0,0
	c0,0,0,0.1-0.1,0.1c0,0.2-0.1,0.4-0.1,0.6c0,0,0,0.1,0,0.1c-0.1,0-0.2,0-0.3-0.1c0,0,0,0,0,0c0,0,0,0-0.1,0c0,0-0.1,0-0.1,0
	c0,0,0,0,0,0c0-0.1,0-0.1-0.1-0.1c0,0,0,0-0.1,0c0,0-0.1,0-0.1,0c0,0-0.1,0-0.1-0.1c0,0,0,0,0,0c0-0.1-0.1-0.2-0.1-0.4
	c0,0,0,0,0-0.1c0,0,0,0,0,0c0,0,0,0,0,0c0-0.1,0-0.1,0-0.1c0.1,0,0.1,0,0.1-0.1c0,0,0-0.1,0-0.1c0-0.1-0.1-0.2-0.1-0.4
	c0,0,0-0.1,0-0.1c0,0,0,0,0,0c0,0.1,0,0.2,0,0.3c0,0,0,0.1,0,0.1c0,0,0,0-0.1,0c0,0,0-0.1,0-0.2c0,0,0,0,0-0.1c0,0,0,0,0,0
	c0,0,0,0,0,0c0-0.1-0.1-0.1-0.1-0.2c0,0,0,0,0-0.1c0,0,0,0,0,0c0,0,0,0.1,0,0.1c0,0,0,0.1,0,0.1c0,0,0,0,0,0c0,0,0,0,0,0
	c0,0,0,0,0,0c0,0,0.1,0.1,0.1,0.1c0,0,0,0,0,0c-0.1,0-0.1,0-0.1-0.1c0-0.1,0-0.1,0-0.2c0-0.1,0-0.1-0.1-0.2c0,0,0,0,0,0c0,0,0,0,0,0
	c0,0.1,0,0.3,0,0.4c0,0.1,0,0.1,0.1,0.1c0,0,0.1,0,0.2,0c0,0,0,0.1,0,0.2c0,0,0,0,0,0c0,0,0,0,0,0c0,0,0,0,0,0.1
	c0,0.1,0.1,0.3,0.1,0.4c0,0,0,0,0,0c0,0,0,0,0,0.1c0,0,0,0,0,0c0,0,0,0,0,0c0,0,0,0.1,0,0.1c0,0,0,0.1,0,0.1c0,0,0,0,0,0
	c0,0,0,0,0,0.1c0,0,0,0.1,0,0.1c0,0.1,0.1,0.3,0.1,0.4c0.1,0.5,0.2,0.9,0.3,1.4c0,0.1,0.1,0.2,0.1,0.3c0,0,0,0-0.1,0
	c0,0-0.1,0-0.1,0c-0.1,0-0.1,0.1-0.2,0.1c0,0,0,0,0,0c-0.1,0.1-0.2,0.2-0.3,0.4c0,0,0,0,0,0.1c0,0,0,0,0,0c0,0,0,0,0,0
	c0,0.1,0,0.1-0.1,0.2c0,0.1,0,0.2,0,0.2c0,0-0.1,0-0.1,0c0,0,0,0,0,0.1c0,0,0,0-0.1,0c0,0-0.1,0-0.1,0c0,0,0,0,0,0c0,0,0.1,0,0.1,0
	c0,0,0,0,0,0c0,0,0.1,0,0.1,0c0,0,0,0,0,0c0,0,0,0,0,0c0,0,0,0,0,0c0,0,0.1,0,0.1,0c0,0,0,0,0,0c0,0,0,0,0,0c0,0,0,0,0.1,0
	c0.1,0,0.1,0,0.2,0c0,0,0.1,0,0.1,0c0,0,0,0.1,0,0.1c0,0,0,0,0,0c0,0,0.1,0,0.1,0c0,0,0.1,0,0.1,0c0,0,0,0,0,0c0,0,0,0,0,0
	c0,0,0,0,0,0c0,0,0.1,0,0.1,0c0,0,0,0,0,0c0,0.1,0,0.1,0,0.1c0,0,0,0,0,0c0,0,0.1,0,0.1,0.1c0,0,0,0,0.1,0c0,0,0,0,0.1,0
	c0,0,0,0,0,0c0,0,0,0,0,0c0,0,0,0,0,0c0,0,0-0.1,0-0.1c0-0.2-0.1-0.3-0.1-0.4c0,0,0,0,0,0c0,0,0.1,0,0.1,0c0,0.1,0,0.1,0,0.2
	c0,0,0,0,0,0.1c0,0,0.1,0,0.1,0c0,0,0-0.1,0-0.1c0,0,0-0.1,0-0.1c0,0,0-0.1,0-0.1c0,0,0.1,0,0.1,0c0,0,0.1,0,0.1,0c0,0,0.1,0,0.1,0
	c0,0,0,0,0,0c0,0,0.1,0,0.2,0c0,0,0,0,0.1,0c0,0,0.1,0,0.1,0c0,0,0.1,0,0.1,0c0,0,0,0,0,0c0,0,0,0,0.1,0c0,0,0.1,0,0.1,0
	c0,0,0,0,0.1,0c0,0,0.1,0,0.1,0c0,0,0,0,0.1,0c0,0,0.1,0,0.1,0c0,0,0.1,0,0.1,0c0,0,0.1,0,0.1,0c0,0,0,0,0,0c0,0,0,0,0.1,0
	c0,0,0,0,0.1,0c0,0,0.1,0,0.1,0c0,0,0,0,0,0c0,0-0.1,0-0.2,0c0,0,0,0,0,0c0,0,0,0,0,0c0,0,0,0,0,0c0.1,0,0.1,0,0.2,0
	c0,0,0.1,0,0.1,0c0,0,0,0,0,0c0,0,0.1,0,0.1,0c0.1,0,0.2,0,0.3,0c0,0,0.1,0,0.2,0c0,0,0,0,0,0c-0.1,0-0.2,0-0.2,0c0,0,0,0,0,0.1
	c0,0,0.1,0,0.1,0c0,0,0.1,0,0.1,0c0,0,0,0,0.1,0c0,0,0,0,0,0c0,0,0.2,0,0.2,0c0,0,0,0,0,0c0,0,0,0,0,0c0,0,0,0,0,0c0,0,0,0,0,0
	c0,0,0,0,0,0c0,0,0.1,0,0.1,0c0,0,0,0,0.1,0c0,0,0.1,0,0.1,0c0,0,0.1,0,0.1,0c0,0,0.1,0,0.1,0c0,0,0,0,0,0c0,0,0.1,0,0.1,0
	c0,0,0,0,0,0c0.1,0,0.1-0.1,0.1-0.1C26.6,33.4,26.6,33.4,26.5,33.4L26.5,33.4z M24.9,33.9C24.8,33.9,24.8,33.9,24.9,33.9
	C24.8,33.9,24.8,33.9,24.9,33.9c-0.1,0-0.1,0-0.1,0c0,0-0.1,0-0.1,0c0,0,0.1,0,0.1,0c0,0,0,0,0,0c0,0,0.1,0,0.2,0c0,0,0.1,0,0.1,0
	c0,0,0,0,0.1,0c0,0,0.1,0,0.1,0c0,0,0,0,0,0c0,0-0.1,0-0.1,0C25,33.9,24.9,33.9,24.9,33.9L24.9,33.9z M24.6,33.3
	C24.7,33.3,24.7,33.3,24.6,33.3C24.7,33.2,24.6,33.2,24.6,33.3C24.6,33.3,24.7,33.3,24.6,33.3L24.6,33.3z M25.1,32.5
	C25.1,32.5,25.1,32.5,25.1,32.5C25.2,32.5,25.2,32.5,25.1,32.5C25.2,32.5,25.1,32.5,25.1,32.5L25.1,32.5z M25,31.9
	C25,31.9,25,32,25,31.9C25,32,25,32,25,31.9C25,32,25,32,25,31.9C25.1,32,25.1,32,25,31.9C25,32,25,32,25,31.9L25,31.9z M25,31.9
	c0,0-0.1,0-0.1,0c0,0,0,0,0,0C24.9,31.9,24.9,31.9,25,31.9C25,32,25,32,25.1,32c0,0,0,0,0,0C25.1,32,25.1,32,25,31.9
	C25.1,32,25.1,32,25,31.9C25.1,31.9,25.1,31.9,25,31.9L25,31.9z M25.3,32C25.3,32,25.3,32,25.3,32C25.3,32,25.3,32,25.3,32
	C25.3,31.9,25.3,31.9,25.3,32C25.4,31.9,25.4,32,25.3,32C25.4,32,25.4,32,25.3,32C25.4,31.9,25.4,31.9,25.3,32
	C25.4,32,25.4,32,25.3,32L25.3,32z M25.4,31.9C25.4,31.9,25.4,31.9,25.4,31.9c-0.1,0-0.1,0-0.1,0c0,0,0,0.1,0,0.1c0,0,0,0,0,0
	c0,0,0,0,0,0C25.3,32,25.4,32,25.4,31.9C25.4,32,25.4,32,25.4,31.9C25.5,31.9,25.5,31.9,25.4,31.9C25.5,31.9,25.5,31.9,25.4,31.9
	C25.4,31.9,25.4,31.9,25.4,31.9L25.4,31.9z M25.2,31.9C25.2,31.9,25.2,31.9,25.2,31.9C25.2,31.9,25.2,31.9,25.2,31.9
	C25.1,31.9,25.1,31.9,25.2,31.9C25.1,31.9,25.2,31.9,25.2,31.9C25.2,31.9,25.3,31.9,25.2,31.9C25.2,31.9,25.2,31.9,25.2,31.9
	L25.2,31.9z M24,30.6C23.9,30.6,23.9,30.6,24,30.6C23.9,30.6,23.9,30.6,24,30.6c-0.1-0.1,0-0.1,0-0.1c0,0,0,0,0,0
	C24,30.5,24,30.6,24,30.6L24,30.6z M23.9,30.5C23.9,30.5,23.9,30.5,23.9,30.5c-0.1,0.1-0.1,0.1-0.1,0.1c0,0,0.1,0.1,0.1,0.1
	c0,0,0.1,0,0.1-0.1C24.1,30.5,24,30.5,23.9,30.5L23.9,30.5z M23.9,29.2L23.9,29.2C23.9,29.2,24,29.2,23.9,29.2
	C24,29.2,23.9,29.2,23.9,29.2L23.9,29.2z M24,29.2C24,29.2,24,29.2,24,29.2C24,29.2,24,29.2,24,29.2C24,29.2,24,29.2,24,29.2
	c-0.1,0-0.1,0-0.1,0c0,0,0,0,0,0c0,0,0,0,0,0c0,0,0,0,0,0c0,0,0,0,0,0C23.9,29.2,24,29.2,24,29.2C24,29.2,24,29.2,24,29.2
	C24,29.2,24,29.2,24,29.2C24.1,29.2,24,29.2,24,29.2L24,29.2z"/>
<polygon class="st4" points="24,6.9 21.3,26.8 24,25.4 24,6.9 "/>
<polygon class="st4" points="18.3,29.5 8.1,26.2 18.9,32.4 18.3,29.5 "/>
<polygon class="st4" points="39.8,26.2 27.5,27.5 29.6,29.5 39.8,26.2 "/>
<polygon class="st4" points="27.5,36.2 34,45 28.7,33.6 27.5,36.2 "/>
<polygon class="st4" points="13.9,45 23.4,36.6 20.4,36.2 13.9,45 "/>
<polygon class="st4" points="24.3,36.4 27.3,36 28.6,33.3 24.3,36.4 "/>
<polygon class="st4" points="19.4,33.3 20.6,36 23.6,36.4 19.4,33.3 "/>
<polygon class="st4" points="20.7,27.6 18.6,29.6 19.2,32.5 20.7,27.6 "/>
<polygon class="st4" points="27.2,27.6 29.4,29.6 28.8,32.5 27.2,27.6 "/>
<polygon class="st4" points="26.6,27.2 24,25.7 21.3,27.2 26.6,27.2 "/>
</svg>
