<?xml version="1.0" encoding="utf-8"?>
<!-- Generator: Adobe Illustrator 23.0.5, SVG Export Plug-In . SVG Version: 6.00 Build 0)  -->
<svg version="1.1" id="Layer_1" xmlns="http://www.w3.org/2000/svg" xmlns:xlink="http://www.w3.org/1999/xlink" x="0px" y="0px"
	 viewBox="0 0 50 50" style="enable-background:new 0 0 50 50;" xml:space="preserve">
<style type="text/css">
	.st0{fill:#0E88D3;}
</style>
<path id="XMLID_408_" class="st0" d="M43.2,10.7c3.2,4,5.2,9.2,5.2,14.7c0,5.6-1.9,10.7-5.2,14.7v-1.1c2.8-3.8,4.5-8.5,4.5-13.6
	c0-5.1-1.7-9.7-4.5-13.6V10.7z M43.2,33.6l0.3,0.2l0.7-0.4l-1-0.4V33.6z M43.2,31.6c0.7,0.1,1.6-0.6,1.7-1.6l-0.6,0.1
	c-0.3,0.6-0.6,1-1.1,0.8V31.6z M43.2,29.5L43.2,29.5l0.3,0.2l0.6-0.5c-0.8-1.2-0.7-2.3-0.3-2.4c0.6-0.1,1,0.8,0.9,1.7l0.7-0.4
	c-0.3-1.1-0.8-1.7-1.7-1.7c-0.2,0-0.3,0.1-0.5,0.2V29.5z M43.2,25.4h1.9l0.4-0.7h-2.3V25.4z M43.2,22.6h1.2l0.3-0.7L43.2,22V22.6z
	 M43.2,21h1.2l0.3-0.7h-1.6V21z M39.4,6.9c1.4,1.2,2.7,2.4,3.8,3.8v1.1c-1.1-1.5-2.4-2.8-3.8-4V6.9z M43.2,40
	c-1.2,1.4-2.4,2.7-3.8,3.8V43c1.4-1.2,2.7-2.6,3.8-4.1V40z M43.2,20.4V21h-1.5l0.4-0.7H43.2z M43.2,22v0.7h-1.6l0.5-0.7H43.2z
	 M43.2,24.7v0.7h-0.8c0,0.7-0.1,1.3-0.2,1.9h0.6c0-0.3,0.2-0.6,0.4-0.7v3c-0.4,0.7-0.5,1.2-0.1,1.4h0.1v0.7
	c-0.3-0.1-0.6-0.3-0.7-0.7c-0.3-0.7,0-1.6,0.6-2.3L42.9,28h-0.7c-0.2,1.4-0.6,2.7-1.1,4.1l2.2,0.9v0.7l-2.4-1
	c-0.2,0.3-0.3,0.7-0.6,1.1c1.1-0.3,2.7,0.2,2.3,2.1c-0.2,0.8-1.2,1.5-1.8,1.2c-1-0.4-0.9-1.5,0.1-2.2c0.1,0.2,0.2,0.3,0.3,0.5
	c-0.7,0.5-0.7,1.2-0.1,1.1c0.5-0.1,1.3-1.1,0.3-2c-0.3-0.3-1-0.3-1.5-0.1c-0.2,0.3-0.3,0.6-0.5,0.8v-0.7c1.7-2.7,2.6-5.7,2.5-9.1
	c0-0.4,0-0.8-0.1-1.3h0.5c0,0.3,0,0.5,0,0.7H43.2z M39.4,41.4h0.4v-0.6h-0.4V41.4z M39.4,38.5v-1c0.3,0,0.5,0.2,0.5,0.5
	C39.9,38.3,39.6,38.5,39.4,38.5z M39.4,30.5c0.6-1.6,0.8-3.3,0.8-5.1c0-1.7-0.2-3.5-0.8-5.1v2.8c0.1,0.7,0.2,1.5,0.2,2.2
	c0,0.7-0.1,1.6-0.2,2.2V30.5z M39.4,19v-0.7c0.1,0.5,0.6,0.7,1.5,0.7v0.3C40.2,19.5,39.7,19.3,39.4,19z M39.4,18.1v-1.8l1.8-3.2
	l-1.8,0.3v-0.4l3.3-0.6l-3,4.8C39.6,17.6,39.4,17.9,39.4,18.1z M39.4,10.1l0.5-1c-0.2,0.1-0.3,0.2-0.5,0.2V10.1z M34.1,3.7
	c1.8,0.8,3.7,1.9,5.2,3.2v0.9c-1.6-1.3-3.4-2.4-5.2-3.3V3.7z M39.4,43.9c-1.6,1.2-3.4,2.3-5.2,3.2v-0.7c1.8-0.8,3.7-2,5.2-3.2V43.9z
	 M39.4,9.2v0.8l-1.6,3.2l1.6-0.2v0.4l-2.7,0.4l1.8-3.9c-1.2,0.7-2.9,1.3-4.3,1.4V11C35.8,10.9,37.7,10,39.4,9.2z M39.4,16.3v1.8v0.3
	V19c-0.7-0.5-0.8-1.3-0.4-2.1L39.4,16.3z M39.4,20.3c-1-2.9-2.9-5.4-5.2-7.2V14c2.7,2.2,4.7,5.5,5.2,9.2V20.3z M39.4,27.6v2.8
	c-1,2.9-2.9,5.4-5.2,7.2v-0.9C36.9,34.5,38.8,31.3,39.4,27.6z M39.4,34.4c-1.3,2.1-3.2,3.9-5.2,5.2v0.5c1-0.6,1.9-1.3,2.7-2.1
	l0.4,0.6c-1.2,0.5-1.9,1.5-1.2,2.1c0.3,0.3,1.3-0.2,1.7-0.6c0.4-0.5,0.9-0.2,0.6,0.3c-0.3,0.5-0.8,0.7-1.5,0.9v0.3l0.9-0.2l-0.3,0.6
	l0.5,0.1l0.2-0.6l1.1-0.2v-0.6h-0.6c0.5-0.6,0.7-1.2,0.1-1.6c-0.6-0.4-1.1,0.2-1.6,0.7c-0.6,0.6-0.9-0.1-0.5-0.3
	c0.4-0.3,0.9-0.7,1.3-1l-0.7-1c0.7-0.7,1.4-1.6,2-2.5V34.4z M39.4,37.5c-0.3,0-0.5,0.2-0.5,0.5c0,0.3,0.2,0.5,0.5,0.5V37.5z
	 M34.1,42.4l0.5,1.1h0.7l-1.2-2.5V42.4z M34.1,33.6V33h1.3V18.4h-1.3v-0.7h1.9v15.9H34.1z M34.1,31.8c0.2-0.3,0.4-0.6,0.4-0.9
	c0-0.3-0.2-0.7-0.4-0.8V31.8z M34.1,29.8c0.1-0.1,0.2-0.3,0.2-0.7c0-0.2-0.1-0.5-0.2-0.7V29.8z M34.1,26.1v-4.8h0.2l0.4,0.8h-0.6
	L34.1,26.1L34.1,26.1z M34.1,20.8v-1.1c0.2,0,0.5,0.3,0.5,0.6C34.6,20.5,34.4,20.8,34.1,20.8z M32.7,3.2c0.4,0.2,0.9,0.3,1.4,0.5
	v0.7c-0.5-0.2-1-0.3-1.4-0.6V3.2z M34.1,47c-0.5,0.2-1,0.3-1.4,0.6v-0.7c0.4-0.2,0.9-0.4,1.4-0.6V47z M34.1,11v0.4
	c-0.6,0-1,0-1.4-0.2v-0.4C33.1,11,33.6,11,34.1,11z M34.1,13.1V14c-0.5-0.3-0.9-0.7-1.4-1v-0.8C33.1,12.5,33.6,12.7,34.1,13.1z
	 M32.7,17.7h1.4v0.7h-1.4V17.7z M34.1,19.7v1.1c-0.3,0-0.6-0.3-0.6-0.5C33.6,20,33.8,19.7,34.1,19.7z M34.1,21.3h-0.3
	c-0.5-0.4-0.7-1-1.2-1.5v0.7c0.2,0.3,0.4,0.6,0.7,0.8h-0.2c-0.2-0.2-0.3-0.3-0.4-0.4v1.3h0.7v1c-0.2-0.2-0.4-0.4-0.7-0.5v0.5
	c0.2,0,0.5,0.1,0.6,0.3h0.1v0.4c-0.1,0.1-0.2,0.2-0.4,0.3l-0.2-0.4V25c0.2-0.1,0.5-0.2,0.7-0.4v1.2l0.8,0.4V21.3z M34.1,28.4v1.4
	L33.9,30l0.3,0.1v1.7c-0.3,0.3-0.5,0.3-1.2,0.3h-0.2v-0.7h0.3c0.4,0,0.6-0.2,0.6-0.7c0-0.3-0.3-0.5-0.6-0.5h-0.3v-0.7H33
	c0.3,0,0.6-0.1,0.6-0.4c0-0.3-0.2-0.4-0.6-0.4h-0.2V28h0.4C33.6,28,33.9,28.2,34.1,28.4z M32.7,33h1.4v0.6h-1.4V33z M34.1,36.8v0.9
	c-0.5,0.3-1,0.7-1.4,0.9v-0.8C33.2,37.5,33.6,37.2,34.1,36.8z M34.1,39.7v0.5c-0.2,0.1-0.3,0.2-0.3,0.2l0.3,0.6v1.4L33.9,42
	l-1.2,0.6v-0.7l0.9-0.5l-0.4-0.7c-0.2,0.1-0.3,0.2-0.5,0.3v-0.5C33.1,40.3,33.6,40,34.1,39.7z M32.4,3.1c0.1,0.1,0.2,0.1,0.3,0.2
	v0.7c-0.2,0-0.3,0-0.3-0.1V3.1z M32.7,47.6c-0.2,0-0.3,0-0.3,0.1v-0.7c0.1,0,0.2-0.1,0.3-0.1V47.6z M32.7,10.8v0.4
	c-0.2,0-0.3-0.1-0.3-0.1v-0.4C32.5,10.7,32.6,10.8,32.7,10.8z M32.7,12.1V13l-0.3-0.2V12C32.5,12.1,32.6,12.1,32.7,12.1z M32.4,17.7
	h0.3v0.7h-0.3V17.7z M32.7,19.8v0.7c-0.1-0.2-0.3-0.2-0.3-0.3v-0.6L32.7,19.8z M32.7,20.9v1.3h-0.3v-0.9h0.1h-0.1v-0.7
	C32.5,20.7,32.6,20.8,32.7,20.9z M32.7,22.7v0.5l-0.3,0.1v-0.6H32.7z M32.7,23.8V25h-0.3v-0.6h0.1l-0.1-0.1v-0.9L32.7,23.8z
	 M32.4,28h0.3v0.7h-0.3V28z M32.4,29.6h0.3v0.7h-0.3V29.6z M32.4,31.5h0.3v0.7h-0.3V31.5z M32.4,33h0.3v0.6h-0.3V33z M32.7,37.8v0.8
	c-0.2,0.1-0.3,0.1-0.3,0.2v-0.8L32.7,37.8z M32.7,40.5V41l-0.3,0.2v-0.5L32.7,40.5z M32.7,41.9v0.7l-0.2,0.1
	c0.2,0.7,0.1,1.2-0.2,1.7V42L32.7,41.9z M32,3c0.2,0,0.3,0.1,0.4,0.1v0.7c-0.1,0-0.3-0.1-0.4-0.1V3z M32.4,47.7
	c-0.1,0-0.3,0.1-0.4,0.1v-0.7c0.2-0.1,0.3-0.1,0.4-0.2V47.7z M32.4,10.7v0.4c-0.2-0.1-0.3-0.2-0.4-0.2v-0.3
	C32.1,10.6,32.3,10.6,32.4,10.7z M32.4,12v0.8c-0.1-0.1-0.3-0.2-0.4-0.3v-0.8C32.1,11.8,32.3,11.9,32.4,12z M32,17.7h0.4v0.7H32
	V17.7z M32.4,19.5v0.6c-0.1-0.2-0.2-0.3-0.3-0.3L32,19.7v-0.5l0.1,0.1C32.2,19.4,32.3,19.5,32.4,19.5z M32.4,20.6v0.7L32,21v-0.6
	C32.1,20.5,32.3,20.5,32.4,20.6z M32,21.3h0.4v0.9H32V21.3z M32.4,22.7v1.6L32,23.7v-1h0.3H32.4z M32.4,24.4V25
	c-0.2,0-0.3,0-0.4-0.1v-0.5C32.1,24.4,32.2,24.4,32.4,24.4z M32,28h0.4v0.7H32V28z M32,29.6h0.4v0.7H32V29.6z M32,31.5h0.4v0.7H32
	V31.5z M32,33h0.4v0.6H32V33z M32.4,37.9v0.8c-0.1,0.1-0.3,0.2-0.4,0.2v-0.8C32.1,38.1,32.3,38,32.4,37.9z M32.4,40.7v0.5
	c-0.1,0-0.3,0.1-0.4,0.2v-0.5C32.1,40.8,32.3,40.7,32.4,40.7z M32.4,42v2.3c-0.1,0.2-0.3,0.3-0.4,0.4v-3.2l0.3,0.6L32.4,42z
	 M31.4,2.8c0.2,0,0.4,0.1,0.6,0.2v0.7c-0.2-0.1-0.4-0.2-0.6-0.2V2.8z M32,47.8c-0.2,0.1-0.4,0.2-0.6,0.3v-0.7
	c0.2-0.1,0.4-0.1,0.6-0.2V47.8z M32,10.6v0.3v-0.1V10.6L32,10.6z M32,11.7v0.8c-0.2-0.2-0.4-0.2-0.6-0.3v-0.7
	C31.6,11.6,31.8,11.6,32,11.7z M31.4,17.7H32v0.7h-0.6V17.7z M32,19.2v0.5c-0.2-0.1-0.3-0.2-0.5-0.2h-0.1V19
	C31.6,19,31.8,19.1,32,19.2z M32,20.4V21l-0.5-0.3h-0.1V20C31.6,20,31.7,20.1,32,20.4L32,20.4z M31.4,21.3H32v0.9h-0.6V21.3z
	 M32,22.7v1l-0.1-0.2c-0.3,0.2-0.4,0.5-0.3,0.7c0.1,0.1,0.2,0.2,0.3,0.2v0.5c-0.2,0-0.4-0.2-0.6-0.2V23C31.6,22.8,31.7,22.7,32,22.7
	z M31.4,28H32v4.1h-0.6V28z M31.4,33H32v0.6h-0.6V33z M32,38.2V39c-0.2,0.1-0.4,0.2-0.6,0.3v-0.8C31.6,38.4,31.8,38.4,32,38.2z
	 M32,40.9v0.5h-0.1l0.1,0.2v3.2c-0.2,0.1-0.4,0.1-0.6,0.1v-0.4c0.5,0.1,0.7-0.7,0.4-1.4c-0.2,0-0.3,0.1-0.4,0.1v-0.7l0.2-0.2
	l-0.2-0.4v-0.7C31.6,41,31.8,40.9,32,40.9z M24.8,1.8c2.2,0,4.5,0.3,6.6,1v0.7c-2.1-0.6-4.3-0.9-6.6-0.9V1.8z M31.4,48
	c-2.1,0.6-4.3,0.9-6.6,0.9v-0.7c2.2,0,4.5-0.3,6.6-1V48z M31.4,11.5v0.7c-2-1-4.2-1.6-6.6-1.6V10C27.1,10,29.4,10.5,31.4,11.5z
	 M31.4,17.7h-2V33h-1v-0.9h-0.8l-0.3-0.5v-1.7c0.3-0.3,0.4-0.2,0.7-0.8l0.2-0.5c0.2-0.1,0.3-0.4,0.3-0.7h-0.7c0,0.7-0.6,0.9-0.9,0.9
	v-1.2c0.3-0.1,0.4-0.1,0.7-0.5l0.3-0.4c0.2-0.1,0.3-0.2,0.3-0.3v-0.3h-0.8l-0.1,0.6h-0.9v-0.8c0.4-0.3,1-0.5,1.1-1.1l0.5-0.3v-0.5
	h-0.7l-0.3,0.4c-0.2,0.3-0.9,0.3-0.8,0.3v-0.9c0.4-0.2,0.8-0.4,1-0.7l0.4-0.2V22h-0.7c0,0.3-0.2,0.5-0.4,0.7c-0.2,0-0.2,0-0.4,0
	v-0.8c0.4-0.2,0.9-0.4,1-1l0.4-0.2v-0.5h-0.8c0,0.2-0.2,0.4-0.3,0.6H26V20c0.4-0.3,0.7-0.6,0.7-1.1l0.5-0.1v-0.6h-0.7
	C26.3,19,26,19,25.8,19v-0.7c0.4-0.2,0.4-0.3,0.8-0.7c0.3-0.2,0.6-0.9,0.3-0.8h-0.3c-0.2,0-0.2,0.4-0.4,0.6c-0.1,0-0.3,0.1-0.5,0.1
	v-0.7c0.4-0.1,0.9-0.4,1-0.9h0.3c0-0.1,0-0.2,0.1-0.4c-0.3,0-0.5,0-0.7,0c-0.1,0.3-0.3,0.5-0.6,0.6c-0.3-0.3-0.4-0.3-0.5-0.7
	c0-0.6,0.6-1.1,0.2-1.7l-0.1-0.4c0-0.7-0.3-0.7-0.5-1v21.6h6.6V33h-1.5V18.4h1.5V17.7z M31.4,19v0.6h-0.5L30.6,19H31.4z M31.4,20
	v0.6H31L30.6,20c0.2,0,0.4,0,0.7,0L31.4,20z M31.4,21.3v0.9H31l-0.3-0.9H31.4z M31.4,23v1.7c-0.2-0.2-0.4-0.5-0.4-0.8
	C30.9,23.5,31.1,23.1,31.4,23z M31.2,28h0.2v4.1h-0.2V28z M31.4,38.5v0.8c-2,0.9-4.2,1.4-6.6,1.4v-0.7
	C27.1,40.1,29.4,39.5,31.4,38.5z M31.4,41.1v0.7l-0.1-0.2c-1.9,0.7-3.9,1.2-6.1,1.2v1.1c0.7-0.3,1.3-0.7,1.9-0.6
	c1.2,0,1.4,0.7,1.1,1.6c-0.3,0.7-1.4,0.7-2.1,0.6c0.1-0.2,0.2-0.4,0.3-0.7c0.7,0.2,1.7-0.2,1.5-0.7c-0.3-0.6-1.2-0.3-1.8,0.2
	c-0.3,0.2-0.5,0.2-0.8,0.4v1.4l-0.4-0.3v-3.4C27.1,42.4,29.3,41.9,31.4,41.1z M31.4,42.4c-1.5,0.7-1.3,1.9-0.4,2.3
	c0.1,0,0.3,0.1,0.4,0.1v-0.4l-0.3-0.1c-0.5-0.3-0.4-0.9,0.3-1.2V42.4z M24.8,7.3l1.6-2.4l1.3,4.2c0.4,1.2,2,1.7,3.1,0.2L30.6,9
	c-0.9,1.2-1.7,1.1-2.1-0.2l-1.7-5.4l-2,3.3V7.3z M24.8,48.9c-2.7,0-5.5-0.5-8-1.4v-0.7c2.5,0.9,5.2,1.5,8,1.5V48.9z M16.8,3.2
	c2.5-0.9,5.2-1.4,8-1.4v0.7c-2.7,0-5.5,0.5-8,1.4V3.2z M24.8,6.6l-0.6,0.9l-1.8-4.3c-0.9,2.6-1.6,6.1-4.1,7l0.3,0.2
	c1.8-0.2,3.1-3.2,3.7-5.5l1.7,3.9l0.9-1.5L24.8,6.6z M24.8,10v0.7c-2.9,0-5.7,0.9-8,2.4v-0.8C19.2,10.8,21.9,10,24.8,10z M24.8,12.1
	c-0.1-0.1-0.2-0.2-0.2-0.5c-0.1-0.2-0.3-0.3-0.4-0.1c-0.5,0.4-1.1,0-0.9,1.3l0.3,0.7c-0.7,0.5-0.3,1-0.2,1.7c0,0.2,0,0.3,0,0.5
	l-0.2,0.3c-0.3-0.1-0.5-0.3-0.6-0.6c-0.3,0-0.4,0-0.7,0c0,0.2,0,0.3,0.1,0.4h0.3c0.1,0.5,0.4,1,0.8,1v0.7h-0.3
	c-0.2-0.2-0.3-0.7-0.5-0.7H22c-0.3,0,0,0.6,0.3,0.7c0.1,0.4,0.4,0.6,0.8,0.7V19c-0.3,0.1-0.7,0.1-0.8-0.7h-0.6v0.6l0.4,0.1
	c0.1,0.5,0.4,0.8,0.8,1.1v0.6l-0.3,0.1c-0.2-0.2-0.3-0.4-0.3-0.6h-0.7v0.5H22c0.1,0.6,0.4,0.9,0.9,1.2v0.8c-0.2,0-0.3,0-0.4,0
	c-0.2-0.2-0.3-0.3-0.3-0.5h-0.7v0.5l0.3,0.1c0.2,0.3,0.6,0.7,0.9,0.8l0.1,0.9c0,0-0.7,0.1-0.7-0.3v-0.4h-0.7c0,0.2,0,0.3,0,0.5
	l0.3,0.1c0.3,0.5,0.6,0.9,1,1.2l-0.1,0.8h-0.4L22,25.9h-0.8v0.3c0.1,0.2,0.3,0.2,0.4,0.2l0.1,0.3c0.3,0.5,0.5,0.7,0.8,0.7v1.2
	c-0.3,0-0.7-0.2-0.8-0.8h-0.6v0.5l0.3,0.2c0.2,0.7,0.5,1.1,0.9,1.3v1.7l-0.4,0.6h-0.7V33h-1V17.7h-3.4v0.7h2.8V33h-2.8v0.6h8
	L24.8,12.1z M24.8,40.1v0.7c-2.9,0-5.7-0.8-8-2.2v-0.7C19.2,39.2,21.9,40.1,24.8,40.1z M24.8,42.4c-1.5,0-3-0.2-4.4-0.6l-0.1-0.6
	h-0.6c-0.5-1-1.2-1.5-1.9-1.7v0.6c0.7,0,1,0.5,1.2,1.2c-0.7-0.2-1.5-0.6-2.2-1v0.5c0.3,0.2,0.4,0.2,0.6,0.3l-0.2,0.5l-0.4-0.1v0.6
	c0.8,0,1.2,0.3,1.2,0.7c-0.1,0.4-0.6,0.5-1.2,0.4v0.7c0.8-0.1,1.4-0.4,1.6-1c0.2-0.6-0.1-1-0.5-1.2l0.1-0.4c0.5,0.2,1,0.4,1.5,0.5
	l-0.7,2.5l0.3,0.7l1.1-3c1.5,0.4,3,0.6,4.6,0.6l0.1,1.4c-1.6,0.6-2.5,0.6-2.6,0.1c-0.1-0.4,0.6-0.7,1.5-0.3c0.1-0.2,0.2-0.3,0.4-0.4
	c-0.7-0.4-1.4-0.4-2-0.1c-1,0.4-0.7,1.1-0.1,1.5c0.8,0.4,1.8,0.3,2.7-0.1v0.7l0.1,0.2L24.8,42.4z M16.8,32.1v-1.4l0.2,0.6l0.7-3.2
	h1.2v4.1h-0.7v-3.4l-0.7,3.4H16.8z M16.8,24.1v-0.8h0.8v-1.1h-0.8v-0.8h1.9l0.3,0.8h-0.6v4.2l-0.7-0.6v-1.7H16.8z M16.8,11.6
	c0.3-0.4,0.4-1,0.3-1.7h-0.3V11.6z M16.8,47.5c-1.3-0.5-2.7-1.1-3.9-1.8v-0.8c1.2,0.7,2.6,1.4,3.9,1.9V47.5z M12.9,5.1
	c1.2-0.7,2.6-1.3,3.9-1.8V4c-1.3,0.5-2.7,1.2-3.9,1.9V5.1z M16.8,10v1.7c-0.4,0.6-1.2,0.8-1.9,0.5l-2-0.9v-1l2.2,1.1
	C16.4,12,17,11.5,16.8,10z M16.8,12.2c-1.5,0.9-2.8,2.1-3.9,3.4v1.1c1.1-1.4,2.4-2.7,3.9-3.7V12.2z M16.8,17.7v0.7h-2.7V33h2.7v0.6
	h-3.3V17.7H16.8z M16.8,21.4h-2.1l0.3,0.8h0.4v1.1c-0.7,0.2-0.8,0.5-0.3,1.2c0.2,0.3,0.5,0.6,0.9,0.6c0.3-0.2,0.2-0.5,0.2-0.9h0.7
	v-0.8h-0.7v-1.1h0.7V21.4z M16.8,30.7L16.2,28H15v4.1h0.8v-3.4l0.7,3.4h0.3V30.7z M16.8,37.8v0.7c-1.5-0.9-2.8-2-3.9-3.4V34
	C14,35.5,15.3,36.8,16.8,37.8z M16.8,40.4v0.5c-0.1,0-0.3-0.1-0.4-0.2l0.3-0.4L16.8,40.4z M16.8,41.7h-0.3c-0.5-0.8-1.2-1.3-1.9-1.3
	c-0.7,0-1.3,0.7-0.5,2.3l0.6-0.3c-0.5-0.5-0.7-1.1-0.3-1.4c0.3-0.4,0.8-0.1,1.3,0.7l-0.1,0.2l0.1,0.5c0.4-0.1,0.8-0.1,1.1-0.1V41.7z
	 M16.8,43.4v0.7c-0.2,0-0.3,0-0.6-0.1v-0.7C16.4,43.4,16.7,43.4,16.8,43.4z M12.9,36.6c0.3,0,0.6-0.3,0.6-0.5c0-0.3-0.2-0.5-0.6-0.5
	V36.6z M12.9,45.7l-0.2-0.2v-0.8l0.2,0.2V45.7z M12.7,5.2l0.2-0.2v0.8l-0.2,0.2V5.2z M12.9,10.2v1l-0.2-0.2v-0.9L12.9,10.2z
	 M12.9,15.6v1.1c-0.1,0.2-0.2,0.3-0.2,0.4V16L12.9,15.6z M12.9,34v1.1l-0.2-0.3v-1.2C12.7,33.8,12.8,33.9,12.9,34z M12.9,35.6v1
	l-0.2-0.1v-0.8L12.9,35.6z M12.7,37.8v-0.5l0.2,0.2L12.7,37.8z M12.7,45.5c-0.5-0.3-1-0.7-1.5-1v-0.8c0.5,0.3,1,0.7,1.5,1V45.5z
	 M11.2,6.2c0.5-0.3,1-0.7,1.5-1v0.8c-0.5,0.3-1,0.7-1.5,1V6.2z M12.7,10.1v0.9l-1.5-0.7v-1L12.7,10.1z M12.7,16v1.2
	c-0.6,0.9-1.1,1.8-1.5,2.7v-1.6C11.6,17.5,12.1,16.7,12.7,16z M12.7,33.6v1.2c-0.6-0.7-1.1-1.5-1.5-2.3v-1.6
	C11.6,31.9,12.1,32.8,12.7,33.6z M12.7,35.7v0.8c-0.2-0.1-0.2-0.3-0.2-0.4C12.4,35.9,12.5,35.8,12.7,35.7z M12.7,37.3
	c-0.6-0.5-1.1-1.1-1.5-1.7v0.6l0.6,0.7l-0.6,0.4v0.8l0.9-0.7c0.2,0.2,0.3,0.3,0.5,0.5l0.1-0.1V37.3z M11.2,14.5v-0.9l0.3,0.2
	l-0.3-1.1v-1.4l1,3.6L11.2,14.5z M11.2,44.5c-1.2-0.8-2.2-1.8-3.3-2.8v-1c1,1.1,2.2,2.1,3.3,3V44.5z M7.8,9.1c1.1-1,2.2-2,3.3-2.8
	v0.8C10,8,8.8,9,7.8,10.1V9.1z M11.2,9.4l-1.1-0.5l1.1,3.7v-1.4l-0.3-0.9l0.3,0.1V9.4z M11.2,13.6v0.9l-3.1-1.1
	c1.2,2,2.7,4.9,1.6,6.4l-0.3,0.1c0.8-1.9-0.3-4.2-1.5-6.2v-1.2L11.2,13.6z M11.2,18.3c-1.1,2.1-1.7,4.5-1.7,7.1c0,2.6,0.7,5,1.7,7.1
	v-1.6c-0.7-1.7-1.1-3.6-1.1-5.5c0-1.9,0.4-3.7,1.1-5.5V18.3z M11.2,35.5v0.6l-0.6-0.7c-0.2,1.1-0.8,1.3-1.8,0.8
	c0,0.8,0.8,1.2,1.8,1.4l0.6-0.4v0.8l-1.5,1.2l-0.2-0.7l0.6-0.6C8,37.5,8,36.4,8.5,35.2c0.7,0.9,1.3,0.8,1.6-0.4
	c-0.4-0.6-0.7-1.2-1.1-1.9l-1.2,0.4v-1.9c0.3,0.3,0.3,0.7,0.5,1.1l0.4-0.2c-0.3-0.8-0.7-1.7-0.9-2.5v-2.6c0.2,1.5,0.5,2.9,1.1,4.2
	c0.4-0.5,0.6-1.1,0.2-1.7l0.5-0.3C9.9,30.2,9.8,31,9.3,32l0.2,0.5l-0.2,0.2C9.9,33.7,10.5,34.7,11.2,35.5z M7.8,41.7
	c-0.2-0.3-0.5-0.6-0.8-0.9v-1.1c0.3,0.3,0.6,0.7,0.8,1V41.7z M7,10c0.3-0.3,0.6-0.6,0.8-0.9v1c-0.2,0.3-0.5,0.7-0.8,1V10z M7.8,12.4
	v1.2c-0.2-0.5-0.6-1.1-0.8-1.6L7.8,12.4z M7.8,27.2v2.6c0-0.2-0.1-0.3-0.1-0.6L7,29.4v-0.7l0.7-0.1l-0.2-1.2L7,27.5v-0.7l0.3-0.1
	c0-0.4,0-0.8,0-1.3h0.4C7.7,26,7.8,26.6,7.8,27.2z M7.8,31.4v1.9l-0.1,0.1c-0.2-1-0.4-1.7-0.7-1.9v-0.7C7.3,30.8,7.7,31,7.8,31.4z
	 M7,33.8l0.3-0.4C7.3,33.2,7.2,33.1,7,33V33.8z M7,22.8v-0.7h0.8l-0.3,0.7H7z M7,21.3v-0.8h0.8l-0.2,0.8H7z M7,40.8
	c-0.7-0.8-1.3-1.7-2-2.7v-1.3c0.6,1,1.2,2,2,2.9V40.8z M5,12.6c0.7-0.9,1.3-1.8,2-2.7v1.1C6.3,12,5.6,13,5,14V12.6z M7,12.1v9.2H5
	v-0.5l0.2-0.3H7V12.1z M7,22.1v0.7H5v-0.5l0.2-0.2H7z M7,26.8v0.7H6.3l0.2,1.2L7,28.6v0.7l-2,0.3V29l0.7-0.2l-0.2-1.2
	c-0.2,0-0.4-0.1-0.6-0.1v-0.7h0.2c0.2-0.1,0.3-0.3,0.2-0.6C5.3,26,5.2,25.8,5,25.8V25c0.6-0.1,1.2,0.3,1.3,1.7H7z M7,30.7v0.7
	c-0.1-0.1-0.2-0.1-0.3-0.1c-0.7,0-0.7,1-0.3,1.4C6.7,32.9,6.8,32.9,7,33v0.7l-0.1,0.1l-0.7-0.2l-0.7,0.4c-0.1,0.1-0.2,0.2-0.4,0.2
	v-0.9l0.1-0.1l0.3,0.3l0.3-0.3L5,32.8v-0.7l0.6,0.4c-0.2-1.1,0.2-1.7,1-1.8C6.8,30.7,6.9,30.7,7,30.7z M5,38.1
	C2.7,34.4,1.3,30,1.3,25.4c0-4.7,1.4-9.1,3.7-12.7V14c-1.9,3.3-3,7.2-3,11.4c0,4.2,1.1,8.1,3,11.4V38.1z M5,20.8l-0.3,0.5H5V20.8z
	 M5,22.3l-0.3,0.5H5V22.3z M5,25c-0.4,0.1-0.8,0.6-0.8,1.2c0,0.6,0.3,1,0.8,1.2v-0.7c-0.2,0-0.3-0.2-0.3-0.4c-0.1-0.3,0-0.6,0.2-0.6
	H5V25z M5,29H4.8c-0.1-0.4-0.3-0.8-0.5-1.2L3.9,28c0.5,1,0.1,1.7-0.4,1.2c-0.6-0.5-0.2-1.5,0-2.2l-0.3-0.1c-0.4,0.9-0.7,1.7,0,2.7
	c0.5,0.7,1,0.5,1.5,0.1L5,29.6V29z M5,32.1l-0.6-0.3l-0.3,0.4L5,32.8V32.1z M5,33.4l-0.5,0.4l0.3,0.3L5,34.3V33.4"/>
</svg>
