<?xml version="1.0" encoding="utf-8"?>
<!-- Generator: Adobe Illustrator 23.0.5, SVG Export Plug-In . SVG Version: 6.00 Build 0)  -->
<svg version="1.1" id="Layer_1" xmlns="http://www.w3.org/2000/svg" xmlns:xlink="http://www.w3.org/1999/xlink" x="0px" y="0px"
	 viewBox="0 0 50 50" style="enable-background:new 0 0 50 50;" xml:space="preserve">
<style type="text/css">
	.st0{fill:#F48120;}
	.st1{fill:#FFFFFF;}
</style>
<g>
	<path class="st0" d="M35.3,7.2h2.6c3.4,0,5.9,0.9,7.4,2.6c1.5,1.7,2.1,3.9,1.7,6.5c-0.4,2.2-1.3,4-2.9,5.6c-1,1-2.4,1.8-4.2,2.4
		c2.4,0.6,4.1,1.7,5.1,3.2c0.9,1.5,1.2,3.5,0.9,5.8c-0.3,1.9-1,3.6-2.1,5.1c-1.1,1.5-2.5,2.7-4.1,3.6c-1,0.5-2.5,0.9-4.4,1.2
		c-2.5,0.3-4.2,0.5-5,0.5h-9.7c0.6,0,1.4-0.1,2.4-0.2H25c0.8,0,2.5-0.2,5-0.5c1.9-0.2,3.3-0.6,4.4-1.2c1.6-0.9,3-2.1,4.1-3.6
		c1.1-1.5,1.8-3.2,2.1-5.1c0.4-2.3,0.1-4.2-0.9-5.8c-1-1.5-2.7-2.6-5.1-3.2c1.8-0.6,3.2-1.4,4.2-2.4c1.6-1.5,2.5-3.4,2.9-5.6
		c0.4-2.6-0.1-4.7-1.7-6.5C38.9,8.3,37.3,7.5,35.3,7.2z"/>
	<path class="st1" d="M12,6.9h20.5c3.4,0,5.9,0.9,7.4,2.6c1.5,1.7,2.1,3.9,1.7,6.5c-0.4,2.2-1.3,4-2.9,5.6c-1,1-2.4,1.8-4.2,2.4
		c2.4,0.6,4.1,1.7,5.1,3.2c0.9,1.5,1.2,3.5,0.9,5.8c-0.3,1.9-1,3.6-2.1,5.1c-1.1,1.5-2.5,2.7-4.1,3.6c-1,0.5-2.5,0.9-4.4,1.2
		c-2.5,0.3-4.2,0.5-5,0.5h-1.9c0.5-0.1,1.1-0.1,1.8-0.2c1.9-0.2,3.3-0.6,4.4-1.2c1.6-0.9,3-2.1,4.1-3.6c1.1-1.5,1.8-3.2,2.1-5.1
		c0.4-2.3,0.1-4.2-0.9-5.8c-1-1.5-2.7-2.6-5.1-3.2c1.8-0.6,3.2-1.4,4.2-2.4c1.6-1.5,2.5-3.4,2.9-5.6c0.4-2.6-0.1-4.7-1.7-6.5
		c-1.5-1.7-4-2.6-7.4-2.6H11.9L12,6.9L12,6.9z M9.1,43.4c0.1-0.3,0.2-0.6,0.2-1l0,0l21.2-7.6L9.2,40.6c0,0,0,0,0,0l18.7-12.7
		L8.6,39.1c0,0,0,0,0,0l22.2-25.7L7,37.2l-1,6.1H9.1L9.1,43.4z M7.1,36.8L23.3,8.7L7.9,31.8L7.1,36.8L7.1,36.8z M9.5,22.2l4.4-12.6
		l-3.8,9L9.5,22.2z"/>
	<path class="st0" d="M9.3,42.4l21.2-7.6L9.2,40.6c0,0,0,0,0,0l18.7-12.7L8.6,39.1c0,0,0,0,0,0l22.2-25.7l-23.9,24
		c0,0-0.1,0-0.1-0.1L23.3,8.7l-18.6,28c-0.1,0-0.1,0-0.2,0l9.4-27.1L2.3,37c0,0,0,0,0,0c-0.1,0-0.3,0.1-0.3,0.1L6.9,7.2h20.5
		c3.4,0,5.9,0.9,7.4,2.6c1.5,1.7,2.1,3.9,1.7,6.5c-0.4,2.2-1.3,4-2.9,5.6c-1,1-2.4,1.8-4.2,2.4c2.4,0.6,4.1,1.7,5.1,3.2
		c0.9,1.5,1.2,3.5,0.9,5.8c-0.3,1.9-1,3.6-2.1,5.1c-1.1,1.5-2.5,2.7-4.1,3.6c-1,0.5-2.5,0.9-4.4,1.2c-2.5,0.3-4.2,0.5-5,0.5H9
		C9.2,43.2,9.3,42.8,9.3,42.4L9.3,42.4z"/>
</g>
</svg>
