<?xml version="1.0" encoding="utf-8"?>
<!-- Generator: Adobe Illustrator 23.0.5, SVG Export Plug-In . SVG Version: 6.00 Build 0)  -->
<svg version="1.1" id="Layer_1" xmlns="http://www.w3.org/2000/svg" xmlns:xlink="http://www.w3.org/1999/xlink" x="0px" y="0px"
	 viewBox="0 0 50 50" style="enable-background:new 0 0 50 50;" xml:space="preserve">
<style type="text/css">
	.st0{fill-rule:evenodd;clip-rule:evenodd;fill:#00ADEE;}
	.st1{fill-rule:evenodd;clip-rule:evenodd;fill:#FFD300;}
</style>
<g>
	<path class="st0" d="M33.9,6.4l14.8,27.2c1.8,2.9-0.1,5.9-3.4,5.4c-1.1-0.2-7.9-1.1-16.6-2.3l2.5-3.3l11.7,1.3
		c1,0.1,1.4-0.2,0.9-1.2c0,0-11-22.3-11.2-22.5c-0.4-0.7-0.8-0.5-1.1,0.2c0,0-10.9,19.7-11,20c-0.4,0.8-0.2,1.2,0.9,1.3l4.3,0.5
		l-2.5,3L17.6,35c-1.4-0.2-1.8-1.1-1.1-2.5c0.6-1.1,13.5-24.7,13.5-24.7c0.3-0.5,0.5-0.8,0.7-1.3C31.6,5.2,33,4.8,33.9,6.4L33.9,6.4
		z"/>
	<path class="st1" d="M1.9,27.3l19.4-3.4l-1.7,3L6.2,29.2c-0.7,0.2-0.6,0.5-0.2,0.7c0,0,11.7,8.1,12.8,8.8c0.9,0.6,1.4,0.9,2.2-0.1
		c0,0,9.5-11.6,10-12.4c0.7-1,1-1.4-0.1-1.2l-6.6,1.1l1.7-3l8.8-1.6c2-0.3,2.8,1.1,1.8,2.5c-0.8,1.2-14.8,20-14.8,20
		c-0.9,1.3-1.6,1.3-2.6,0.3C17.8,43.3,1.3,29.6,1.3,29.6C0.2,28.7,0.5,27.6,1.9,27.3L1.9,27.3z"/>
</g>
</svg>
