<?xml version="1.0" encoding="utf-8"?>
<!-- Generator: Adobe Illustrator 23.0.5, SVG Export Plug-In . SVG Version: 6.00 Build 0)  -->
<svg version="1.1" id="Layer_1" xmlns="http://www.w3.org/2000/svg" xmlns:xlink="http://www.w3.org/1999/xlink" x="0px" y="0px"
	 viewBox="0 0 50 50" style="enable-background:new 0 0 50 50;" xml:space="preserve">
<style type="text/css">
	.st0{fill:#2E3192;}
</style>
<g id="XMLID_1_">
	<path id="XMLID_30_" class="st0" d="M14.1,11.3c4.4,0,8.4,2.1,10.8,5.4c-1.8-1.9-4.3-3.1-7.1-3.1c-5.4,0-9.7,4.3-9.7,9.7
		c0,5.3,4.4,9.6,9.7,9.6c5.2,0,9.4-4,9.7-9c0,0.2,0,0.5,0,0.7c0,7.4-6,13.4-13.5,13.4s-13.5-6-13.5-13.4
		C0.6,17.3,6.6,11.3,14.1,11.3"/>
	<path id="XMLID_31_" class="st0" d="M44.3,25.5c-3.5,2.7-7.9,3.5-11.9,2.4c2.6,0.4,5.3-0.2,7.5-2c4.2-3.3,4.9-9.4,1.6-13.6
		c-3.3-4.2-9.4-4.9-13.7-1.6c-4.1,3.2-4.9,8.9-2,13.1c-0.2-0.2-0.3-0.4-0.5-0.6C20.8,17.4,21.8,9,27.6,4.5
		c5.8-4.6,14.3-3.6,18.9,2.2C51.1,12.5,50.1,20.9,44.3,25.5"/>
	<path id="XMLID_32_" class="st0" d="M16.1,45.2c-3.7-2.4-5.8-6.4-6-10.5c0.4,2.5,1.9,4.9,4.2,6.5c4.5,3,10.5,1.8,13.5-2.7
		c3-4.4,1.8-10.4-2.7-13.4c-4.3-2.8-10-1.8-13.1,2.2c0.1-0.2,0.3-0.4,0.4-0.6c4.1-6.1,12.5-7.8,18.7-3.7c6.2,4.1,7.9,12.4,3.7,18.5
		C30.6,47.6,22.3,49.2,16.1,45.2"/>
</g>
</svg>
