<?xml version="1.0" encoding="utf-8"?>
<!-- Generator: Adobe Illustrator 23.0.5, SVG Export Plug-In . SVG Version: 6.00 Build 0)  -->
<svg version="1.1" id="Layer_1" xmlns="http://www.w3.org/2000/svg" xmlns:xlink="http://www.w3.org/1999/xlink" x="0px" y="0px"
	 viewBox="0 0 50 50" style="enable-background:new 0 0 50 50;" xml:space="preserve">
<style type="text/css">
	.st0{fill:#CE0F3E;}
</style>
<g id="g5595" transform="translate(242.7173,75.431854)">
	<path id="path5597" class="st0" d="M-198.2-51.2l-11.7-11.5l-2.8,0h-4.7V-64l4.7,0l2.9,0l12.6,12.8L-198.2-51.2z M-202-51.1
		l-7.9-7.7h-2.8l-4.7,0l0-1.4l4.7,0l2.9,0l8.7,9L-202-51.1z M-212.7-34.2l-4.3,4.3l-0.1-0.9l4.5-4.6l7-7.2v-7.6h1.3l0.1,7.6
		L-212.7-34.2z M-212.7-39.4l3.1-3.2v-7.6h1.4l0.1,7.6l-4.5,4.5l-4.4,4.3l-0.1-0.9L-212.7-39.4z M-222.5-48.3l-2.5-2.6l2.5-2.5
		l5.1-5l4.6,4.9l2.7,2.8l-2.7,2.6l-4.9,4.8L-222.5-48.3z M-222.5-37.1l-2.9,0l-12.6-12.8l0.9-0.1l11.7,11.5h2.8l4.7,0v1.4
		L-222.5-37.1z M-233.2-50l7.9,7.7l2.8,0l4.7,0v1.4l-4.7,0l-2.9,0l-8.7-9L-233.2-50z M-218-66.5l-4.5,4.7l-3.1,3.2v7.5h-1.4
		l-0.1-7.6l4.5-4.5l4.4-4.3L-218-66.5z M-222.5-67l4.3-4.3l0.1,0.9l-4.5,4.6l-7,7.2v7.5h-1.4l-0.1-7.6L-222.5-67z M-209.6-66.5v-8.3
		l-8.3,0l-4.5,4.8l-10.6,11.2h-8v8.2l15.4,16v7.9h7.8l5.1-5.1l10.4-10.5h7.7v-8.9L-209.6-66.5z"/>
</g>
</svg>
