<?xml version="1.0" encoding="utf-8"?>
<!-- Generator: Adobe Illustrator 23.0.5, SVG Export Plug-In . SVG Version: 6.00 Build 0)  -->
<svg version="1.1" id="Layer_1" xmlns="http://www.w3.org/2000/svg" xmlns:xlink="http://www.w3.org/1999/xlink" x="0px" y="0px"
	 viewBox="0 0 50 50" style="enable-background:new 0 0 50 50;" xml:space="preserve">
<style type="text/css">
	.st0{fill:#003B70;}
	.st1{fill:#D9261C;}
</style>
<path id="path1274" class="st0" d="M15.7,36.3L15.7,36.3c-1.5,1.5-3.1,2.3-4.8,2.3c-3.5,0-6-2.6-6-6.2c0-3.6,2.5-6.2,6-6.2
	c1.7,0,3.3,0.8,4.7,2.2l0.1,0.1l2.2-2.7l-0.1-0.1c-1.9-2.2-4.1-3.3-6.8-3.3c-2.7,0-5.3,0.9-7.1,2.6c-2,1.8-3,4.4-3,7.4
	c0,3,1,5.6,3,7.4c1.8,1.7,4.3,2.6,7.1,2.6c2.7,0,5-1.1,6.8-3.3l0.1-0.1L15.7,36.3z"/>
<path id="path1276" class="st0" d="M20.2,42h3.9V22.8h-3.9V42L20.2,42z"/>
<path id="path1278" class="st0" d="M39.6,37.8c-1.1,0.6-2,1-2.9,1c-1.3,0-1.8-0.7-1.8-2.2V26.4h4v-3.6h-4v-6L31,18.9v3.9h-3.3v3.6
	H31v10.9c0,3,1.8,5,4.4,5c1.8,0,2.8-0.5,3.5-0.9l0,0l0.9-3.7L39.6,37.8L39.6,37.8z"/>
<path id="path1280" class="st0" d="M42.8,42h3.9V22.8h-3.9V42L42.8,42z"/>
<path id="path1284" class="st1" d="M49.2,19.3c-3.6-5.1-9.6-8.2-15.7-8.2c-6.1,0-12.1,3-15.7,8.2l-0.2,0.3h4.5l0.1-0.1
	c3.1-3.2,7.1-4.9,11.3-4.9s8.2,1.7,11.3,4.9l0.1,0.1h4.5L49.2,19.3z"/>
</svg>
