<?xml version="1.0" encoding="utf-8"?>
<!-- Generator: Adobe Illustrator 23.0.5, SVG Export Plug-In . SVG Version: 6.00 Build 0)  -->
<svg version="1.1" id="Layer_1" xmlns="http://www.w3.org/2000/svg" xmlns:xlink="http://www.w3.org/1999/xlink" x="0px" y="0px"
	 viewBox="0 0 50 50" style="enable-background:new 0 0 50 50;" xml:space="preserve">
<style type="text/css">
	.st0{fill:#FFFFFF;}
	.st1{fill:#254AA5;}
	.st2{fill:#00A650;}
</style>
<g id="g3006" transform="translate(0,1.2626907)">
	<path id="path220" class="st0" d="M6.4,28.2l-0.1-0.3l-0.1-0.3l-0.1-0.3L6.1,27l-0.1-0.3l0-0.3l0-0.3l0-0.3l0-0.3l0-0.3l0-0.3
		l0-0.3l0-0.3l0-0.3l0-0.3l0-1l0.1-1l0.1-1l0.2-1l0.2-0.9l0.3-0.9L7,16.7l0.4-0.9L7.7,15l0.4-0.8l0.5-0.8l0.5-0.8l0.5-0.8l0.6-0.7
		l0.6-0.7l0.6-0.7L12.2,9l0.7-0.6l0.7-0.6l0.8-0.5l0.8-0.5l0.8-0.5l0.8-0.4l0.9-0.4l0.9-0.4l0.9-0.3l0.9-0.3l0.9-0.2l1-0.2l1-0.1
		l1-0.1l1,0l1,0l1,0.1l1,0.1l1,0.2l0.9,0.2l0.9,0.3l0.9,0.3L33,5.4l0.9,0.4l0.8,0.4l0.8,0.5l0.8,0.5l0.8,0.5l0.7,0.6L38.5,9l0.7,0.6
		l0.6,0.7l0.6,0.7l0.6,0.7l0.5,0.8l0.5,0.8l0.5,0.8L43,15l0.4,0.9l0.4,0.9l0.3,0.9l0.3,0.9l0.2,0.9l0.2,1l0.1,1l0.1,1l0,1l0,0.3
		l0,0.3l0,0.3l0,0.3l0,0.3l0,0.3l0,0.3l0,0.3l0,0.3l-0.1,0.3L44.7,27l-0.1,0.3l-0.1,0.3l-0.1,0.3l-0.1,0.3l-0.1,0.3l-0.1,0.3
		l-0.1,0.3L44,29.5l-0.1,0.3L43.8,30l-0.1,0.3l-0.1,0.3l-0.1,0.3l-0.1,0.3l-0.1,0.3l-0.1,0.3h2.2v2h3.9l-1.9,3.4l2.5,3.1H40v-1.2
		h-2.8l-0.1,0.1l-0.3,0.2l-0.3,0.2l-0.3,0.2l-0.3,0.2l-0.3,0.2l-0.3,0.2l-0.3,0.2l-0.4,0.2L34.1,41l-0.4,0.2l-0.4,0.2L33,41.5
		l-0.4,0.2l-0.4,0.1L31.8,42l-0.4,0.1l-0.4,0.1l-0.4,0.1l-0.4,0.1l-0.4,0.1l-0.4,0.1l-0.4,0.1l-0.4,0.1l-0.4,0.1l-0.4,0.1l-0.4,0
		l-0.4,0l-0.4,0l-0.4,0l-0.4,0l-0.4,0l-0.4,0l-0.4,0l-0.4,0l-0.4,0l-0.4,0l-0.4,0l-0.4-0.1l-0.4-0.1l-0.4-0.1l-0.4-0.1l-0.4-0.1
		l-0.4-0.1l-0.4-0.1l-0.4-0.1l-0.4-0.1L18.9,42l-0.4-0.1l-0.4-0.1l-0.4-0.2l-0.4-0.2l-0.4-0.2L16.7,41l-0.4-0.2L16,40.7l-0.3-0.2
		l-0.3-0.2L15,40.1l-0.3-0.2l-0.3-0.2L14,39.4l-0.3-0.2l-0.1-0.1h-3.1v1.2H0.4l2.8-3.1L1,33.7h4.2v-2h2.4l-0.1-0.3l-0.1-0.3
		l-0.1-0.3l-0.1-0.3L7,30.3L6.9,30l-0.1-0.3l-0.1-0.3l-0.1-0.3l-0.1-0.3l-0.1-0.3"/>
	<path id="path222" class="st1" d="M11,28.3l0-0.4c0.3,0,0.5,0,0.7,0.1c0.2,0.1,0.3,0.3,0.4,0.5c0.1,0.3,0.1,0.5-0.1,0.7
		c-0.2,0.3-0.5,0.5-0.9,0.6c-0.4,0.1-0.8,0.2-1.1,0c-0.3-0.1-0.4-0.3-0.5-0.6c-0.1-0.2-0.1-0.4,0-0.6c0.1-0.1,0.2-0.3,0.4-0.4
		l0.3,0.4c-0.1,0.1-0.2,0.2-0.3,0.3c0,0.1-0.1,0.2,0,0.3c0,0.2,0.2,0.3,0.3,0.3c0.2,0.1,0.4,0,0.7-0.1c0.3-0.1,0.5-0.2,0.6-0.4
		c0.1-0.1,0.1-0.3,0.1-0.4c0-0.1-0.1-0.2-0.2-0.2C11.3,28.3,11.2,28.3,11,28.3L11,28.3z M10.3,27.4c0.3-0.1,0.5-0.2,0.6-0.3
		c0.1-0.1,0.2-0.3,0.1-0.5c0-0.2-0.1-0.3-0.3-0.4c-0.2-0.1-0.4-0.1-0.7,0c-0.3,0.1-0.5,0.2-0.6,0.3c-0.1,0.1-0.2,0.3-0.1,0.5
		c0,0.2,0.1,0.3,0.3,0.4C9.8,27.5,10,27.5,10.3,27.4L10.3,27.4z M10.4,27.8c-0.3,0.1-0.6,0.1-0.8,0c-0.2,0-0.4-0.1-0.5-0.3
		c-0.1-0.1-0.2-0.3-0.3-0.5c-0.1-0.3,0-0.6,0.2-0.8c0.2-0.2,0.5-0.4,0.9-0.5c0.4-0.1,0.8-0.1,1.1,0.1c0.3,0.1,0.4,0.3,0.5,0.6
		c0.1,0.3,0,0.6-0.1,0.8C11.1,27.6,10.8,27.7,10.4,27.8z M11.2,25.3l-2.6,0.1l0-0.9c0-0.2,0-0.4,0.1-0.5c0-0.1,0.1-0.2,0.2-0.3
		c0.1-0.1,0.3-0.1,0.4-0.1c0.2,0,0.4,0,0.5,0.1C9.9,23.9,10,24,10,24.2c0.1-0.1,0.1-0.1,0.2-0.2c0.1-0.1,0.2-0.1,0.5-0.1l0.4-0.1
		l0,0.5l-0.5,0.1c-0.2,0-0.4,0.1-0.5,0.3c0,0,0,0.1,0,0.2l0,0.1l1.1,0L11.2,25.3L11.2,25.3z M9.7,25l0-0.3c0-0.2,0-0.2,0-0.3
		c0-0.1-0.1-0.1-0.1-0.1c-0.1,0-0.1,0-0.2,0c-0.1,0-0.2,0-0.2,0.1c0,0-0.1,0.1-0.1,0.1c0,0,0,0.1,0,0.3L9,25L9.7,25L9.7,25z
		 M23.9,38.1h-1.3c0,0.1,0.1,0.1,0.1,0.2c0.3,0.3,0.3,0.2,0.7,0.2c-0.4,0.2-0.6,0.3-0.8,0.8c0.8,0,1.1,0,1.6-0.6
		C24.1,38.6,24.1,38.4,23.9,38.1L23.9,38.1z M21.7,38.1h-0.4c0,0,0,0,0,0c-0.1,0.1-0.3,0.6-0.4,0.7c0.3,0.1,0.7-0.1,0.9-0.4
		C21.7,38.4,21.7,38.3,21.7,38.1L21.7,38.1z M20.8,38.1h-0.5c-0.2,0.1-0.4,0.3-0.5,0.4c0.2,0.1,0.4,0.1,0.6,0.1
		C20.7,38.6,20.9,38.4,20.8,38.1z M22.7,38.7c-0.1,0.4-0.7,0.5-1.1,0.5c0.1-0.1,0.2-0.1,0.4-0.2c-0.1,0-0.2-0.1-0.3-0.1
		c0.2-0.1,0.2-0.5,0.4-0.6C22.4,38.2,22.7,38.5,22.7,38.7L22.7,38.7z M12.9,32.7h0.4c0.7-0.1,0.6-1,0.3-1.3
		c-0.2,0.2-0.2,0.4-0.3,0.6c-0.1-0.4-0.3-0.6-0.6-0.7c0,0.1,0,0.2,0,0.4c-0.1-0.1-0.2-0.2-0.3-0.2c0,0.2,0,0.5,0.1,0.7
		c-0.2,0-0.4,0-0.7,0.1C12.1,32.5,12.3,32.6,12.9,32.7L12.9,32.7z M12,30.2c0.3,0.1,0.6,0.3,0.8,0.6c0-0.2,0.1-0.3,0.2-0.4
		c0.3,0.4,0.6,0.6,0.2,1.1c-0.2-0.2-0.5-0.5-0.8-0.6c0,0.1-0.1,0.1-0.1,0.2C11.9,30.9,11.8,30.6,12,30.2L12,30.2z M12.2,31.2
		c0.1,0.2,0.1,0.5,0.1,0.7c-0.1-0.1-0.3,0-0.4,0c-0.3-0.1-0.5-0.3-0.7-0.6C11.6,31.2,11.9,31.1,12.2,31.2L12.2,31.2L12.2,31.2z
		 M6.2,38.1L6.2,38.1l0-3h0H5.7h-2v0l0.2,0.4h1.8V36H4.2l0.2,0.4h1.3v0.4h-1l0.2,0.4h0.8v0.4H4.6L4.3,38h1.4v0.4H3.9l-0.2,0.2
		l-0.1,0.2h4.7L6.2,38.1L6.2,38.1z M10.3,35.2c0-0.1,0-0.1,0-0.1c0-0.1-0.1-0.2-0.2-0.2h0.8v0.4C10.7,35.2,10.5,35.2,10.3,35.2
		L10.3,35.2z M12.8,35L12.8,35L12.8,35C12.9,35,12.9,35,12.8,35l0.3,0.1v-0.2h-0.3h-0.1h-1.4v1c0,0.1,0.1,0.1,0.1,0.2
		c0.1,0,0.1,0.1,0.1,0.1c0,0,0,0.1-0.1,0.1h-0.9c0,0-0.1,0-0.1-0.1c0,0,0.1-0.1,0.1-0.1c0.1,0,0.1-0.1,0.1-0.2v-0.4h-0.2v0h-0.2
		c-0.1,0-0.1,0-0.1,0c0,0-0.1,0-0.1-0.1c-0.1,0.1-0.2,0.2-0.4,0.2H9.7c-0.1,0-0.2,0-0.2,0C9.5,35.8,9.7,36,9.9,36
		c0.3,0,0.3-0.1,0.4,0.2l-0.9,0c-0.2,0-0.3-0.2-0.4-0.5c-0.1-0.2-0.2-0.2-0.3-0.2c0,0,0-0.3,0-0.3c0,0,0.1,0,0.1-0.1
		c0.1,0,0.4,0,0.6,0c0.3,0,0.2-0.3,0-0.3H8.6v-0.2h4.1h0.1h0.2h0c-0.1,0-0.2-0.1-0.3-0.2l-0.3-0.2c-0.2-0.1-0.2-0.2-0.3-0.2
		c-0.1,0-0.1,0-0.1,0c-0.1,0-0.2,0.1-0.2,0.1c-0.1,0-0.1,0-0.1,0c0-0.1,0-0.1,0.1-0.1l0.3-0.1c0.1,0,0.2-0.1,0.2-0.1
		c0.1,0,0.2,0,0.3,0.1l0.3,0.2c0.1-0.2,0.3-0.3,0.5-0.3h0.4c0.1,0,0.2,0,0.3,0l0.2,0.1c0,0,0,0.1,0,0.1c0,0,0,0,0,0l-0.1,0.1
		c0,0-0.1,0.1-0.1,0.1c0,0-0.1,0-0.1-0.1C14,34.1,13.9,34,13.7,34c-0.2,0-0.3,0.1-0.3,0.3c0,0,0,0.1,0,0.1c0,0,0,0,0,0
		c0.1,0,0.2-0.1,0.3-0.1c0,0,0.1,0,0.1,0.1c0,0,0,0.1-0.1,0.1c0,0-0.1,0-0.1,0l0,0h0.3v0.2h-0.3v1c0,0.1,0.1,0.1,0.1,0.2
		c0.1,0,0.1,0.1,0.1,0.1c0,0,0,0.1-0.1,0.1h-0.9c0,0-0.1,0-0.1-0.1c0,0,0.1-0.1,0.1-0.1c0.1,0,0.1-0.1,0.1-0.1
		C12.9,36,12.7,36,12.5,36c-0.4,0-0.7-0.3-0.7-0.6c0-0.3,0.3-0.5,0.6-0.5L12.8,35L12.8,35L12.8,35z M13.1,35.3
		c-0.1,0-0.2-0.1-0.3-0.1c-0.1,0-0.1,0-0.2,0h-0.1c-0.1,0-0.3,0.1-0.3,0.3c0,0.2,0.2,0.3,0.4,0.3c0.1,0,0.3,0,0.4-0.1V35.3
		L13.1,35.3z M21.5,35.4c-0.1,0-0.3-0.1-0.3-0.2c0-0.1,0.1-0.2,0.3-0.2c0.1,0,0.3,0.1,0.3,0.2C21.8,35.3,21.7,35.4,21.5,35.4z
		 M21.5,36.2c-0.1,0-0.3-0.1-0.3-0.2c0-0.1,0.1-0.2,0.3-0.2c0.2,0,0.3,0.1,0.3,0.2C21.8,36.1,21.7,36.2,21.5,36.2z M20.2,34.9v1
		c0,0.1-0.1,0.1-0.1,0.2c-0.1,0-0.1,0.1-0.1,0.1c0,0,0,0.1,0.1,0.1h0.9c0,0,0.1,0,0.1-0.1c0,0,0-0.1-0.1-0.1c-0.1,0-0.1-0.1-0.1-0.2
		v-1H21v-0.2h-6.3v0.2h2v0.2h-1.1l0,0.2c0.4,0,0.4,0.5,0,0.5c-0.4,0-0.4-0.3-0.3-0.4l0-0.2l-0.3,0c-0.4,0.1-0.4,0.6,0.1,0.9
		c0.1,0.1,0.6,0.1,0.9,0c0.2-0.1,0.4-0.2,0.4-0.5c0-0.2,0-0.4-0.2-0.5h0.6v0.5c0,0.1-0.1,0.1-0.1,0.2c-0.1,0-0.1,0.1-0.1,0.1
		c0,0,0,0.1,0.1,0.1h0.9c0,0,0.1,0,0.1-0.1c0,0-0.1-0.1-0.1-0.1c-0.1,0-0.1-0.1-0.1-0.2v-1h1.9v0.4h-1.2c-0.2,0-0.3,0.2-0.3,0.4
		c0,0.2,0.1,0.4,0.3,0.4H18c0,0.1,1,0,0.8-0.5c0,0-0.2-0.1-0.3,0c0,0-0.1,0.1-0.1,0.2c-0.1,0-0.2,0-0.2,0c-0.2,0-0.2-0.3-0.1-0.3
		l0.9,0v0.4c0,0.1-0.1,0.1-0.1,0.2c-0.1,0-0.1,0.1-0.1,0.1c0,0,0,0.1,0.1,0.1h0.9c0,0,0.1,0,0.1-0.1c0,0,0-0.1-0.1-0.1
		c-0.1,0-0.1-0.1-0.1-0.2v-1H20.2L20.2,34.9z M24.6,35.2c0-0.1,0-0.2,0-0.4c-0.3,0-0.5,0-0.8,0c0.1,0.1,0.2,0.1,0.2,0.2
		c0,0,0,0.1,0,0.1H24.6L24.6,35.2z M17.7,26.5L17.7,26.5c0-0.1,0-0.2,0-0.2L17.7,26.5L17.7,26.5z M17.5,27.5
		c-0.1-0.2-0.2-0.3-0.2-0.5l0.2-0.3l0-1.2c-0.1-0.2-0.1-0.5-0.2-0.7l-0.7-0.2c0-0.1,0-0.2,0-0.3l-0.9,6.1h1.8L17.5,27.5L17.5,27.5z
		 M19.4,29c-0.1-0.1-0.2-0.2-0.3-0.3l-0.8,0.2c-0.2-0.3-0.4-0.6-0.6-0.9l0,2.4h1.8L19.4,29L19.4,29z M23.2,27.6L23.2,27.6l0.2,0.1
		h0.1h0.1c0,0,0.1,0,0.1,0c0,0,0,0,0.1,0c0,0,0-0.1,0-0.1c0,0,0,0,0,0c0.1,0,0.1,0,0.1-0.2c0-0.1,0-0.5,0-0.8c0-0.3,0-0.6,0.1-0.8
		l0,0L24,25.1c-0.2,0.2-0.4,0.2-0.6,0.2c0,0.1,0,0.1,0,0.1c0.1,0.1,0.1,0.3,0.1,0.5c0.1,0.4,0,0.9,0,1.2c0,0.1-0.1,0.1-0.3,0.3
		L23.2,27.6C23.2,27.5,23.2,27.5,23.2,27.6L23.2,27.6z M15.6,30.6h4.1v0.3c0,0.1-0.1,0.3-0.3,0.3h-3.5c-0.1,0-0.3-0.1-0.3-0.3V30.6
		L15.6,30.6z M25.2,41.6c-3.8,0-7.4-1.3-10.3-3.4h-0.9c3.1,2.4,7,3.9,11.2,3.9L25.2,41.6L25.2,41.6z M25.2,40.8
		c-3.2,0-6.3-1-8.8-2.6h-0.6c2.7,1.8,5.9,2.8,9.4,2.9L25.2,40.8z M25.2,34.9L25.2,34.9l-0.1,1c0,0.2,0,0.3,0.1,0.3L25.2,34.9
		L25.2,34.9z M25.2,33.4h-18v4h18V37h-0.9c0,0-0.1,0-0.1,0c0-0.1,0-0.2,0-0.3c0,0,0,0,0.1,0l0.1,0.1l0.4,0c0.2,0,0.3-0.1,0.3-0.2
		c0-0.1-0.1-0.2-0.3-0.2h-0.1c-0.3,0-0.1,0-0.2,0c0-0.2,0-0.3,0-0.5c0-0.1,0-0.3,0-0.4c-0.1,0-0.3,0-0.4,0c-0.1,0-0.1,0-0.1,0
		c0,0-0.1,0-0.1-0.1c-0.1,0.1-0.2,0.2-0.4,0.2c-0.1,0-0.2,0-0.2,0c-0.1,0-0.2,0-0.2,0c0.1,0.3,0.3,0.5,0.5,0.5H24
		c0.1,0,0.2,0,0.2-0.1v0.3c-0.2,0.1-0.4,0.1-0.6,0.1c-0.2,0-0.4,0-0.6-0.1c-0.2-0.1-0.3-0.2-0.4-0.5c-0.1-0.2-0.1-0.2-0.2-0.2
		c0,0-0.1,0-0.1,0l0-0.3c0.5,0,0.5,0,0.8,0c0.1,0,0.3,0,0.3-0.2c0-0.2-0.1-0.1-0.3-0.1c-0.3,0-0.6,0-1,0v-0.2h2.9V33.4L25.2,33.4z
		 M18.2,23.5c0.5,1.6,1.3,3.7,2.5,4.5l1.2,0c0.2,0,0.6-0.1,0.9-0.1c0,0,0,0,0,0L22.8,28c0.1,0,0.2-0.1,0.2,0.1
		c0.1,0.1,0.5,0,0.6-0.1c0,0,0.1,0,0.1,0c-0.2,0.1-0.4,0.3-0.7,0.3c-0.5,0-0.9,0.2-1,0.3c0.2-0.1,0.5-0.1,0.7-0.1
		c0.3,0,0.7-0.3,1-0.4l-0.1,0.2c0,0,0.2,0,0.2,0c0,0,0,0,0,0.1c0.1,0,0.2,0,0.4,0c0,0,0,0,0,0c0.1,0,0.2-0.1,0.3-0.2
		c0-0.1,0.1-0.2,0.1-0.4c0.2,0,0.4,0,0.6,0v-3c-0.2,0.5-0.4,1.1-0.3,1.1c-0.1,0.1-0.1,0.5-0.1,0.8c0,0.3-0.1,0.5-0.1,0.7
		c0,0.1,0,0.2-0.1,0.2c0,0,0,0-0.1,0.1c0,0,0,0,0,0c-0.3,0.1-0.6,0.2-0.7,0.1c0,0,0,0,0,0l0.1-0.1c0.1-0.1,0.2-0.2,0.2-0.3
		c0-0.3,0.1-0.8,0.1-1.2c0-0.2-0.1-0.3-0.2-0.5c-0.1-0.1,0.2-0.9-0.2-1c0,0.4-0.1,0.3-0.2,0.4c-0.2,0.1-0.4,0.1-0.6,0
		c-0.1,0-0.3-0.3-0.3-0.4c0-0.2,0-0.5,0-0.7c-0.1,0.1-0.2,0.4-0.3,0.5c-0.4,0.2-0.6-0.2-0.6-0.7c-0.1,0.1-0.3,0.4-0.5,0.1
		c0.1-0.1,0-0.3-0.1-0.4c0.1,0,0.1,0,0.1-0.1h-1.2c0,0,0,0,0,0c-0.1,0.1-0.1,0.4-0.2,0.5c-0.1,0.1-0.4,0.1-0.5,0
		c0-0.1,0.1-0.2,0.1-0.3c-0.1,0.1-0.1,0.2-0.1,0.2c0,0-0.2,0-0.2-0.1c-0.3,0.2-0.5-0.1-0.6-0.4c0,0,0-0.1,0-0.1L18.2,23.5L18.2,23.5
		z M16.5,23.5l-1.1,6.9h0c-0.1,0-0.1,0.1-0.1,0.1c0,0.1,0.1,0.1,0.1,0.1v0.2c0,0.3,0.2,0.5,0.4,0.5h3.7c0.2,0,0.4-0.2,0.4-0.5v-0.3
		c0.1,0,0.1-0.1,0.1-0.1c0-0.1,0-0.1-0.1-0.1l-0.2-1c0.2,0.2,0.4,0.3,0.5,0.5l-0.2,0.8c0.6,0.4,1.2,0.8,1.8,1.1l0.6-0.5
		c0.5,0.2,1,0.3,1.6,0.4l0.2,0.7c0.3,0,0.5,0.1,0.8,0.1l0-1.6c-3.9-0.1-7-3.3-7-7.2H16.5L16.5,23.5z M6.7,23.5
		c0,3.3,0.9,6.5,2.4,9.2h-3v2H2.7l1.6,2.6l-1.9,2.1h7.1v-1.2h8.8c0,0-0.3,0.1-0.2,0.2c0.4,0.1,0.7,0.2,1.1,0.2
		c0,0.1-0.3,0.2-0.3,0.3c0.4,0,1,0.1,1.4,0.1c-0.1,0.2-0.2,0.1-0.4,0.2c0.4,0,0.6,0,1,0c-0.1,0.1-0.2,0.2-0.2,0.3
		c0.4,0,0.8,0,1.2-0.1c0,0.1-0.2,0.2-0.2,0.3c1.4-0.1,1.9,0,2.8-0.7c0.1,0.1,0.3,0.2,0.4,0.3c-0.4,0.3-0.8,0.5-0.8,0.8
		c0.1,0.1,0.3,0,0.4,0.1c0.1-0.3,0.3-0.5,0.6-0.7V39c-0.4-0.3-0.8-0.5-0.8-0.9h0.8v-0.4H6.8v-4.7h18.4v-0.4h-8c-0.4,0-0.8,0-1.2,0
		c-0.2-0.2-0.4-0.4-0.6-0.7v0c0,0,0,0,0,0c-1.9-2.3-3.1-5.3-3.1-8.5h-0.3c0,3.5,1.4,6.8,3.6,9.2h-0.9c0.1-0.2-0.1-0.5-0.1-0.7
		L14,32.3c0.1-0.3,0.1-0.6-0.1-0.9L13.8,31l-0.2,0.1c0.1-0.4-0.4-0.7-0.5-1.2l-0.3,0.5c-0.2-0.3-0.5-0.4-0.9-0.7
		c-0.1,0.6-0.3,0.9,0.1,1.2c-0.5,0-0.6-0.1-1.1,0.1l0.3,0.3c0.1,0.2,0.5,0.4,0.7,0.5l-0.6,0l0.5,0.4c0.1,0.1,0.3,0.2,0.4,0.3h-1.4
		c-1.7-2.7-2.7-5.8-2.7-9.2H7.8c0,3.4,1,6.5,2.6,9.2H9.8c-1.6-2.7-2.5-5.8-2.5-9.2"/>
	<path id="path224" class="st1" d="M9,23l0.7,0l0-0.2c0-0.2,0-0.3,0-0.3c0-0.1-0.1-0.1-0.1-0.1c-0.1,0-0.1-0.1-0.2-0.1
		c-0.1,0-0.2,0-0.2,0.1c-0.1,0-0.1,0.1-0.1,0.1c0,0.1,0,0.2,0,0.4L9,23L9,23z M11.2,23.4l-2.6,0l0-0.7c0-0.3,0-0.4,0-0.5
		c0-0.1,0.1-0.2,0.3-0.3c0.1-0.1,0.3-0.1,0.5-0.1c0.2,0,0.3,0,0.5,0.1c0.1,0.1,0.2,0.2,0.3,0.3c0.1,0.1,0.1,0.3,0.1,0.6l0,0.3l1,0
		L11.2,23.4L11.2,23.4z M9.9,21.2c0.3,0.1,0.5,0.1,0.7,0c0.2-0.1,0.3-0.2,0.3-0.3c0-0.2,0-0.3-0.1-0.4c-0.1-0.1-0.3-0.2-0.6-0.3
		c-0.3-0.1-0.5-0.1-0.7,0c-0.2,0.1-0.3,0.2-0.3,0.3c0,0.2,0,0.3,0.1,0.5C9.4,21.1,9.6,21.2,9.9,21.2L9.9,21.2z M9.8,21.7
		c-0.3-0.1-0.5-0.2-0.7-0.3c-0.2-0.1-0.3-0.3-0.3-0.4c-0.1-0.2-0.1-0.3,0-0.5c0.1-0.3,0.2-0.5,0.5-0.6c0.3-0.1,0.6-0.1,1,0
		c0.4,0.1,0.7,0.3,0.9,0.5c0.2,0.2,0.2,0.5,0.1,0.8c-0.1,0.3-0.2,0.5-0.5,0.6C10.5,21.8,10.2,21.8,9.8,21.7L9.8,21.7z M11.6,19.9
		L9.1,19l0.3-0.9c0.1-0.2,0.2-0.3,0.2-0.4c0.1-0.1,0.2-0.1,0.3-0.2c0.1,0,0.3,0,0.4,0c0.2,0.1,0.3,0.2,0.4,0.3
		c0.1,0.1,0.1,0.2,0.1,0.4c0.1-0.1,0.1-0.1,0.2-0.1c0.1,0,0.3,0,0.5,0l0.4,0.1l-0.2,0.5l-0.5-0.1c-0.2,0-0.4,0-0.6,0.1
		c0,0-0.1,0.1-0.1,0.2l0,0.1l1,0.4L11.6,19.9L11.6,19.9z M10.3,19l0.1-0.3c0.1-0.2,0.1-0.2,0.1-0.3c0-0.1,0-0.1-0.1-0.2
		c0,0-0.1-0.1-0.2-0.1c-0.1,0-0.1,0-0.2,0c-0.1,0-0.1,0-0.1,0.1c0,0-0.1,0.1-0.1,0.2l-0.1,0.3L10.3,19L10.3,19z M11.8,16.6l-1-0.1
		l0.7,0.7L11.8,16.6L11.8,16.6z M13.1,16.2l-0.2,0.4l-0.6-0.1l-0.4,0.8l0.4,0.4l-0.2,0.4l-1.9-1.8l0.2-0.4L13.1,16.2L13.1,16.2z
		 M13.2,16.2L11.3,15L11,15.5l-0.4-0.2l0.9-1.4l0.4,0.2l-0.3,0.5l1.8,1.2L13.2,16.2z M13.8,15.3l-2.1-1.5l0.3-0.3l2.1,1.5L13.8,15.3
		L13.8,15.3z M13.4,13.5c0.2,0.2,0.4,0.3,0.6,0.3c0.2,0,0.3,0,0.4-0.2c0.1-0.1,0.1-0.3,0.1-0.4c0-0.2-0.2-0.3-0.4-0.5
		c-0.2-0.2-0.4-0.3-0.6-0.3c-0.2,0-0.3,0-0.4,0.2C13,12.7,13,12.9,13,13C13,13.2,13.2,13.4,13.4,13.5L13.4,13.5z M13.1,13.9
		c-0.2-0.2-0.4-0.4-0.5-0.6c-0.1-0.2-0.1-0.4-0.1-0.5c0-0.2,0.1-0.3,0.2-0.5c0.2-0.2,0.4-0.3,0.7-0.3c0.3,0,0.6,0.1,0.9,0.4
		c0.3,0.3,0.5,0.5,0.6,0.8c0,0.3,0,0.5-0.2,0.7c-0.2,0.2-0.4,0.3-0.7,0.3C13.8,14.3,13.4,14.1,13.1,13.9L13.1,13.9z M15.5,13.2
		l-1.7-2l0.3-0.3l1.8,0.8l-1.1-1.3l0.3-0.3l1.7,2l-0.3,0.3l-1.8-0.8l1.1,1.3L15.5,13.2L15.5,13.2z M17.6,10.3l0.3,0.6l0.4-0.2
		c0.2-0.1,0.2-0.1,0.3-0.2c0,0,0.1-0.1,0.1-0.2c0-0.1,0-0.1-0.1-0.2c0-0.1-0.1-0.1-0.2-0.2c-0.1,0-0.1,0-0.2,0
		c-0.1,0-0.2,0.1-0.3,0.2L17.6,10.3L17.6,10.3z M17.1,9.3l0.3,0.5l0.3-0.1c0.1-0.1,0.2-0.1,0.3-0.2c0.1,0,0.1-0.1,0.1-0.2
		c0-0.1,0-0.1,0-0.2c0-0.1-0.1-0.1-0.1-0.1c-0.1,0-0.1,0-0.2,0c0,0-0.2,0.1-0.4,0.2L17.1,9.3L17.1,9.3z M16.5,9.2l0.8-0.4
		c0.2-0.1,0.4-0.2,0.5-0.2c0.1,0,0.2,0,0.3,0.1c0.1,0.1,0.2,0.2,0.3,0.3c0.1,0.1,0.1,0.2,0.1,0.3c0,0.1,0,0.2-0.1,0.3
		c0.1,0,0.3,0,0.4,0.1c0.1,0.1,0.2,0.2,0.3,0.3c0.1,0.2,0.1,0.3,0.1,0.5c0,0.2-0.1,0.3-0.2,0.4c-0.1,0.1-0.2,0.2-0.5,0.3l-0.6,0.4
		L16.5,9.2L16.5,9.2z M20.1,9.1l-0.6-0.8l0.1,1L20.1,9.1L20.1,9.1z M21.2,9.8L20.8,10l-0.4-0.5l-0.8,0.3l0,0.6l-0.4,0.2L19,7.8
		l0.4-0.2L21.2,9.8z M21.4,9.8l-0.5-2.6l0.4-0.1l1.2,1.6l-0.3-1.7l0.4-0.1l0.5,2.6l-0.4,0.1L21.5,8l0.3,1.7L21.4,9.8L21.4,9.8z
		 M18.8,22.3C18.9,22.4,18.8,22.3,18.8,22.3c0.1,0.3,0.1,0.3,0,0.5c-0.1,0.2,0,0.2-0.1,0.4c-0.2,0.2-0.2,0.2-0.2,0.2s0.1,0,0-0.2
		c-0.1-0.1-0.2-0.6,0-1L18.8,22.3L18.8,22.3z M23.1,16.6l-0.3,0.9l-1.3,0.1l0.3-0.5c0.3-0.2,0.6-0.3,0.9-0.4
		C22.8,16.7,23.1,16.6,23.1,16.6L23.1,16.6z M19.6,22.1c0.1-0.1,0-0.2,0.1-0.3c0-0.1,0.2-0.1,0.3-0.1c-0.1,0.1,0,0.2-0.1,0.3
		C19.8,22.2,19.7,22.1,19.6,22.1L19.6,22.1z M17.8,19C17.8,19,17.8,19,17.8,19L17.8,19L17.8,19L17.8,19z M17.7,21
		c0-0.1,0.1-0.2,0.1-0.3l-0.1-0.1L17.7,21L17.7,21z M17.5,18.8C17.4,18.8,17.4,18.8,17.5,18.8l-0.6,3.6l0.5-0.2
		c0-0.3,0.1-0.6,0.2-0.8l0-1.1L17.3,20c0.1-0.2,0.1-0.3,0.2-0.5L17.5,18.8L17.5,18.8z M18.1,18.5L18.1,18.5
		c-0.2,0.1-0.2,0.1-0.3,0.2l0,0.2C17.9,18.8,18,18.7,18.1,18.5L18.1,18.5z M25.2,6.7l-0.6,0l-0.8,1.2l0-1.2l-0.4,0l0.1,2.6l0.4,0
		l0-0.8l0.3-0.5l0.6,1.2l0.4,0V9l-0.8-1.3L25.2,6.7L25.2,6.7L25.2,6.7z M16.5,23.5l0.8-4.8c-0.2-0.1-0.3-0.3-0.3-0.5
		c0-0.3,0.3-0.6,0.6-0.6c0.2,0,0.3,0.1,0.5,0.2l1.7-0.1c0.2-0.2,0.4-0.3,0.6-0.5l-0.2-0.8c0.6-0.4,1.2-0.8,1.8-1.1l0.6,0.5
		c0.5-0.2,1-0.3,1.6-0.4l0.2-0.7c0.2-0.1,0.5-0.1,0.8-0.2l0,2.1c0,0.2,0,0.4,0,0.6c0,0.2,0,0.3,0,0.5c-2.4,0-4.9,0.2-7.3,0.3
		c-0.1-0.1-0.2-0.2-0.3-0.2c-0.2,0-0.3,0.2-0.3,0.3c0,0.2,0.2,0.3,0.3,0.3c0.1,0,0.2-0.1,0.3-0.2c2.5,0,4.9,0,7.3,0v0.3
		c-0.5,0-1,0-1.5,0c-0.2,0.1-0.2,0.2-0.5,0.5c0-0.1-0.1-0.2-0.1-0.2c-0.2,0.1-0.5,0.2-0.7,0.4c0.1-0.3,0.1-0.5,0.1-0.7
		c-0.7,0-1.6,0-2.4-0.1c0,0,0,0,0,0c-0.7,0.8-1.3,1.7-1.6,2.7c0,0.1-0.1,0.2-0.1,0.3c0.1-0.2,0.3-0.3,0.5-0.4
		c-0.1-0.1,0-0.4,0.1-0.6c0.1-0.5,0.5-0.8,0.8-0.9c-0.1,0.3-0.3,0.7-0.2,1c0.2,0.1,0.3,0.1,0.5,0.2h0.2c0.1-0.3,0.1-0.7,0-1.1
		c0.6,0.1,0.7,0.5,0.8,1.1c0.1,0,0.3-0.1,0.5-0.1c0.1,0,0.2,0.2,0.3,0.1c0.1-0.1,0.3-0.1,0.5-0.1c0.3,0,0.5-0.2,0.8-0.3
		c0.6-0.3,1-0.9,1.4-0.9c0.2,0,0.4,0.4,0.7,0.7l0,0.3c-0.3-0.2-0.5-0.6-0.7-0.6c-0.6-0.2-1.2,1.1-2.6,1.1c0,0.1,0,0.4-0.2,0.4
		c0.2,0,0.7,0.3,0.7,0.5c-0.2,0.4-0.4,0.1-0.5,0.5c-0.2,0.1-0.1,1-0.4,1.2h-1.2c0.2,0,0.4,0,0.6-0.1c0.3-0.4,0.6-0.8,0.7-1.2
		c-0.2-0.1-0.5-0.2-0.5-0.4c0.4,0.1,0.8,0,1.1-0.1c-0.1-0.3-0.5-0.5-1-0.4c0.1-0.1,0.3-0.2,0.4-0.3c0-0.3-0.1-0.4-0.3-0.4
		C21,21,20.7,21.2,20.4,21c-0.1,0-0.1-0.2-0.2-0.2c-0.4,0.1-0.4-0.1-0.6-0.2c-0.3,0.1-0.6,0.4-0.6,0.7c0,0.2,0,0.2,0,0.4
		c0,0.2,0.1,0.4,0.1,0.5c0,0.3,0,0.6-0.1,0.9c0,0.1-0.1,0.2-0.2,0.3l-0.6,0c0-0.1,0-0.2-0.1-0.2c0,0.1,0,0.2,0,0.2v0L16.5,23.5
		L16.5,23.5z M11.8,23.5c0-7.4,6-13.5,13.4-13.6l0,0.4c-1,0-2.1,0.2-3,0.4c-0.1,0-0.1,0-0.2,0v0c-0.1,0-0.1,0-0.2,0.1
		c-0.1,0-0.1,0-0.2,0c0,0,0,0,0,0.1c0,0-0.1,0-0.1,0c-0.1,0-0.1,0-0.2,0V11c0,0-0.1,0-0.1,0c-0.1,0-0.1,0-0.2,0v0.1c0,0-0.1,0-0.1,0
		c-0.1,0-0.1,0-0.2,0c0,0,0,0,0,0c0,0,0,0,0,0.1c0,0,0,0-0.1,0c0,0-0.1,0-0.1,0c0,0,0,0,0,0.1c0,0-0.1,0-0.1,0c0,0-0.1,0-0.1,0
		c0,0,0,0,0,0c0,0,0,0,0,0.1c0,0,0,0,0,0c0,0,0,0,0,0c0,0,0,0,0,0c-0.1,0-0.1,0-0.2,0.1c0,0-0.1,0-0.1,0v0.1
		c-1.9,0.9-3.6,2.2-4.9,3.8c0,0,0,0,0,0c-0.1,0.1-0.1,0.1-0.2,0.2c-0.1,0.1-0.1,0.2-0.2,0.3l0,0c-1.5,2.2-2.5,4.8-2.5,7.7L11.8,23.5
		L11.8,23.5z M7.8,23.5c0-9.6,7.8-17.5,17.4-17.6v0.3C15.7,6.3,8.1,14,8.1,23.5H7.8z M6.7,23.5C6.7,13.3,15,4.9,25.2,4.8v0.5
		C15.3,5.5,7.3,13.6,7.3,23.5"/>
	<path id="path226" class="st1" d="M42.4,25.4c0-0.1-0.1-0.3-0.2-0.3c-0.1,0-0.3,0.1-0.3,0.2c0,0.1,0.1,0.3,0.2,0.3
		C42.2,25.7,42.4,25.6,42.4,25.4z M40.7,24.7l-0.6,0l-0.1-0.1l0.9-0.6c0,0,0,0.2,0,0.4C40.9,24.4,40.8,24.6,40.7,24.7L40.7,24.7z
		 M28.2,38.1h-1.4c0,0-0.1,0.1-0.1,0.1c-0.1,0.1-0.2,0.2-0.3,0.3c0.2,0.2,0.5,0.4,1,0.5c0.3,0.1,0.5,0.1,0.7,0.1
		c-0.3-0.5-0.3-0.5-0.8-0.6c0.4,0,0.5,0.1,0.8-0.2C28.1,38.3,28.1,38.2,28.2,38.1L28.2,38.1z M30.1,38.3c0.2,0,0.2,0,0.4,0
		c0.2,0.1,0.5,0.2,0.6,0.4c-0.2,0.1-0.4,0.1-0.6,0.1C30.3,38.6,30.1,38.5,30.1,38.3L30.1,38.3z M29.2,38.3c0.2,0,0.4,0.1,0.6,0
		c0.1,0.1,0.3,0.2,0.4,0.3c-0.2,0.1-0.5,0.1-0.8,0.1c-0.1,0-0.3-0.1-0.4-0.3C29,38.4,29.1,38.3,29.2,38.3L29.2,38.3z M28.1,38.7
		c0,0.2,0.2,0.4,0.5,0.5c0.2,0.1,0.4,0.1,0.6,0c-0.1-0.1-0.3-0.2-0.4-0.3c0.1,0,0.2-0.1,0.3-0.1c-0.2-0.1-0.3-0.3-0.5-0.4
		C28.4,38.4,28.2,38.5,28.1,38.7z M37.6,32.7H38c0.6,0,0.8-0.2,1.1-0.5c-0.2-0.1-0.4-0.1-0.7-0.1c0.1-0.2,0.1-0.5,0.1-0.7
		c-0.1,0.1-0.2,0.2-0.3,0.2c0-0.1,0-0.2,0-0.4c-0.3,0.1-0.5,0.4-0.6,0.7c-0.1-0.2-0.2-0.4-0.3-0.6C36.9,31.6,36.8,32.6,37.6,32.7
		L37.6,32.7z M38.9,30.2c-0.3,0.1-0.6,0.3-0.8,0.6c0-0.2-0.1-0.3-0.2-0.4c-0.3,0.4-0.6,0.6-0.2,1.1c0.2-0.2,0.5-0.5,0.8-0.6
		c0,0.1,0.1,0.1,0.1,0.2C39,30.9,39.1,30.6,38.9,30.2L38.9,30.2z M38.7,31.2c-0.1,0.2-0.1,0.5-0.1,0.7c0.1-0.1,0.3,0,0.4,0
		c0.3-0.1,0.5-0.3,0.7-0.6C39.3,31.2,39,31.1,38.7,31.2L38.7,31.2L38.7,31.2z M44.4,38.1L44.4,38.1l-2,0.7h4.4l-0.1-0.2l-0.2-0.2
		h-1.7V38h1.3l-0.3-0.4h-1v-0.4h0.8l0.2-0.4h-1v-0.4h1.2l0.2-0.4h-1.4v-0.4h1.7l0.2-0.4v0h-1.9h-0.4h0V38.1L44.4,38.1z M35.7,35.5
		v0.2c-0.1,0-0.1-0.1-0.1-0.2H35.7z M29.9,35.3l-0.1-0.1l0,0c0,0,0,0,0,0c-0.1-0.1-0.2-0.1-0.3-0.1c-0.2,0-0.3,0.1-0.3,0.3
		c0,0.2,0.2,0.4,0.4,0.4c0.1,0,0.2,0,0.3-0.1V35.3L29.9,35.3z M29.9,34.6c0.1-0.2,0-0.3-0.5-0.3h-2.8c-0.5,0-0.3,0.3-0.4,0.3
		L29.9,34.6L29.9,34.6C29.9,34.6,29.9,34.6,29.9,34.6L29.9,34.6z M36.8,35.5l-0.6,0V36c0,0.1-0.1,0.2-0.2,0.2
		c-0.1,0-0.3-0.1-0.5-0.3c-0.1-0.2-0.2-0.3-0.2-0.4c0-0.1,0.1-0.1,0.1-0.1h0.2v-0.5c0-0.1,0,0-0.1,0c0,0,0,0,0,0c0,0,0,0,0,0
		c0,0.1-0.1,0.1-0.1,0.1c-0.1,0-0.2,0-0.2-0.2c0-0.2,0.2-0.4,0.4-0.4c0.3,0,0.5,0.2,0.5,0.4v0.4l0.6,0l0-0.7H42v0.2h-0.3v1
		c0,0,0,0.1,0.1,0.1c0.1,0,0.1,0.1,0.1,0.1c0,0,0,0.1-0.1,0.1l0,0h0c0.2,0,0.3,0.2,0.3,0.4S41.9,37,41.6,37h-0.8c0,0,0,0-0.1,0v-0.2
		c0,0,0.1,0,0.1,0h0.5c0.2,0,0.3-0.1,0.3-0.2c0-0.1-0.1-0.2-0.3-0.2h-0.1c-0.1,0-0.2,0.1-0.3,0.1c-0.1,0-0.2-0.1-0.2-0.2
		c0,0,0-0.1,0.1-0.1H41l0,0c0,0-0.1,0-0.1-0.1c0,0,0-0.1,0.1-0.1c0.1,0,0.1-0.1,0.1-0.1v-0.6h-0.6c-0.2,0-0.3,0.2-0.3,0.4
		c0,0.2,0.1,0.3,0.3,0.3c0.1,0,0.2-0.1,0.3-0.1c0,0,0.1,0,0.1,0.1c0,0,0,0,0,0.1l0,0.1h-0.4c-0.3,0-0.6-0.3-0.6-0.6
		c0-0.1,0-0.1,0-0.2l0.1-0.2c0.1-0.1,0.2-0.1,0.3-0.1h1v-0.2h-1.8v1c0,0.1,0.1,0.1,0.1,0.2c0.1,0,0.1,0.1,0.1,0.1c0,0,0,0.1-0.1,0.1
		h-0.9c0,0-0.1,0-0.1-0.1c0,0,0-0.1,0.1-0.1c0.1,0,0.1-0.1,0.1-0.1C38.7,36,38.4,36,38.3,36c-0.4,0-0.7-0.3-0.7-0.6
		c0-0.3,0.3-0.5,0.6-0.5h0.4c0,0,0,0,0.1,0l0.2,0v-0.2h-1.5v1c0,0.1,0.1,0.1,0.1,0.2c0.1,0,0.1,0.1,0.1,0.1c0,0,0,0.1-0.1,0.1h-0.9
		c0,0-0.1,0-0.1-0.1c0,0,0.1-0.1,0.1-0.1c0.1,0,0.1,0,0.1-0.2L36.8,35.5L36.8,35.5z M39.1,33.9c0.2,0,0.3,0.1,0.3,0.3
		s-0.2,0.3-0.3,0.3c-0.2,0-0.3-0.1-0.3-0.3S38.9,33.9,39.1,33.9z M29,25.8c-0.2,0.3-0.5,0.6-0.5,0.8c0,0.1-0.2,0.4-0.2,0.6
		c-0.1,0-0.1,0-0.1,0c0,0,0,0,0,0l0,0c0,0,0,0,0,0c-0.3,0-0.7,0.1-0.7,0c0,0,0-0.1,0-0.1c0.5-0.4,0.7-0.9,0.8-1.5
		c-0.1,0-0.2-0.2-0.4-0.3c-0.1-0.1-0.1-0.1-0.1-0.2c0.2,0,0.4-0.1,0.6-0.1c0,0.1,0.1,0.2,0.1,0.3c0.1,0.1,0.1,0.2,0.2,0.3
		c0,0,0.1,0,0.1,0.1c0,0,0,0.1,0,0.1C28.9,25.7,29,25.8,29,25.8L29,25.8z M33.3,25.4c-0.1,0.3-0.2,0.7-0.3,1l0.3,0.3L33.3,25.4
		L33.3,25.4z M33.3,27.5c-0.2,0.5-0.5,0.9-0.8,1.3l-0.7-0.2l-0.3,1.7h1.8L33.3,27.5L33.3,27.5z M35.4,30.6h-4v0.3
		c0,0.1,0.1,0.3,0.3,0.3h3.4c0.1,0,0.3-0.1,0.3-0.3V30.6L35.4,30.6z M38.6,35.2C38.6,35.2,38.6,35.2,38.6,35.2
		c-0.1-0.1-0.2-0.1-0.2-0.1h-0.1c-0.1,0-0.3,0.1-0.3,0.3c0,0.2,0.2,0.3,0.4,0.3c0.1,0,0.3,0,0.4-0.1v-0.3L38.6,35.2L38.6,35.2z
		 M25.2,41.6c0.1,0,0.2,0,0.2,0c3.9,0,7.6-1.3,10.6-3.4h0.9c-3.2,2.5-7.1,3.9-11.5,3.9c-0.1,0-0.2,0-0.2,0L25.2,41.6L25.2,41.6z
		 M25.2,40.8c0.1,0,0.2,0,0.2,0c3.3,0,6.4-0.9,9.1-2.6H35c-2.8,1.8-6.1,2.9-9.6,2.9c-0.1,0-0.2,0-0.2,0L25.2,40.8z M25.2,33.4h17.7
		c0.2,0,0.4,0,0.6,0v4H25.2V37h0.1c0.3,0,0.5-0.2,0.5-0.4c0-0.2-0.2-0.4-0.4-0.4h-0.1h0c0.1,0,0,0-0.1,0l0-1.3h0.5v1
		c0,0.1,0,0.1-0.1,0.2c-0.1,0-0.1,0.1-0.1,0.1c0,0,0,0.1,0.1,0.1h0.8c0.1,0,0.1,0,0.1-0.1c0,0-0.1-0.1-0.1-0.1
		c-0.1,0-0.1-0.1-0.1-0.1v-1h1.2c0.1,0,0.2,0,0.2,0.2c0,0.1-0.1,0.2-0.3,0.2l-0.7,0l0,0.3c0.1,0,0.2-0.1,0.3,0.2
		c0,0.3,0.1,0.3,0.3,0.4c0.3,0.1,0.9,0.1,1.1,0l0-0.3C28.1,36,28,36,27.8,36c-0.3,0-0.3-0.2-0.3-0.5c0.1,0,0,0,0,0h0.2
		c0.2,0,0.5-0.2,0.5-0.4c0-0.2-0.1-0.3-0.2-0.4h1.9V35l-0.3-0.1l-0.4,0l0,0c-0.4,0-0.9,0.1-0.9,0.4c0,0.5,0.4,0.7,0.8,0.7
		c0.1,0,0.4-0.1,0.5-0.1c-0.1,0-0.1,0.1-0.1,0.1c0,0,0,0.1,0.1,0.1h0.9c0,0,0.1,0,0.1-0.1c0,0,0-0.1-0.1-0.1c-0.1,0-0.1-0.1-0.1-0.2
		v-1h2v0.4h-1.2c-0.4,0-0.5,0.3-0.5,0.4c0,0.5,0.7,0.6,1.1,0.5c0.2-0.1,0.2-0.4,0.2-0.5l-0.2,0c0,0,0,0.1-0.1,0.2
		c-0.1,0-0.2,0.2-0.4,0c-0.2-0.2,0.1-0.4,0-0.4h1v0.4c0,0.1-0.1,0.1-0.1,0.2c-0.1,0-0.1,0.1-0.1,0.1c0,0,0,0.1,0.1,0.1h0.9
		c0,0,0.1,0,0.1-0.1c0,0,0-0.1-0.1-0.1C33,36,33,35.9,33,35.8v-1h0.6v1c0,0.1-0.1,0.1-0.1,0.2c-0.1,0-0.1,0.1-0.1,0.1
		c0,0,0,0.1,0.1,0.1h0.9c0,0,0.1,0,0.1-0.1c0,0,0-0.1-0.1-0.1c-0.1,0-0.1-0.1-0.1-0.2v-1h0.3v-0.2h-0.3l0,0c0,0,0.2-0.1,0.2-0.2
		c0-0.1,0-0.1-0.1-0.1c-0.1,0-0.2,0.1-0.3,0.1c-0.1,0-0.1,0-0.3-0.1l-0.6-0.5c0,0-0.1-0.1-0.3-0.1c0,0-0.1,0-0.2,0.1L32.3,34
		c0,0-0.1,0.1-0.1,0.1c0,0,0,0,0.1,0c0,0,0.1,0,0.2-0.1c0,0,0.1,0,0.1,0c0.1,0,0.1,0.1,0.3,0.2l0.3,0.2c0.1,0,0.1,0.1,0.2,0.1
		c0,0,0.1,0,0.1,0l0,0h-3.1c0-0.4-0.2-0.6-0.7-0.6h-3.5c-0.7,0-0.6,0.3-0.6,0.6h-0.5L25.2,33.4L25.2,33.4z M39.5,23.5
		c0,0.1,0,0.2,0,0.3c0,0.4,0.2,0.8,0.2,0.9l-0.2,0l-0.1,0.6l2,0.2c-0.1,0.6-0.2,1.4-0.4,2l-1.2-0.3c0,0-0.1-0.3-0.1-0.6
		c0-0.2,0.2-0.4,0.4-0.3c0.2,0.1,0.3,0.3,0.2,0.6c0,0.2-0.1,0.3-0.1,0.3l0.3,0.1c0,0,0.2-0.2,0.2-0.5c0.1-0.5,0-0.9-0.4-1
		c-0.4-0.1-0.8,0.2-0.9,0.7c-0.1,0.4,0,0.8,0,0.8l-0.4-0.1L39,27.4l0.9,0.2c0,0,0.3,0.3,0.2,0.6c-0.1,0.4-0.2,0.4-0.5,0.4
		c-0.2-0.1-0.3-0.2-0.2-0.6c0-0.1,0.2-0.3,0.2-0.3l-0.3-0.1c0,0-0.2,0.1-0.3,0.5c-0.1,0.4,0,0.9,0.4,1c0.5,0.1,0.8-0.1,0.9-0.7
		c0.1-0.4-0.1-0.8-0.2-0.8l0.7,0.2c-0.2,0.7-0.3,1.2-0.6,1.8l0.4,0.2c0.5-1.2,1-2.9,1.2-4.5c0-0.1,0-0.2,0-0.3
		c0.5-0.1,0.7-0.3,0.8-0.5l-0.2-0.3c-0.1,0.1-0.1,0.2-0.5,0.4c0-0.1,0-0.1,0-0.2c0.6-0.3,0.7-0.6,0.8-0.8l-0.3-0.3
		c-0.1,0.1-0.1,0.2-0.4,0.7c0-0.2,0-0.5,0-0.7l-0.4,0l0,1.2l-0.4,0c0.1-0.1,0.3-0.4,0.3-0.9c0-0.1,0-0.2,0-0.3h-0.7
		c0.1,0.1,0.1,0.2,0.1,0.2L40,24.3c0,0-0.1-0.2-0.1-0.3c0-0.2,0.1-0.4,0.2-0.5H39.5L39.5,23.5z M38.6,23.5c0,2.8-0.9,5.3-2.3,7.5
		c0,0,0,0,0,0c0,0,0,0,0,0c-0.3,0.5-0.7,1-1.1,1.4h0c0,0,0,0,0,0c-0.1,0.1-0.1,0.1-0.2,0.2h0c0,0,0,0,0,0c0,0,0,0,0,0
		c-0.6,0-1.3,0-1.9,0v0h-0.3c0,0,0,0,0,0c-0.1,0-0.1,0-0.2,0c0,0,0,0,0,0h-1.2c0,0,0,0,0,0c0,0-0.1,0-0.1,0c0,0,0,0,0,0h-0.8
		c0,0,0,0,0,0c0,0-0.1,0-0.1,0c0,0,0,0,0,0h-5.2v0.4h18.7v4.7H25.2v0.4h1.1c-0.2,0.4-0.6,0.7-1,0.9c0,0,0,0,0,0v0.4
		c0,0,0.1,0,0.1-0.1c0.3,0.2,0.6,0.4,0.7,0.7c0.1-0.1,0.3,0,0.4-0.1c-0.1-0.3-0.5-0.5-0.9-0.8c0.3-0.2,0.5-0.3,0.8-0.5
		c0.7,0.5,1.5,1,2.5,0.9c0-0.1-0.2-0.3-0.3-0.4c0.4,0.1,1,0.1,1.5,0.2c-0.1-0.1-0.2-0.2-0.2-0.4c0.4,0.1,0.8,0.1,1.2,0.1
		c-0.1-0.2-0.2-0.1-0.3-0.3c0.5,0,1.1,0,1.5-0.1c0-0.1-0.4-0.3-0.4-0.4c0.5,0,1.2-0.1,1.8-0.2h7.4v1.2h7l-1.7-2.1l1.5-2.6h-3.2v-2
		h-2.8c1.6-2.7,2.4-5.9,2.4-9.2h-0.5c0,3.4-0.9,6.5-2.5,9.2h-0.6C42,30,43,26.8,43,23.5h-0.3c0,3.4-1,6.5-2.7,9.2h-1.2
		c0.2-0.1,0.3-0.2,0.4-0.3l0.5-0.4l-0.6,0c0.2-0.1,0.6-0.3,0.7-0.5l0.3-0.3c-0.5-0.2-0.6-0.1-1.1-0.1c0.4-0.3,0.2-0.7,0.1-1.2
		c-0.4,0.3-0.7,0.4-0.9,0.7L37.8,30c-0.1,0.4-0.6,0.8-0.5,1.2L37.1,31L37,31.4c-0.2,0.3-0.2,0.6-0.1,0.9l-0.4-0.4
		c-0.1,0.2-0.2,0.5-0.1,0.7h-1c2.2-2.4,3.6-5.7,3.6-9.2L38.6,23.5L38.6,23.5z M31.7,23.5c-0.1,0.3-0.2,0.7-0.2,0.8
		c-0.2,0.2,0.1,0.9,0.3,0.9c0,0.1,0,0.2,0,0.4c-0.1,0-0.4,1-0.4,1.2c-0.1,0.3,0,0.3-0.1,0.5c-0.1,0-0.1,0.1-0.1,0.1l-0.1,0.1
		c0,0,0,0,0,0c-0.3,0.1-0.6,0.2-0.7,0.1c0,0,0,0,0-0.1c0.1-0.1,0.2-0.2,0.3-0.3c0.2-0.4,0.4-1,0.4-1.4c-0.1,0-0.2-0.2-0.4-0.3
		c-0.1-0.1-0.2-0.1-0.3-0.2c-0.1-0.1-0.2-0.1-0.2-0.2c0,0,0,0.4-0.3,0.5v0.2c0,0,0,0.1-0.1,0.1c0,0-0.1,0-0.1-0.1v-0.2
		c0,0,0,0-0.1,0v0.1c0,0,0,0.1-0.1,0.1c0,0-0.1,0-0.1-0.1v-0.1c0,0-0.1,0-0.1-0.1c0,0,0,0.1-0.1,0.1v0.2c0,0,0,0.1-0.1,0.1
		c0,0-0.1,0-0.1-0.1v-0.2c0,0,0,0-0.1,0v0.1c0,0,0,0.1-0.1,0.1c0,0-0.1,0-0.1-0.1v-0.2c-0.2-0.1-0.4-0.2-0.4-0.5
		c0,0,0.3-0.1,0.5-0.2c-0.1,0-0.3,0-0.5,0.1c-0.7,0.1-1.4,0.3-2,0.2c-0.4-0.1-0.7-0.1-1.2-0.1c0-0.5,0.6-0.4,0.2-1.3
		c0,0.2,0,0.5,0,0.7c-0.1,0.1-0.2,0.3-0.3,0.5v3c0.3,0,0.7,0,1,0c0.1-0.1,0.1-0.2,0.2-0.2c0-0.8,0-1.6,0-2.4c0.3,0.1,0.8,0.1,1.1,0
		c0,0.5,0,1.3,0,1.9c0,0-0.1,0.1-0.1,0.1L27,27.6c0,0,0.2,0,0.2,0c0,0,0,0-0.1,0.1c0.1,0.1,0.7,0.1,0.8-0.1c0,0,0,0,0,0
		c0.2,0,0.4,0,0.6,0.1c0.2,0.1,0.3,0.2,0.5,0.2c0.2,0,0.4-0.1,0.6-0.1c0.1,0.1,0.3,0.1,0.4,0.2l-0.1,0.1c0,0,0.2,0,0.2,0
		c0,0,0,0,0,0.1c0.1,0.1,0.7,0,0.7-0.2c0-0.1,0.1-0.2,0.1-0.3c0.2-0.2,0.4-0.4,0.6-0.6c-0.4,0.7-0.9,1.3-1.6,1.8
		c-0.8,0.2-1.7,0-2.4,0.2c-0.3,0.1-0.3,0.3-0.7,0.3c-0.2,0-0.5,0.1-0.6,0.1c0.4,0.1,0.7,0.2,1.1,0.1c0.1-0.1,0.2-0.2,0.4-0.3
		c0.6-0.2,1.2-0.2,1.8-0.1c-1.2,0.9-2.7,1.4-4.3,1.4c-0.1,0-0.2,0-0.2,0l0,1.6c0.1,0,0.1,0,0.2,0c0.4,0,0.7,0,1.1-0.1l0.2-0.7
		c0.6-0.1,1.1-0.2,1.6-0.4l0.6,0.5c0.6-0.3,1.3-0.6,1.8-1.1l-0.2-0.8c0.3-0.3,0.6-0.5,0.9-0.9l-0.2,1.4c0,0-0.1,0.1-0.1,0.1
		c0,0.1,0,0.1,0.1,0.1v0.3c0,0.3,0.2,0.5,0.4,0.5h3.6c0.2,0,0.4-0.2,0.4-0.5v-0.2c0.1,0,0.1-0.1,0.1-0.1c0-0.1-0.1-0.1-0.1-0.1
		l-1.1-6.9h-0.2l1,6.9h-1.8l0-3.4c0,0,0,0,0,0l0,0l0-2.2l0.7-0.2c0-0.3,0.1-0.7,0.1-1v-0.1h-2.1c0,0.2,0,0.3,0,0.5
		c0,0.3-0.1,0.6,0,0.8c0.1,0.4,0.2,0.7,0.2,1c0,0.4-0.2,0.9-0.2,1.2c-0.2-0.2-0.3-0.5-0.3-0.9c0-0.4,0.1-0.9,0.2-1.5
		c0-0.4,0-0.8,0-1.1"/>
	<path id="path228" class="st1" d="M36.9,13.2c0,0,0.1,0.3,0.3,0c0.3-0.2,0.1-0.5,0.1-0.5l-0.5-0.5l-0.4-0.4l-1.3,1.5l-0.4-0.4
		l1.3-1.5l-0.8-0.6L34,12.3l-0.5-0.4l0.3-0.4c0,0-0.4,0-0.8-0.3c-0.4-0.3-0.6-0.7-0.3-1.2c0.2-0.3,0.6-0.5,0.7-0.5l-0.7-0.4
		l-0.9,1.8l-0.6-0.3L32,8.9c-0.6-0.3-1.3-0.5-2-0.7l-0.2,0.7c0,0,0.4-0.3,0.8-0.1c0.6,0.2,0.8,0.5,0.7,0.9c-0.1,0.5-0.6,0.5-1,0.4
		c-0.4-0.1-0.5-0.3-0.5-0.3l0.1-0.3c0,0,0.2,0.1,0.3,0.2c0.3,0.1,0.5,0,0.6-0.2c0.1-0.3,0-0.4-0.4-0.5c-0.3-0.1-0.6,0.2-0.6,0.2
		L29.5,10l-0.6-0.2L29,9.5c0,0-0.4,0.1-0.8,0c-0.4-0.1-0.8-0.5-0.6-0.9c0.1-0.5,0.6-0.5,1-0.4c0.3,0.1,0.5,0.2,0.5,0.2l-0.1,0.3
		c0,0-0.1-0.1-0.3-0.1c-0.3-0.1-0.5,0-0.6,0.2c-0.1,0.3,0.1,0.4,0.3,0.4c0.3,0.1,0.6,0,0.6-0.1l0.3-1.2c-0.6-0.1-1.1-0.2-1.7-0.3
		l0.1-0.4c1.5,0.2,3,0.7,4.4,1.3c1.3,0.6,2.5,1.3,3.5,2.1c0.1,0.1,0.3,0.2,0.5,0.4c-0.1-0.5-0.2-0.6-0.2-0.7l0.4-0.1
		c0.1,0.1,0.3,0.5,0.1,1.1c0,0,0,0,0,0c0-0.2,0.2-0.5,0.4-0.4c0.2,0,0.3,0.1,0.5,0.4l-0.3,0.3c-0.2-0.3-0.4-0.2-0.3,0.1
		c0.1,0.1,0.2,0.2,0.3,0.2c0.2,0.2,0.5,0.5,0.8,0.8c-0.1-0.5-0.1-0.6-0.2-0.7l0.4-0.1c0.1,0.1,0.3,0.5,0,1.1
		c0.2,0.2,0.3,0.4,0.4,0.5l-0.3,0.3l-0.3-0.4c0,0,0.1,0.4-0.1,0.6c-0.6,0.5-1-0.1-1.1-0.1c-0.3,0.3-0.5,0.7-0.2,0.9l-0.4-0.1
		c-0.2-0.2-0.3-0.4-0.2-0.7c0.1-0.3,0.3-0.8,0.3-0.8L36,12.9l0.4-0.4L36.9,13.2L36.9,13.2z M26.4,7.9c0.2,0,0.3,0.1,0.3,0.3
		c0,0.2-0.1,0.3-0.3,0.3c-0.2,0-0.3-0.1-0.3-0.3C26.1,8,26.3,7.9,26.4,7.9z M34.6,10.3L34.2,11c0,0-0.4,0.2-0.7,0.1
		c-0.3-0.2-0.4-0.4-0.2-0.7c0.2-0.3,0.4-0.4,0.6-0.5L34.6,10.3L34.6,10.3z M39.8,18.9c0,0,0,0.1-0.2,0.1c-0.2,0-0.3-0.1-0.3-0.2
		c0-0.1,0-0.2,0.2-0.2c0.2,0,0.3,0.1,0.3,0.1L39.8,18.9L39.8,18.9z M38.6,15c0,0-0.1,0-0.2-0.1c-0.1-0.1-0.1-0.2,0-0.3
		c0.2-0.1,0.3,0,0.4,0.1c0.2,0.2,0,0.5-0.2,0.7c-0.3,0.2-0.5,0.1-0.6-0.1l-0.5-0.7l-0.4,0.3l0.3,0.4c-0.1,0.2-0.1,0.2-0.2,0.5
		c0,0.3,0,0.5,0.2,0.7l0.4,0.5l0.3-0.2l-0.4-0.5c-0.1-0.1-0.1-0.2-0.1-0.3c0-0.1,0-0.1,0.1-0.1l0.1,0.2c0,0,0.6,0.7,1.1,0.3
		c0.4-0.3,0.5-1.1,0.2-1.6c-0.2-0.3-0.6-0.8-1.2-0.3c-0.2,0.2-0.2,0.5,0,0.7c0.1,0.1,0.2,0.3,0.3,0.2L38.6,15L38.6,15z M41.7,20.8
		l-0.4,0.1l-0.1-0.5l-1.9,0.4l-0.1-0.6l1.1-0.3l-0.2-0.4c0,0-0.1,0.1-0.4,0.2c-0.5,0.1-0.7-0.2-0.9-0.6c-0.2-0.5,0-0.9,0.4-1.1
		c0.7-0.3,0.9,0.4,0.9,0.4l0.5,1.4l0.4-0.1c-0.2-0.9-0.5-1.8-0.9-2.6L38.4,18l-0.2-0.5l1.7-0.9l-0.2-0.4l0.4-0.2
		C40.9,17.4,41.4,19.1,41.7,20.8z M26,16.3l0.2,1.2l0.8,0l-0.4-0.8L26,16.3C26,16.3,26,16.3,26,16.3L26,16.3z M28.3,16.8
		c0.1,0.1,0.3,0.6,0.3,0.6l0.8,0l0.1-0.1C29.1,17.2,28.7,17,28.3,16.8L28.3,16.8z M27.4,18.6c0.1,0.5,0.2,1.1,0.2,1.8
		c0.5-0.1,1.1-0.3,1.6-0.3c0.5,0,0.9,0,1.3,0.1c0.3,0.1,0.6,0.2,0.8,0.3c0.2,0.1,0.5,0.2,0.7,0.5c0.4,0.4,0.6,1.2,0.6,1.5
		c0-0.2-0.1-0.5-0.1-0.8c-0.3-1.2-0.9-2.3-1.8-3.2c-0.4,0-0.9,0-1.3,0c0,0,0,0.1,0.1,0.1c-0.2,0-0.3-0.1-0.5-0.1l-0.1,0
		c0,0.3,0.1,0.6,0,0.8c-0.5-0.2-0.7-0.5-0.9-0.8C27.7,18.6,27.5,18.6,27.4,18.6L27.4,18.6z M26.4,18.6c0.2,0,0.5,0,0.7,0
		c0.1,0.6,0.2,1.1,0.2,1.8c-0.2,0-0.5,0-0.8,0.1C26.5,19.8,26.5,19.2,26.4,18.6L26.4,18.6z M33.4,20.2L33,20.6
		c0.1,0.4,0.3,0.8,0.3,1.2L33.4,20.2z M33.5,20C33.5,20,33.5,20,33.5,20L33.5,20l0,0.3l0,2l0.7,0.2l-0.6-3.9L33.5,20L33.5,20z
		 M33.2,18.5c-0.2,0-0.3-0.1-0.4-0.2l-0.3,0c0.2,0.3,0.4,0.6,0.6,0.9L33.2,18.5L33.2,18.5z M25.2,9l0.1,0.2l-0.1,0V9L25.2,9z
		 M43.5,23.5c0-10-8.1-18.1-18.1-18.1c-0.1,0-0.2,0-0.2,0V4.8c0.1,0,0.2,0,0.2,0C35.7,4.8,44,13.2,44,23.5H43.5L43.5,23.5z
		 M42.7,23.5c0-9.5-7.8-17.3-17.3-17.3c-0.1,0-0.2,0-0.2,0V5.9c0.1,0,0.2,0,0.2,0c9.7,0,17.6,7.9,17.6,17.6H42.7L42.7,23.5z
		 M41.5,23.5l0-0.7l0.4,0c0,0.2,0,0.5,0,0.7L41.5,23.5L41.5,23.5z M39.5,23.5c0.1-0.4,0.4-0.7,0.9-0.7c0.5,0,0.8,0.3,0.9,0.7h-0.7
		c-0.1,0-0.1-0.1-0.3-0.1c-0.1,0-0.2,0-0.3,0.1L39.5,23.5L39.5,23.5z M38.6,23.5c0-3.4-1.3-6.4-3.3-8.8l0,0
		c-0.1-0.1-0.1-0.1-0.2-0.2c-0.1-0.1-0.3-0.3-0.4-0.4h0c0,0,0,0,0,0v0c0,0,0,0-0.1-0.1c0,0,0,0,0,0c-0.7-0.7-1.5-1.3-2.4-1.8v0h0
		c-0.1,0-0.1-0.1-0.2-0.1v0h0c-0.3-0.2-0.6-0.3-0.9-0.5c0,0,0,0,0,0h0c-0.1,0-0.1-0.1-0.2-0.1v0h0c-0.1,0-0.1,0-0.2-0.1v0
		c0,0,0,0-0.1,0c-0.1,0-0.2-0.1-0.2-0.1v0c0,0,0,0,0,0c-0.2-0.1-0.3-0.1-0.5-0.2v0c0,0,0,0,0,0c-0.1,0-0.2-0.1-0.2-0.1v0
		c0,0-0.1,0-0.1,0c-0.1,0-0.1,0-0.2-0.1v0c0,0-0.1,0-0.1,0c-0.1,0-0.1,0-0.2-0.1c0,0,0,0,0,0c0,0-0.1,0-0.1,0
		c-1.1-0.3-2.2-0.4-3.4-0.4c-0.1,0-0.2,0-0.2,0l0-0.4c0.1,0,0.2,0,0.2,0C32.9,9.9,39,16,39,23.5L38.6,23.5L38.6,23.5z M32.2,23.5
		c0-0.3,0-0.6,0-0.9c0-0.9-0.3-1.6-1.3-2c-0.5-0.2-1.2-0.3-1.5-0.3c-1.3,0-2.3,0.5-3.7,0.3c-0.2,0-0.4-0.1-0.5-0.2l0-0.3
		c0.1,0.1,0.2,0.2,0.3,0.2c0.2,0,0.4,0.1,0.6,0c0.1-0.6,0.1-1.1,0-1.7c-0.3,0-0.6,0-0.9,0l0-0.3c0,0,0.1,0,0.1,0
		c0,0.1,0.1,0.2,0.1,0.2c0,0,0.1-0.1,0.1-0.2c2.5,0,5-0.1,7.5-0.2v0c0.1,0.1,0.2,0.2,0.3,0.2c0.2,0,0.3-0.2,0.3-0.3
		c0-0.2-0.2-0.3-0.3-0.3c-0.1,0-0.3,0.1-0.3,0.2c-2.5-0.1-4.9-0.2-7.4-0.1c0-0.1,0-0.3,0-0.5c0-0.7-0.1-1.3-0.3-1.3
		c-0.1,0-0.2,0.3-0.2,0.7v-2.1c0.4,0,0.8,0,1.3,0.1c0.2,0,0.4,0.1,0.6,0.1c-0.1,0.2-0.3,0.4-0.4,0.5l0,0h0l0.1,0.2
		c0.6,0.1,1.1,0.2,1.6,0.4l0.5-0.5l0.1,0c0,0,0,0,0,0c0.1,0,0.1,0,0.1,0c0.6,0.3,1.2,0.6,1.7,1l-0.2,0.8c0.2,0.1,0.3,0.3,0.5,0.4
		l1.8,0c0.1-0.1,0.2-0.3,0.4-0.3c0,0,0,0,0,0c0.1,0,0.5,0,0.6,0.3c0,0.1,0.1,0.2,0.1,0.2c0,0.2-0.1,0.4-0.2,0.5l0.8,5h-0.2l-0.1-0.6
		c0,0.2,0,0.4,0,0.6L32.2,23.5L32.2,23.5z M31.7,23.5c0.1-0.3,0.1-0.5,0.2-0.5c0.1-0.5-0.1-0.7-0.2-1.1c0.2,0,0.3,0.7,0.3,1.5
		c0,0,0,0,0,0.1"/>
	<path id="path230" class="st0" d="M26.5,13.5c0.2,0,0.4,0.2,0.4,0.4c0,0.2-0.2,0.4-0.4,0.4c-0.2,0-0.4-0.2-0.4-0.4
		C26.1,13.7,26.3,13.5,26.5,13.5z M24.6,13.7c0.3,0,0.5,0.2,0.5,0.5c0,0.3-0.2,0.5-0.5,0.5c-0.3,0-0.5-0.2-0.5-0.5
		C24.1,13.9,24.3,13.7,24.6,13.7z M24.1,12.7c0.3,0,0.5,0.2,0.5,0.5c0,0.3-0.2,0.5-0.5,0.5c-0.3,0-0.5-0.2-0.5-0.5
		C23.7,12.9,23.9,12.7,24.1,12.7z M25.4,12.9c0.3,0,0.5,0.2,0.5,0.5c0,0.3-0.2,0.5-0.5,0.5c-0.3,0-0.5-0.2-0.5-0.5
		C24.8,13.1,25.1,12.9,25.4,12.9z M24.9,12.7c-0.3,0-0.5-0.2-0.5-0.5c0-0.3,0.2-0.5,0.5-0.5c0.3,0,0.5,0.2,0.5,0.5
		C25.4,12.5,25.2,12.7,24.9,12.7z M26.4,12.3c0.3,0,0.5,0.2,0.5,0.5c0,0.3-0.2,0.5-0.5,0.5c-0.3,0-0.5-0.2-0.5-0.5
		C25.9,12.5,26.2,12.3,26.4,12.3L26.4,12.3z M25.4,14.8C25.4,14.8,25.4,14.8,25.4,14.8L25.4,14.8c0-0.1,0-0.1,0-0.2
		c0-0.2,0.1-0.3,0.2-0.4v0c0.1,0,0.1-0.1,0.2-0.1c0,0,0.1,0,0.1,0c0.2,0,0.4,0.2,0.4,0.5c0,0.3-0.2,0.5-0.5,0.5c0,0,0,0,0,0
		c0,0,0,0.1,0,0.2c0,0.3-0.2,0.5-0.5,0.5c-0.2,0-0.3-0.1-0.4-0.2c-0.1-0.1-0.1-0.2-0.1-0.3c0-0.1,0-0.2,0.1-0.2c0,0,0,0,0,0h0
		C25,14.9,25.1,14.8,25.4,14.8C25.3,14.8,25.3,14.8,25.4,14.8"/>
	<path id="path232" class="st2" d="M24.9,12.7c-0.3,0-0.5-0.2-0.5-0.5c0-0.3,0.2-0.5,0.5-0.5c0.3,0,0.5,0.2,0.5,0.5
		C25.4,12.5,25.2,12.7,24.9,12.7z M24.1,12.7c0.3,0,0.5,0.2,0.5,0.5c0,0.3-0.2,0.5-0.5,0.5c-0.3,0-0.5-0.2-0.5-0.5
		C23.7,12.9,23.9,12.7,24.1,12.7z M24.6,13.7c0.3,0,0.5,0.2,0.5,0.5c0,0.3-0.2,0.5-0.5,0.5c-0.3,0-0.5-0.2-0.5-0.5
		C24.1,13.9,24.3,13.7,24.6,13.7z M26.4,12.3c0.3,0,0.5,0.2,0.5,0.5c0,0.3-0.2,0.5-0.5,0.5c-0.3,0-0.5-0.2-0.5-0.5
		C25.9,12.5,26.2,12.3,26.4,12.3z M26.5,13.5c0.2,0,0.4,0.2,0.4,0.4c0,0.2-0.2,0.4-0.4,0.4c-0.2,0-0.4-0.2-0.4-0.4
		C26.1,13.7,26.3,13.5,26.5,13.5L26.5,13.5z M25.4,12.9c0.3,0,0.5,0.2,0.5,0.5c0,0.3-0.2,0.5-0.5,0.5c-0.3,0-0.5-0.2-0.5-0.5
		C24.8,13.1,25.1,12.9,25.4,12.9z M25.4,14.8C25.4,14.8,25.4,14.8,25.4,14.8L25.4,14.8c0-0.1,0-0.1,0-0.2c0-0.2,0.1-0.3,0.2-0.4v0
		c0.1,0,0.1-0.1,0.2-0.1c0,0,0.1,0,0.1,0c0.2,0,0.4,0.2,0.4,0.5c0,0.3-0.2,0.5-0.5,0.5c0,0,0,0,0,0c0,0,0,0.1,0,0.2
		c0,0.3-0.2,0.5-0.5,0.5c-0.2,0-0.3-0.1-0.4-0.2c-0.1-0.1-0.1-0.2-0.1-0.3c0-0.1,0-0.2,0.1-0.2c0,0,0,0,0,0l0,0
		C25,14.9,25.1,14.8,25.4,14.8C25.3,14.8,25.3,14.8,25.4,14.8L25.4,14.8z M25,14.8c-0.1,0-0.3,0.1-0.4,0.1l-0.2-0.1l-0.2,0.7
		l-0.8,0.2c0-0.1,0.5-1,0.4-1c0,0-0.3,0-0.4,0c0-0.1,0.2-0.2,0.2-0.2c-1,0.1-1.6,0.3-2,0.6c0,0,0,0,0,0c0,0,0,0,0,0
		c0-0.3,0.2-0.5,0.2-0.5c-0.6,0.3-1.2,0.6-1.7,1c0-0.1,0-0.2,0-0.4c0-0.1-1.5,1.1-1.8,1.5c0.1-0.6,0.1-0.5,0.2-0.6
		c-0.8,0.7-1.7,1.5-2.2,2.4c0-0.1-0.1-0.2-0.1-0.4c-0.4,0.5-0.9,1.2-1.3,1.8c-0.1-0.8,0.1-1.7,0.8-2.3c-0.1,0-0.3,0-0.4,0
		c0.6-0.7,1.3-1.4,2.2-1.8c-0.2-0.1-0.7,0-0.9,0c0.9-0.7,2.1-1.3,3.2-1.5c-0.1,0-0.2-0.1-0.3-0.1c0.4-0.4,1-0.5,1.6-0.6
		c-0.1,0-0.2-0.1-0.3-0.1c0.4-0.1,0.9-0.3,1.3-0.4c-0.2-0.1-2.2,0.2-2.4,0.4c-0.1,0,0.4-0.6,0.4-0.6c-0.8,0.2-1.6,0.7-2.2,1.2
		c0-0.1,0-0.3,0-0.5c-0.5,0.3-0.9,0.9-1.2,1.5c-0.1-0.1,0-0.4,0-0.6c-0.5,0.7-1,1.6-1.5,2.4c0-0.5,0-1.1,0-1.7
		c1.1-1.3,2.4-2.5,3.9-3.3c0.6-0.1,1.5-0.2,2.2-0.3c-0.1-0.1-0.5-0.1-0.5-0.2c0.6-0.1,1.7,0.1,2.4,0.3c0-0.5-0.5-0.9-1-1.1
		c0.8-0.2,1.7-0.3,2.5-0.4c0.4,0.4,0.8,1.1,0.8,1.6c0.2-0.5,0.8-1.2,1.3-1.5c0.7,0.1,1.3,0.2,2,0.3c-0.3,0.3-0.7,0.7-1,1
		c0.8-0.2,1.7-0.3,2.5-0.1c0,0-0.8,0.3-0.6,0.3c0.5,0,3.6,0.6,3.3,0.7c0,0,0-0.1,0-0.1c0.7,0.4,1.3,1,1.9,1.5
		c-0.2,0-0.4,0.1-0.4,0.1c0,0.1,0.3,0.3,0.4,0.4c-0.7-0.4-1.7-0.8-2.5-1.1c0.3,0.2,0.6,0.4,0.7,0.8c-0.8-0.4-1.6-0.9-2.5-1.2
		c0.1,0.2,0.3,0.4,0.4,0.6c-0.7-0.3-1.5-0.6-2.1-0.4c0.5,0.2,1.6,0.5,2.1,0.8c-0.2,0-0.5,0.1-0.5,0.1c0.7,0.3,1.5,0.6,2.1,0.9
		c-0.3-0.1-0.7-0.1-1.1-0.1c0.9,0.2,1.7,0.6,2.1,1.1c-0.2-0.1-0.5-0.2-0.7-0.2c0.9,0.4,1.3,0.9,1.8,1.3c-0.1,0-0.3,0-0.4,0
		c0.4,0.3,0.7,0.5,0.7,0.9c-0.3-0.3-0.7-0.5-1-0.6c0,0.1,0.1,0.2,0.1,0.2c-0.2-0.1-0.5-0.2-0.7-0.4c-0.1-0.4-0.2-0.7-0.5-0.9
		c0.1,0.3,0.2,0.7,0.2,1c-0.5-0.7-1.2-1.2-1.8-1.7c0.2,0.3,0.4,0.7,0.4,1c-1.8-1.8-2.5-1.8-3.4-2.1c0.3,0.2,0.7,0.6,0.9,0.8
		c-0.3-0.1-1.8-0.3-2.1-0.6c-0.1-0.1,0.4,0.6,0.5,0.8c-0.3-0.1-0.7-0.2-0.9-0.1c0-0.2-0.2-0.8-0.3-0.7c0,0.2-0.4,0.4-0.5,0.4
		c0,0.2-0.1,0.6-0.5,0.7c-0.6,0.1-0.7-0.5-0.7-0.8C24.7,15,24.9,14.8,25,14.8L25,14.8z M26.4,16.5c0.1,0,0.4,0.1,0.5,0.1
		c0.1,0,0.1,0,0.2,0c0.4,0.1,0.9,0.2,1.3,0.3c0.1,0.2,0.2,0.4,0.3,0.6c-0.5,0-1.1,0-1.6,0c-0.2-0.3-0.3-0.5-0.4-0.8
		C26.7,16.6,26.4,16.5,26.4,16.5L26.4,16.5z M27.8,18.6c0.3,0,0.6,0,0.9-0.1c0,0.3,0.1,0.5,0,0.8C28.4,19.2,28.1,18.9,27.8,18.6
		L27.8,18.6z M28.9,18.5c0.3,0.1,0.2,0.2,0.5,0.1c0,0,0-0.1-0.1-0.1C29.1,18.5,29.2,18.5,28.9,18.5L28.9,18.5z M22.4,18.6h1.4v0
		c0,0,0,0,0,0c-0.2,0.1-0.2,0.2-0.5,0.5c0-0.1-0.1-0.2-0.1-0.2c-0.2,0.1-0.5,0.2-0.7,0.4c0.1-0.3,0.1-0.5,0.1-0.7
		C22.5,18.6,22.4,18.6,22.4,18.6L22.4,18.6z M22.8,17.5c0.4,0,1.3,0,2,0c0-0.3,0-0.7,0.1-1.1c-0.7,0-1.1,0.1-1.8,0.3
		C23.1,16.6,22.9,17.2,22.8,17.5"/>
</g>
</svg>
