<?xml version="1.0" encoding="utf-8"?>
<!-- Generator: Adobe Illustrator 23.0.5, SVG Export Plug-In . SVG Version: 6.00 Build 0)  -->
<svg version="1.1" id="Layer_1" xmlns="http://www.w3.org/2000/svg" xmlns:xlink="http://www.w3.org/1999/xlink" x="0px" y="0px"
	 viewBox="0 0 50 50" style="enable-background:new 0 0 50 50;" xml:space="preserve">
<style type="text/css">
	.st0{fill:#2E3192;}
	.st1{fill:#EC0677;}
</style>
<g id="XMLID_1_">
	<path id="XMLID_5_" class="st0" d="M16.5,28l-0.4-0.1l-0.1-0.1c-0.1-0.2-0.1-0.3-0.2-0.5c0-0.8,0-1.5,0-2.3c0-0.1,0-0.2,0.1-0.4
		l0.1-0.2l0.2-0.1l0.2,0c0.9,0,1.9,0,2.8,0l0.2,0l0.2,0.1c0.1,0.2,0.1,0.4,0.2,0.6c0,0.2,0,0.4,0,0.6c-0.4,0-0.8,0-1.2,0
		c0-0.2,0-0.4,0-0.6c-0.5,0-1,0-1.5,0c0,0.7,0,1.5,0,2.2c0.5,0,1,0,1.5,0c0-0.3,0-0.5,0-0.8c0.4,0,0.8,0,1.2,0c0,0.4,0,0.9-0.2,1.3
		l-0.3,0.1l-0.3,0.1C18.3,27.9,17.4,27.9,16.5,28L16.5,28z"/>
	<path id="XMLID_6_" class="st0" d="M21.4,28c-0.1,0-0.3-0.1-0.4-0.1v0l-0.2-0.2l-0.1-0.3c0-1.1,0-2.1,0-3.1c0.4,0,0.8,0,1.2,0
		c0,1,0,2,0,2.9c0.5,0,1,0,1.6,0c0-1,0-2,0-2.9c0.4,0,0.8,0,1.2,0c0,1,0,2,0,3.1c0,0.1-0.2,0.4-0.2,0.5l-0.3,0.1
		C23.3,27.9,22.4,27.9,21.4,28L21.4,28z"/>
	<path id="XMLID_36_" class="st0" d="M29.8,26.4l-0.1-0.2l-0.2-0.2L29.4,26l0.2-0.1c0.1-0.1,0.2-0.2,0.2-0.3c0-0.3,0-0.6,0-0.8
		l0-0.2l-0.1-0.2l0-0.1l-0.1,0l-0.2,0c-1.1,0-2.3,0-3.3,0c0,1.1,0,2.4,0,3.6l0,0c1,0,2.1,0,3.1,0c0.1,0,0.3-0.1,0.4-0.1
		c0.1-0.1,0.2-0.2,0.3-0.3l0.1-0.1c0-0.3,0-0.5,0-0.8L29.8,26.4z M27.1,24.9c0.4,0,0.9,0,1.3,0l0.2,0.1c0,0.2,0,0.4,0,0.7
		c-0.5,0-0.9,0-1.4,0v0C27.1,25.4,27.1,25.1,27.1,24.9z M28.7,26.9l-0.1,0.2l-0.1,0.1c-0.4,0-0.8,0-1.3,0c0-0.4,0-0.6,0-0.9
		c0.5,0,0.9,0,1.3,0l0.2,0C28.7,26.5,28.7,26.8,28.7,26.9z"/>
	<polygon id="XMLID_37_" class="st0" points="30.1,27 30.1,27 30.1,27 	"/>
	<path id="XMLID_45_" class="st0" d="M34.5,15.1c-0.1-0.3-0.1-0.6-0.2-0.9L34.2,14c0-0.2-0.2-0.4-0.2-0.6c-0.1-0.2-0.2-0.4-0.3-0.5
		c-0.1-0.2-0.2-0.3-0.3-0.5c0-0.1-0.2-0.3-0.2-0.3c-0.1-0.1-0.2-0.2-0.3-0.3c-0.1-0.1-0.2-0.2-0.3-0.3l-0.3-0.2
		c-0.2-0.2-0.4-0.3-0.6-0.4l-0.2-0.1c-0.3-0.1-0.5-0.2-0.7-0.3l-0.2-0.1c0-0.7,0-1.3,0-1.9l0-0.3c0-0.1-0.1-0.2-0.1-0.3l-0.2-0.4
		c-0.1-0.1-0.3-0.3-0.4-0.4c-0.1,0-0.2-0.1-0.3-0.2c-0.3-0.2-0.7-0.2-1-0.2l-0.3,0c-0.2,0.1-0.6,0.1-0.7,0.3c-0.2,0-0.4,0.3-0.6,0.4
		l-0.1,0.1c-0.1,0.2-0.3,0.4-0.4,0.7c0,0.1-0.1,0.2-0.1,0.4c0,0.3,0,0.6,0,1c0-0.1-0.2-0.3-0.3-0.3C26,9.1,25.8,9,25.5,8.9
		c-0.2,0-0.4,0-0.7,0C24.7,9,24.5,9,24.3,9.1l-0.2,0.1L24,9.4c-0.1,0.1-0.3,0.3-0.4,0.4l-0.1,0.1c-0.1,0.1-0.1,0.3-0.2,0.4l-0.1,0.2
		l0,0.1c-0.1-0.1-0.2-0.2-0.3-0.4c-0.1-0.1-0.4-0.4-0.5-0.4c-0.3-0.3-0.9-0.2-1.2-0.2c-0.1,0-0.3,0.1-0.4,0.1
		c-0.1,0.1-0.4,0.2-0.5,0.4l-0.1,0.1c-0.1,0.2-0.5,0.6-0.5,0.8c-0.1,0.1-0.1,0.3-0.1,0.4c0,0.1-0.1,0.2-0.1,0.4l-0.1-0.2l-0.2-0.2
		l-0.1-0.1l-0.2-0.1c-0.1-0.1-0.6-0.3-0.8-0.3c-0.2,0-0.3,0-0.4,0c-0.3,0-0.4,0.1-0.7,0.2l-0.2,0.2c-0.1,0.1-0.3,0.2-0.3,0.3v0
		L16.5,12c-0.1,0.2-0.2,0.4-0.3,0.6l0,0.2c-0.2,1.2,0,2.4,0,3.6c0,0.1,0,0.2,0.1,0.4c0,0.1,0.3,0.9,0.4,0.9l0.5,0.5
		c0.2,0.2,0.5,0.3,0.7,0.3c0,1.4,0,2.7,0.1,4.1c0.1,0.2,0.1,0.4,0.2,0.6l0.4,0.4l0.3,0.1c2.5,0,5,0,7.4,0l0.2,0l0.2-0.1
		c0.1-0.2,0.2-0.4,0.3-0.6c0-0.2,0.1-0.3,0.1-0.5c0-0.3-0.1-0.7,0-1v-1.3v-0.2c0-0.2,0-0.3,0.1-0.5c0.1-0.1,0.3-0.4,0.4-0.4
		c0.1-0.1,0.3-0.2,0.5-0.2l0.2,0c0.2,0,0.5,0,0.7,0.1c0.1,0,0.4,0.1,0.4,0.2c0.1,0,0.3,0.2,0.4,0.3l0.1,0.3c0.1,0.1,0.1,0.3,0.1,0.4
		c0,2.2,0,4.5,0,6.7c0.2,0,0.4,0,0.5,0c0-1.8,0-3.7,0-5.6l0.2-0.1c0.1-0.1,0.3-0.1,0.4-0.2c0.1,0,0.2-0.1,0.3-0.1l0.1-0.1l0.6-0.4
		l0.2-0.1l0.1-0.1l0.1-0.1c0.2-0.2,0.3-0.4,0.5-0.6c0.2-0.2,0.3-0.5,0.5-0.7v0c0.1-0.3,0.3-0.6,0.5-0.9c0-0.2,0.2-0.5,0.2-0.6
		c0-0.2,0.1-0.4,0.1-0.7c0-0.3,0-0.6,0.1-0.9C34.5,15.6,34.5,15.3,34.5,15.1z M27.1,8.4l0-0.2l0.3-0.4l0-0.1l0.2-0.2
		c0.2-0.1,0.3-0.2,0.5-0.2l0.1,0l0.4,0h0.2c0.2,0,0.6,0.1,0.7,0.4h0c0.1,0,0.2,0.2,0.3,0.3L30,8.4c0,0.7,0,1.5,0,2.2
		c-0.1,0.1-0.1,0.2-0.1,0.4l-0.2,0.3l-0.1,0.1c-0.2,0.1-0.3,0.1-0.4,0.2c-0.1,0-0.2,0-0.3,0.1c-0.2,0-0.4,0-0.5,0v0v0l-0.2,0
		l-0.2-0.1c-0.2-0.1-0.5-0.2-0.6-0.4l-0.2-0.3l0-0.2C27.1,9.9,27.1,9.1,27.1,8.4z M23.7,11.2c0.1-0.3,0.1-0.7,0.3-0.9
		c0-0.2,0.4-0.5,0.5-0.5c0.3-0.2,0.5-0.3,0.8-0.3c0.3,0,0.8,0.3,0.9,0.5c0.2,0.1,0.3,0.5,0.4,0.7l-0.3,0.1c-0.2,0-0.4,0.3-0.5,0.3
		c-0.2,0.2-0.4,0.2-0.6,0.5h0L25,11.7l-0.3,0.3l-0.2,0.2c-0.2,0.1-0.4,0.4-0.5,0.6c-0.1,0.2-0.2,0.3-0.3,0.5l-0.1,0.2v0
		C23.7,12.7,23.7,11.9,23.7,11.2z M20.2,11.7l0.1-0.2l0.1-0.3l0.1-0.3c0.1-0.2,0.2-0.3,0.3-0.5l0.2-0.2l0.3-0.2
		c0.1-0.1,0.3-0.1,0.4-0.1c0.2,0,0.4,0,0.6,0.1l0.4,0.3l0.3,0.3c0.1,0,0.3,0.6,0.3,0.7c0,1,0,1.9,0,2.9c0,0.2,0,0.4,0.1,0.6
		c0,0.3-0.1,0.6-0.2,0.8c-0.1,0.1-0.1,0.2-0.2,0.3c-0.1,0.1-0.2,0.2-0.3,0.3l-0.2,0.1c-0.2,0.1-0.4,0.1-0.5,0.2c-0.2,0-0.3,0-0.4,0
		v0v0l0,0v0c-0.4-0.1-0.8-0.3-0.9-0.7l0-0.1l-0.2-0.5l-0.1-0.2l-0.1-0.2C20.2,14,20.2,12.8,20.2,11.7z M18,18.1L18,18.1L18,18.1
		L18,18.1L18,18.1c-0.1,0-0.3-0.1-0.4-0.1l-0.2-0.1c-0.3-0.2-0.7-0.7-0.7-1.2l0-0.1c0-1.2,0-2.4,0-3.6l0-0.1l0-0.2l0-0.2
		c0.1-0.1,0.1-0.2,0.2-0.3c0-0.1,0.3-0.4,0.3-0.4c0.1-0.1,0.2-0.1,0.3-0.2l0.2-0.1l0.3,0c0.1,0,0.2,0,0.3,0l0.3,0.2l0.3,0.2l0.2,0.2
		l0.1,0.2c0.2,0.3,0.3,0.8,0.3,1.2c0,1.1,0,2.1,0,3.2c-0.1,0.1-0.1,0.4-0.2,0.5c-0.1,0.1-0.1,0.2-0.2,0.3l-0.3,0.3
		c-0.1,0.1-0.3,0.2-0.4,0.3L18.5,18C18.3,18,18.2,18,18,18.1z M26.5,22.7c0,0.2,0,0.3-0.1,0.5l-0.1,0.2c-2.5,0-5,0-7.4,0l0,0
		l-0.1-0.1l0-0.1l-0.2-0.5l0-0.2c0-1.3,0-2.6,0-4l0.2,0l0.4-0.2c0.1,0,0.2-0.2,0.3-0.2c0.3-0.2,0.6-0.7,0.7-1l0.1-0.3
		c0.1-0.1,0.1-0.4,0.1-0.5l0.2,0.2v0l0.5,0.4l0.5,0.3c0.2,0,0.4,0,0.6,0l0.2,0c0.2-0.1,0.5-0.2,0.6-0.3c0.1-0.1,0.3-0.2,0.4-0.4
		c0,0.2,0.1,0.5,0.1,0.7c0,0.1,0,0.2,0.1,0.3c0.2,0.4,0.3,0.7,0.5,1.1l0.3,0.5l0.1,0.1l0.1,0.2c0.1,0.2,0.3,0.3,0.4,0.5l0.4,0.4
		l0.1,0.1l0.2,0.1l0.3,0.2l0.1,0.1l0.2,0.1H26l0.1,0.1l0.2,0.1l0.2,0.1C26.5,21.6,26.5,22.1,26.5,22.7z M33.8,17.5
		c-0.1,0.2-0.2,0.5-0.3,0.7c-0.1,0.1-0.1,0.2-0.2,0.4L33,19c-0.1,0.1-0.2,0.2-0.3,0.4l-0.1,0l-0.4,0.4h0l0,0.1
		c-0.2,0.1-0.4,0.3-0.6,0.4c-0.3,0.1-0.6,0.3-0.8,0.4l-0.3,0.1v0c0-0.2,0-0.4,0-0.6l0-0.3c-0.1-0.1-0.1-0.3-0.1-0.4L29.9,19
		l-0.3-0.2c-0.1-0.1-0.3-0.1-0.4-0.2l-0.3-0.1c-0.1,0-0.2,0-0.3,0l0.3,0c0-0.5,0-1,0-1.3c-0.1,0-0.3,0-0.4,0c0,0.4,0,0.9,0,1.3
		c-0.3,0-0.4,0-0.6,0.1l-0.3,0.1c-0.1,0.1-0.2,0.2-0.3,0.2h0l-0.3,0.2c-0.1,0.1-0.2,0.2-0.2,0.3c-0.1,0.1-0.1,0.2-0.1,0.4
		c0,0.3,0,0.5-0.1,0.8c-0.2-0.1-0.4-0.2-0.6-0.4l-0.4-0.3c-0.2-0.1-0.3-0.3-0.4-0.4l-0.1-0.2l-0.5-0.7l-0.2-0.4
		c-0.1-0.2-0.2-0.5-0.3-0.8c-0.1-0.2-0.1-0.4-0.1-0.6c0-0.1-0.1-0.3-0.1-0.4c0-0.4,0-0.8,0-1.2c0.1-0.4,0.1-1,0.3-1.3
		c0-0.2,0.2-0.5,0.3-0.6l0.2-0.3c0-0.1,0.2-0.3,0.2-0.3l0.1-0.1l0.2-0.2l0.2-0.2l0-0.1l0.2-0.1c0.1-0.1,0.3-0.2,0.4-0.3l0.1-0.1
		c0.1-0.1,0.3-0.3,0.5-0.3c0.1-0.1,0.4-0.3,0.6-0.3c0,0.1,0.3,0.4,0.4,0.4l0.3,0.3l0.4,0.2c0.3,0.1,0.6,0.1,0.9,0.1
		c0.2,0,0.6-0.1,0.8-0.2c0.1,0,0.3-0.2,0.4-0.2l0.2-0.2c0.1-0.2,0.4-0.4,0.4-0.6l0-0.1c0.1,0,0.2,0.1,0.4,0.1
		c0.2,0.1,0.4,0.2,0.6,0.3l0.3,0.2l0.3,0.3c0.1,0.1,0.2,0.2,0.3,0.3l0.3,0.3l0.2,0.2c0.2,0.3,0.3,0.5,0.5,0.8l0.1,0.3
		c0.1,0.2,0.3,0.6,0.3,0.8c0.1,0.3,0.1,0.6,0.2,1c0,0.2,0,0.4,0,0.7C34,16.5,33.9,17,33.8,17.5z"/>
	<polygon id="XMLID_46_" class="st0" points="27.5,14.8 28.7,12.9 29.9,14.8 28.7,16.6 	"/>
	<polygon id="XMLID_47_" class="st0" points="29.9,15.2 32.1,15.2 31,17 28.9,17 29.9,15.2 	"/>
	<polygon id="XMLID_48_" class="st0" points="27.5,15.2 25.4,15.2 26.4,17 28.5,17 27.5,15.2 	"/>
	<path id="XMLID_54_" class="st1" d="M33.9,35.4h3.3h6.4h0c2.8-0.1,4.3,0.5,4.3,2.5c0,1.9-0.5,2.8-1.5,3.1c1.5,0.2,2,1.3,1.9,2.8
		c-0.1,2.9-1.8,3-4.7,3h-6.4h-3.3v-2.7v-1.8v-2.4v-1.8L33.9,35.4L33.9,35.4z M5,35.2H13c1.8,0,3.3,1.5,3.3,3.3v1.2h-3.4v-0.4
		c0-0.6-0.5-1.1-1.1-1.1H6.4c-0.6,0-1.1,0.5-1.1,1.1V43c0,0.6,0.5,1.1,1.1,1.1h5.4c0.6,0,1.1-0.5,1.1-1.1v-0.6h3.4v1.2
		c0,1.8-1.5,3.3-3.3,3.3H5c-1.8,0-3.3-1.5-3.3-3.3v-5.2C1.8,36.6,3.2,35.2,5,35.2L5,35.2z M32.4,35.4v8.2c0,1.9-1.5,3.4-3.4,3.4
		h-8.2c-1.9,0-3.4-1.5-3.4-3.4v-8.2h3.6v7.5c0,0.6,0.5,1.1,1.1,1.1h5.5c0.6,0,1.1-0.5,1.1-1.1v-7.5H32.4z M37.2,38.1v1.8h6.4
		c1.1,0,1.2-1.9,0-1.8v0L37.2,38.1L37.2,38.1z M37.2,42.3v1.8h6.4c1.3,0.1,1.7-1.9,0-1.8v0L37.2,42.3L37.2,42.3z"/>
	<path id="XMLID_57_" class="st0" d="M25.2,3.8c-8.1,0-14.7,6.6-14.7,14.7c0,8.1,6.6,14.7,14.7,14.7c8.1,0,14.7-6.6,14.7-14.7
		C39.9,10.4,33.3,3.8,25.2,3.8z M25.2,32.7c-7.8,0-14.1-6.3-14.1-14.1c0-7.8,6.4-14.1,14.1-14.1c7.8,0,14.1,6.3,14.1,14.1
		C39.4,26.3,33,32.7,25.2,32.7z"/>
</g>
</svg>
