<?xml version="1.0" encoding="utf-8"?>
<!-- Generator: Adobe Illustrator 23.0.5, SVG Export Plug-In . SVG Version: 6.00 Build 0)  -->
<svg version="1.1" id="Layer_1" xmlns="http://www.w3.org/2000/svg" xmlns:xlink="http://www.w3.org/1999/xlink" x="0px" y="0px"
	 viewBox="0 0 50 50" style="enable-background:new 0 0 50 50;" xml:space="preserve">
<style type="text/css">
	.st0{fill:#FFFFFF;}
	.st1{fill:#CC0000;}
</style>
<rect x="8.8" y="8.6" class="st0" width="32.5" height="32.5"/>
<path class="st1" d="M45.7,24.9L45.7,24.9c0-3.2,0.1-6.1,2.5-11.1c0.7-1.5,2.2-3.6,0-6.1c-1.8-1.8-3.9-1.5-5.3-0.7
	c0.8-1.4,1.1-3.5-0.7-5.3c-2.5-2.2-4.6-0.7-6.1,0c-5,2.4-7.9,2.5-11.1,2.5h0c-3.2,0-6.1-0.1-11.1-2.5c-1.5-0.7-3.6-2.2-6.1,0
	C6,3.5,6.3,5.6,7.1,7C5.7,6.2,3.7,5.9,1.9,7.7c-2.2,2.5-0.7,4.6,0,6.1c2.4,5,2.5,7.9,2.5,11.1c0,3.2-0.1,6.1-2.5,11.1
	c-0.7,1.5-2.2,3.6,0,6.1c1.8,1.8,3.9,1.5,5.3,0.7C6.3,44.1,6,46.2,7.8,48c2.5,2.2,4.6,0.7,6.1,0c5-2.4,7.9-2.5,11.1-2.5
	c3.2,0,6.1,0.1,11.1,2.5c1.5,0.7,3.6,2.2,6.1,0c1.8-1.8,1.5-3.9,0.7-5.3c1.4,0.8,3.5,1.1,5.3-0.7c2.2-2.5,0.7-4.6,0-6.1
	C45.8,30.9,45.7,28.1,45.7,24.9z M40.2,40.1l-11.8-9.9c0,0-1.6-1.6-3.4-1.6c-1.8,0-3.4,1.6-3.4,1.6L9.8,40.1l0,0l9.9-11.8
	c0,0,1.6-1.6,1.6-3.4c0-1.8-1.6-3.4-1.6-3.4L9.8,9.7l0,0l11.8,9.9c0,0,1.6,1.6,3.4,1.6c1.8,0,3.4-1.6,3.4-1.6l11.8-9.9l0,0
	l-9.9,11.8c0,0-1.6,1.6-1.6,3.4c0,1.8,1.6,3.4,1.6,3.4L40.2,40.1L40.2,40.1z"/>
</svg>
