<?xml version="1.0" encoding="utf-8"?>
<!-- Generator: Adobe Illustrator 23.0.5, SVG Export Plug-In . SVG Version: 6.00 Build 0)  -->
<svg version="1.1" id="Layer_1" xmlns="http://www.w3.org/2000/svg" xmlns:xlink="http://www.w3.org/1999/xlink" x="0px" y="0px"
	 viewBox="0 0 50 50" style="enable-background:new 0 0 50 50;" xml:space="preserve">
<style type="text/css">
	.st0{fill:#000080;}
	.st1{fill:#FFFFFF;}
</style>
<path class="st0" d="M44.4,49.4H5.6c-2.8,0-5-2.3-5-5V5.6c0-2.8,2.3-5,5-5h38.7c2.8,0,5,2.3,5,5v38.7C49.4,47.2,47.2,49.4,44.4,49.4
	z"/>
<g id="XMLID_1_">
	<path id="XMLID_32_" class="st1" d="M5,30.1V16h6.1c1.8,0,3.2,0.5,4.2,1.5c1.1,1.2,1.7,3,1.7,5.2c0,1.1-0.1,2-0.3,2.9
		c-0.2,0.9-0.5,1.6-0.9,2.2c-0.4,0.6-0.8,1-1.3,1.3c-0.5,0.3-1,0.5-1.5,0.6c-0.6,0.1-1.4,0.2-2.6,0.2H5z M7.9,18.5v9.2h2.6
		c0.6,0,1.1-0.1,1.5-0.2c0.4-0.2,0.7-0.4,1-0.7c0.2-0.3,0.4-0.7,0.6-1.2c0.3-0.8,0.4-1.7,0.4-2.7c0-0.7-0.1-1.3-0.2-1.9
		c-0.2-0.6-0.4-1.1-0.7-1.4c-0.3-0.4-0.6-0.6-1-0.8c-0.4-0.1-0.9-0.2-1.6-0.2H7.9z"/>
	<path id="XMLID_33_" class="st1" d="M28.1,20.7c-0.2-0.8-0.5-1.3-0.9-1.7c-0.5-0.5-1.2-0.7-2.1-0.7c-0.7,0-1.4,0.2-1.9,0.5
		c-0.5,0.4-1,0.9-1.3,1.7c-0.3,0.8-0.5,1.7-0.5,2.7s0.2,1.9,0.5,2.7c0.3,0.7,0.7,1.3,1.3,1.6c0.5,0.3,1.1,0.5,1.8,0.5
		c0.5,0,1-0.1,1.4-0.3c0.4-0.2,0.8-0.5,1-0.8c0.3-0.4,0.5-0.9,0.7-1.5H31c-0.2,0.8-0.3,1.4-0.5,1.8c-0.3,0.6-0.7,1.2-1.2,1.7
		c-0.5,0.5-1.1,0.9-1.9,1.2c-0.7,0.3-1.5,0.4-2.3,0.4c-1,0-1.9-0.2-2.7-0.5c-0.8-0.3-1.5-0.8-2.1-1.4c-0.6-0.6-1-1.4-1.3-2.4
		c-0.3-0.9-0.5-1.9-0.5-3c0-1.3,0.2-2.5,0.6-3.6c0.3-0.8,0.7-1.4,1.2-2c0.5-0.5,1.1-1,1.8-1.3c0.9-0.4,1.9-0.6,2.9-0.6
		c0.9,0,1.8,0.1,2.6,0.4c0.8,0.3,1.4,0.7,1.9,1.2c0.5,0.5,0.9,1.1,1.2,1.7c0.2,0.4,0.3,1,0.4,1.6H28.1z"/>
	<path id="XMLID_37_" class="st1" d="M33,30.1V16h6.9c1,0,1.8,0.1,2.5,0.4c0.6,0.3,1.1,0.7,1.5,1.3c0.3,0.6,0.5,1.2,0.5,1.9
		c0,0.7-0.1,1.3-0.4,1.7c-0.3,0.4-0.7,0.8-1.3,1.1c0.5,0.2,1,0.5,1.2,0.7s0.5,0.6,0.7,1.1c0.2,0.4,0.3,1,0.3,1.5
		c0,0.8-0.2,1.5-0.5,2.1c-0.3,0.6-0.7,1-1.2,1.3c-0.5,0.3-1.1,0.5-1.7,0.6c-0.5,0.1-1.2,0.2-2.2,0.2L33,30.1z M36,18.5v3.1h3.5
		c0.7,0,1.3-0.1,1.6-0.4c0.3-0.3,0.5-0.7,0.5-1.2c0-0.5-0.1-0.8-0.4-1.1c-0.3-0.3-0.8-0.4-1.5-0.4H36z M36,23.9v3.8h3.5
		c0.4,0,0.7,0,0.9-0.1c0.3-0.1,0.6-0.2,0.8-0.3c0.2-0.1,0.4-0.3,0.5-0.6c0.1-0.3,0.2-0.6,0.2-1c0-0.4-0.1-0.7-0.3-1
		c-0.2-0.3-0.4-0.5-0.7-0.6c-0.3-0.1-0.8-0.2-1.5-0.2H36z"/>
</g>
</svg>
