<?xml version="1.0" encoding="utf-8"?>
<!-- Generator: Adobe Illustrator 23.0.5, SVG Export Plug-In . SVG Version: 6.00 Build 0)  -->
<svg version="1.1" id="Layer_1" xmlns="http://www.w3.org/2000/svg" xmlns:xlink="http://www.w3.org/1999/xlink" x="0px" y="0px"
	 viewBox="0 0 50 50" style="enable-background:new 0 0 50 50;" xml:space="preserve">
<style type="text/css">
	.st0{fill:#2056AE;}
	.st1{fill:#FFFFFF;}
	.st2{fill:#ED1C24;}
</style>
<path id="XMLID_3_" class="st0" d="M21.6,9.6l0-1.3l6.4,0l2.2,0.1l2,0.3L34,9.1l1.9,0.5l2,0.8l1.9,0.9l1.4,0.8l1.6,1.1l1.4,1.2
	l1.2,1.3l1,1.3l0.9,1.5l0.7,1.5l0.5,1.4l0.4,1.7l0.2,1.5l0,1.6L49,27.9l-0.3,1.5l-0.5,1.5l-0.7,1.5L46.7,34l-1,1.5L44.4,37l-1.4,1.4
	l-1.5,1.2l-1.5,1l-1.6,0.8L36.7,42L35,42.4l-1.8,0.3L30.4,43l-2.1,0.1l-2.4,0.1l-2.8,0l-1.5,0l0-6.4l0-7.6l0.7,0l7.3,0l0.7-0.1
	c4.4-1.1,4.4-6.4-0.2-7.1l-0.9,0l-7.3,0l-0.3,0l0-5.3L21.6,9.6z"/>
<rect id="XMLID_4_" x="0.7" y="8.3" class="st0" width="19" height="34.9"/>
<polygon id="XMLID_5_" class="st1" points="9.9,40.3 2.2,40.3 2.2,24.6 2.3,24.4 2.3,24.3 2.7,24.2 3,24.1 3.2,24 3.3,23.8 
	3.4,23.6 3.5,23.3 3.5,23.1 3.5,22.8 3.4,22.4 3.2,22.1 2.8,21.6 2.4,21.1 2.2,20.7 2,20.3 2,20 1.9,19.7 2,19.4 2,19.1 2.1,18.9 
	2.4,18.6 2.7,18.3 2.9,18.1 3.2,18 3.4,17.9 3.5,17.8 3.5,17.7 3.2,17.3 3,17 3,16.8 3,16.6 2.9,16.2 3,15.9 3.1,15.6 3.2,15.3 
	3.5,14.9 3.6,14.7 3.8,14.5 4.1,14.3 4.4,14.1 4.7,14 5.1,13.9 5.5,13.8 5.8,13.8 6.3,13.8 6.7,13.9 6.7,13.9 6.8,13.8 6.9,13.5 
	7.1,13.2 7.4,12.8 7.7,12.5 8.1,12.2 8.4,12.1 8.7,12 9.3,11.8 9.9,11.8 10.5,11.8 10.7,11.8 10.9,11.9 11.3,12 11.7,12.2 12,12.4 
	12.3,12.7 12.6,12.9 12.8,13.3 13,13.7 13.1,13.9 13.2,13.9 13.3,13.9 14,13.8 14.4,13.7 14.8,13.7 15.2,13.8 15.6,14 15.9,14.1 
	16.1,14.3 16.3,14.5 16.6,14.9 16.7,15.1 16.8,15.3 16.9,15.6 16.9,16 16.9,16.5 16.8,16.8 16.6,17.2 16.2,17.7 16.2,17.8 
	16.3,17.9 16.5,17.9 16.8,18 17,18 17.3,18.2 17.6,18.5 17.7,18.7 17.9,18.9 18,19.3 18,19.5 18,19.9 17.9,20.3 17.7,20.7 
	17.4,21.1 17.1,21.6 16.8,22.2 16.6,22.7 16.6,23 16.7,23.4 16.8,23.7 16.9,23.8 17.1,24 17.3,24.2 17.6,24.3 17.9,24.4 17.9,24.4 
	17.9,24.7 17.9,25 17.9,40.3 10.5,40.3 "/>
<path id="XMLID_26_" class="st2" d="M9.9,40.3L9.9,40.3L9.9,40.3l-0.2-0.2l-0.2-0.2l-0.4-0.3L9,39.4l-0.2-0.3l0-0.1l-0.1,0l-0.6,0.1
	l-0.3,0L7.1,39L7,38.9l0-0.1l0-0.1l0.2-0.3l0,0l-0.1,0l-0.2-0.1l-0.4-0.2l-0.4-0.1l-0.1,0l0-0.1L6,38l0.2-0.2l0.2-0.1l0.4-0.2l0.1,0
	l0,0l0,0l-0.5-0.6l-0.2-0.3l-0.1-0.2L5.9,36l-0.1-0.1l0-0.1l0.1-0.1l0-0.2l0,0l0.2,0l0.1,0l0.1-0.1l0.1,0l0.3,0l0.1,0l0.1-0.1l0.1,0
	l0.1,0l0.1,0L7.2,35l0.1,0h0.1L7.6,35l0.1,0l0.1,0l0.1-0.1l0.1,0l0.2,0.1l0.1,0l0.1-0.1l0.1-0.2l-0.1-0.4l0-0.2l0-0.6l-0.1-0.7
	l0-0.5l0-0.4l0-0.3L8,31.1l-0.1-0.7l0-0.1l-0.1-0.4l-0.1-0.4l0-0.4l-0.1-0.3l-0.2-1.1l0-0.6l0-0.3v-0.3l0.1-0.6l0.2-0.7l0.2-0.6
	l0-0.1l0,0H7.7l-0.1,0l-0.1,0.1L7.3,25l-0.4,0.5l-0.1,0.1l-0.1,0.1l0,0.2L6.5,26l-0.1,0.2l-0.1,0.1l-0.1,0.1l-0.1,0.1l0,0.1l0,0.5
	l0,0.3l0,0.2L6,27.7l-0.1,0l-0.2,0l-0.1,0.1l-0.1,0.1l-0.3,0l-0.1,0l-0.1-0.1l-0.1-0.1l0-0.1l0.1-0.2l0-0.1l0,0l-0.1,0l-0.1,0l0-0.1
	l0-0.1l0.1-0.4l0.1-0.3l0.1-0.2l0.2-0.2l0-0.2l0.1-0.1l0.1-0.2l0.1-0.2l0.3-0.4l0.2-0.4l0.2-0.4l0-0.1l0-0.1l-0.2-0.3L5.9,23
	l-0.1-0.1l-0.1-0.1l-0.1-0.1l-0.1-0.1l-0.1-0.1l-0.1-0.1l0-0.2L5.2,22l0,0l0,0l0,0.1l-0.1,0l0,0l0,0L5,22l0.1-0.3l0-0.1l-0.1-0.2
	v-0.1l0.1-0.1l0.2-0.2l0.2-0.2l0,0l-0.1-0.1l0-0.1l0-0.1l0,0l0.3-0.1l0-0.1l0-0.1l-0.1,0l-0.2,0l-0.1,0l0,0l0-0.1l0-0.1l-0.1-0.1
	L5,19.7l-0.1-0.1l-0.1-0.1l0-0.1l0-0.1l0.2-0.1l0.1-0.1l0.1,0l0.1,0l0.2,0L5.7,19l0.2,0l0.1,0l0.1,0l0.1,0l0.2,0L6.5,19l0.1,0.1
	l0.1,0.1l0,0.1l-0.1,0.2l-0.1,0.2l-0.1,0.1l-0.1,0.1l0,0.1L6.3,20l0,0.1l0,0.1l-0.1,0l-0.2,0l-0.1,0l0,0l0,0.1l0,0.2l0.2,0.4
	l0.1,0.3l-0.1,0.6l0,0.1l0.1,0.1l0.1,0.2l0.1,0.1l0.1,0.2l0.2,0.2l0.2,0.2l0.1,0l0,0l0-0.1l0.3-1.1l0.1-0.3l0.3-0.5l0.1-0.2l0.1-0.2
	L8,20.4l0.1-0.1l0-0.1l0-0.1l-0.2-0.2l-0.3-0.3l-0.4-0.5l-0.2-0.4l-0.1-0.3L6.7,18l0-0.4l0-0.3l0-0.4l0.1-0.4l0.1-0.4l0.2-0.5
	l0.2-0.2l0.3-0.4l0.1-0.1l0.1-0.1l0.3-0.2l0.4-0.2l0.5-0.2l0.2-0.1l0.4-0.1l0.3,0l0.4,0l0.4,0.1l0.3,0.1l0.3,0.1l0.4,0.2l0.2,0.2
	l0.2,0.2l0.2,0.3l0.2,0.2l0.3,0.5l0.2,0.5l0.1,0.4l0,0.3l0,0.4l0,0.3l-0.1,0.4L13,18.5l-0.2,0.4l-0.2,0.3l-0.1,0.2l-0.2,0.2L12,19.9
	L11.9,20l-0.1,0.1v0.1l0.1,0.2l0.1,0.1l0.1,0.3l0.1,0.1l0.1,0.1l0.2,0.3l0.2,0.4l0.1,0.2l0,0.1l-0.1,0.2l-0.1,0.2l0,0.1l0,0l0,0
	l0.1,0l0.2-0.2l0.1-0.1l0-0.2l0.1-0.1l0.2-0.1l0.1-0.1l0.2-0.2l0-0.1l-0.1-0.8l0-0.2l0.2-0.3l0-0.1l0,0l-0.1,0l-0.2,0l-0.1,0l0,0
	l0-0.1l0.1-0.1l0-0.1l0,0l-0.1-0.1l-0.2,0l-0.1,0l0,0l0-0.1l0.1-0.2l0.2-0.1l0.1,0l0.2,0l0.2-0.1l0.2,0l0.1,0l0.1,0l0.1,0l0.1,0
	l0.1,0h0.2l0.1,0.1l0.2,0L15,19l0,0.1l0,0.1l-0.1,0.2l-0.3,0.2l0,0.1l0,0.1l0,0.1l-0.1,0l-0.1,0l0,0l0.1,0.1l0.1,0.1l0,0.1l-0.1,0.1
	v0l0,0.1l0.1,0.2l0.1,0.1l0,0.1l-0.1,0.3l0,0.1l0.1,0.2l0.1,0.2l0,0l0,0l0,0l0,0l0-0.1l-0.1,0l-0.1,0l0,0l-0.2,0.4l0,0.2l0,0.1
	l-0.2,0.1l-0.1,0.2l-0.1,0.1l-0.2,0.1l-0.1,0.1l-0.3,0.4l-0.3,0.4l0,0.1l0.2,0.3l0.2,0.3l0.2,0.1l0.2,0.1l0.2,0.1l0.1,0l0.1,0
	l0.1-0.1l0.2-0.1l0.2,0l0.4,0l0.2,0l0.1,0l0.1,0.1l0,0l0.1,0l0.2,0l0.2,0.1l0.2,0.1l0.1,0.1l0,0.1l-0.1,0.2l-0.1,0l-0.1,0l-0.1,0
	l0,0l0,0.1l0,0.1l0,0l-0.1,0l-0.5,0l-0.4,0.1l-0.3,0l-0.2,0l-0.2,0h-0.1L14,25.5l-0.1,0l-0.1-0.1l-0.2-0.1l-0.1-0.1l-0.2-0.2L13,25
	l-0.4-0.3l-0.2-0.2L12,24.2l-0.1,0l-0.1,0l-0.1,0.2l-0.1,0.2l0.1,0.3l0.1,0.6L12,26l0.1,0.7l0,0.4l0,0.6l-0.1,0.6l-0.1,0.5l-0.1,0.6
	l-0.2,1l0,0.3l0,0.3l0,0.2l0.1,0.5l0,0.4l0,0.2l0,0.6l0,0.3l0,0.3l0,0.4l-0.1,0.4v0.2l0,0.2l0.1,0.1l0.1,0h0.1l0.1-0.1l0.1,0l0.1,0
	l0.1,0.1l0.1,0l0.2,0l0.1,0l0.1,0.1l0.1,0.1l0.1,0l0.2,0h0.1l0.1,0l0.1,0.1l0.1,0h0.3l0.1,0l0.1,0.2l0.1,0l0.1,0l0.2,0l0.1,0
	l0.1,0.2l0,0l0.2,0.1l0.1,0l0,0.1l0,0.1l0,0.1l0.1,0.1l0,0.1l0,0.1l-0.2,0.2l-0.4,0.4l-0.3,0.3l-0.4,0.4l-0.3,0.3l0,0.1l0,0.1
	l0.4,0.2l0.2,0.2l0.2,0.2l0,0.1l0,0.1l0,0l-0.4,0L13,38.7l-0.1,0l0,0.1l0.1,0.2l0,0.1l-0.1,0l-0.1,0l-0.3,0.1L12,39.2l-0.4,0
	l-0.3-0.1l-0.1,0l-0.1,0l-0.1,0.2l-0.2,0.3l-0.1,0.1l-0.3,0.3l-0.1,0.1l0,0.1l0,0L9.9,40.3z M10.9,35.1L10.9,35.1L10.9,35.1
	L10.9,35.1z M9.5,34.5L9.5,34.5L9.5,34.5L9.5,34.5L9.5,34.5z M7.8,24.1L7.8,24.1l0,0.2l0,0l0,0l0.1,0l0.1,0l0.1-0.1l0-0.2l0-0.2
	l0-0.2l-0.1,0l0,0l0,0l0,0.1L7.8,24.1z M11.5,19.5l0.1,0.1l0.1,0l0.1-0.1l0.1-0.1l0.1-0.1l0.2-0.2l0.2-0.3l0.2-0.3l0.1-0.4l0.1-0.4
	l0-0.4l0-0.3l-0.1-0.5l-0.1-0.3L12.6,16l-0.3-0.4l-0.3-0.3L11.8,15l-0.3-0.2l-0.4-0.2l-0.4-0.2l-0.5-0.1l-0.4,0l-0.3,0l-0.3,0
	l-0.4,0.1l-0.4,0.2l-0.3,0.2L8,15.1l-0.3,0.2l-0.2,0.2L7.2,16l-0.1,0.3L7,16.5L7,16.9l0,0.4l0,0.3L7,18l0.1,0.4l0.2,0.3L7.5,19
	l0.2,0.3l0.2,0.2l0.2,0.2l0.1,0l0.1,0l0.2-0.2l0.1-0.1l0-0.4l0.1-0.2l0.1-0.3l0.1-0.2l0-0.2l0.1-0.2L9,17.5l0-0.1L9.1,17l0-0.2
	l0-0.2l0-0.1l0-0.2l0.1-0.1l0.1-0.1l0.3-0.3l0.2-0.3l0-0.2l0-0.1l0.1-0.1l0.1,0l0.1,0l0.1,0.1l0.1,0.1l0,0.2l0.1,0.3l0.2,0.2
	l0.2,0.2l0.1,0.1l0,0.1l0,0.1l0,0.2l0.1,0.5l0.1,0.1l0.1,0.1l0.1,0.2l0.1,0.2l0.1,0.5l0,0.2l0.1,0.4l0,0.3L11.5,19.5z M13.9,19.5
	L13.9,19.5l0.3,0l0.2,0l0.1-0.1l0.1-0.1l0-0.1l0-0.1l-0.1,0L14.4,19l0,0l-0.1,0.1l-0.1,0l-0.1,0H14l0,0l-0.1,0l0,0l-0.1,0l-0.1,0
	l-0.1,0.1h0l-0.1-0.1h0l0,0l0,0l0,0.1l0.1,0.1l0.1,0.1L13.9,19.5z M5.4,19.6l0.3,0l0.3,0l0.3-0.1l0.1-0.1l0.1-0.1l0-0.1l0,0l-0.1,0
	l-0.1,0l-0.1,0.1l0,0L6,19.2l-0.1,0l0,0l0,0l0,0.1l0,0.1l0,0l-0.1-0.1l-0.1,0l0,0l-0.1,0.1l0,0l0,0l-0.1,0l-0.1,0l-0.1,0H5.2l0,0
	l0,0.1l-0.1,0l0,0l0,0l0.1,0.1L5.4,19.6z M14.8,19.2L14.8,19.2l-0.1,0.1l0,0L14.8,19.2L14.8,19.2z M10,17.9L10,17.9L10,17.9L10,17.9
	L10,17.9L10,17.9L10,17.9L10,17.9L10,17.9z M10.9,17.7L10.9,17.7L10.9,17.7l0,0.1h0l0,0L10.9,17.7L10.9,17.7z M9.6,17.8L9.6,17.8
	H9.5l0,0l0,0L9.6,17.8L9.6,17.8L9.6,17.8L9.6,17.8z M9.2,17.7L9.2,17.7l0-0.1l0,0l0.1,0l0,0.1l0,0l0.1,0l0,0l0-0.1l0-0.1l0,0l-0.1,0
	L9.2,17.7l-0.2,0l0,0.1l0,0l0,0l0.1,0L9.2,17.7L9.2,17.7z M10.6,17.6L10.6,17.6L10.6,17.6l0,0.1l0.1,0l0.1,0l0-0.1l0,0l0,0l-0.1,0
	L10.6,17.6L10.6,17.6z M10.4,17.4l-0.1,0.1l0,0.1h0l0,0v0L10.4,17.4L10.4,17.4L10.4,17.4z M9.5,17.4L9.5,17.4l0.1,0.2l0,0l0,0v-0.1
	L9.5,17.4L9.5,17.4z M10.6,17l-0.1,0.1l0,0l0.1,0l0,0L10.6,17L10.6,17l0-0.2l-0.1-0.1l-0.2-0.1l-0.3,0l-0.2,0l-0.2,0.1l0,0l0.1,0.1
	l0,0.1v0.1l0,0.1l-0.1,0l0,0l0,0l0-0.1l0-0.1h0L9.3,17l0,0.1l0,0.1l0.1,0l0.3,0l0.2,0l0.2,0l0.2,0l0.1,0l0,0l0-0.1l0.1-0.1L10.6,17
	L10.6,17L10.6,17L10.6,17z M9.9,16.9L9.9,16.9l0.1-0.1l0.1,0l0,0.1l0,0.1L10,17.1l-0.1,0l-0.1,0l0-0.1L9.9,16.9z M10.1,16.6l0.3,0
	l0,0l0,0l0,0l-0.1,0l-0.4,0l-0.3,0l-0.1,0v0l0,0l0,0l0.2,0L10.1,16.6z M10.2,16.3l0.2,0l0.1,0l0,0l0,0L10.2,16.3l-0.3-0.1l-0.5,0
	l-0.1,0v0l0,0h0l0.3-0.1L10.2,16.3z M9.8,15.9l0.2,0l0.2,0l0,0l0,0l0,0l-0.1,0l-0.2,0L9.8,15.9L9.8,15.9L9.8,15.9L9.8,15.9z"/>
<path id="XMLID_33_" class="st1" d="M10.5,34.7l-0.1-0.2l-0.3-0.5l-0.1-0.2L10,33.8l0-0.1l-0.1-0.3l0,0l0-0.1l-0.1-0.2l-0.1-0.2
	L9.5,32l-0.1-0.5l0-0.3v-0.1l0,0l0.1,0.1l0.1,0.2l0,0.1l0,0.1l0,0.1l0.1,0.3l0.1,0.6l0.1,0.4l0.2,0.5l0.3,0.5l0.2,0.3l0.2,0.4l0,0
	l-0.1,0l0,0l0,0L10.5,34.7L10.5,34.7z M9.2,34.2l-0.1-0.4L9,33.4l0-0.2l-0.1-0.6l0-0.3l0-0.3v-0.1l0-0.3l0-0.1l0-0.1l0,0l0,0.1
	L9,32.1l0.1,1l0.1,0.4l0.1,0.3l0.1,0.4l0,0.1l0,0l0,0l-0.1-0.1L9.2,34.2z M11,32l-0.2-0.1l-0.2-0.1l-0.2-0.2l-0.2-0.3L10,31
	l-0.1-0.4l-0.1-0.4l0-0.5l0-0.1h0l0,0.1l0,0.2l0,0.4l0,0.3l0.1,0.3l0.2,0.4l0.1,0.2l0.2,0.2l0.1,0.1l0.2,0.1l0.2,0.1l0.1,0.1l0,0
	l0,0l-0.1,0l0-0.1l0,0l0,0L11,32z M8.1,30.5l0.2-0.2L8.6,30l0.2-0.2L9,29.5l0.3-0.5l0.3-0.5l0.2-0.4l0.1-0.2l0.2-0.6l0.2-0.6l0.3-1
	l0.4-0.9l0.2-0.4l0.1-0.3l0.2-0.4l0.6-1.2l0.2-0.3l0.2-0.3l0-0.1l0-0.1l-0.1-0.2l-0.1-0.2L12,21.2l-0.2,0l-0.5-0.5l-0.2-0.1l-0.1,0
	l0,0l0,0.1l0,0.5l0,0.1l0,0l0,0l-0.1-0.5l-0.1-0.1l0,0l0,0l0,0.1l0,0.3l0,0.2l0,0.1l-0.1,0.6l-0.1,0.7l-0.1,0.4l-0.2,0.7l-0.2,0.8
	l-0.1,0.4l-0.2,0.6l-0.1,0.1l-0.1,0.1l0,0l0,0l0-0.1l0.2-0.4l0.2-0.5l0.1-0.3l0-0.2l0-0.1l0.1-0.2l0.1-0.3l0.2-0.5l0.1-0.4l0-0.2
	l0-0.1l0-0.2l0-0.2l0.1-0.3l0-0.1l0-0.3l0-0.1l0-0.2l0.1-0.6l0.1-0.1l0,0l0.4,0.2l0.4,0.2l0.3,0.1l0.3,0.2l0.2,0.3l0.2,0.4l0.1,0.2
	V22l-0.1,0.2L12.1,23l-0.3,0.6l-0.1,0.2l-0.2,0.4l-0.2,0.6L11,26.1l-0.2,0.6l-0.1,0.2l-0.2,0.5l-0.1,0.2l-0.6,1.3l-0.2,0.3l-0.1,0.2
	l-0.1,0.2l-0.3,0.4l-0.3,0.3l-0.3,0.3l-0.3,0.2l-0.1,0l0,0l0-0.1L8.1,30.5z M7.8,25.2L7.9,25l0.3-0.7l0.1-0.3l0-0.2l-0.1-0.5
	l-0.1-0.3l0-0.2l0.1-0.2l0.2-0.3L8.8,22l0.4-0.3l0.6-0.4l0.4-0.2l0.1,0l0,0v0.1l-0.1,0.1l-0.2,0.2l-0.2,0.2l-0.3,0.2l-0.6,0.4
	l-0.4,0.3l-0.1,0.2l-0.1,0.1l0,0.2l0,0.3l0.1,0.4l0,0.2l0,0l0,0l0.1,0l0.3-0.2L9,23.8h0l0,0L9,23.9l-0.2,0.3l-0.2,0.1l-0.2,0.1
	l-0.2,0.2l-0.2,0.2l-0.3,0.5l0,0l0,0l0-0.1L7.8,25.2z M11.5,22.4l0-0.2l0-0.2l0,0l0,0l0,0.1l0,0.3l0,0.2l-0.1,0.1l0-0.1L11.5,22.4z"
	/>
<path id="XMLID_54_" class="st1" d="M9.9,39.8l-0.3-0.2l-0.2-0.1l-0.1-0.2l-0.1-0.2l0-0.2l0-0.1l0.1-0.2l0.2-0.1l0.3-0.1l0.2,0
	l0.2,0l0.4,0.1l0.2,0.1l0.1,0.1l0.1,0.1l0,0.1l-0.1,0.2l-0.1,0.2l-0.2,0.1l-0.4,0.3l-0.1,0L9.9,39.8L9.9,39.8z M11.9,39l-0.3-0.1
	l-0.2-0.1l-0.2-0.1l-0.1-0.1l0,0l0,0l0.1-0.1l0.4-0.1l0.1,0l0.3,0l0.2,0.1l0.3,0.2l0.1,0.1l0,0.1l0,0l0,0L12.2,39L11.9,39z
	 M7.8,38.8l-0.1,0l-0.3-0.1l0,0l0-0.1l0.1-0.1l0.2-0.1l0.3-0.1l0.3-0.1l0.1,0l0.4,0.1L9,38.4l0,0.1l0,0.1l-0.2,0.1l-0.3,0.1
	l-0.3,0.1l-0.3,0L7.8,38.8z M12.9,38.4l-0.3-0.1l-0.1-0.1l0,0l0,0l0,0l0.1,0l0.2,0l0.3,0l0.2,0.1l0.1,0l0,0v0l-0.1,0l-0.3,0
	L12.9,38.4z M10.1,38.2l-0.2-0.1L9.7,38l-0.2-0.2l-0.1-0.3l-0.1-0.4v-0.3l0-0.2l0.1-0.3l0.1-0.2l0.3-0.4l0.3-0.3l0.1-0.1l0.1,0
	l0.1,0.1l0.4,0.4l0.2,0.4l0.1,0.4l0,0.3l0,0.3l0,0.2L11,37.7l-0.2,0.2l-0.2,0.1l-0.1,0.1l-0.3,0.1L10.1,38.2z M7.3,38.2l-0.1,0
	L6.6,38l0,0l0,0l0,0l0.2-0.1l0.2,0l0.1,0l0.2,0.1L7.8,38l0,0l0,0l-0.1,0l-0.2,0L7.3,38.2z M11.1,37.9l0.1-0.4l0.1-0.4v-0.4l0.1-0.2
	l0.1-0.2l0.1-0.2l0.3-0.3l0.3-0.1l0.1,0l0.1,0l0,0l0,0.1l-0.1,0.3l-0.1,0.4l-0.1,0.3L12,37.3l-0.2,0.3l-0.2,0.2L11.4,38l-0.2,0.1
	l-0.1,0l0,0l0,0L11.1,37.9z M12,37.7l0.1-0.2l0.1-0.3l0.1-0.5l0.1-0.2l0.2-0.2l0.4-0.2l0.3-0.1l0.1,0l0,0l0,0l0,0.1l-0.2,0.3
	l-0.4,0.7l-0.2,0.3l-0.3,0.3L12,37.9l-0.1,0l0,0l0,0L12,37.7z M9.1,37.9l-0.2-0.1l-0.2-0.2l-0.3-0.4l-0.1-0.3l-0.2-0.5l-0.1-0.3
	L8,35.8l0,0l0.1,0l0.2,0l0.2,0.1L8.9,36L9,36.1l0.1,0.2l0,0.1l-0.1,0.4l0,0.3l0,0.2l0,0.3l0.1,0.4l0,0l0,0l-0.1,0L9.1,37.9z
	 M8.3,37.9l-0.2-0.1L8,37.7l-0.2-0.1l-0.1-0.1l-0.2-0.4l-0.2-0.4l-0.2-0.5L7.1,36l0-0.1l0,0l0.1,0L7.6,36l0.2,0.1l0.1,0.1l0.1,0.2
	L8,36.6l0,0.1l0,0.1l0.3,0.6l0.2,0.3l0.1,0.1l0,0l0,0l-0.1,0L8.3,37.9z M13.1,37.2l0.3-0.7l0.1-0.1l0.2-0.2l0.1-0.1l0.2-0.1h0.1
	l0.1,0l0,0l0,0.1l-0.2,0.2L13.6,37l-0.3,0.3l-0.1,0.1l-0.1,0l0,0L13.1,37.2z M7.1,37.2L6.9,37l-0.3-0.3l-0.2-0.3l-0.1-0.3l0,0l0,0
	l0.1,0l0.3,0.1l0.2,0.1L7,36.3l0.2,0.5l0.2,0.4l0,0l0,0l0,0L7.1,37.2z M11.2,36.1l-0.1-0.1l0-0.1l0.1-0.1l0.1-0.1l0.1,0l0.1,0l0,0.1
	l0,0.1l-0.1,0.2l-0.1,0.1l-0.1,0L11.2,36.1L11.2,36.1z M12.7,35.9l0.1-0.1l0.1-0.1l0.1,0l0.1,0l0,0.1l0,0.1L13,35.9l-0.3,0.1h0l0,0
	l0-0.1L12.7,35.9z M13.9,35.8L13.9,35.8l-0.1-0.1l-0.3,0h-0.1l-0.1,0l-0.1-0.2l0-0.1l-0.1,0l-0.3,0l-0.1,0l-0.1-0.1l0,0l-0.1,0
	l-0.2,0.1l-0.1,0l-0.2-0.1l-0.2,0l-0.1,0l-0.1,0l-0.2-0.1l0,0l0,0l0.2,0l0.1,0l0.2-0.1l0.1,0l0.1,0l0.1,0.2l0.1,0l0.1,0l0.2-0.1
	l0.1,0l0,0l0,0l0.1,0.1l0.1,0l0.1,0l0.1-0.1l0.1,0l0.1,0l0,0.1l0,0.1l0.1,0l0.2,0l0.1,0l0,0.1l0,0.1l0,0.1l0.1,0l0.3,0l0,0l0,0.1
	l0,0.1l0,0l0.1,0l0,0L13.9,36h0l0,0l0,0L13.9,35.8z M9.1,35.9L9,35.8l0-0.1l0.1-0.1l0.1,0l0.1,0l0.1,0.1l0,0.1l0,0.1l0,0.1l-0.1,0
	l-0.1,0L9.1,35.9z M11.6,35.7l-0.1-0.1l0,0l0,0l0.2,0l0.1,0l0.1-0.1l0.1,0l0.1,0.1l0.1,0l0.3-0.1h0l0,0v0l0,0.1l-0.4,0.1l-0.3,0.1
	l-0.1,0l-0.1,0L11.6,35.7z M6.8,35.6L6.8,35.6L6.8,35.6l-0.1,0.2l0,0l-0.1,0l-0.4-0.1l0,0l0,0l0,0l0.1-0.1l0.1-0.1l0.1,0l0.2,0
	l0.1,0l0.2-0.1l0.1,0l0.2,0.1l0.1,0l0.1-0.1l0.1,0l0.1,0l0.1,0.1l0.1,0l0.1,0l0.1-0.2l0.1,0l0.2,0.1l0.1,0l0.1,0l0,0l0,0l0,0
	l-0.1,0.1l-0.1,0.1L8,35.5l-0.1,0l-0.1,0l-0.2-0.1l-0.2,0l-0.1,0l-0.1,0.2l-0.1,0.1H7H6.8z M7.5,35.6L7.5,35.6L7.5,35.6L7.5,35.6
	L7.5,35.6L7.5,35.6L7.5,35.6L7.5,35.6z M8.3,35.4L8.3,35.4l0.1,0.1l0,0l-0.1,0l0,0L8.3,35.4L8.3,35.4L8.3,35.4z"/>
<path id="XMLID_59_" class="st1" d="M7.3,23.4l-0.1,0l0,0v0l0,0h0.1l0.3,0.1l0,0v0l-0.1,0L7.3,23.4L7.3,23.4z M7.4,23.2l-0.1-0.1
	l-0.1,0l0,0l0,0h0.1l0.4,0.2l0,0l0,0l-0.1,0L7.4,23.2z M7.5,22.9l-0.2-0.1l0-0.1l0,0l0.1,0l0.4,0.2l0,0l0,0l-0.1,0L7.5,22.9z
	 M8,22.5l-0.1,0.2l-0.1,0l-0.1,0l-0.3-0.1l-0.2-0.1l-0.1-0.1l0-0.1L7.3,22l0.1-0.3l0.1-0.2l0.2-0.3l0.1-0.1L8,20.9l0.3-0.2l0.2,0
	l0.1,0l0,0l0,0.2l0,0.2l0.1,0.2l0,0.1l0,0.1L8.3,22l-0.1,0l0,0l0,0l0-0.1l0,0l-0.1,0L8,22l0,0.1L8,22.5z"/>
<path id="XMLID_77_" class="st1" d="M5.7,27.5l0.1-0.1l0,0l0,0L5.7,27.5v0.2l0,0l0,0v-0.1L5.7,27.5z M5.4,27.4l0,0.1l-0.1,0.1l0,0
	l0,0v0l0-0.1l0.1-0.3l0-0.2l0-0.1l0.2-0.1v0l0,0l-0.1,0l-0.1,0l0,0l0,0.1l0,0.2l0,0l0,0l0,0l0,0l0-0.1l0.2-0.5l0.1-0.2l0.1-0.1
	L5.7,26l0.1,0L6,26l0.1,0.1l0,0.1l0,0.1l0,0.3l0,0.2l0,0.2L6,27.1l-0.1,0l-0.2,0l-0.2,0l-0.1,0l0,0.1L5.4,27.4z M6,27.3L6,27.3
	L6,27.3l0,0.2l0,0.1l0,0l0,0l0,0L6,27.3z M14.5,25.4l-0.3,0l-0.1-0.1l-0.1,0l0-0.1l0-0.1l0.1-0.1l0.1,0l0.2,0l0.1-0.1l0.1-0.1
	l0.1-0.1l0.1,0l0.5-0.1l0,0l0,0l0,0l-0.1,0l-0.2,0l-0.1,0L14.9,25l0,0.1l0,0l0,0H15l0.1-0.1l0.1-0.1l0.1,0l0.2-0.1l0,0l0.1,0.2
	l-0.1,0.1l-0.1,0.1l-0.1,0.1l-0.4,0.1H14.5z M15.5,25.3L15.5,25.3L15.5,25.3L15.5,25.3l0.1-0.1l0.1,0l0.1,0.1l0,0l0,0l-0.1,0
	L15.5,25.3z M6.3,25.4l-0.1-0.1l0-0.1v-0.1l0.2-0.5l0.2-0.3l0.3-0.4L7,23.7l0.1,0h0.1l0.5,0.1l0,0l0,0.1l-0.1,0.3l-0.2,0.3l-0.2,0.3
	L7.1,25l-0.3,0.3l-0.2,0.1l-0.1,0L6.3,25.4z M15.7,25.1l-0.2,0l0,0v0L15.7,25.1l0.2,0l0.1,0l0,0v0l-0.1,0l-0.1,0L15.7,25.1z
	 M13,24.8l-0.3-0.2l-0.2-0.2l-0.1-0.2L12.2,24l-0.1-0.2l0-0.2l0.2-0.5l0.1-0.1l0.1,0l0.1,0l0.1,0.1l0.2,0.6l0.1,0.1l0.5,0.6l0,0.1
	l0,0.1l-0.1,0.2l-0.1,0.2l-0.1,0l-0.1,0L13,24.8z M6.5,23.7l-0.3-0.4l-0.2-0.4l0-0.1l0-0.1l0.2-0.2l0.1,0l0.1,0l0.2,0.2l0.2,0.3
	l0,0.1l-0.1,0.3l-0.1,0.2l-0.1,0l-0.1,0L6.5,23.7L6.5,23.7z M12.9,23.2l-0.1-0.3l0-0.1l0.1-0.1l0.2-0.2l0.2-0.1l0.1,0l0.1,0l0.2,0.2
	l0,0l0,0.1L13.5,23l-0.2,0.2l-0.2,0.1l-0.1,0l0,0l0,0L12.9,23.2z M5.5,22.1L5.5,22.1l-0.1-0.2l0-0.1l0,0l0,0l0.1,0l0,0l0-0.1
	l0.1-0.4l0-0.1l0-0.1l0-0.1l0,0l0,0l0,0l0,0.1l0.1,0.2l0,0.2L6,21.6V22l0,0.1l-0.1,0.1l-0.1,0l-0.1,0L5.5,22.1z M13.9,21.9
	L13.9,21.9l-0.1-0.1l0.1-0.3l-0.1-0.6l0-0.1l0-0.1h0l0,0.1l0,0l0,0l0.1,0l0.1-0.2l0,0l0,0l0,0l0,0.1l-0.1,0.2v0.1l0.1,0.3l0,0.2
	l0,0.1l0,0l0,0l0.1-0.1l0,0l0,0.1l0,0.2l-0.1,0.2l-0.1,0.1l-0.1,0L13.9,21.9L13.9,21.9z M8.8,21.1l0-0.2l0-0.1l0,0L9,21.1l0,0.1l0,0
	l-0.1,0l-0.1,0l0,0l0-0.1L8.8,21.1z M9.3,21.1l-0.1-0.2l0-0.2l0-0.1l0.1-0.2l0-0.1l0,0l0.1,0l0.2,0.1l0.2,0.1l0.2,0l0.2,0l0.1,0l0,0
	l0,0.1l0,0.1l-0.1,0.1l-0.2,0.2L9.9,21l-0.3,0.1l-0.1,0l-0.1,0L9.3,21.1L9.3,21.1z M5.5,21L5.5,21L5.5,21l0.1,0.1l0,0l0,0l0,0l0,0
	L5.5,21L5.5,21z M5.9,20.8L5.9,20.8L5.9,20.8L6,20.9v0l0,0l0,0L5.9,20.8z M14.3,20.5L14.3,20.5l0,0.1l0,0l0,0l0,0L14.3,20.5
	L14.3,20.5z"/>
<polygon id="XMLID_78_" class="st1" points="8.9,19.9 8.9,20 9,20.1 9,20 9.1,20 9.1,19.9 9,19.9 9,19.8 "/>
<polygon id="XMLID_79_" class="st1" points="9,18.4 8.9,18.3 8.9,18.3 8.9,18.3 8.9,18.4 8.9,18.4 8.9,18.4 8.9,18.4 "/>
<polygon id="XMLID_80_" class="st1" points="10,17.5 10,17.5 10,17.5 9.9,17.5 9.9,17.5 10,17.6 10,17.6 10,17.6 "/>
<polygon id="XMLID_81_" class="st1" points="10.1,17.6 10.1,17.5 10.1,17.5 10,17.6 10,17.6 10,17.6 10.1,17.6 10.1,17.6 "/>
<polygon id="XMLID_82_" class="st1" points="11,18.3 11,18.4 11,18.3 11,18.3 "/>
<polygon id="XMLID_83_" class="st1" points="10.2,20.2 10.1,20.2 9.9,20.2 9.7,20.2 9.5,20.1 9.4,19.9 9.3,19.8 9.1,19.6 9.1,19.5 
	9,19.5 8.9,19.5 8.9,19.5 8.9,19.4 8.9,19.4 8.9,19.4 9,19.4 9,19.3 9,19.2 9,19.1 8.9,19.1 8.8,19 8.7,19 8.7,18.8 8.7,18.8 
	8.7,18.8 8.9,18.7 8.9,18.8 9,18.8 9,18.8 9.1,18.6 9.3,18.3 9.4,18.2 9.5,18.1 9.7,18 9.9,18.1 10.1,18.1 10.2,18 10.3,18 
	10.5,18.1 10.5,18.2 10.6,18.4 10.6,18.5 10.6,18.5 10.4,18.5 10.2,18.5 10.2,18.6 10.2,18.6 10.2,18.6 10.3,18.7 10.5,18.6 
	10.6,18.7 10.7,18.7 10.8,18.7 10.8,18.8 10.8,19 10.9,19.1 10.9,19.2 10.9,19.4 10.9,19.5 10.9,19.5 10.8,19.5 10.7,19.5 
	10.7,19.6 10.6,19.7 10.4,20 "/>
<polygon id="XMLID_84_" class="st1" points="10.8,19.8 10.8,19.9 10.8,20 10.9,20 10.9,19.9 10.9,19.9 10.9,19.8 10.9,19.7 
	10.8,19.7 10.8,19.7 "/>
<polygon id="XMLID_85_" class="st1" points="11.1,18.8 11,18.9 11,18.9 11.1,18.9 11.1,18.9 11.1,18.9 11.1,18.8 11.1,18.8 "/>
<polygon id="XMLID_86_" class="st2" points="9.7,19.8 9.8,19.9 10,19.9 10.1,19.8 10.2,19.7 10.2,19.7 10.2,19.6 10.1,19.6 
	10.1,19.5 10.1,19.5 10.1,19.4 10.1,19.4 10.1,19.4 10,19.4 9.8,19.3 9.7,19.3 9.7,19.4 9.7,19.4 9.9,19.5 9.9,19.5 9.7,19.6 
	9.7,19.7 9.7,19.7 "/>
<polygon id="XMLID_87_" class="st2" points="10.2,18.9 10.3,19 10.4,19.1 10.5,19 10.6,19 10.7,18.9 10.7,18.8 10.6,18.8 10.5,18.7 
	10.4,18.7 10.3,18.7 10.2,18.8 10.2,18.9 "/>
<polygon id="XMLID_88_" class="st2" points="9.7,19 9.8,19 9.8,19 9.9,19 9.9,18.9 9.9,18.8 9.7,18.7 9.7,18.7 9.8,18.7 9.8,18.6 
	9.8,18.6 9.8,18.6 9.7,18.5 9.5,18.5 9.3,18.5 9.2,18.5 9.2,18.6 9.2,18.6 9.2,18.6 9.3,18.7 9.4,18.6 9.5,18.6 9.5,18.7 9.4,18.7 
	9.3,18.8 9.3,18.9 9.3,18.9 9.4,19 9.5,19 9.6,19 "/>
<polygon id="XMLID_89_" class="st2" points="10.1,18.4 10,18.4 10,18.5 10,18.5 10,18.6 10.1,18.6 10.1,18.5 10.1,18.4 "/>
<polygon id="XMLID_90_" class="st1" points="10.1,17.5 10.1,17.4 10.1,17.4 10,17.4 10,17.5 10,17.5 10.1,17.5 10.1,17.5 "/>
<polygon id="XMLID_91_" class="st1" points="10,17.4 9.9,17.4 9.9,17.4 9.9,17.4 9.9,17.4 9.9,17.5 9.9,17.5 10,17.4 "/>
<polygon id="XMLID_92_" class="st1" points="9.9,17.5 9.9,17.5 9.9,17.5 9.9,17.5 9.8,17.6 9.9,17.6 9.9,17.6 9.9,17.6 "/>
<polygon id="XMLID_93_" class="st1" points="10,17.7 10,17.6 10,17.6 9.9,17.6 9.9,17.7 9.9,17.7 10,17.7 10,17.7 "/>
<polygon id="XMLID_94_" class="st1" points="9.1,18.2 9.1,18.1 9.1,18.1 9,18.1 9,18.2 9.1,18.2 9.1,18.2 9.1,18.2 "/>
<polygon id="XMLID_95_" class="st1" points="9.1,18.2 9.1,18.1 9,18.1 9,18.1 9,18.2 9,18.2 9.1,18.2 9.1,18.2 "/>
<polygon id="XMLID_96_" class="st1" points="9.3,17.9 9.2,17.9 9.2,17.9 9.2,17.9 9.2,17.9 9.2,18 9.2,18 9.3,18 "/>
<polygon id="XMLID_97_" class="st1" points="10.4,17.8 10.4,17.8 10.3,17.8 10.3,17.8 10.3,17.8 10.3,17.9 10.4,17.9 10.4,17.9 "/>
<polygon id="XMLID_98_" class="st1" points="10.9,18.2 10.9,18.1 10.8,18.1 10.8,18.1 10.8,18.2 10.8,18.2 10.8,18.2 10.9,18.2 "/>
<polygon id="XMLID_99_" class="st1" points="10.7,18 10.6,17.9 10.6,17.9 10.6,17.9 10.6,18 10.6,18 10.6,18 10.7,18 "/>
</svg>
