<?xml version="1.0" encoding="utf-8"?>
<!-- Generator: Adobe Illustrator 23.0.5, SVG Export Plug-In . SVG Version: 6.00 Build 0)  -->
<svg version="1.1" id="Layer_1" xmlns="http://www.w3.org/2000/svg" xmlns:xlink="http://www.w3.org/1999/xlink" x="0px" y="0px"
	 viewBox="0 0 50 50" style="enable-background:new 0 0 50 50;" xml:space="preserve">
<style type="text/css">
	.st0{fill:#004E96;}
	.st1{fill:#FFFFFF;}
	.st2{fill:#FF7F2A;}
</style>
<rect id="XMLID_24_" x="0.7" y="0.5" class="st0" width="48.5" height="48.8"/>
<polygon id="XMLID_25_" class="st1" points="38.8,3.9 38.1,9.4 26.5,9.4 25.4,17 37.1,17 36.3,22.5 24.6,22.5 22.3,37.4 15.6,37.4 
	20.4,3.9 "/>
<path id="XMLID_26_" class="st1" d="M-55-218.6l-4.6,33.6c0,0,20,0.3,20,0c0-0.4,0.7-5.3,0.7-5.3h-13.4l1.4-9.6h13.5l0.8-5.6H-50
	l1.1-7.6h13.4l0.8-5.5L-55-218.6z"/>
<path id="XMLID_27_" class="st1" d="M-0.1-218.6L-4.8-185c0,0,20,0.3,20,0c0-0.4,0.7-5.3,0.7-5.3H2.5l1.4-9.6h13.4l0.8-5.6H4.8
	l1.1-7.6h13.4l0.8-5.5L-0.1-218.6z"/>
<path id="XMLID_28_" class="st1" d="M-30.7-218.6l-4.6,33.6h6.6l3.9-28.1l5-0.1c0,0,7.1,0,9.1,7.5l0,0.1c1.9,7.9-3.9,14.5-9.3,15.1
	c0,0-6.8,0.4-8,0.1l-0.9,5.3c0,0,10.3,0.5,14.6-1.6c0,0,10.1-3.3,10.1-17.6c0,0-0.9-13.9-17.5-14.3L-30.7-218.6z"/>
<path id="XMLID_29_" class="st1" d="M24.3-218.6L19.7-185h6.9l3.9-28.3c0,0,6.6-1,7.5,2.4c0,0,1.8,7.4-7.5,7.1l-1.1,4.9l8.5,13.9h7
	l-8.6-14.4c0,0,7.5-1.1,8.2-9.9c0,0,0.2-8.8-10.3-9.3H24.3z"/>
<polygon id="XMLID_30_" class="st1" points="29.1,-203.9 32.7,-203.9 29.3,-198.8 28.4,-198.9 "/>
<polygon id="XMLID_31_" class="st1" points="45.6,-185.1 68.5,-220 80.2,-185 73.2,-185 66.7,-206.2 53.4,-185.1 "/>
<polygon id="XMLID_32_" class="st1" points="57.5,-192.2 71.3,-192.2 69.8,-197.6 60.7,-197.6 "/>
<polygon id="XMLID_33_" class="st1" points="140.2,-185.1 163.1,-220 174.7,-185 167.7,-185 161.3,-206.2 147.9,-185.1 "/>
<polygon id="XMLID_34_" class="st1" points="152.1,-192.2 165.9,-192.2 164.3,-197.6 155.2,-197.6 "/>
<polygon id="XMLID_35_" class="st1" points="86.4,-218.6 81.6,-185.1 99.9,-185.1 100.6,-190.4 89.3,-190.4 92.9,-218.6 "/>
<path id="XMLID_36_" class="st1" d="M121.7-218.6l-4.6,33.6h6h0.9l4.1-28.2l0.1-0.5c0,0,4.1-0.2,5.6,1.8c0,0,2.9,4.7-3.3,6.9
	l-3.9,0.2l-1,5c0,0,4.1-0.4,5.2,0.2c0,0,6.9,2,2.6,8c0,0-2.3,2.2-8.5,1.4l-0.7,0.1l-0.4,1l-0.6,4.2c0,0,0.3-0.2,4.1,0
	c0,0,9,0,12-4.2c0,0,5.9-7.4-3-13.4c0,0,5.5-3.8,4.1-8.9c0,0-0.7-6.5-9.9-7.1H121.7z"/>
<polygon id="XMLID_37_" class="st1" points="182,-220.1 177.4,-185.1 183.9,-185.1 187.1,-207.8 210,-184.6 215,-218.7 208,-218.7 
	205.1,-198 "/>
<polygon id="XMLID_38_" class="st1" points="219.2,-218.7 214.5,-185 221.5,-185 226.1,-218.6 "/>
<polygon id="XMLID_39_" class="st1" points="237.5,-218.6 245.2,-218.6 222.9,-198 224,-206.4 "/>
<polygon id="XMLID_40_" class="st1" points="224.2,-199.7 236.5,-185.1 244.4,-185.1 229.3,-204.2 "/>
<rect id="XMLID_41_" x="0.6" y="40.8" class="st2" width="48.6" height="8.4"/>
<path id="XMLID_42_" class="st1" d="M-78.4-163.6c-0.6-0.9-1.3-2-2.1-3.3l-1.2-1.8c-0.6-0.8-0.9-1.4-1.2-1.7
	c-0.2-0.3-0.3-0.5-0.4-0.5c0.3,0,0.7,0.1,1.2,0.1c0.5,0,0.8,0,1.2-0.1c0.1,0.3,0.3,0.6,0.4,0.9c0.2,0.3,0.4,0.7,0.7,1.3l0.7,1.2
	c0.6,1,1.2,1.9,1.7,2.7h0c0.5-0.7,1-1.5,1.6-2.5l0.8-1.4c0.3-0.5,0.5-0.9,0.7-1.2c0.1-0.3,0.3-0.6,0.4-1c0.3,0,0.5,0.1,0.9,0.1
	c0.3,0,0.6,0,0.8-0.1c-0.1,0.1-0.2,0.2-0.4,0.5c-0.2,0.3-0.6,0.8-1.2,1.7l-1.1,1.6c-0.8,1.1-1.4,2.2-2,3v1c0,1.4,0,2.4,0,2.9
	c0,0.6,0.1,1.1,0.1,1.5c-0.3,0-0.6-0.1-1-0.1c-0.4,0-0.7,0-1,0.1c0.1-0.4,0.1-0.9,0.1-1.5c0-0.6,0-1.6,0-2.9L-78.4-163.6
	L-78.4-163.6z"/>
<path id="XMLID_45_" class="st1" d="M-63.3-159.1c-1.6,0-2.8-0.5-3.8-1.5c-0.9-1-1.4-2.3-1.4-3.9c0-1.7,0.5-3.1,1.4-4.2
	c0.9-1,2.2-1.6,3.8-1.6c1.6,0,2.8,0.5,3.8,1.5c0.9,1,1.4,2.3,1.4,3.9c0,1.7-0.5,3.1-1.4,4.2C-60.5-159.7-61.7-159.1-63.3-159.1
	 M-63.4-158.4c2.2,0,3.9-0.6,5.3-1.8c1.4-1.2,2-2.8,2-4.7c0-1.8-0.7-3.3-2-4.4c-1.3-1.1-3-1.7-5.2-1.7c-2.2,0-3.9,0.6-5.3,1.8
	c-1.4,1.2-2,2.8-2,4.7c0,1.8,0.7,3.3,2,4.4C-67.2-158.9-65.5-158.4-63.4-158.4"/>
<path id="XMLID_46_" class="st1" d="M-41.7-163.9c0,1.8-0.5,3.2-1.4,4.1c-0.9,0.9-2.3,1.4-4.1,1.4c-1.8,0-3.2-0.4-4.1-1.2
	c-0.9-0.8-1.3-2.1-1.3-3.7v-1.3l0-4.1c0-0.7,0-1.2,0-1.5c0-0.3,0-0.5-0.1-0.7c0.3,0,0.6,0.1,1,0.1c0.4,0,0.7,0,1-0.1
	c0,0.2-0.1,0.4-0.1,0.7c0,0.3,0,0.8-0.1,1.5c0,1.2-0.1,2.6-0.1,4.1v0.7c0,1.6,0.3,2.7,1,3.4c0.7,0.8,1.7,1.1,3.1,1.1
	c1.5,0,2.5-0.4,3.2-1.2c0.7-0.8,1-2,1-3.8v-0.3l0-4.1c0-0.7,0-1.3,0-1.6c0-0.3,0-0.5,0-0.6c0.2,0,0.4,0.1,0.7,0.1
	c0.3,0,0.5,0,0.7-0.1c0,0.2-0.1,0.5-0.1,0.7c0,0.3,0,0.8-0.1,1.5c0,1.2-0.1,2.6-0.1,4.1L-41.7-163.9L-41.7-163.9z"/>
<path id="XMLID_49_" class="st1" d="M-35.9-170c0.5,0,1-0.1,1.6-0.1c1,0,1.8,0.2,2.3,0.6c0.5,0.4,0.8,0.9,0.8,1.6
	c0,0.8-0.4,1.4-1.1,1.8c-0.7,0.5-1.6,0.7-2.8,0.7c-0.3,0-0.6,0-0.9,0V-170L-35.9-170z M-37.6-159.2c0,0.3,0,0.5-0.1,0.6
	c0.3,0,0.6-0.1,1-0.1c0.4,0,0.7,0,1,0.1c0-0.1,0-0.3-0.1-0.6c0-0.3,0-0.8-0.1-1.6c0-1.1,0-2.4,0-3.8h0h0.7c0.7,0.7,1.4,1.6,2.3,2.6
	l1.1,1.3c0.5,0.6,0.9,1,1.1,1.3c0.2,0.3,0.4,0.6,0.6,0.9c0.4,0,0.8-0.1,1.2-0.1c0.5,0,0.9,0,1.2,0.1c-0.1-0.1-0.3-0.2-0.5-0.5
	c-0.3-0.3-0.8-0.8-1.5-1.7l-1.1-1.2c-0.9-1-1.7-2-2.3-2.8c0.9-0.1,1.7-0.4,2.4-0.8c1.1-0.6,1.6-1.4,1.6-2.4c0-1-0.4-1.7-1.1-2.2
	c-0.7-0.5-1.8-0.7-3.2-0.7c-0.2,0-0.5,0-0.8,0c-0.3,0-0.6,0-1,0c-0.2,0-0.5,0-0.9,0c-0.4,0-0.9,0-1.5-0.1c0,0.1,0,0.3,0.1,0.6
	c0,0.3,0,0.8,0.1,1.6c0,1.2,0,2.5,0,4c0,1.5,0,2.8,0,3.9C-37.6-160-37.6-159.5-37.6-159.2"/>
<path id="XMLID_52_" class="st1" d="M-17.9-169.9c0.5,0,1.1-0.1,1.7-0.1c1.1,0,1.9,0.2,2.4,0.6c0.5,0.4,0.8,1,0.8,1.7
	c0,0.8-0.3,1.5-1,1.9c-0.7,0.5-1.5,0.7-2.6,0.7c-0.5,0-0.9,0-1.3-0.1V-169.9z M-19.6-159.2c0,0.3,0,0.5-0.1,0.6c0.3,0,0.6-0.1,1-0.1
	c0.4,0,0.7,0,1,0.1c0-0.1,0-0.3-0.1-0.6c0-0.3,0-0.8-0.1-1.6c0-1,0-2.2,0-3.5h0c0.5,0.1,1.1,0.1,1.7,0.1c1.6,0,2.9-0.3,3.8-0.9
	c0.9-0.6,1.3-1.5,1.3-2.6c0-1.1-0.4-1.8-1.1-2.3c-0.8-0.5-1.9-0.8-3.5-0.8c-0.2,0-0.5,0-0.8,0c-0.3,0-0.6,0-0.9,0c-0.3,0-0.6,0-1,0
	c-0.4,0-0.8,0-1.3,0c0,0.1,0,0.3,0.1,0.6c0,0.3,0,0.8,0.1,1.6c0,1.2,0,2.5,0,3.9c0,1.5,0,2.8,0,3.9C-19.6-160-19.6-159.5-19.6-159.2
	"/>
<path id="XMLID_53_" class="st1" d="M-8.8-158.5c0-0.1,0-0.3,0.1-0.6c0-0.3,0-0.8,0.1-1.6c0-1.2,0-2.5,0-4c0-1.5,0-2.9,0-4
	c0-0.8,0-1.3-0.1-1.6c0-0.3,0-0.5-0.1-0.6c0.2,0,0.6,0.1,1.1,0.1c0.5,0,1.1,0,1.6,0h1.5c0.6,0,1.1,0,1.6,0c0.5,0,0.9-0.1,1.2-0.1
	c0,0.2-0.1,0.4-0.1,0.6c0,0.2,0,0.4,0.1,0.6c-0.2,0-0.6-0.1-1.2-0.1c-0.6,0-1.1,0-1.6,0h-0.7c-0.6,0-1.2,0-1.7,0l-0.1,4.5h1.7
	c0.6,0,1.2,0,1.8,0c0.6,0,1-0.1,1.2-0.1c0,0.2-0.1,0.4-0.1,0.6c0,0.2,0,0.4,0.1,0.6c-0.2,0-0.6-0.1-1.2-0.1c-0.6,0-1.2,0-1.8,0H-7
	c0,1.9,0,3.6,0,5l1.3,0H-5c0.6,0,1.2,0,1.8-0.1c0.6,0,1.1-0.1,1.3-0.1c0,0.2-0.1,0.4-0.1,0.6c0,0.2,0,0.4,0.1,0.6
	c-0.3,0-0.7-0.1-1.2-0.1c-0.6,0-1.1,0-1.5,0h-1.5c-0.5,0-1,0-1.5,0C-8.2-158.5-8.6-158.5-8.8-158.5"/>
<path id="XMLID_56_" class="st1" d="M3.4-170c0.5,0,1-0.1,1.6-0.1c1,0,1.8,0.2,2.3,0.6c0.5,0.4,0.8,0.9,0.8,1.6
	c0,0.8-0.4,1.4-1.1,1.8c-0.7,0.5-1.6,0.7-2.8,0.7c-0.3,0-0.6,0-0.9,0V-170L3.4-170z M1.6-159.2c0,0.3,0,0.5-0.1,0.6
	c0.3,0,0.6-0.1,1-0.1c0.4,0,0.7,0,1,0.1c0-0.1,0-0.3-0.1-0.6c0-0.3,0-0.8-0.1-1.6c0-1.1,0-2.4,0-3.8h0H4c0.7,0.7,1.4,1.6,2.3,2.6
	l1.1,1.3c0.5,0.6,0.9,1,1.1,1.3c0.2,0.3,0.4,0.6,0.6,0.9c0.4,0,0.8-0.1,1.2-0.1c0.5,0,0.9,0,1.2,0.1c-0.1-0.1-0.3-0.2-0.5-0.5
	c-0.3-0.3-0.8-0.8-1.5-1.7L8.4-162c-0.9-1-1.7-2-2.3-2.8c0.9-0.1,1.7-0.4,2.4-0.8c1.1-0.6,1.6-1.4,1.6-2.4c0-1-0.4-1.7-1.1-2.2
	c-0.7-0.5-1.8-0.7-3.2-0.7c-0.2,0-0.5,0-0.8,0c-0.3,0-0.6,0-1,0c-0.2,0-0.5,0-0.9,0c-0.4,0-0.9,0-1.5-0.1c0,0.1,0,0.3,0.1,0.6
	c0,0.3,0,0.8,0.1,1.6c0,1.2,0,2.5,0,4c0,1.5,0,2.8,0,3.9C1.6-160,1.6-159.5,1.6-159.2"/>
<path id="XMLID_57_" class="st1" d="M13.6-160.8c0-1.2,0-2.5,0-4c0-1.5,0-2.8,0-4c0-0.8,0-1.3-0.1-1.6c0-0.3,0-0.5-0.1-0.6
	c0.2,0,0.7,0.1,1.3,0.1c0.6,0,1.3,0,2,0h1.2c0.6,0,1.1,0,1.6,0c0.5,0,0.9-0.1,1.2-0.1c0,0.2-0.1,0.4-0.1,0.6c0,0.2,0,0.4,0.1,0.6
	c-0.2,0-0.6-0.1-1.2-0.1c-0.6,0-1.1,0-1.6,0h-0.8c-0.6,0-1.2,0-1.8,0c0,1.2-0.1,2.7-0.1,4.4l2,0c0.6,0,1.2,0,1.8,0
	c0.6,0,1-0.1,1.2-0.1c0,0.2-0.1,0.4-0.1,0.6c0,0.2,0,0.4,0.1,0.6c-0.2,0-0.5-0.1-1.1-0.1c-0.6,0-1.2-0.1-1.9-0.1l-2,0
	c0,1.4,0,2.7,0,3.9c0,0.8,0,1.3,0.1,1.6c0,0.3,0,0.5,0.1,0.6c-0.3,0-0.6-0.1-1-0.1c-0.4,0-0.7,0-1,0.1c0-0.1,0-0.3,0.1-0.6
	C13.6-159.5,13.6-160,13.6-160.8"/>
<path id="XMLID_58_" class="st1" d="M23.5-158.5c0-0.1,0-0.3,0.1-0.6c0-0.3,0-0.8,0.1-1.6c0-1.2,0-2.5,0-4c0-1.5,0-2.9,0-4
	c0-0.8,0-1.3-0.1-1.6c0-0.3,0-0.5-0.1-0.6c0.2,0,0.6,0.1,1.1,0.1c0.5,0,1.1,0,1.6,0h1.5c0.6,0,1.1,0,1.6,0c0.5,0,0.9-0.1,1.2-0.1
	c0,0.2-0.1,0.4-0.1,0.6c0,0.2,0,0.4,0.1,0.6c-0.2,0-0.6-0.1-1.2-0.1c-0.6,0-1.1,0-1.6,0h-0.7c-0.6,0-1.2,0-1.7,0l-0.1,4.5h1.7
	c0.6,0,1.2,0,1.8,0c0.6,0,1-0.1,1.2-0.1c0,0.2-0.1,0.4-0.1,0.6c0,0.2,0,0.4,0.1,0.6c-0.2,0-0.6-0.1-1.2-0.1c-0.6,0-1.2,0-1.8,0h-1.7
	c0,1.9,0,3.6,0,5l1.3,0h0.6c0.6,0,1.2,0,1.8-0.1c0.6,0,1.1-0.1,1.3-0.1c0,0.2-0.1,0.4-0.1,0.6c0,0.2,0,0.4,0.1,0.6
	c-0.3,0-0.7-0.1-1.2-0.1c-0.6,0-1.1,0-1.5,0h-1.5c-0.5,0-1,0-1.5,0C24.2-158.5,23.8-158.5,23.5-158.5"/>
<path id="XMLID_59_" class="st1" d="M44.4-160.4c0,0.2-0.1,0.4-0.1,0.5c0,0.2,0,0.3-0.1,0.5c-0.7,0.3-1.4,0.6-2.1,0.7
	c-0.7,0.2-1.5,0.2-2.3,0.2c-2,0-3.6-0.6-4.9-1.7c-1.2-1.1-1.9-2.6-1.9-4.4c0-1.9,0.7-3.5,2-4.7c1.3-1.2,3.1-1.8,5.2-1.8
	c0.8,0,1.6,0.1,2.3,0.2c0.7,0.1,1.4,0.3,2.1,0.6c-0.1,0.3-0.2,0.5-0.2,0.7c-0.1,0.2-0.1,0.5-0.2,0.7l-0.3,0c-0.4-0.5-1-0.8-1.6-1.1
	c-0.6-0.3-1.3-0.4-2-0.4c-1.6,0-2.8,0.5-3.8,1.6c-0.9,1-1.4,2.4-1.4,4.2c0,1.6,0.5,2.9,1.4,3.9c1,1,2.2,1.5,3.7,1.5
	c0.8,0,1.5-0.1,2.2-0.4c0.7-0.3,1.3-0.6,1.8-1.1L44.4-160.4L44.4-160.4z"/>
<path id="XMLID_60_" class="st1" d="M50.2-160.8c0-1.2,0-2.5,0-3.9c0-2,0-3.8-0.1-5.2h-1c-0.6,0-1.3,0-1.9,0c-0.6,0-1.1,0.1-1.3,0.1
	c0-0.2,0.1-0.4,0.1-0.6c0-0.2,0-0.4-0.1-0.6c0.7,0,1.5,0.1,2.4,0.1c0.9,0,1.6,0,2.1,0h0.5h0.5c0.5,0,1.2,0,2.1,0
	c0.9,0,1.7-0.1,2.3-0.1c0,0.2-0.1,0.4-0.1,0.6c0,0.2,0,0.4,0.1,0.6c-0.2,0-0.7-0.1-1.3-0.1c-0.6,0-1.3,0-1.9,0H52
	c0,1.5-0.1,3.2-0.1,5.2c0,1.5,0,2.8,0,3.9c0,0.8,0,1.3,0.1,1.6c0,0.3,0,0.5,0.1,0.6c-0.3,0-0.6-0.1-1-0.1c-0.4,0-0.7,0-1,0.1
	c0-0.1,0-0.3,0.1-0.6C50.1-159.5,50.2-160,50.2-160.8"/>
<path id="XMLID_64_" class="st1" d="M66-169.8c0.5-0.1,0.9-0.1,1.5-0.1c1,0,1.7,0.2,2.3,0.6c0.6,0.4,0.9,0.9,0.9,1.5
	c0,0.7-0.3,1.3-0.9,1.7c-0.6,0.4-1.5,0.6-2.5,0.6H66V-169.8L66-169.8z M64.3-159.2c0,0.3,0,0.5-0.1,0.6l0.9-0.1l2.5,0.1
	c1.6,0,2.9-0.3,3.9-1c1-0.6,1.5-1.5,1.5-2.5c0-1.1-0.4-1.9-1.3-2.4c-0.6-0.4-1.3-0.6-2.3-0.7c0.7-0.1,1.3-0.4,1.8-0.7
	c0.9-0.6,1.4-1.3,1.4-2.3c0-0.9-0.4-1.6-1.1-2c-0.8-0.4-1.9-0.7-3.4-0.7l-2.8,0.1l-0.9-0.1c0,0.1,0,0.3,0.1,0.6c0,0.3,0,0.8,0.1,1.6
	c0,1.2,0,2.5,0,4c0,1.5,0,2.8,0,3.9C64.3-160,64.3-159.5,64.3-159.2 M66-164.6h1.3c1.2,0,2.2,0.2,2.8,0.6c0.6,0.4,1,1,1,1.8
	c0,0.9-0.3,1.6-1,2.1c-0.7,0.5-1.6,0.7-2.9,0.7c-0.4,0-0.8,0-1.2-0.1V-164.6L66-164.6z"/>
<path id="XMLID_67_" class="st1" d="M80.8-168.3L80.8-168.3l1.7,3.6l0.2,0.4c-0.6,0.1-1.2,0.1-1.9,0.1c-0.7,0-1.3,0-1.9-0.1l0.2-0.5
	c0.6-1.3,0.9-2,0.9-2S80.2-167.2,80.8-168.3 M75.2-159.1c-0.2,0.3-0.3,0.5-0.3,0.6c0.2,0,0.5-0.1,0.8-0.1c0.3,0,0.6,0,0.8,0.1
	c0.1-0.4,0.2-0.7,0.3-1c0.1-0.3,0.3-0.7,0.5-1.2c0.3-0.7,0.7-1.5,1.1-2.4c0.7-0.1,1.5-0.2,2.4-0.2c0.9,0,1.7,0.1,2.4,0.2l1.1,2.4
	c0.3,0.6,0.4,1,0.6,1.3c0.1,0.3,0.2,0.6,0.3,0.9c0.3,0,0.7-0.1,1.1-0.1c0.4,0,0.8,0,1.1,0.1l-1.1-2.2c-0.6-1.2-1.2-2.5-1.9-3.9
	c-1.2-2.4-2.1-4.5-2.8-6.1h-0.2H81c-0.7,1.7-1.7,3.7-2.9,6.2c-0.7,1.4-1.4,2.7-2,3.9C75.7-160,75.4-159.4,75.2-159.1"/>
<path id="XMLID_68_" class="st1" d="M91.2-160.8c0,0.7,0.1,1.3,0.1,1.6c0,0.3,0,0.5,0.1,0.6c-0.2,0-0.4-0.1-0.7-0.1
	c-0.3,0-0.5,0-0.7,0.1c0-0.1,0-0.3,0.1-0.6c0-0.3,0-0.8,0.1-1.6c0-1.2,0-2.5,0-3.9c0-1.4,0-2.8,0-3.9c0-0.8,0-1.3-0.1-1.6
	c0-0.3,0-0.5-0.1-0.6h0.3h0.3c1.6,1.7,3.7,3.8,6.3,6.3l3.2,3l0-3.1c0-1.5,0-2.9,0-4.1c0-0.8,0-1.3-0.1-1.6c0-0.3,0-0.5-0.1-0.6
	c0.2,0,0.4,0.1,0.7,0.1c0.3,0,0.5,0,0.7-0.1c0,0.1,0,0.3-0.1,0.6c0,0.3,0,0.8-0.1,1.6c0,1.2,0,2.6,0,4.1c0,2.5,0,4.6,0.1,6.2h-0.3
	h-0.3c-1.6-1.7-3.7-3.8-6.3-6.3l-3.2-3.1v3C91.1-163.2,91.1-161.9,91.2-160.8"/>
<path id="XMLID_69_" class="st1" d="M107.1-160.8c0,0.8,0,1.3,0.1,1.6c0,0.3,0,0.5,0.1,0.6c-0.3,0-0.6-0.1-1-0.1s-0.7,0-1,0.1
	c0-0.1,0-0.3,0.1-0.6c0-0.3,0-0.8,0.1-1.6c0-1.2,0-2.5,0-3.9c0-1.5,0-2.8,0-4c0-0.8,0-1.3-0.1-1.6c0-0.3,0-0.5-0.1-0.6
	c0.3,0,0.6,0.1,1,0.1s0.7,0,1-0.1c0,0.1,0,0.3-0.1,0.6c0,0.3,0,0.8-0.1,1.6c0,1.1,0,2.2,0,3.5h0c0.9-0.7,1.8-1.6,3-2.6
	c1.2-1.2,2.2-2.2,3-3h1c0.4,0,0.7,0,1-0.1c-0.1,0.1-0.4,0.3-0.7,0.5c-0.4,0.3-1,0.8-1.9,1.6l-1.6,1.4l-2,1.9l2.1,2.3l2.2,2.3
	c0.8,0.8,1.3,1.4,1.6,1.7c0.3,0.3,0.5,0.5,0.5,0.5c-0.4,0-0.8-0.1-1.2-0.1c-0.5,0-0.9,0-1.2,0.1c-0.2-0.3-0.4-0.6-0.6-0.9
	c-0.2-0.3-0.6-0.7-1.2-1.3l-1-1.1c-1.1-1.2-2-2.2-2.8-3h0l0,0.1C107-163.3,107.1-161.9,107.1-160.8"/>
<path id="XMLID_70_" class="st1" d="M117.5-160.8c0-1.2,0-2.5,0-3.9c0-1.5,0-2.8,0-4c0-0.8,0-1.3-0.1-1.6c0-0.3,0-0.5-0.1-0.6
	c0.3,0,0.6,0.1,1,0.1s0.7,0,1-0.1c0,0.1,0,0.3-0.1,0.6c0,0.3,0,0.8-0.1,1.6c0,1.2,0,2.5,0,3.9c0,1.5,0,2.8,0,4c0,0.8,0,1.3,0.1,1.6
	c0,0.3,0,0.5,0.1,0.6c-0.3,0-0.6-0.1-1-0.1s-0.7,0-1,0.1c0-0.1,0-0.3,0.1-0.6C117.5-159.5,117.5-160,117.5-160.8"/>
<path id="XMLID_71_" class="st1" d="M124.6-160.8c0,0.7,0.1,1.3,0.1,1.6c0,0.3,0,0.5,0.1,0.6c-0.2,0-0.4-0.1-0.7-0.1
	c-0.3,0-0.5,0-0.7,0.1c0-0.1,0-0.3,0.1-0.6c0-0.3,0-0.8,0.1-1.6c0-1.2,0-2.5,0-3.9c0-1.4,0-2.8,0-3.9c0-0.8,0-1.3-0.1-1.6
	c0-0.3,0-0.5-0.1-0.6h0.3h0.3c1.6,1.7,3.7,3.8,6.3,6.3l3.2,3l0-3.1c0-1.5,0-2.9,0-4.1c0-0.8,0-1.3-0.1-1.6c0-0.3,0-0.5-0.1-0.6
	c0.2,0,0.4,0.1,0.7,0.1c0.3,0,0.5,0,0.7-0.1c0,0.1,0,0.3-0.1,0.6c0,0.3,0,0.8-0.1,1.6c0,1.2,0,2.6,0,4.1c0,2.5,0,4.6,0.1,6.2h-0.3
	H134c-1.6-1.7-3.7-3.8-6.3-6.3l-3.2-3.1v3C124.6-163.2,124.6-161.9,124.6-160.8"/>
<path id="XMLID_72_" class="st1" d="M144.8-158.4c-2.1,0-3.8-0.6-5.1-1.7c-1.3-1.1-2-2.6-2-4.4c0-1.9,0.7-3.5,2-4.7
	c1.3-1.2,3.1-1.8,5.3-1.8c1,0,1.9,0.1,2.8,0.3c0.8,0.2,1.7,0.5,2.4,0.8c-0.1,0.3-0.2,0.5-0.2,0.7c-0.1,0.2-0.1,0.5-0.2,0.8h-0.3
	c-0.5-0.6-1.2-1-1.9-1.3c-0.8-0.3-1.5-0.5-2.3-0.5c-1.7,0-3,0.5-4,1.6c-1,1-1.5,2.4-1.5,4.2c0,1.6,0.5,2.9,1.5,3.9
	c1,1,2.3,1.5,4,1.5c1.1,0,2.1-0.2,3.2-0.6v-1.2c0-0.8,0-1.4,0-1.8c0-0.4-0.1-0.9-0.2-1.4c0.3,0,0.6,0.1,1,0.1c0.4,0,0.7,0,1-0.1
	c-0.1,0.2-0.1,0.5-0.1,0.7c0,0.3,0,0.8,0,1.5v0.3c0,0.8,0,1.4,0,1.8c0,0.3,0.1,0.6,0.1,0.9C148.7-158.6,146.9-158.4,144.8-158.4"/>
<path id="XMLID_75_" class="st1" d="M161.6-169.9c0.5,0,1.1-0.1,1.7-0.1c1.1,0,1.9,0.2,2.4,0.6c0.5,0.4,0.8,1,0.8,1.7
	c0,0.8-0.3,1.5-1,1.9c-0.7,0.5-1.5,0.7-2.6,0.7c-0.5,0-0.9,0-1.3-0.1V-169.9z M159.9-159.2c0,0.3,0,0.5-0.1,0.6c0.3,0,0.6-0.1,1-0.1
	c0.4,0,0.7,0,1,0.1c0-0.1,0-0.3-0.1-0.6c0-0.3,0-0.8-0.1-1.6c0-1,0-2.2,0-3.5h0c0.5,0.1,1.1,0.1,1.7,0.1c1.6,0,2.9-0.3,3.8-0.9
	c0.9-0.6,1.3-1.5,1.3-2.6c0-1.1-0.4-1.8-1.1-2.3c-0.8-0.5-1.9-0.8-3.5-0.8c-0.2,0-0.5,0-0.8,0c-0.3,0-0.6,0-0.9,0c-0.3,0-0.6,0-1,0
	c-0.4,0-0.8,0-1.3,0c0,0.1,0,0.3,0.1,0.6c0,0.3,0,0.8,0.1,1.6c0,1.2,0,2.5,0,3.9c0,1.5,0,2.8,0,3.9
	C159.9-160,159.9-159.5,159.9-159.2"/>
<path id="XMLID_78_" class="st1" d="M175.4-168.3L175.4-168.3l1.7,3.6l0.2,0.4c-0.6,0.1-1.2,0.1-1.9,0.1c-0.7,0-1.3,0-1.9-0.1
	l0.2-0.5c0.6-1.3,0.9-2,0.9-2S174.8-167.2,175.4-168.3 M169.8-159.1c-0.2,0.3-0.3,0.5-0.3,0.6c0.2,0,0.5-0.1,0.8-0.1
	c0.3,0,0.6,0,0.8,0.1c0.1-0.4,0.2-0.7,0.3-1c0.1-0.3,0.3-0.7,0.5-1.2c0.3-0.7,0.7-1.5,1.1-2.4c0.7-0.1,1.5-0.2,2.4-0.2
	c0.9,0,1.7,0.1,2.4,0.2l1.1,2.4c0.3,0.6,0.4,1,0.6,1.3c0.1,0.3,0.2,0.6,0.3,0.9c0.3,0,0.7-0.1,1.1-0.1c0.4,0,0.8,0,1.1,0.1l-1.1-2.2
	c-0.6-1.2-1.2-2.5-1.9-3.9c-1.2-2.4-2.1-4.5-2.8-6.1h-0.2h-0.2c-0.7,1.7-1.7,3.7-2.9,6.2c-0.7,1.4-1.4,2.7-2,3.9
	C170.3-160,170-159.4,169.8-159.1"/>
<path id="XMLID_81_" class="st1" d="M186.1-170c0.5,0,1-0.1,1.6-0.1c1,0,1.8,0.2,2.3,0.6c0.5,0.4,0.8,0.9,0.8,1.6
	c0,0.8-0.4,1.4-1.1,1.8c-0.7,0.5-1.6,0.7-2.8,0.7c-0.3,0-0.6,0-0.9,0V-170L186.1-170z M184.4-159.2c0,0.3,0,0.5-0.1,0.6
	c0.3,0,0.6-0.1,1-0.1c0.4,0,0.7,0,1,0.1c0-0.1,0-0.3-0.1-0.6c0-0.3,0-0.8-0.1-1.6c0-1.1,0-2.4,0-3.8h0h0.7c0.7,0.7,1.4,1.6,2.3,2.6
	l1.1,1.3c0.5,0.6,0.9,1,1.1,1.3c0.2,0.3,0.4,0.6,0.6,0.9c0.4,0,0.8-0.1,1.2-0.1c0.5,0,0.9,0,1.2,0.1c-0.1-0.1-0.3-0.2-0.5-0.5
	c-0.3-0.3-0.8-0.8-1.5-1.7l-1.1-1.2c-0.9-1-1.7-2-2.3-2.8c0.9-0.1,1.7-0.4,2.4-0.8c1.1-0.6,1.6-1.4,1.6-2.4c0-1-0.4-1.7-1.1-2.2
	c-0.7-0.5-1.8-0.7-3.2-0.7c-0.2,0-0.5,0-0.8,0c-0.3,0-0.6,0-1,0c-0.2,0-0.5,0-0.9,0c-0.4,0-0.9,0-1.5-0.1c0,0.1,0,0.3,0.1,0.6
	c0,0.3,0,0.8,0.1,1.6c0,1.2,0,2.5,0,4c0,1.5,0,2.8,0,3.9C184.4-160,184.4-159.5,184.4-159.2"/>
<path id="XMLID_82_" class="st1" d="M199.5-160.8c0-1.2,0-2.5,0-3.9c0-2,0-3.8-0.1-5.2h-1c-0.6,0-1.3,0-1.9,0
	c-0.6,0-1.1,0.1-1.3,0.1c0-0.2,0.1-0.4,0.1-0.6c0-0.2,0-0.4-0.1-0.6c0.7,0,1.5,0.1,2.4,0.1c0.9,0,1.6,0,2.1,0h0.5h0.5
	c0.5,0,1.2,0,2.1,0c0.9,0,1.7-0.1,2.3-0.1c0,0.2-0.1,0.4-0.1,0.6c0,0.2,0,0.4,0.1,0.6c-0.2,0-0.7-0.1-1.3-0.1c-0.6,0-1.3,0-1.9,0
	h-0.7c0,1.5-0.1,3.2-0.1,5.2c0,1.5,0,2.8,0,3.9c0,0.8,0,1.3,0.1,1.6c0,0.3,0,0.5,0.1,0.6c-0.3,0-0.6-0.1-1-0.1c-0.4,0-0.7,0-1,0.1
	c0-0.1,0-0.3,0.1-0.6C199.4-159.5,199.5-160,199.5-160.8"/>
<path id="XMLID_83_" class="st1" d="M209.1-160.8c0,0.7,0.1,1.3,0.1,1.6c0,0.3,0,0.5,0.1,0.6c-0.2,0-0.4-0.1-0.7-0.1
	c-0.3,0-0.5,0-0.7,0.1c0-0.1,0-0.3,0.1-0.6c0-0.3,0-0.8,0.1-1.6c0-1.2,0-2.5,0-3.9c0-1.4,0-2.8,0-3.9c0-0.8,0-1.3-0.1-1.6
	c0-0.3,0-0.5-0.1-0.6h0.3h0.3c1.6,1.7,3.7,3.8,6.3,6.3l3.2,3l0-3.1c0-1.5,0-2.9,0-4.1c0-0.8,0-1.3-0.1-1.6c0-0.3,0-0.5-0.1-0.6
	c0.2,0,0.4,0.1,0.7,0.1c0.3,0,0.5,0,0.7-0.1c0,0.1,0,0.3-0.1,0.6c0,0.3,0,0.8-0.1,1.6c0,1.2,0,2.6,0,4.1c0,2.5,0,4.6,0.1,6.2h-0.3
	h-0.3c-1.6-1.7-3.7-3.8-6.3-6.3l-3.2-3.1v3C209.1-163.2,209.1-161.9,209.1-160.8"/>
<path id="XMLID_84_" class="st1" d="M222.8-158.5c0-0.1,0-0.3,0.1-0.6c0-0.3,0-0.8,0.1-1.6c0-1.2,0-2.5,0-4c0-1.5,0-2.9,0-4
	c0-0.8,0-1.3-0.1-1.6c0-0.3,0-0.5-0.1-0.6c0.2,0,0.6,0.1,1.1,0.1c0.5,0,1.1,0,1.6,0h1.5c0.6,0,1.1,0,1.6,0c0.5,0,0.9-0.1,1.2-0.1
	c0,0.2-0.1,0.4-0.1,0.6c0,0.2,0,0.4,0.1,0.6c-0.2,0-0.6-0.1-1.2-0.1c-0.6,0-1.1,0-1.6,0h-0.7c-0.6,0-1.2,0-1.7,0l-0.1,4.5h1.7
	c0.6,0,1.2,0,1.8,0c0.6,0,1-0.1,1.2-0.1c0,0.2-0.1,0.4-0.1,0.6c0,0.2,0,0.4,0.1,0.6c-0.2,0-0.6-0.1-1.2-0.1c-0.6,0-1.2,0-1.8,0h-1.7
	c0,1.9,0,3.6,0,5l1.3,0h0.6c0.6,0,1.2,0,1.8-0.1c0.6,0,1.1-0.1,1.4-0.1c0,0.2-0.1,0.4-0.1,0.6c0,0.2,0,0.4,0.1,0.6
	c-0.3,0-0.7-0.1-1.2-0.1c-0.6,0-1.1,0-1.5,0h-1.5c-0.5,0-1,0-1.5,0C223.5-158.5,223.1-158.5,222.8-158.5"/>
<path id="XMLID_87_" class="st1" d="M235-170c0.5,0,1-0.1,1.6-0.1c1,0,1.8,0.2,2.3,0.6c0.5,0.4,0.8,0.9,0.8,1.6
	c0,0.8-0.4,1.4-1.1,1.8c-0.7,0.5-1.6,0.7-2.8,0.7c-0.3,0-0.6,0-0.9,0V-170L235-170z M233.3-159.2c0,0.3,0,0.5-0.1,0.6
	c0.3,0,0.6-0.1,1-0.1c0.4,0,0.7,0,1,0.1c0-0.1,0-0.3-0.1-0.6c0-0.3,0-0.8-0.1-1.6c0-1.1,0-2.4,0-3.8h0h0.7c0.7,0.7,1.4,1.6,2.3,2.6
	l1.1,1.3c0.5,0.6,0.9,1,1.1,1.3c0.2,0.3,0.4,0.6,0.6,0.9c0.4,0,0.8-0.1,1.2-0.1c0.5,0,0.9,0,1.2,0.1c-0.1-0.1-0.3-0.2-0.5-0.5
	c-0.3-0.3-0.8-0.8-1.5-1.7l-1.1-1.2c-0.9-1-1.7-2-2.3-2.8c0.9-0.1,1.7-0.4,2.4-0.8c1.1-0.6,1.6-1.4,1.6-2.4c0-1-0.4-1.7-1.1-2.2
	c-0.7-0.5-1.8-0.7-3.2-0.7c-0.2,0-0.5,0-0.8,0c-0.3,0-0.6,0-1,0c-0.2,0-0.5,0-0.9,0c-0.4,0-0.9,0-1.5-0.1c0,0.1,0,0.3,0.1,0.6
	c0,0.3,0,0.8,0.1,1.6c0,1.2,0,2.5,0,4c0,1.5,0,2.8,0,3.9C233.3-160,233.3-159.5,233.3-159.2"/>
</svg>
