<?xml version="1.0" encoding="utf-8"?>
<!-- Generator: Adobe Illustrator 23.0.5, SVG Export Plug-In . SVG Version: 6.00 Build 0)  -->
<svg version="1.1" id="Layer_1" xmlns="http://www.w3.org/2000/svg" xmlns:xlink="http://www.w3.org/1999/xlink" x="0px" y="0px"
	 viewBox="0 0 50 50" style="enable-background:new 0 0 50 50;" xml:space="preserve">
<style type="text/css">
	.st0{fill-rule:evenodd;clip-rule:evenodd;fill:#F89C27;}
	.st1{fill-rule:evenodd;clip-rule:evenodd;fill:#AF2A30;}
	.st2{fill-rule:evenodd;clip-rule:evenodd;fill:#FFFFFF;}
</style>
<g>
	<path class="st0" d="M16.02,12.32C26.39,2.04,38.93-0.61,43.93,6.41c5,7.02,0.62,21.14-9.75,31.42
		C23.81,48.11,11.27,50.76,6.27,43.74C1.27,36.71,5.64,22.6,16.02,12.32"/>
	<path class="st1" d="M22.88,6.84c-1.12,0.84-2.31,1.82-3.43,2.94c-9.09,8.95-12.86,21.26-8.39,27.41
		c4.61,6.15,15.8,3.92,25.03-5.18c4.96-4.82,8.32-10.49,9.72-15.73c0.42-3.85-0.14-7.27-1.89-9.86C39.94,0.97,31.41,1.39,22.88,6.84
		"/>
	<path class="st2" d="M28.02,42.9c-4.85,3.65-9.87,5.45-14.77,4.7c2.05,0.11,3.71-2.17,5.07-5.23c1.38-3.14,2.21-6.05,2.87-8.77
		c0.96-4.31,1.04-7.39,0.55-8.05c-0.83-1.1-2.72-0.81-4.86,0.42c-1.02,0.57-2.38,0.19-0.77-1.76c1.62-1.97,8.09-6.69,10.41-7.43
		c2.55-0.74,5.46,0.26,4.48,3.06C30.31,21.88,21.37,45.33,28.02,42.9 M35.33,6.52c1.21,1.21,0.47,3.85-1.59,5.93
		c-2.08,2.06-4.78,2.8-5.95,1.61c-1.25-1.19-0.51-3.87,1.57-5.97C31.46,5.99,34.16,5.35,35.33,6.52z"/>
</g>
</svg>
