<?xml version="1.0" encoding="utf-8"?>
<!-- Generator: Adobe Illustrator 23.0.5, SVG Export Plug-In . SVG Version: 6.00 Build 0)  -->
<svg version="1.1" id="Layer_1" xmlns="http://www.w3.org/2000/svg" xmlns:xlink="http://www.w3.org/1999/xlink" x="0px" y="0px"
	 viewBox="0 0 50 50" style="enable-background:new 0 0 50 50;" xml:space="preserve">
<style type="text/css">
	.st0{fill:#FFFFFF;}
	.st1{fill:#F48120;}
</style>
<path id="path160" class="st0" d="M49.5,24.2c0,13.5-10.9,24.4-24.4,24.4c-13.5,0-24.4-10.9-24.4-24.4C0.6,10.7,11.5-0.2,25-0.2
	C38.5-0.2,49.5,10.7,49.5,24.2"/>
<path id="path196" class="st1" d="M24.8,42.5c2.3,0,4.6-0.6,6.6-1.9c1.2-0.7,2.2-1.6,3.1-2.6c0.6-0.6,1-1.3,1.4-2
	c0.7-1.4,1.3-2.9,1.4-4.5c0.2-1.8,0-3.6-0.5-5.3c-0.4-1.3-1-2.5-1.7-3.7c-1-1.5-2.4-2.9-4-3.8c-0.4-0.2-0.7-0.5-1-0.7
	c-0.5-0.4-1.4-0.8-2-0.3c-0.6,0.6-0.6,1.6-0.7,2.5c0,6.1,0,12.1,0,18.2c0,0.5,0.1,1.1-0.4,1.4c-0.5,0.3-1.1,0.5-1.8,0.6
	c-0.5,0.1-1-0.1-1.5-0.2c-0.4-0.2-0.9-0.3-1.2-0.6c-0.5-0.4-0.2-1.1-0.3-1.7c0-6.2,0-12.4,0-18.6c-0.1-0.7-0.2-1.5-0.8-1.9
	c-0.3-0.1-0.6-0.1-0.9,0c-0.7,0.2-1.3,0.8-1.9,1.2c-1,0.6-2,1.4-2.8,2.3c-0.7,0.7-1.3,1.6-1.8,2.4c-0.7,1.4-1.3,2.8-1.6,4.3
	c-0.3,1.4-0.3,2.9-0.1,4.3c0.3,2.2,1.3,4.2,2.6,5.9c1.3,1.7,3.2,3,5.2,3.8C21.7,42.2,23.3,42.5,24.8,42.5L24.8,42.5z"/>
<path id="path200" class="st1" d="M24.9,14.2c0.2,0,0.3,0,0.5,0c0.1,0,0.2-0.1,0.3-0.1C25.8,14,25.9,14,26,14c0.1-0.1,0.2,0,0.3-0.1
	c0.1,0,0.2-0.1,0.2-0.1c0.1,0,0.1-0.1,0.2-0.2c0.1,0,0.2-0.2,0.3-0.2c0.1-0.1,0.1-0.1,0.2-0.2c0.1-0.1,0.1-0.2,0.2-0.3
	c0.1-0.1,0.1-0.2,0.1-0.2c0-0.1,0.1-0.2,0.1-0.2c0-0.1,0.1-0.2,0.1-0.2c0-0.1,0-0.2,0.1-0.3c0-0.3,0-0.5,0-0.8
	c-0.1-0.1,0-0.2-0.1-0.4c0-0.1,0-0.2-0.1-0.2c-0.1-0.2-0.2-0.4-0.3-0.7c-0.1-0.1-0.1-0.1-0.2-0.2c-0.1-0.1-0.2-0.2-0.3-0.3
	c-0.1,0-0.2-0.1-0.3-0.2c-0.1-0.1-0.2-0.1-0.2-0.1c-0.1,0-0.1-0.1-0.2-0.1c-0.1-0.1-0.3-0.1-0.4-0.2c-0.1,0-0.2-0.1-0.3-0.1
	c-0.1,0-0.2,0-0.3,0c-0.2,0-0.4,0-0.6,0c-0.1,0-0.3,0-0.4,0.1c-0.1,0.1-0.3,0.1-0.4,0.1c-0.1,0.1-0.2,0.1-0.2,0.1
	c-0.1,0-0.2,0.1-0.3,0.1C23.2,9,23.1,9.1,23,9.2c-0.1,0-0.1,0.1-0.2,0.2c-0.1,0.1-0.1,0.1-0.2,0.2c-0.1,0.2-0.3,0.3-0.3,0.5
	c0,0.1-0.1,0.1-0.1,0.2c0,0.1-0.1,0.2-0.1,0.3c0,0.1,0,0.2-0.1,0.3c0,0.2,0,0.5,0,0.7c0,0.1,0,0.2,0.1,0.4c0,0.2,0.1,0.3,0.1,0.4
	c0,0.1,0.1,0.1,0.1,0.2c0,0.1,0.1,0.2,0.1,0.2c0,0.2,0.2,0.3,0.3,0.4c0.1,0.1,0.1,0.2,0.2,0.2c0.1,0.1,0.1,0.1,0.2,0.2
	c0.1,0.1,0.2,0.1,0.2,0.2c0.1,0.1,0.2,0.1,0.3,0.2c0.1,0,0.2,0,0.2,0.1c0.1,0,0.2,0.1,0.2,0.1c0.1,0,0.2,0.1,0.3,0.1
	C24.5,14.2,24.7,14.2,24.9,14.2L24.9,14.2z"/>
<path id="path204" class="st1" d="M31,9.1c0.3-0.7,1.1-1.2,1.9-0.7c1.4,0.9,2.5,2.2,3.7,3.4c1.6,1.5,3,3.3,4,5.2
	c1,2,1.6,4.3,1.7,6.6c0.2,2.3-0.1,4.7-0.8,6.9c-1.4,4.1-4.3,7.8-8.2,9.9c-5.4,3-12.3,2.8-17.5-0.4c-5-3-8.2-8.6-8.4-14.3
	c-0.1-2.6,0.3-5.3,1.3-7.8c1-2.4,2.7-4.5,4.7-6.3c1.1-1.1,2.1-2.3,3.4-3.1c0.5-0.4,1.4-0.3,1.7,0.3c0.6,1,1.1,2.3,1.1,3.5
	c-0.2,2-2,3.3-3.4,4.5c-1.7,1.4-2.9,3.3-3.9,5.2c-0.9,1.9-1.4,4-1.3,6.1c0,4.6,2.3,9.1,6,11.8c2.4,1.7,5.4,2.7,8.3,2.6
	c4.1-0.1,8-2.2,10.4-5.4c2.2-2.8,3.3-6.5,3.1-10c-0.1-2.2-0.8-4.3-1.8-6.2c-0.9-1.7-2.2-3.2-3.7-4.5c-1.1-1-2.5-2-2.9-3.6
	C30,11.6,30.5,10.3,31,9.1L31,9.1z"/>
</svg>
