<?xml version="1.0" encoding="utf-8"?>
<!-- Generator: Adobe Illustrator 23.0.5, SVG Export Plug-In . SVG Version: 6.00 Build 0)  -->
<svg version="1.1" id="Layer_1" xmlns="http://www.w3.org/2000/svg" xmlns:xlink="http://www.w3.org/1999/xlink" x="0px" y="0px"
	 viewBox="0 0 50 50" style="enable-background:new 0 0 50 50;" xml:space="preserve">
<style type="text/css">
	.st0{fill:#FFCB04;}
	.st1{fill:#BC8CBF;}
	.st2{fill:#F16669;}
	.st3{fill:#F79448;}
	.st4{fill:#C9749C;}
	.st5{fill:#F04E30;}
	.st6{fill:#F04E29;}
	.st7{fill:#231F20;}
</style>
<path id="path42168" class="st0" d="M48.1,25.5h-24v-24h24V25.5z"/>
<path id="path42170" class="st1" d="M26,25H2V1h24V25z"/>
<path id="path42172" class="st2" d="M25.8,49.1h-24V25h24V49.1z"/>
<path id="path42174" class="st3" d="M48.3,49.5h-24v-24h24V49.5z"/>
<path id="path42176" class="st4" d="M24.1,25H26V1.5h-1.8V25z"/>
<path id="path42178" class="st5" d="M44.1,24.6h4V1.5h-4V24.6z"/>
<path id="path42180" class="st6" d="M25.8,25.5h-1.5v23.6h1.5V25.5z"/>
<path id="path42184" class="st7" d="M10.5,47.2V27.8h8.6v2.7h-5.4v5.2h4v2.8h-4v8.7H10.5z"/>
<path id="path42186" class="st7" d="M12,22.7h3V3.3h-3V22.7z"/>
<path id="path42198" class="st7" d="M36.9,16.7c0,1.1-0.3,2-0.6,2.4c-0.4,0.4-0.9,0.8-1.9,0.8h-0.9V6.1h0.9c1,0,1.5,0.4,1.9,0.8
	c0.4,0.4,0.6,1.3,0.6,2.4V16.7z M38.6,5c-1.1-1.2-2.3-1.7-4.9-1.7h-3.2v19.4h3.2c2.7,0,3.8-0.5,4.9-1.7c0.8-0.9,1.3-2.3,1.3-4.4V9.5
	C39.9,7.3,39.4,5.9,38.6,5"/>
<path id="path42202" class="st7" d="M41.5,40.9c0,2-0.4,3.6-1.2,4.7s-2,1.6-3.6,1.6c-1.7,0-2.9-0.6-3.7-1.7c-0.8-1.1-1.1-3-1.1-5.5
	v-5c0-2.5,0.4-4.4,1.1-5.5c0.8-1.1,2-1.7,3.7-1.7c1.6,0,2.8,0.5,3.6,1.6c0.8,1.1,1.2,2.6,1.2,4.6v1h-3v-1.6c0-1.1-0.1-1.8-0.4-2.3
	c-0.3-0.5-0.7-0.7-1.4-0.7s-1.1,0.2-1.4,0.7c-0.3,0.5-0.4,1.3-0.4,2.3v8.2c0,1.1,0.1,1.8,0.4,2.3c0.3,0.5,0.7,0.7,1.4,0.7
	s1.1-0.2,1.4-0.7c0.3-0.5,0.4-1.3,0.4-2.3v-1.9h3V40.9z"/>
</svg>
