<?xml version="1.0" encoding="utf-8"?>
<!-- Generator: Adobe Illustrator 23.0.5, SVG Export Plug-In . SVG Version: 6.00 Build 0)  -->
<svg version="1.1" id="Layer_1" xmlns="http://www.w3.org/2000/svg" xmlns:xlink="http://www.w3.org/1999/xlink" x="0px" y="0px"
	 viewBox="0 0 50 50" style="enable-background:new 0 0 50 50;" xml:space="preserve">
<style type="text/css">
	.st0{fill-rule:evenodd;clip-rule:evenodd;fill:#009EE2;}
</style>
<g>
	<path class="st0" d="M1.8,29.8l11.5,11.5l11.5-11.5v-2.6L13.3,38.7L1.8,27.2V29.8L1.8,29.8z M25.7,2.5L14.8,13.8L16,15l9.7-10
		l9.7,10l1.3-1.2C33,10,29.4,6.2,25.7,2.5L25.7,2.5z M25.7,6.1l-9.1,9.4l1.3,1.2l7.9-8.2l7.9,8.2l1.3-1.2
		C31.8,12.3,28.8,9.1,25.7,6.1L25.7,6.1z M25.7,9.7l-7.3,7.6l1.3,1.2l6.1-6.3l6.1,6.3l1.3-1.2C30.6,14.7,28.2,12.1,25.7,9.7
		L25.7,9.7z M26,29.8l11.5,11.5L49,29.8v-2.6L37.5,38.7L26,27.2V29.8L26,29.8z M26,33.5L37.5,45L49,33.5v-2.6L37.5,42.4L26,30.9
		V33.5L26,33.5z M26,37.2l11.5,11.5L49,37.2v-2.6L37.5,46.1L26,34.6V37.2L26,37.2z M37.5,14.9L26.5,26.2l1.3,1.2l9.7-10l9.7,10
		l1.3-1.2C44.8,22.3,41.2,18.5,37.5,14.9L37.5,14.9z M37.5,18.5l-9.1,9.4l1.3,1.2l7.9-8.2l7.9,8.2l1.3-1.2
		C43.6,24.7,40.6,21.5,37.5,18.5L37.5,18.5z M37.5,22l-7.3,7.6l1.3,1.2l6.1-6.3l6.1,6.3l1.3-1.2C42.4,27,40,24.5,37.5,22L37.5,22z
		 M13.3,14.9L2.4,26.2l1.3,1.2l9.7-10l9.7,10l1.3-1.2C20.6,22.3,17,18.5,13.3,14.9L13.3,14.9z M13.3,18.5l-9.1,9.4l1.3,1.2l7.9-8.2
		l7.9,8.2l1.3-1.2C19.5,24.7,16.4,21.5,13.3,18.5L13.3,18.5z M13.3,22L6,29.6l1.3,1.2l6.1-6.3l6.1,6.3l1.3-1.2
		C18.3,27,15.8,24.5,13.3,22L13.3,22z M1.8,37.2l11.5,11.5l11.5-11.5v-2.6L13.3,46.1L1.8,34.6V37.2L1.8,37.2z M1.8,33.5L13.3,45
		l11.5-11.5v-2.6L13.3,42.4L1.8,30.9V33.5L1.8,33.5z"/>
</g>
</svg>
