<?xml version="1.0" encoding="utf-8"?>
<!-- Generator: Adobe Illustrator 23.0.5, SVG Export Plug-In . SVG Version: 6.00 Build 0)  -->
<svg version="1.1" id="Layer_1" xmlns="http://www.w3.org/2000/svg" xmlns:xlink="http://www.w3.org/1999/xlink" x="0px" y="0px"
	 viewBox="0 0 50 50" style="enable-background:new 0 0 50 50;" xml:space="preserve">
<style type="text/css">
	.st0{fill-rule:evenodd;clip-rule:evenodd;fill:#F1B657;}
</style>
<path class="st0" d="M26.8,27.6C39.3,43.4,11.2,56,5.7,32.4l-4.6,0.8l7.8-12.9l13.9,8.5l-4.8,1C19.2,35.7,26.5,34.9,26.8,27.6
	c-0.1,0-0.1,0.1-0.1,0.1c-22,0.4-17.3-29,7.2-20.3l1.2-3.3l7.6,13l-15.1,6.6l1.8-4.5c-6.2-2.3-8.9,4.6-2.7,8.6
	c11.1-18.1,33.3-1.1,16,14.9l2.7,2.8l-15.5,0.1l0.3-14.7l3.4,3.3C38.3,29.9,33.1,23.5,26.8,27.6L26.8,27.6L26.8,27.6z"/>
</svg>
