<?xml version="1.0" encoding="utf-8"?>
<!-- Generator: Adobe Illustrator 23.0.5, SVG Export Plug-In . SVG Version: 6.00 Build 0)  -->
<svg version="1.1" id="Layer_1" xmlns="http://www.w3.org/2000/svg" xmlns:xlink="http://www.w3.org/1999/xlink" x="0px" y="0px"
	 viewBox="0 0 50 50" style="enable-background:new 0 0 50 50;" xml:space="preserve">
<style type="text/css">
	.st0{fill-rule:evenodd;clip-rule:evenodd;fill:#853A93;}
</style>
<path id="path563" class="st0" d="M41.8,33.8L38.3,28l-3.5,5.8H41.8z M41.8,15.8h-7.1l3.5,5.7L41.8,15.8z M25.2,6.8l-3.5,5.8h7.1
	L25.2,6.8z M8.6,15.8l3.5,5.7l3.5-5.7H8.6z M8.6,33.8l7,0l-3.5-5.8L8.6,33.8z M2.6,12.5h15.1l7.1-11.6l0.4-0.7l0.4,0.7l7.1,11.6
	h15.1l-0.4,0.7l-7.1,11.5l7.1,11.6l0.4,0.7H32.8l-7.1,11.6l-0.4,0.7l-0.4-0.7l-7.1-11.6H2.6l0.4-0.7l7.1-11.6L3.1,13.3L2.6,12.5z
	 M19.7,15.9L14,24.8l5.7,9h11.1l5.7-9l-5.7-8.9H19.7z M25.2,42.8l3.5-5.7h-7.1L25.2,42.8z M24.8,21c1.1,0,2.1,0.4,2.9,1.1v0
	c0.7,0.7,1.2,1.6,1.2,2.7c0,1-0.5,2-1.2,2.7v0c-0.7,0.7-1.7,1.1-2.9,1.1c-1.1,0-2.1-0.4-2.9-1.1h0c-0.7-0.7-1.2-1.6-1.2-2.7
	c0-1,0.5-2,1.2-2.7c0,0,0,0,0,0l0,0c0,0,0,0,0,0C22.7,21.4,23.7,21,24.8,21"/>
</svg>
