<?xml version="1.0" encoding="utf-8"?>
<!-- Generator: Adobe Illustrator 23.0.5, SVG Export Plug-In . SVG Version: 6.00 Build 0)  -->
<svg version="1.1" id="Layer_1" xmlns="http://www.w3.org/2000/svg" xmlns:xlink="http://www.w3.org/1999/xlink" x="0px" y="0px"
	 viewBox="0 0 50 50" style="enable-background:new 0 0 50 50;" xml:space="preserve">
<style type="text/css">
	.st0{fill:#E7E514;}
	.st1{fill:#00854A;}
</style>
<g id="XMLID_1_">
	<circle class="st0" cx="25.2" cy="24.8" r="24"/>
	<path id="XMLID_8_" d="M25.7,29.9l-3.6-8.4l0,0v0l0-0.1c-0.2-0.5-0.5-0.8-0.7-1l-0.1-0.1L21,20.3c-0.1,0-0.2-0.1-0.3-0.1L20.6,20
		c0-0.1,0-0.2,0.1-0.2c0.1-0.1,0.2-0.1,0.3-0.1c0,0,0.1,0,0.2,0l0.1,0l0,0c0.4,0,0.8,0.1,1.1,0.1c0.2,0,0.4,0,0.7,0
		c0.2,0,0.5,0,0.8,0c0.1,0,0.2,0,0.4,0c0.2,0,0.3,0,0.4,0c0.1,0,0.2,0,0.3,0.1c0,0,0.1,0.1,0.1,0.2l-0.1,0.2c0,0-0.1,0.1-0.2,0.2
		l0,0l0,0c-0.3,0.1-0.5,0.4-0.5,0.6c0,0.1,0,0.2,0.1,0.3c0,0.1,0.1,0.3,0.2,0.5l2.2,5.2l0.1,0.1l0.1,0l0.1,0l0.1-0.1l2-4.7
		c0.1-0.2,0.1-0.4,0.2-0.5c0-0.2,0.1-0.3,0.1-0.4c0-0.2-0.1-0.4-0.2-0.6c-0.1-0.1-0.3-0.3-0.6-0.3l-0.2,0l0,0h0
		c-0.3-0.1-0.5-0.2-0.5-0.4c0-0.1,0-0.2,0.1-0.2c0.1,0,0.1-0.1,0.3-0.1l0.1,0l0.1,0l0.1,0c0.5,0,0.9,0.1,1.3,0.1c0.2,0,0.4,0,0.5,0
		c0.2,0,0.4,0,0.6-0.1l0.1,0l0.1,0c0.1,0,0.2,0,0.2,0.1c0,0,0.1,0.1,0.1,0.2c0,0.1-0.1,0.3-0.3,0.4l0,0l0,0L31,20.5
		c-0.2,0.2-0.4,0.6-0.7,1.2l-0.1,0.1l0,0.1l0,0.1L27,29l0,0.1l-0.1,0.2c-0.2,0.5-0.4,0.8-0.5,0.9c-0.1,0.1-0.2,0.2-0.3,0.2l-0.2-0.1
		C25.9,30.2,25.8,30.1,25.7,29.9 M37.7,19.6v0.8c-0.2-0.1-0.5-0.1-0.8-0.1c-0.4,0-0.7,0.1-0.9,0.3c-0.1,0.2-0.2,0.6-0.2,1.2v1.5
		c0,0.4,0.1,0.6,0.3,0.8c0.2,0.1,0.5,0.2,0.9,0.2c0.2,0,0.4,0,0.6-0.1v0.8c-0.3,0-0.6-0.1-0.9-0.1c-0.5,0-0.7,0-0.8,0.1
		c-0.1,0.1-0.1,0.3-0.1,0.7v2.5c0,0.5,0.1,0.9,0.3,1c0.2,0.2,0.6,0.2,1.1,0.2c0.2,0,0.3,0,0.5,0v0.7c-0.2,0-0.4,0-0.6,0
		c-0.4,0-0.8,0-1.4,0c-0.1,0-0.2,0-0.3,0l-0.1,0c-0.3,0-0.4,0-0.5,0c-0.3,0-0.5,0-0.8,0c-0.3,0-0.5,0-0.8,0.1l-0.1,0
		c-0.1,0-0.2,0-0.3,0l-0.2-0.1l-0.1-0.2l0.1-0.2c0-0.1,0.2-0.1,0.3-0.2l0,0c0.2-0.1,0.4-0.2,0.5-0.3c0.1-0.1,0.2-0.3,0.2-0.5
		c0-0.2,0.1-0.6,0.1-1.1v-5.5c0-0.5,0-0.8-0.1-1c-0.1-0.2-0.2-0.4-0.3-0.5c-0.1-0.1-0.4-0.2-0.6-0.3l0,0l-0.2,0l-0.1-0.1l0-0.2
		l0.1-0.2l0.2-0.1l0.1,0l0.1,0c0.3,0,0.6,0.1,1,0.1c0.3,0,0.6,0,1,0c0.2,0,0.4,0,0.6,0c0.2,0,0.5,0,0.7-0.1c0.1,0,0.2,0,0.3,0
		c0.5,0,0.9-0.1,1.2-0.1L37.7,19.6 M10.6,27.6v-5.5c0-0.5,0-0.8-0.1-1c-0.1-0.2-0.2-0.4-0.3-0.5l-0.2-0.2c-0.1,0-0.2-0.1-0.4-0.1
		l-0.1,0l-0.1,0l-0.1-0.1l-0.1-0.2c0-0.1,0-0.2,0.1-0.2c0.1-0.1,0.2-0.1,0.3-0.1h0.1l0.1,0l0,0c0.6,0.1,1.1,0.1,1.7,0.1
		c0.6,0,1.2,0,1.8-0.1l0.1,0l0.1,0l0.1,0c0.1,0,0.2,0,0.3,0.1c0.1,0.1,0.1,0.1,0.1,0.2c0,0.1-0.1,0.2-0.3,0.3l0,0
		c-0.1,0-0.2,0.1-0.2,0.1l-0.1,0.1c-0.1,0.1-0.2,0.2-0.2,0.4c0,0.1-0.1,0.4-0.1,0.9v2.6l0,0.2l0.1,0.1l0.1,0l0.1-0.1l2.7-2.5
		c0.3-0.3,0.5-0.5,0.6-0.7c0.1-0.2,0.2-0.4,0.2-0.5c0-0.2-0.1-0.4-0.5-0.4l0,0h0h0l0,0c-0.2-0.1-0.3-0.2-0.3-0.3
		c0-0.1,0-0.2,0.1-0.2c0,0,0.1-0.1,0.3-0.1l0.2,0l0.1,0l0.1,0c0.5,0,0.9,0,1.3,0c0.4,0,0.8,0,1.3,0l0,0l0.1,0l0.1,0
		c0.1,0,0.3,0,0.3,0.1c0,0,0.1,0.1,0.1,0.2c0,0.1,0,0.2-0.1,0.2c0,0-0.1,0.1-0.3,0.1l-0.1,0c-0.1,0.1-0.2,0.1-0.3,0.1
		c-0.5,0.2-1.1,0.7-1.9,1.4l0,0l0,0l-1.4,1.3c-0.1,0.1-0.2,0.1-0.2,0.2l0,0.1l0,0.1c0,0.1,0.1,0.1,0.1,0.2l3.3,4.8
		c0.1,0.2,0.3,0.4,0.4,0.5c0.1,0.1,0.3,0.2,0.4,0.3l0.2,0.1l0,0c0.1,0,0.2,0.1,0.2,0.1c0,0,0,0.1,0,0.2c0,0.1,0,0.2-0.1,0.3
		c-0.1,0-0.2,0.1-0.4,0.1l-0.2,0l-0.1,0c-0.1,0-0.3,0-0.4,0c-0.1,0-0.2,0-0.3,0c-0.3,0-0.6,0-1,0h0l-0.1,0l-0.1,0
		c-0.1,0-0.3-0.1-0.5-0.2c-0.2-0.2-0.4-0.4-0.6-0.8l-2.5-3.8l-0.1-0.2l-0.1,0l-0.1,0l-0.1,0.1L13,25.6l-0.2,0.2c0,0.1,0,0.2,0,0.3
		V28c0,0.4,0,0.7,0.1,0.9c0.1,0.2,0.2,0.3,0.4,0.5c0.1,0.1,0.3,0.1,0.5,0.2l0,0c0.2,0.1,0.3,0.1,0.4,0.2c0.1,0.1,0.1,0.1,0.1,0.2
		c0,0.1,0,0.2-0.1,0.2l-0.2,0.1c-0.1,0-0.2,0-0.3,0l-0.2,0c-0.3,0-0.6-0.1-0.9-0.1c-0.3,0-0.6,0-0.9,0c-0.3,0-0.5,0-0.8,0
		c-0.3,0-0.5,0-0.8,0.1c-0.1,0-0.2,0-0.3,0l-0.2,0l-0.2-0.1l-0.1-0.2c0-0.1,0.1-0.3,0.4-0.4l0,0c0.1,0,0.2-0.1,0.3-0.2l0.2-0.2
		c0.1-0.1,0.2-0.3,0.2-0.5C10.6,28.5,10.6,28.1,10.6,27.6 M37.7,30.1v-0.7c0.5-0.1,0.9-0.2,1.2-0.5c0.4-0.4,0.6-0.9,0.6-1.7
		c0-0.8-0.2-1.4-0.7-1.8c-0.3-0.3-0.7-0.4-1.2-0.5v-0.8c0.3-0.1,0.5-0.2,0.7-0.3c0.3-0.3,0.4-0.7,0.4-1.2c0-0.7-0.2-1.3-0.5-1.7
		c-0.2-0.2-0.4-0.4-0.6-0.5v-0.8c1,0,1.9,0.2,2.5,0.7c0.6,0.4,1,1.1,1,1.8c0,0.6-0.2,1.1-0.5,1.5c-0.4,0.4-0.9,0.6-1.6,0.8
		c1,0.1,1.7,0.3,2.2,0.7c0.5,0.4,0.7,1,0.7,1.8c0,1.1-0.4,2-1.2,2.5C40,29.8,39,30.1,37.7,30.1"/>
	<path id="XMLID_9_" class="st1" d="M15.9,8.3c8.7-6.7,21.2-5.2,28,3.5c6.7,8.7,5.2,21.2-3.5,28c-0.2,0.2-0.5,0.4-0.8,0.6
		c8-6.9,9.3-18.9,2.7-27.3C35.8,4.6,23.8,2.8,15.2,8.9C15.4,8.7,15.7,8.5,15.9,8.3"/>
	<path id="XMLID_10_" class="st1" d="M10.2,5.9c9.4-7.3,22.4-6.7,30.9,0.7C33.3,0.6,22,0.3,13.8,6.8C4,14.3,2.2,28.4,9.7,38
		c7.5,9.6,21.6,11.3,31.3,3.8c3.8-3,6.4-6.9,7.7-11.2c-1.3,5.2-4.2,10-8.7,13.5C29.3,52.4,14,50.5,5.8,40
		C-2.4,29.5-0.4,14.2,10.2,5.9"/>
</g>
</svg>
