<?xml version="1.0" encoding="utf-8"?>
<!-- Generator: Adobe Illustrator 23.0.5, SVG Export Plug-In . SVG Version: 6.00 Build 0)  -->
<svg version="1.1" id="Layer_1" xmlns="http://www.w3.org/2000/svg" xmlns:xlink="http://www.w3.org/1999/xlink" x="0px" y="0px"
	 viewBox="0 0 50 50" style="enable-background:new 0 0 50 50;" xml:space="preserve">
<style type="text/css">
	.st0{fill:#1A3A64;}
	.st1{fill:#ED3236;}
	.st2{fill:#FFFFFF;}
</style>
<path class="st0" d="M0.9,25.2C0.9,13.8,11.7,4.5,25,4.5s24.1,9.3,24.1,20.7C49.1,36.7,38.3,46,25,46S0.9,36.7,0.9,25.2"/>
<polygon class="st1" points="22,11.2 27.6,9.4 27.6,39.6 22,41.5 "/>
<path class="st2" d="M43.1,27.4c-0.5,4.3-2.9,8.7-8.3,8.7c-3.1,0-5.5-2.1-7.2-4.7v-3c2.1,1.1,4,2.2,6.4,2.2c2.9,0,5.6-1.1,6.7-3.2
	H43.1z M25.3,30.1c0.6-0.7,2.2-2.8,2.2-2.8c2-2.8,4.5-6.5,8.5-6.5c1.8,0,3.6,0.9,4.5,2.2h2.3c-0.8-4.3-3.7-8.5-8.9-8.5
	c-4.4,0-7,2.8-9.2,5.9c-0.2,0.3-1.8,2.4-2.4,3.2c-2,2.7-4.4,6.3-8.3,6.3c-2.6,0-5.2-1.8-5.2-4.4c0-3.8,3.3-5.5,7.2-5.4
	c1.8,0,4.7,0.9,5.9,1.7v-4.1c-1.5-1.7-4-3.3-6.7-3.3C9.3,14.5,7,20.2,7,25c0,5,2.9,11.1,9.2,11.1C20.5,36,22.9,33,25.3,30.1"/>
</svg>
