<?xml version="1.0" encoding="utf-8"?>
<!-- Generator: Adobe Illustrator 23.0.5, SVG Export Plug-In . SVG Version: 6.00 Build 0)  -->
<svg version="1.1" id="Layer_1" xmlns="http://www.w3.org/2000/svg" xmlns:xlink="http://www.w3.org/1999/xlink" x="0px" y="0px"
	 viewBox="0 0 50 50" style="enable-background:new 0 0 50 50;" xml:space="preserve">
<style type="text/css">
	.st0{fill:#00983D;}
</style>
<g id="XMLID_1_">
	<path id="XMLID_8_" class="st0" d="M25,16.9c8.7,0,15.8,6.8,16.3,15.4h0h-4.8h-0.1C36,28.7,32.9,26,29.3,26c-4,0-7.3,3.3-7.3,7.3
		c0,4,3.3,7.3,7.3,7.3c3.7,0,6.9-2.9,7.3-6.5h0.1h4.8h0c-0.5,8.6-7.6,15.5-16.3,15.5c-8.9,0-16.2-7.2-16.4-16.1h0V0.4h4.8v21.3
		C16.4,18.7,20.5,16.9,25,16.9L25,16.9z M25.9,21.7c-0.3,0-0.6,0-0.9,0c-6.4,0-11.6,5.2-11.6,11.6c0,6.4,5.2,11.6,11.6,11.6
		c0.2,0,0.4,0,0.5,0c-4.9-1.6-8.4-6.1-8.4-11.5C17.2,27.8,20.9,23.1,25.9,21.7L25.9,21.7z M29.3,29.9c1.9,0,3.4,1.5,3.4,3.4
		c0,1.9-1.5,3.4-3.4,3.4s-3.4-1.5-3.4-3.4C25.9,31.4,27.4,29.9,29.3,29.9"/>
</g>
</svg>
