<?xml version="1.0" encoding="utf-8"?>
<!-- Generator: Adobe Illustrator 23.0.5, SVG Export Plug-In . SVG Version: 6.00 Build 0)  -->
<svg version="1.1" id="Layer_1" xmlns="http://www.w3.org/2000/svg" xmlns:xlink="http://www.w3.org/1999/xlink" x="0px" y="0px"
	 viewBox="0 0 50 50" style="enable-background:new 0 0 50 50;" xml:space="preserve">
<style type="text/css">
	.st0{fill:#0D47A1;}
	.st1{fill:#00ADEE;}
</style>
<path class="st0" d="M6.4,19.5H1.5C1.3,19.5,1,19.7,1,20l0,12c0,0.3,0.2,0.5,0.5,0.5c0.7,0,1.3,0,2.1,0c0.3,0,0.5-0.1,0.5-0.4
	c0-1.1,0-2.5,0-3.6l2.1,0c1.4-0.1,2.3-0.7,2.7-2.1C9,26.1,9,25.7,9,25.3l0.1-2.9C9,20.5,7.9,19.7,6.4,19.5z M6,25
	c0,0.3-0.2,0.5-0.5,0.5H4v-3h1.5C5.8,22.5,6,22.7,6,23V25z M14.9,19.5h-3.4c-0.3,0-0.5,0.1-0.5,0.4c0,0.7,0,1.5,0,2.2
	c0,0.3,0.2,0.4,0.5,0.4h2.9c0.6,0,0.5,1,0,1h-1.6c-1.7,0-2.8,1.6-2.8,3.1c0,0.4,0,1.4,0,1.9c0,0.7,0,1.3,0.1,1.9
	c0.2,1,1.1,2.1,2.5,2.1h4.2c0.5,0,1.2-0.5,1.2-1.1v-8.3C18,21,16.9,19.6,14.9,19.5z M15,29.1c0,0.2-0.2,0.5-0.4,0.5h-1.1
	c-0.2,0-0.4-0.2-0.4-0.5V27c0-0.2,0.2-0.4,0.4-0.4h1.1c0.2,0,0.4,0.2,0.4,0.4V29.1z M19,20.1v5.6c0.1,1.6,1.6,2.8,3.2,2.8h1.4
	c0.6,0,0.6,1,0,1h-3.1c-0.3,0-0.5,0.2-0.5,0.5v2.2c0,0.2,0.2,0.4,0.4,0.4h3c2.4,0,3.6-1.2,3.6-3.8v-8.8c0-0.3-0.2-0.4-0.3-0.4h-2.3
	c-0.2,0-0.4,0.2-0.4,0.4v5.2c0,0.2-0.1,0.3-0.3,0.3h-1.3c-0.3,0-0.4-0.1-0.4-0.4V20c0-0.3-0.1-0.5-0.4-0.5c-0.8,0-1.4,0-2.2,0
	C19.1,19.5,19,19.8,19,20.1L19,20.1z"/>
<path class="st1" d="M28,22.1v-2.1c0-0.2,0.2-0.4,0.4-0.4H29c1.4-0.3,1.9-0.6,2.7-1.5c0.5-0.6,1-0.7,1.3-0.1l0,1.6h1.6
	c0.2,0,0.4,0.2,0.4,0.4v2.1c0,0.2-0.2,0.4-0.4,0.4H33v9.6c0,0.2-0.2,0.4-0.4,0.4h-2.1c-0.2,0-0.4-0.2-0.4-0.4v-9.6h-1.5
	C28.2,22.5,28,22.3,28,22.1L28,22.1z M44,32c0,0.3-0.2,0.5-0.5,0.5h-1.9c-0.3,0-0.5-0.2-0.5-0.5v-6.6v-1.9c0-1.3-2-1.3-2,0V32
	c0,0.3-0.2,0.5-0.5,0.5h-1.9c-0.3,0-0.5-0.2-0.5-0.5V20c0-0.3,0.2-0.5,0.5-0.5h2c0.3,0,0.5,0.2,0.5,0.5v0.3c1.3-1.3,3.3-1,4.4,0.2
	c2.1-2.4,5.7-0.3,5.5,2.4c0,2.9,0,6.1,0,9c0,0.3-0.2,0.5-0.5,0.5h-1.9c-0.3,0-0.5-0.2-0.5-0.5c0-2.8,0-5.7,0-8.4c0-1.3-2-1.4-2,0
	L44,32L44,32z"/>
</svg>
