<?xml version="1.0" encoding="utf-8"?>
<!-- Generator: Adobe Illustrator 23.0.5, SVG Export Plug-In . SVG Version: 6.00 Build 0)  -->
<svg version="1.1" id="Layer_1" xmlns="http://www.w3.org/2000/svg" xmlns:xlink="http://www.w3.org/1999/xlink" x="0px" y="0px"
	 viewBox="0 0 50 50" style="enable-background:new 0 0 50 50;" xml:space="preserve">
<style type="text/css">
	.st0{fill:#F9B715;}
</style>
<g>
	<path class="st0" d="M39.2,47.7V35.1l-1.8,0.7c-4.8,1.8-8.9,2.6-12.7,2.6c-6.2,0-11.6-2.4-16.5-7.3c-4.1-4.3-5.6-10-4.8-18.4
		C3.5,11.3,3,6.5,1.7,2.6H10c1.7,3.2,1.7,6.7,1.6,10.3c-0.1,5-0.2,10.1,4.7,14.3l0.1,0.1l0.1,0c2.9,1.9,5.9,2.9,8.9,2.9
		c7.8,0,13.5-6.7,13.9-13l0-0.1V1.8H49v45.9H39.2L39.2,47.7z"/>
	<path class="st0" d="M25.3,6.9c4.8,0,8.7,3.9,8.7,8.7c0,4.8-3.9,8.7-8.7,8.7c-4.8,0-8.7-3.9-8.7-8.7C16.6,10.8,20.5,6.9,25.3,6.9
		L25.3,6.9z"/>
</g>
</svg>
