<?xml version="1.0" encoding="utf-8"?>
<!-- Generator: Adobe Illustrator 23.0.5, SVG Export Plug-In . SVG Version: 6.00 Build 0)  -->
<svg version="1.1" id="Layer_1" xmlns="http://www.w3.org/2000/svg" xmlns:xlink="http://www.w3.org/1999/xlink" x="0px" y="0px"
	 viewBox="0 0 50 50" style="enable-background:new 0 0 50 50;" xml:space="preserve">
<style type="text/css">
	.st0{fill:#21317D;}
	.st1{fill:#ED1C24;}
</style>
<path id="path27530" class="st0" d="M15.3,12.7V1H6.1v27.6C6.1,21.9,9.8,15.9,15.3,12.7"/>
<path id="path27534" class="st0" d="M25.6,10.3v9.2c4.5,0.6,8.1,4.4,8.1,9.1c0,5.1-4.1,9.2-9.2,9.2c-5.1,0-9.2-4.1-9.2-9.2h0v16
	c2.7,1.6,5.9,2.5,9.2,2.5c10.2,0,18.4-8.2,18.4-18.4C42.9,18.9,35.3,10.9,25.6,10.3"/>
<path id="path27538" class="st1" d="M15.3,12.7c-5.5,3.2-9.2,9.1-9.2,15.9v17v3.7h9.2V47v-2.4v-16h0c0-4.7,3.5-8.6,8.1-9.1v-9.2
	C20.4,10.5,17.7,11.3,15.3,12.7"/>
</svg>
