<?xml version="1.0" encoding="utf-8"?>
<!-- Generator: Adobe Illustrator 23.0.5, SVG Export Plug-In . SVG Version: 6.00 Build 0)  -->
<svg version="1.1" id="Layer_1" xmlns="http://www.w3.org/2000/svg" xmlns:xlink="http://www.w3.org/1999/xlink" x="0px" y="0px"
	 viewBox="0 0 50 50" style="enable-background:new 0 0 50 50;" xml:space="preserve">
<style type="text/css">
	.st0{fill:#AA0000;}
</style>
<path id="XMLID_3_" class="st0" d="M17.1,1.1C17.8,0.3,19,0.2,20,0.1c0.8,0.1,1.6,0.1,2.3,0.3C22.6,0.5,22.9,0.6,23,1
	c-0.3,0.5-0.9,0.6-1.3,0.9c-1.7,1-3.4,1.9-4.9,3.2c0-0.6-0.1-1.2,0-1.7C16.8,2.6,16.5,1.7,17.1,1.1z"/>
<path id="XMLID_4_" class="st0" d="M24.4,1.9c1.4-0.8,3.2-0.3,4.4,0.6c0.3,0.2,0.6,0.7,0.3,1.1c-0.4,0.5-1,0.8-1.6,0.9
	c-3.9,1.1-7.5,3-10.7,5.4c0-0.6,0-1.2,0-1.9C19,5.6,21.7,3.7,24.4,1.9z"/>
<path id="XMLID_5_" class="st0" d="M30.8,4c0.8-0.3,1.7,0,2.3,0.5c0.5,0.4,1,0.6,1.4,1c0.3,0.3,0.5,0.8,0.3,1.2
	c-0.4,0.6-1.2,0.8-1.9,1c-5.7,1.9-11.3,4.2-16.1,7.8c0-0.6,0-1.2-0.1-1.8c2.6-3,5.9-5.3,9.4-7.2C27.6,5.6,29.2,4.8,30.8,4z"/>
<path id="XMLID_6_" class="st0" d="M35.6,7.9c0.7-0.3,1.6-0.3,2.2,0.2c0.5,0.5,1,0.9,1.5,1.4c0.3,0.4,0.7,0.9,0.4,1.3
	c-0.3,0.6-0.9,0.9-1.5,1.1c-4.8,1.5-9.5,3-14,5.2c-2.6,1.3-5.1,2.8-7.4,4.6c0-0.6,0-1.1,0-1.7c2.4-3,5.6-5.3,8.9-7.2
	C28.8,11,32.2,9.4,35.6,7.9z"/>
<path id="XMLID_7_" class="st0" d="M39.2,12.9c0.5-0.2,1.1-0.5,1.7-0.4c0.7,0.2,1.3,0.8,1.6,1.5c0.4,0.8,1.1,1.5,1,2.5
	c0,0.7-0.5,1.3-1.1,1.6c-1.2,0.7-2.6,0.9-3.9,1.1c-7.8,1.3-15.3,4.4-21.7,9.1c0-0.6-0.1-1.3-0.1-1.9c2.5-2.7,5.6-4.9,8.7-6.9
	C29.8,16.7,34.5,14.6,39.2,12.9z"/>
<path id="XMLID_8_" class="st0" d="M33.3,21.7c0.1,0.6,0,1.3,0.1,1.9c-2.7,2.9-6,5.3-9.5,7.3c-4.1,2.4-8.5,4.3-12.9,6
	c-0.5,0.2-1,0.5-1.5,0.5c-0.9,0-1.5-0.7-1.9-1.4c-0.4-0.8-1.1-1.6-1.1-2.6c0-0.7,0.6-1.2,1.2-1.5c1.2-0.6,2.5-0.8,3.7-1
	C19.3,29.5,26.9,26.4,33.3,21.7z"/>
<path id="XMLID_16_" class="st0" d="M26,32.6c2.6-1.3,5.1-2.7,7.4-4.5c0,0.6,0.1,1.1,0,1.7c-1.9,2.3-4.3,4.2-6.8,5.9
	C23,38,19,40,15,41.7c-0.7,0.4-1.6,0.5-2.4,0.1c-0.4-0.4-0.8-0.8-1.2-1.1c-0.3-0.3-0.7-0.6-0.9-1c-0.2-0.4-0.1-0.9,0.2-1.2
	c0.5-0.5,1.3-0.7,2-0.9C17.3,36.2,21.7,34.6,26,32.6z"/>
<path id="XMLID_17_" class="st0" d="M17.7,41.9c5.5-1.9,11-4.1,15.7-7.6c0,0.6,0.1,1.2,0.1,1.8c-1.6,1.9-3.6,3.5-5.6,4.9
	c-2.5,1.7-5.2,3.2-7.9,4.5c-0.4,0.2-0.8,0.4-1.2,0.4c-0.6-0.1-1.1-0.3-1.6-0.6c-0.5-0.4-1.1-0.7-1.6-1.2c-0.3-0.3-0.3-0.9,0-1.2
	C16.1,42.3,16.9,42.2,17.7,41.9z"/>
<path id="XMLID_36_" class="st0" d="M22.6,45.4c3.9-1.1,7.6-3,10.8-5.5c0,0.6,0,1.2,0,1.9c-1.9,2.1-4.1,3.8-6.4,5.3
	c-0.6,0.4-1.2,0.9-1.9,1.1c-0.9,0.2-1.9,0-2.7-0.3c-0.5-0.2-1-0.4-1.3-0.9c-0.2-0.3-0.1-0.7,0.2-0.9C21.6,45.8,22.1,45.6,22.6,45.4z
	"/>
<path id="XMLID_39_" class="st0" d="M30.7,46.6c0.9-0.6,1.9-1.2,2.7-1.9c0,1,0,2.1,0,3.1c0,0.8-0.7,1.3-1.3,1.6c-1,0.3-2,0.3-3,0.2
	c-0.6-0.1-1.2-0.1-1.7-0.4c-0.2-0.1-0.1-0.3-0.1-0.4c0.2-0.2,0.3-0.3,0.5-0.4C28.8,47.8,29.8,47.2,30.7,46.6z"/>
</svg>
