<?xml version="1.0" encoding="utf-8"?>
<!-- Generator: Adobe Illustrator 23.0.5, SVG Export Plug-In . SVG Version: 6.00 Build 0)  -->
<svg version="1.1" id="Layer_1" xmlns="http://www.w3.org/2000/svg" xmlns:xlink="http://www.w3.org/1999/xlink" x="0px" y="0px"
	 viewBox="0 0 50 50" style="enable-background:new 0 0 50 50;" xml:space="preserve">
<style type="text/css">
	.st0{fill:#78ADD2;}
	.st1{fill:#A4D0A0;}
	.st2{fill:#21AA47;}
	.st3{fill:#0072AA;}
</style>
<path id="XMLID_7_" class="st0" d="M19.2,48c-1.3,0.8-2.5,1.2-3.7,1.2c-3.2,0-5.8-2.6-6-5.7l6.2-3.7l9.6,4.3L19.2,48"/>
<path id="XMLID_6_" class="st1" d="M22.8,32.1l-4.6-2c-2.1-0.9-4-1.7-4-4c0-1.2,0.4-1.8,0.9-2.4l9.7,4.3l-2.4,1.4
	c-0.7,0.4-1.1,0.8-1.1,1.3C21.4,31.2,22,31.7,22.8,32.1"/>
<path id="XMLID_5_" class="st0" d="M27.4,10.8l-4.7,2.9c-0.4,0.3-1,0.7-1,1.3c0,0.7,1.1,1.3,2.1,1.7l-5.9-2.6
	c-1.7-0.8-3.5-1.6-3.5-3.7c0-0.9,0.3-1.6,0.7-2.2l12.8-7.8c1.5,0.9,3,2.6,3,5C30.8,7.8,29.5,9.5,27.4,10.8"/>
<path id="XMLID_4_" class="st1" d="M37.4,20.1l-1.2,0.7l-9.8-4.3l11.3-6.8c1.5,0.9,3,2.6,3,5C40.9,17.1,39.6,18.8,37.4,20.1"/>
<path id="XMLID_3_" class="st0" d="M29.2,28.3l5.8,2.5c2.2,1,2.8,2.1,2.8,3.5c0,0.8-0.5,1.6-1.1,2.2l-9.7-4.3l1.6-0.9
	c1.4-0.8,1.9-1.2,1.9-1.7C30.4,29.1,30.1,28.8,29.2,28.3"/>
<path id="XMLID_2_" class="st2" d="M39.5,49.7c-2.5-1.9-5.1-3.2-8.3-4.6l-14.7-6.5c-3.7-1.6-6.2-3.8-6.2-7.5c0-3.6,1.7-5.3,4-6.8
	l0.8-0.5c-0.6,0.6-0.9,1.2-0.9,2.4c0,2.3,1.9,3,4,4l17.1,7.5c3,1.3,5.7,3.5,5.7,7.2C41.1,46.9,40.3,48.7,39.5,49.7"/>
<path id="XMLID_1_" class="st3" d="M37.7,36l-1.1,0.7c0.7-0.6,1.1-1.4,1.1-2.2c0-1.4-0.7-2.6-2.8-3.5l-18.3-8.1
	c-3.7-1.6-6-3.7-6-7.4c0-3.4,1.7-5.6,4.4-7.2c-0.4,0.6-0.7,1.3-0.7,2.2c0,2.1,1.7,3,3.5,3.7L35.6,22c3.2,1.4,5.9,3.6,5.9,7.5
	C41.5,32.6,40,34.5,37.7,36"/>
</svg>
