<?xml version="1.0" encoding="utf-8"?>
<!-- Generator: Adobe Illustrator 23.0.5, SVG Export Plug-In . SVG Version: 6.00 Build 0)  -->
<svg version="1.1" id="Layer_1" xmlns="http://www.w3.org/2000/svg" xmlns:xlink="http://www.w3.org/1999/xlink" x="0px" y="0px"
	 viewBox="0 0 50 50" style="enable-background:new 0 0 50 50;" xml:space="preserve">
<style type="text/css">
	.st0{fill-rule:evenodd;clip-rule:evenodd;fill:#C72E8F;}
	.st1{fill-rule:evenodd;clip-rule:evenodd;fill:#3052A1;}
</style>
<path id="path4010" class="st0" d="M35.8,33.1c-0.1,0-0.1,0-0.1-0.1V16.5c0-0.1,0-0.1,0.1-0.1h8c6.2,0,6.4,6.8,3.1,8.1
	c1.3,0.6,2.5,1.8,2.5,3.8c0,1.5-0.5,2.6-1.4,3.5c-0.9,0.9-2,1.3-3.3,1.3L35.8,33.1z M38.7,19.2L38.7,19.2v3.9h5.2
	c3.1-0.2,3.1-4-0.3-3.9H38.7z M38.7,26L38.7,26v4.3h5.4c3.2-0.1,2.9-4.3,0-4.3H38.7z"/>
<path id="path4048" class="st0" d="M5.9,33.1c-0.1,0-0.1,0-0.1-0.1V19.2H0.6c-0.1,0-0.1,0-0.1-0.1v-2.6c0-0.1,0-0.1,0.1-0.1h13.5
	c0.1,0,0.1,0,0.1,0.1v2.6c0,0.1,0,0.1-0.1,0.1H9V33c0,0.1,0,0.1-0.1,0.1H5.9z"/>
<path id="path4050" class="st0" d="M14,33c0,0.1-0.1,0.1-0.2,0.1h-3.1c-0.1,0-0.1-0.1-0.1-0.1l6.6-16.5c0,0,0.1-0.1,0.1-0.1l3.2,0
	c0.1,0,0.1,0.1,0.1,0.1L14,33z"/>
<path id="path4052" class="st1" d="M23.8,33c0,0.1,0.1,0.1,0.2,0.1h3.1c0.1,0,0.1-0.1,0.1-0.1l-6.6-16.5c0-0.1-0.1-0.1-0.2-0.1h-3.1
	c-0.1,0-0.1,0-0.1,0.1L23.8,33z"/>
<path id="path4054" class="st1" d="M30.7,33c0,0.1,0.1,0.1,0.1,0.1H34c0.1,0,0.1-0.1,0.1-0.1l-6.6-16.5c0-0.1-0.1-0.1-0.1-0.1
	l-3.2,0c-0.1,0-0.1,0.1-0.1,0.1L30.7,33z"/>
<path id="path4056" class="st0" d="M22.7,20.3c0.1,0.1,1.3,3.2,1.6,3.9c0,0.1,0.1,0.1,0.2,0c0-0.1,3.2-7.8,3.2-7.8
	c0-0.1-0.1-0.1-0.1-0.1h-3.2c0,0-0.1,0.1-0.1,0.1l-1.4,3.6C22.6,20.1,22.6,20.2,22.7,20.3"/>
</svg>
