<?xml version="1.0" encoding="utf-8"?>
<!-- Generator: Adobe Illustrator 23.0.5, SVG Export Plug-In . SVG Version: 6.00 Build 0)  -->
<svg version="1.1" id="Layer_1" xmlns="http://www.w3.org/2000/svg" xmlns:xlink="http://www.w3.org/1999/xlink" x="0px" y="0px"
	 viewBox="0 0 50 50" style="enable-background:new 0 0 50 50;" xml:space="preserve">
<style type="text/css">
	.st0{fill:#FFFFFF;}
	.st1{clip-path:url(#SVGID_2_);}
	.st2{fill:none;stroke:#FFFFFF;stroke-width:0.154;stroke-miterlimit:2.613;}
	.st3{clip-path:url(#SVGID_4_);}
	.st4{fill:#0044AA;stroke:#000000;stroke-width:0.154;stroke-miterlimit:2.613;}
</style>
<path id="path128" class="st0" d="M40.3,49.1l7.9-8V9.4l-8-8.2H8.9l-8,8.2v31.8l7.9,7.9H40.3"/>
<g id="g130" transform="matrix(1.25,0,0,-1.25,-266.90771,1837.0857)">
	<g>
		<defs>
			<rect id="SVGID_1_" x="208.9" y="1425.3" width="49.1" height="49.1"/>
		</defs>
		<clipPath id="SVGID_2_">
			<use xlink:href="#SVGID_1_"  style="overflow:visible;"/>
		</clipPath>
		<g id="g132" class="st1">
			<path id="path138" class="st2" d="M245.8,1430.4l6.4,6.4v25.4l-6.4,6.5h-25.1l-6.4-6.6v-25.4l6.3-6.3H245.8z"/>
		</g>
	</g>
</g>
<path id="path140" d="M40.3,41.1h-7.8v-8.8l6.6-6.9L25.6,10.7v3.7l8.6,10.1l-8.6,8.8v15.9h14.7l7.9-8V9.4l-8-8.2H8.9l-8,8.2v31.8
	l7.9,7.9h14.8l0-15.9L15,24.5l8.6-10.1v-3.7L10.1,25.4l6.6,6.9v8.8H8.9V9.3h31.3L40.3,41.1L40.3,41.1z M18.5,23.9
	c0-3.4,2.7-6.1,6.1-6.1c3.4,0,6.1,2.7,6.1,6.1c0,3.4-2.7,6.1-6.1,6.1C21.2,30,18.5,27.3,18.5,23.9"/>
<g id="g142" transform="matrix(1.25,0,0,-1.25,-266.90771,1837.0857)">
	<g>
		<defs>
			<rect id="SVGID_3_" x="208.9" y="1425.3" width="49.1" height="49.1"/>
		</defs>
		<clipPath id="SVGID_4_">
			<use xlink:href="#SVGID_3_"  style="overflow:visible;"/>
		</clipPath>
		<g id="g144" class="st3">
			<path id="path150" class="st4" d="M245.7,1436.8h-6.2v7l5.3,5.5l-10.9,11.8v-3l6.9-8.1l-6.9-7v-12.7h11.8l6.4,6.4v25.4l-6.4,6.5
				h-25.1l-6.4-6.6v-25.4l6.3-6.3h11.9l0,12.7l-6.9,7l6.9,8.1v3l-10.9-11.8l5.3-5.5v-7h-6.2v25.4h25L245.7,1436.8L245.7,1436.8z
				 M228.3,1450.5c0,2.7,2.2,4.9,4.9,4.9c2.7,0,4.9-2.2,4.9-4.9c0-2.7-2.2-4.9-4.9-4.9C230.5,1445.6,228.3,1447.8,228.3,1450.5z"/>
		</g>
	</g>
</g>
</svg>
