<?xml version="1.0" encoding="utf-8"?>
<!-- Generator: Adobe Illustrator 23.0.5, SVG Export Plug-In . SVG Version: 6.00 Build 0)  -->
<svg version="1.1" id="Layer_1" xmlns="http://www.w3.org/2000/svg" xmlns:xlink="http://www.w3.org/1999/xlink" x="0px" y="0px"
	 viewBox="0 0 50 50" style="enable-background:new 0 0 50 50;" xml:space="preserve">
<style type="text/css">
	.st0{fill:#00579C;}
	.st1{fill:#DA251C;}
</style>
<g id="g2902" transform="scale(0.08640546,0.08640546)">
	<g id="_x23_00579cff">
		<path id="path8" class="st0" d="M391.1,46h25.6c2.1,0.7,4.4,0.4,6.6,0.8c29.2,2.8,58.1,11.6,82.8,27.6c10,6.4,19,14.2,27.2,22.7
			c6.3,7.1,12.3,14.6,17.2,22.7c3.2,4.8,5.6,10.1,8.2,15.3c7.5,16.1,12,33.5,13.8,51.2c0.5,2.9,0.3,5.8,0.8,8.6
			c0.3,3.5,0,7,0.1,10.4c-0.1,4,0.3,8.1-0.4,12c-0.4,10.3-2,20.5-3.9,30.6c-1.1,6-2.9,11.9-4.1,17.9
			c-12.1,48.6-24.3,97.2-36.4,145.8c-2,9-4.4,17.9-6.6,26.9c-1.5,5.8-3,11.7-6.3,16.7c-2.4,3.9-5.7,7.3-9.2,10.3
			c-8.4,6.7-19.3,9.9-30,10c-4.5-0.4-9.1-1-13.5-2.5c-4.5-1.8-9.1-3.9-12.4-7.6c-4.8-4.2-7.4-10.5-7.7-16.8
			c-0.5-3.9,0.6-7.9,1.5-11.6c5.8-23,11.5-46.1,17.3-69.1c2.5-9.7,4.7-19.5,7.2-29.3c8.4-33.6,16.8-67.1,25.2-100.7
			c2-8.2,3.3-16.6,3.9-25c-0.2-6.5,0.4-13-0.5-19.5c-0.9-8.1-2.7-16.1-5.9-23.6c-2.8-7.3-7-13.9-12.2-19.8c-1.5-2.2-3.8-3.5-5.6-5.4
			c-0.8-0.8-1.7-1.7-2.6-2.3c-5.4-4.1-11.2-7.9-17.5-10.5c-5.5-2.7-11.4-4.6-17.3-6.1c-8.2-2.4-16.7-3.9-25.2-4.3
			c-3.8-0.7-7.7-0.3-11.5-0.4c-3-0.1-6,0.7-9,0.6c-14.1,1.3-28.1,4.5-41.4,9.5c-8.8,3.1-17.1,7.3-25.3,11.6
			c-9.7,5.8-19.2,12.2-27.6,19.9c-2.9,2.9-5.8,5.8-8.7,8.7c-5.6,6.6-10.9,13.6-14.3,21.6c-3.6,11.7-6.7,23.7-10,35.5
			c-4,15.3-8.1,30.6-12,45.9c-4.6,17.4-8.9,34.8-13.8,52.1c-2.2,7.3-4.5,14.5-6.7,21.8c-1,4-1.9,8.1-3.8,11.7
			c-6,13.1-18.9,22.4-33,24.9c-9.6,1.9-20,0.6-28.3-4.7c-2.4-1.9-5.1-3.6-6.8-6.2c-3.7-4.3-5.8-9.8-6.5-15.4c-0.1-2.6-1.1-5.4,0-7.9
			c11.5-37.6,20.6-75.8,30.6-113.7c5.6-21.4,11.1-42.8,17.4-64c1.4-5.2,3.6-10.1,6.1-14.9c6.7-14.1,16-26.9,26.4-38.5
			c4.1-4.1,8.1-8.2,12.2-12.2c6.5-5.5,12.9-11.2,20-16c3.5-2.9,7.6-5,11.3-7.7c15-9.5,31-17.2,47.7-23.2c4.1-1.4,8.1-3.1,12.3-4.2
			c8.9-2.6,17.8-5,26.9-6.6c7-1.5,14.2-2.1,21.3-3.1C386.9,46.3,389,46.7,391.1,46L391.1,46z"/>
	</g>
	<path id="path11" class="st1" d="M93.1,119c2.5-0.1,4.9-0.7,7.4-0.6c6.5,0.6,13.1,1.6,19.1,4.4c4.1,2.2,8.1,4.8,10.7,8.8
		c3.6,4.6,3.9,10.8,2.7,16.3c-3.2,12.5-6.1,25-9.5,37.4c-3.7,15-7.5,30.1-11.3,45.1c-2.8,11.4-5.9,22.8-8.7,34.3
		c-3.3,13.1-6.5,26.1-9.8,39.2c-2.8,10.3-5.3,20.7-7.9,31.1c-3,11.1-5.3,22.5-5.4,34.1c-0.5,3-0.4,6.1,0,9.1
		c0.2,12.1,2.9,24.1,7.9,35.1c2.4,4.4,4.8,8.9,8.1,12.9c2.5,2.8,4.8,5.9,7.8,8.2c3.3,2.5,6.4,5.4,10.1,7.4c3.8,2.4,7.9,4.5,12.1,6.4
		c9.3,3.6,18.9,6.5,28.7,8.2c9.2,1.3,18.4,2.2,27.7,1.5c23.2-1.4,46-8.1,66.5-18.8c12.2-6.2,23.4-14.3,33.6-23.3
		c5.8-5.6,11.3-11.5,15.8-18.2c2.7-4.1,5.6-8.3,6.9-13.1c12.2-42.1,22.5-84.7,33.8-127c2.3-8.4,5.1-16.6,7.6-24.9
		c2.3-7.7,6-15.1,11.3-21.1c2.9-3.8,6.8-6.7,10.8-9.2c8.5-5.5,18.9-7.5,29-6.6c4.8,0.6,9.6,1.8,13.9,4.1c5.3,2.5,9.9,6.6,12.7,11.8
		c2.7,4.9,2.7,10.9,1.6,16.2c-7.6,25.3-14.4,50.9-20.9,76.5c-9,34.5-17.7,69-27.6,103.2c-0.9,3.1-2.1,6.1-3.5,9
		c-2.4,5.7-5.5,11.1-8.6,16.3c-5.7,9.2-12.1,18-19.5,25.9c-3,3.8-6.7,6.9-10,10.4c-6.6,6.1-13.5,11.9-20.7,17.2
		c-11.4,8.5-23.8,15.6-36.5,21.9c-5.9,2.6-11.7,5.5-17.7,7.7c-5.3,2.3-10.8,3.8-16.2,5.8c-8.3,2.7-16.8,4.8-25.3,6.7
		c-3.2,0.6-6.5,1-9.7,1.7c-5,0.9-10,1.3-15,2c-2.6,0.5-5.2-0.1-7.7,0.7h-25.6c-1-0.3-1.9-0.4-2.9-0.5c-3.7-0.1-7.3-0.9-10.9-1.1
		c-11.1-1.5-22.1-3.7-32.7-7.2c-12-3.5-23.4-8.7-34.4-14.6c-7.9-4.5-15.3-9.8-22.4-15.5c-2.2-2-4.6-3.7-6.6-5.9
		c-3.2-3.3-6.7-6.3-9.5-9.9c-19.1-21.7-31.1-49.2-35.1-77.8c-0.8-4.5-0.9-9.1-1.7-13.7v-26.2c0.5-1.7,0.4-3.5,0.6-5.3
		c1.3-12.8,3.3-25.7,6.8-38.1c5.4-21.4,10.6-42.9,16.2-64.2c4.3-17.2,8.6-34.4,12.9-51.5c4-15.1,7.6-30.3,11.5-45.4
		c1-3.7,1.6-7.6,3.3-11.2c2-4,4-8.1,7.3-11.2c1.6-1.5,3.1-3.2,4.8-4.7C75.5,123.1,84.3,120,93.1,119z"/>
</g>
</svg>
