<?xml version="1.0" encoding="utf-8"?>
<!-- Generator: Adobe Illustrator 23.0.5, SVG Export Plug-In . SVG Version: 6.00 Build 0)  -->
<svg version="1.1" id="Layer_1" xmlns="http://www.w3.org/2000/svg" xmlns:xlink="http://www.w3.org/1999/xlink" x="0px" y="0px"
	 viewBox="0 0 50 50" style="enable-background:new 0 0 50 50;" xml:space="preserve">
<style type="text/css">
	.st0{fill:#FFFFFF;}
	.st1{fill:#059B4E;}
	.st2{fill:#06974C;}
	.st3{fill:#04795F;}
</style>
<g id="XMLID_1_">
	<path id="XMLID_85_" class="st0" d="M25,0.4c13.6,0,24.7,11,24.7,24.6S38.6,49.5,25,49.5c-13.6,0-24.7-11-24.7-24.6
		S11.4,0.4,25,0.4"/>
	<path id="XMLID_86_" class="st1" d="M24.9,2.6v0.2c6.1,0,11.7,2.5,15.7,6.5c4,4,6.5,9.6,6.5,15.6c0,6.1-2.5,11.6-6.5,15.6
		c-4,4-9.6,6.5-15.7,6.5c-6.1,0-11.7-2.5-15.7-6.5c-4-4-6.5-9.5-6.5-15.6c0-6.1,2.5-11.6,6.5-15.6c4-4,9.6-6.5,15.7-6.5L24.9,2.6
		V2.5C18.7,2.5,13.1,5,9,9.1c-4.1,4.1-6.6,9.7-6.6,15.9c0,6.2,2.5,11.8,6.6,15.9c4.1,4.1,9.7,6.6,16,6.6c6.2,0,11.9-2.5,16-6.6
		c4.1-4.1,6.6-9.7,6.6-15.9c0-6.2-2.5-11.8-6.6-15.9c-4.1-4.1-9.7-6.6-16-6.6V2.6z"/>
	<path id="XMLID_87_" class="st1" d="M22.8,0.6c0.3,0,0.6,0.2,0.6,0.5c0,0.3-0.3,0.5-0.6,0.5c-0.3,0-0.6-0.2-0.6-0.5
		C22.3,0.8,22.5,0.6,22.8,0.6"/>
	<path id="XMLID_88_" class="st1" d="M18.5,1.3c0.3-0.1,0.6,0.1,0.7,0.4C19.2,2,19,2.3,18.7,2.4S18.1,2.2,18,1.9
		C18,1.7,18.2,1.4,18.5,1.3"/>
	<path id="XMLID_89_" class="st1" d="M14.4,2.9c0.3-0.1,0.6,0,0.7,0.3c0.1,0.3-0.1,0.6-0.4,0.7c-0.3,0.1-0.6,0-0.7-0.3
		C13.9,3.3,14.1,3,14.4,2.9"/>
	<path id="XMLID_90_" class="st1" d="M10.6,5.1C10.8,5,11.2,5,11.3,5.3c0.2,0.3,0.1,0.6-0.2,0.7c-0.3,0.2-0.6,0.1-0.8-0.2
		C10.2,5.6,10.3,5.3,10.6,5.1"/>
	<path id="XMLID_91_" class="st1" d="M7.2,8C7.5,7.7,7.8,7.8,8,8C8.2,8.2,8.2,8.6,8,8.8C7.7,9,7.4,9,7.2,8.7C7,8.5,7,8.2,7.2,8"/>
	<path id="XMLID_92_" class="st1" d="M4.5,11.4c0.2-0.2,0.5-0.3,0.8-0.1c0.2,0.2,0.3,0.5,0.1,0.8c-0.2,0.2-0.5,0.3-0.8,0.1
		C4.3,12,4.3,11.6,4.5,11.4"/>
	<path id="XMLID_93_" class="st1" d="M2.4,15.2C2.6,15,2.9,14.8,3.1,15c0.3,0.1,0.4,0.5,0.2,0.8C3.2,16,2.9,16.1,2.6,16
		C2.3,15.9,2.3,15.5,2.4,15.2"/>
	<path id="XMLID_94_" class="st1" d="M1,19.4c0.1-0.3,0.4-0.5,0.7-0.4C2,19.1,2.1,19.4,2,19.7c-0.1,0.3-0.4,0.5-0.7,0.4
		C1,20,0.9,19.7,1,19.4"/>
	<path id="XMLID_95_" class="st1" d="M0.4,23.7c0-0.3,0.3-0.5,0.6-0.5c0.3,0,0.5,0.3,0.5,0.6c0,0.3-0.3,0.5-0.6,0.5
		C0.6,24.3,0.4,24,0.4,23.7"/>
	<path id="XMLID_96_" class="st1" d="M0.6,28.1c0-0.3,0.2-0.6,0.5-0.6c0.3,0,0.5,0.2,0.6,0.5c0,0.3-0.2,0.6-0.5,0.6
		C0.9,28.7,0.6,28.5,0.6,28.1"/>
	<path id="XMLID_97_" class="st1" d="M1.6,32.4c-0.1-0.3,0.1-0.6,0.4-0.7c0.3-0.1,0.6,0.1,0.7,0.4c0.1,0.3-0.1,0.6-0.4,0.7
		C1.9,32.9,1.6,32.7,1.6,32.4"/>
	<path id="XMLID_98_" class="st1" d="M3.3,36.4c-0.1-0.3,0-0.6,0.3-0.7c0.3-0.1,0.6,0,0.7,0.3c0.1,0.3,0,0.6-0.3,0.7
		C3.7,36.8,3.4,36.7,3.3,36.4"/>
	<path id="XMLID_99_" class="st1" d="M5.7,40.1c-0.2-0.3-0.1-0.6,0.1-0.8c0.2-0.2,0.6-0.1,0.8,0.2c0.2,0.3,0.1,0.6-0.1,0.8
		C6.2,40.4,5.9,40.3,5.7,40.1"/>
	<path id="XMLID_100_" class="st1" d="M8.7,43.3c-0.2-0.2-0.2-0.6,0-0.8c0.2-0.2,0.6-0.2,0.8,0c0.2,0.2,0.2,0.6,0,0.8
		C9.3,43.5,8.9,43.5,8.7,43.3"/>
	<path id="XMLID_101_" class="st1" d="M12.3,45.8c-0.3-0.2-0.3-0.5-0.1-0.8c0.2-0.2,0.5-0.3,0.8-0.1c0.3,0.2,0.3,0.5,0.1,0.8
		C12.9,46,12.5,46,12.3,45.8"/>
	<path id="XMLID_102_" class="st1" d="M16.2,47.8c-0.3-0.1-0.4-0.5-0.3-0.7c0.1-0.3,0.5-0.4,0.7-0.2c0.3,0.1,0.4,0.5,0.3,0.7
		C16.8,47.8,16.5,47.9,16.2,47.8"/>
	<path id="XMLID_103_" class="st1" d="M20.5,49c-0.3-0.1-0.5-0.4-0.4-0.7c0.1-0.3,0.4-0.4,0.7-0.4c0.3,0.1,0.5,0.4,0.4,0.7
		C21.1,48.9,20.8,49,20.5,49"/>
	<path id="XMLID_104_" class="st1" d="M24.8,49.4c-0.3,0-0.5-0.3-0.5-0.6c0-0.3,0.3-0.5,0.6-0.5c0.3,0,0.5,0.3,0.5,0.6
		C25.4,49.2,25.2,49.4,24.8,49.4"/>
	<path id="XMLID_106_" class="st1" d="M29.3,49c-0.3,0-0.6-0.2-0.6-0.5c0-0.3,0.2-0.6,0.5-0.6c0.3,0,0.6,0.2,0.6,0.5
		C29.8,48.7,29.6,48.9,29.3,49"/>
	<path id="XMLID_107_" class="st1" d="M33.5,47.8c-0.3,0.1-0.6-0.1-0.7-0.4c-0.1-0.3,0.1-0.6,0.4-0.7c0.3-0.1,0.6,0.1,0.7,0.4
		C34,47.5,33.8,47.8,33.5,47.8"/>
	<path id="XMLID_108_" class="st1" d="M37.5,46c-0.3,0.1-0.6,0-0.7-0.2c-0.1-0.3,0-0.6,0.3-0.7c0.3-0.1,0.6,0,0.7,0.2
		C37.9,45.5,37.8,45.8,37.5,46"/>
	<path id="XMLID_112_" class="st1" d="M41,43.4c-0.3,0.2-0.6,0.1-0.8-0.1c-0.2-0.2-0.1-0.6,0.1-0.8c0.3-0.2,0.6-0.1,0.8,0.1
		C41.3,42.9,41.3,43.2,41,43.4"/>
	<path id="XMLID_113_" class="st1" d="M44.1,40.3c-0.2,0.2-0.6,0.2-0.8,0c-0.2-0.2-0.2-0.6,0-0.8c0.2-0.2,0.6-0.2,0.8,0
		C44.3,39.7,44.3,40,44.1,40.3"/>
	<path id="XMLID_114_" class="st1" d="M46.6,36.6c-0.2,0.3-0.5,0.3-0.8,0.2c-0.2-0.2-0.3-0.5-0.1-0.8c0.2-0.3,0.5-0.3,0.8-0.2
		C46.7,36,46.7,36.4,46.6,36.6"/>
	<path id="XMLID_115_" class="st1" d="M48.3,32.6c-0.1,0.3-0.4,0.4-0.7,0.3c-0.3-0.1-0.4-0.4-0.3-0.7c0.1-0.3,0.4-0.4,0.7-0.3
		C48.3,32,48.4,32.3,48.3,32.6"/>
	<path id="XMLID_116_" class="st1" d="M49.3,28.3c-0.1,0.3-0.4,0.5-0.7,0.4c-0.3-0.1-0.5-0.4-0.4-0.7c0.1-0.3,0.4-0.5,0.7-0.4
		C49.2,27.7,49.4,28,49.3,28.3"/>
	<path id="XMLID_117_" class="st1" d="M49.5,23.9c0,0.3-0.3,0.6-0.6,0.5c-0.3,0-0.5-0.3-0.5-0.6c0-0.3,0.3-0.6,0.6-0.5
		C49.3,23.4,49.5,23.6,49.5,23.9"/>
	<path id="XMLID_118_" class="st1" d="M48.9,19.6c0,0.3-0.2,0.6-0.5,0.6c-0.3,0-0.6-0.2-0.6-0.5c0-0.3,0.2-0.6,0.5-0.6
		C48.6,19.1,48.9,19.3,48.9,19.6"/>
	<path id="XMLID_119_" class="st1" d="M47.6,15.4c0.1,0.3-0.1,0.6-0.3,0.7c-0.3,0.1-0.6-0.1-0.7-0.4c-0.1-0.3,0.1-0.6,0.3-0.7
		C47.2,15,47.5,15.1,47.6,15.4"/>
	<path id="XMLID_120_" class="st1" d="M45.5,11.6c0.1,0.3,0.1,0.6-0.2,0.8c-0.3,0.1-0.6,0-0.7-0.3c-0.1-0.3-0.1-0.6,0.2-0.8
		C45,11.2,45.4,11.3,45.5,11.6"/>
	<path id="XMLID_121_" class="st1" d="M42.8,8.1C43,8.4,43,8.7,42.8,8.9C42.5,9.1,42.2,9,42,8.8C41.8,8.6,41.8,8.2,42,8
		C42.3,7.8,42.6,7.9,42.8,8.1"/>
	<path id="XMLID_122_" class="st1" d="M39.5,5.3c0.2,0.2,0.3,0.6,0.1,0.8c-0.2,0.2-0.5,0.2-0.8,0c-0.2-0.2-0.3-0.6-0.1-0.8
		C38.9,5.1,39.3,5,39.5,5.3"/>
	<path id="XMLID_123_" class="st1" d="M35.8,3C36,3.1,36.1,3.5,36,3.7c-0.2,0.3-0.5,0.3-0.8,0.2c-0.3-0.2-0.4-0.5-0.2-0.8
		C35.1,2.9,35.5,2.8,35.8,3"/>
	<path id="XMLID_124_" class="st1" d="M31.7,1.4C32,1.5,32.1,1.8,32,2.1c-0.1,0.3-0.4,0.4-0.7,0.3C31,2.3,30.8,2,30.9,1.7
		C31,1.4,31.4,1.3,31.7,1.4"/>
	<path id="XMLID_125_" class="st2" d="M24.7,0.8L24.7,0.8c0,0.4-0.2,0.9-0.6,1.2c-0.4,0.3-0.9,0.5-1.4,0.5c-1,0-1.8-0.7-2-1.5
		c0-0.1-0.1-0.2-0.2-0.1c-0.1,0-0.1,0.1-0.1,0.2c0.2,1,1.2,1.8,2.3,1.8c0.6,0,1.1-0.2,1.6-0.6c0.4-0.4,0.7-0.9,0.7-1.5v0
		c0-0.1-0.1-0.2-0.2-0.2C24.8,0.6,24.7,0.7,24.7,0.8L24.7,0.8z"/>
	<path id="XMLID_126_" class="st2" d="M20.3,1.1c0,0.1,0,0.1,0,0.2c0,0.4-0.2,0.8-0.5,1.2c-0.3,0.3-0.7,0.6-1.1,0.7
		c-0.1,0-0.2,0-0.4,0c-0.8,0-1.6-0.5-1.8-1.2c0-0.1-0.1-0.1-0.2-0.1s-0.1,0.1-0.1,0.2c0.4,0.8,1.2,1.4,2.2,1.4c0.1,0,0.3,0,0.4,0
		c0.5-0.1,1-0.4,1.3-0.8c0.4-0.4,0.6-0.9,0.6-1.4c0-0.1,0-0.2,0-0.3c0-0.1-0.1-0.2-0.2-0.1C20.3,0.9,20.3,1,20.3,1.1L20.3,1.1z"/>
	<path id="XMLID_127_" class="st2" d="M16.4,2.3c0.1,0.1,0.1,0.3,0.1,0.5c0,0.4-0.1,0.8-0.4,1.1c-0.2,0.3-0.6,0.6-0.9,0.7
		c-0.2,0.1-0.5,0.1-0.7,0.1c-0.7,0-1.3-0.3-1.7-0.9c-0.1-0.1-0.2-0.1-0.2,0c-0.1,0.1-0.1,0.2,0,0.2c0.4,0.6,1.2,1,1.9,1
		c0.3,0,0.6,0,0.8-0.2c0.4-0.2,0.8-0.5,1.1-0.9c0.3-0.4,0.4-0.8,0.4-1.3c0-0.2,0-0.4-0.1-0.6c0-0.1-0.1-0.1-0.2-0.1
		S16.3,2.2,16.4,2.3L16.4,2.3z"/>
	<path id="XMLID_128_" class="st2" d="M12.4,4.3c0.1,0.2,0.2,0.5,0.2,0.7c0,0.3-0.1,0.7-0.3,1c-0.2,0.3-0.4,0.6-0.7,0.8
		C11.3,6.9,10.9,7,10.6,7C10,7,9.5,6.8,9.1,6.4C9.1,6.4,9,6.4,8.9,6.4c-0.1,0.1-0.1,0.2,0,0.3c0.4,0.4,1,0.7,1.7,0.7
		c0.4,0,0.8-0.1,1.2-0.3c0.4-0.2,0.6-0.5,0.8-0.9c0.2-0.4,0.3-0.8,0.3-1.2c0-0.3-0.1-0.6-0.2-0.9C12.7,4,12.6,4,12.5,4
		C12.4,4.1,12.4,4.2,12.4,4.3L12.4,4.3z"/>
	<path id="XMLID_146_" class="st2" d="M8.9,6.8c0.2,0.3,0.3,0.6,0.3,1c0,0.6-0.3,1.2-0.7,1.6C8.1,9.8,7.6,9.9,7.2,9.9
		C6.8,9.9,6.3,9.8,6,9.6c-0.1-0.1-0.2,0-0.2,0c-0.1,0.1,0,0.2,0,0.2c0.4,0.3,0.9,0.4,1.3,0.4c0.6,0,1.1-0.2,1.6-0.6
		c0.5-0.4,0.8-1.2,0.8-1.8c0-0.5-0.1-0.9-0.4-1.2C9,6.5,8.9,6.5,8.9,6.6C8.8,6.7,8.8,6.8,8.9,6.8L8.9,6.8z"/>
	<path id="XMLID_147_" class="st2" d="M5.8,9.9c0.4,0.3,0.6,0.8,0.6,1.3c0,0.5-0.1,0.9-0.4,1.3c-0.4,0.5-1,0.8-1.6,0.8
		c-0.3,0-0.6-0.1-0.8-0.2c-0.1,0-0.2,0-0.2,0.1c0,0.1,0,0.2,0.1,0.2c0.3,0.1,0.6,0.2,1,0.2c0.7,0,1.4-0.3,1.9-0.9
		c0.3-0.4,0.5-1,0.5-1.5c0-0.6-0.2-1.2-0.7-1.6c-0.1-0.1-0.2,0-0.2,0C5.7,9.8,5.7,9.9,5.8,9.9L5.8,9.9z"/>
	<path id="XMLID_148_" class="st2" d="M3.4,13.6c0.3,0.1,0.5,0.4,0.6,0.7c0.1,0.3,0.2,0.6,0.2,1c0,0.3-0.1,0.7-0.2,0.9
		c-0.4,0.7-1.1,1.1-1.8,1.1c-0.2,0-0.3,0-0.5-0.1c-0.1,0-0.2,0-0.2,0.1c0,0.1,0,0.2,0.1,0.2c0.2,0.1,0.4,0.1,0.6,0.1
		c0.8,0,1.7-0.4,2.1-1.2c0.2-0.3,0.3-0.7,0.3-1.1c0-0.4-0.1-0.8-0.3-1.1c-0.2-0.3-0.4-0.6-0.7-0.8c-0.1,0-0.2,0-0.2,0.1
		C3.3,13.4,3.3,13.5,3.4,13.6L3.4,13.6z"/>
	<path id="XMLID_149_" class="st2" d="M1.7,17.5c0.3,0.1,0.6,0.4,0.8,0.7c0.2,0.3,0.3,0.7,0.3,1.1c0,0.2,0,0.4-0.1,0.6
		c-0.3,0.9-1.1,1.4-1.9,1.4c-0.1,0-0.1,0-0.2,0c-0.1,0-0.2,0.1-0.2,0.2c0,0.1,0.1,0.2,0.2,0.2c0.1,0,0.1,0,0.2,0
		c1,0,1.9-0.6,2.2-1.6c0.1-0.2,0.1-0.4,0.1-0.7c0-0.5-0.1-0.9-0.4-1.3c-0.2-0.4-0.6-0.7-1-0.8c-0.1,0-0.2,0-0.2,0.1
		S1.6,17.5,1.7,17.5L1.7,17.5z"/>
	<path id="XMLID_150_" class="st2" d="M0.8,21.8c0.4,0.1,0.8,0.3,1,0.7c0.3,0.4,0.4,0.8,0.4,1.3c0,0.1,0,0.2,0,0.2
		c-0.1,0.9-0.9,1.7-1.8,1.7c-0.1,0-0.2,0.1-0.1,0.2c0,0.1,0.1,0.2,0.2,0.2c1-0.1,1.9-0.9,2.1-2c0-0.1,0-0.2,0-0.3
		c0-0.5-0.2-1.1-0.5-1.5c-0.3-0.4-0.8-0.7-1.3-0.8c-0.1,0-0.2,0.1-0.2,0.1C0.7,21.7,0.7,21.8,0.8,21.8L0.8,21.8z"/>
	<path id="XMLID_151_" class="st2" d="M0.7,26.1L0.7,26.1c0.5,0,0.9,0.2,1.3,0.6C2.3,27,2.5,27.5,2.6,28l0,0c0,0,0,0.1,0,0.1
		c0,0.9-0.6,1.7-1.4,1.9C1,30,1,30.1,1,30.2c0,0.1,0.1,0.1,0.2,0.1c0.9-0.3,1.7-1.2,1.7-2.3c0,0,0-0.1,0-0.1l0,0
		c0-0.6-0.3-1.1-0.7-1.5c-0.4-0.4-0.9-0.7-1.4-0.7c0,0,0,0-0.1,0c-0.1,0-0.2,0.1-0.2,0.2C0.6,26,0.6,26.1,0.7,26.1L0.7,26.1z"/>
	<path id="XMLID_152_" class="st2" d="M1.3,30.5c0.1,0,0.2,0,0.3,0c0.4,0,0.8,0.2,1.2,0.5C3,31.2,3.3,31.6,3.4,32
		c0,0.2,0.1,0.3,0.1,0.4c0,0.8-0.4,1.5-1.1,1.8c-0.1,0-0.1,0.1-0.1,0.2c0,0.1,0.1,0.1,0.2,0.1c0.8-0.4,1.3-1.2,1.3-2.1
		c0-0.2,0-0.4-0.1-0.5c-0.1-0.5-0.4-0.9-0.8-1.3c-0.4-0.3-0.9-0.5-1.4-0.5c-0.1,0-0.2,0-0.4,0c-0.1,0-0.1,0.1-0.1,0.2
		S1.2,30.5,1.3,30.5L1.3,30.5z"/>
	<path id="XMLID_153_" class="st2" d="M2.6,34.6c0.2-0.1,0.3-0.1,0.5-0.1c0.4,0,0.8,0.1,1.1,0.4c0.3,0.2,0.6,0.5,0.8,0.9
		c0.1,0.3,0.2,0.5,0.2,0.8c0,0.6-0.3,1.2-0.8,1.6c-0.1,0.1-0.1,0.2,0,0.2c0.1,0.1,0.2,0.1,0.2,0c0.6-0.4,0.9-1.1,0.9-1.9
		c0-0.3-0.1-0.6-0.2-0.9c-0.2-0.4-0.5-0.8-0.9-1c-0.4-0.3-0.8-0.4-1.3-0.4c-0.2,0-0.4,0-0.7,0.1c-0.1,0-0.1,0.1-0.1,0.2
		C2.5,34.6,2.6,34.7,2.6,34.6L2.6,34.6z"/>
	<path id="XMLID_154_" class="st2" d="M4.9,38.2C5.1,38.1,5.4,38,5.7,38c0.3,0,0.7,0.1,1,0.2c0.3,0.2,0.6,0.4,0.8,0.7
		c0.2,0.3,0.3,0.7,0.3,1.1c0,0.5-0.2,1-0.5,1.3c-0.1,0.1-0.1,0.2,0,0.2c0.1,0.1,0.2,0.1,0.2,0c0.4-0.4,0.6-1,0.6-1.6
		c0-0.4-0.1-0.9-0.4-1.3c-0.2-0.3-0.5-0.6-0.9-0.8c-0.4-0.2-0.7-0.3-1.1-0.3c-0.3,0-0.7,0.1-1,0.3c-0.1,0.1-0.1,0.2-0.1,0.2
		C4.7,38.3,4.8,38.3,4.9,38.2L4.9,38.2z"/>
	<path id="XMLID_155_" class="st2" d="M7.6,41.6c0.3-0.3,0.7-0.4,1.1-0.4c0.6,0,1.2,0.2,1.5,0.6c0.4,0.4,0.6,0.9,0.6,1.4
		c0,0.4-0.1,0.7-0.3,1c-0.1,0.1,0,0.2,0,0.2c0.1,0.1,0.2,0,0.2,0c0.2-0.4,0.4-0.8,0.4-1.2c0-0.6-0.2-1.2-0.7-1.7
		c-0.4-0.5-1.1-0.7-1.8-0.7c-0.5,0-1,0.1-1.3,0.5c-0.1,0.1-0.1,0.2,0,0.2C7.4,41.6,7.5,41.6,7.6,41.6L7.6,41.6z"/>
	<path id="XMLID_156_" class="st2" d="M10.9,44.4c0.3-0.4,0.8-0.6,1.4-0.6c0.4,0,0.9,0.1,1.2,0.4c0.6,0.4,0.8,1,0.8,1.6
		c0,0.2,0,0.5-0.1,0.7c0,0.1,0,0.2,0.1,0.2c0.1,0,0.2,0,0.2-0.1c0.1-0.3,0.2-0.6,0.2-0.9c0-0.7-0.3-1.5-1-1.9
		c-0.4-0.3-0.9-0.4-1.4-0.4c-0.6,0-1.3,0.2-1.7,0.8c-0.1,0.1,0,0.2,0,0.2C10.7,44.5,10.8,44.5,10.9,44.4L10.9,44.4z"/>
	<path id="XMLID_157_" class="st2" d="M14.5,46.7c0.1-0.3,0.4-0.5,0.7-0.7c0.3-0.2,0.7-0.2,1-0.2c0.3,0,0.6,0.1,0.9,0.2
		c0.7,0.4,1.2,1.1,1.2,1.8c0,0.1,0,0.3,0,0.4c0,0.1,0,0.2,0.1,0.2c0.1,0,0.2,0,0.2-0.1c0-0.2,0.1-0.3,0.1-0.5c0-0.9-0.5-1.7-1.4-2.1
		c-0.3-0.1-0.7-0.2-1-0.2c-0.4,0-0.8,0.1-1.2,0.3c-0.4,0.2-0.6,0.5-0.8,0.8c0,0.1,0,0.2,0.1,0.2C14.4,46.8,14.5,46.8,14.5,46.7
		L14.5,46.7z"/>
	<path id="XMLID_158_" class="st2" d="M18.6,48.4c0.1-0.3,0.4-0.6,0.7-0.9c0.3-0.2,0.8-0.3,1.2-0.3c0.2,0,0.3,0,0.5,0.1
		c0.9,0.2,1.5,1.1,1.5,1.9c0,0,0,0,0,0.1c0,0.1,0.1,0.2,0.2,0.2s0.2-0.1,0.2-0.2c0,0,0-0.1,0-0.1c0-1-0.7-2-1.7-2.2
		c-0.2-0.1-0.4-0.1-0.6-0.1c-0.5,0-1,0.1-1.4,0.4c-0.4,0.3-0.7,0.6-0.8,1.1c0,0.1,0,0.2,0.1,0.2C18.5,48.5,18.6,48.5,18.6,48.4
		L18.6,48.4z"/>
	<path id="XMLID_159_" class="st2" d="M22.9,49c0-0.4,0.3-0.8,0.7-1.1c0.4-0.3,0.8-0.5,1.3-0.5c0.1,0,0.1,0,0.2,0
		c1,0.1,1.7,0.8,1.8,1.7c0,0.1,0.1,0.2,0.2,0.2c0.1,0,0.2-0.1,0.1-0.2c-0.1-1-1-1.9-2.1-2c-0.1,0-0.1,0-0.2,0
		c-0.5,0-1.1,0.2-1.5,0.5c-0.4,0.3-0.7,0.8-0.8,1.3c0,0.1,0.1,0.2,0.2,0.2C22.8,49.2,22.9,49.1,22.9,49L22.9,49z"/>
	<path id="XMLID_160_" class="st2" d="M27.1,48.9c0,0,0-0.1,0-0.1c0-0.4,0.2-0.8,0.6-1.2c0.3-0.3,0.8-0.6,1.3-0.6c0.1,0,0.1,0,0.2,0
		c0.9,0,1.7,0.6,1.9,1.3c0,0.1,0.1,0.1,0.2,0.1c0.1,0,0.1-0.1,0.1-0.2c-0.3-0.9-1.2-1.6-2.2-1.6c-0.1,0-0.1,0-0.2,0
		c-0.5,0-1.1,0.3-1.5,0.7c-0.4,0.4-0.7,0.9-0.7,1.4c0,0,0,0.1,0,0.1c0,0.1,0.1,0.2,0.2,0.2C27.1,49.1,27.2,49,27.1,48.9L27.1,48.9z"
		/>
	<path id="XMLID_161_" class="st2" d="M31.6,48.2c0-0.1,0-0.2,0-0.3c0-0.4,0.2-0.8,0.4-1.1c0.3-0.3,0.6-0.6,1-0.7
		c0.2,0,0.4-0.1,0.5-0.1c0.7,0,1.4,0.4,1.8,1c0,0.1,0.2,0.1,0.2,0.1c0.1,0,0.1-0.2,0.1-0.2c-0.4-0.7-1.2-1.2-2.1-1.2
		c-0.2,0-0.4,0-0.6,0.1c-0.5,0.1-0.9,0.4-1.2,0.8c-0.3,0.4-0.5,0.9-0.5,1.4c0,0.1,0,0.3,0.1,0.4c0,0.1,0.1,0.2,0.2,0.1
		C31.5,48.4,31.6,48.3,31.6,48.2L31.6,48.2z"/>
	<path id="XMLID_162_" class="st2" d="M35.6,46.6c-0.1-0.2-0.1-0.4-0.1-0.6c0-0.3,0.1-0.7,0.3-1.1c0.2-0.3,0.5-0.6,0.8-0.8
		c0.3-0.1,0.6-0.2,0.9-0.2c0.6,0,1.2,0.3,1.6,0.7c0.1,0.1,0.2,0.1,0.2,0c0.1-0.1,0.1-0.2,0-0.3c-0.4-0.5-1.1-0.8-1.8-0.8
		c-0.3,0-0.7,0.1-1,0.2c-0.4,0.2-0.7,0.5-1,0.9c-0.2,0.4-0.4,0.8-0.4,1.2c0,0.3,0.1,0.5,0.2,0.7c0,0.1,0.1,0.1,0.2,0.1
		C35.6,46.8,35.6,46.7,35.6,46.6L35.6,46.6z"/>
	<path id="XMLID_163_" class="st2" d="M39.3,44.5c-0.2-0.2-0.3-0.5-0.3-0.9c0-0.6,0.3-1.3,0.8-1.7c0.4-0.3,0.8-0.4,1.2-0.4
		c0.5,0,0.9,0.2,1.3,0.5c0.1,0.1,0.2,0.1,0.2,0c0.1-0.1,0.1-0.2,0-0.2c-0.4-0.4-1-0.5-1.5-0.5c-0.5,0-1,0.1-1.4,0.5
		c-0.6,0.4-1,1.2-1,2c0,0.4,0.1,0.8,0.3,1.1c0.1,0.1,0.2,0.1,0.2,0C39.4,44.7,39.4,44.6,39.3,44.5L39.3,44.5z"/>
	<path id="XMLID_164_" class="st2" d="M42.6,41.5c-0.3-0.3-0.4-0.7-0.4-1.2c0-0.5,0.2-1.1,0.5-1.4c0.4-0.4,1-0.6,1.5-0.6
		c0.3,0,0.7,0.1,1,0.3c0.1,0,0.2,0,0.2-0.1c0-0.1,0-0.2-0.1-0.2c-0.3-0.2-0.7-0.3-1.1-0.3c-0.6,0-1.3,0.2-1.7,0.7
		c-0.4,0.4-0.6,1.1-0.6,1.7c0,0.5,0.2,1.1,0.5,1.4c0.1,0.1,0.2,0.1,0.2,0C42.7,41.6,42.7,41.5,42.6,41.5L42.6,41.5z"/>
	<path id="XMLID_165_" class="st2" d="M45.3,38.1c-0.4-0.3-0.7-0.9-0.7-1.5c0-0.4,0.1-0.8,0.3-1.1c0.4-0.6,1.1-0.9,1.7-0.9
		c0.2,0,0.4,0,0.7,0.1c0.1,0,0.2,0,0.2-0.1c0-0.1,0-0.2-0.1-0.2c-0.2-0.1-0.5-0.1-0.8-0.1c-0.8,0-1.5,0.4-2,1.1
		c-0.3,0.4-0.4,0.8-0.4,1.3c0,0.7,0.3,1.4,0.8,1.8c0.1,0.1,0.2,0,0.2-0.1C45.4,38.3,45.3,38.2,45.3,38.1L45.3,38.1z"/>
	<path id="XMLID_166_" class="st2" d="M47.3,34.5c-0.3-0.1-0.5-0.4-0.7-0.7c-0.2-0.3-0.3-0.7-0.3-1c0-0.3,0-0.5,0.1-0.8
		c0.3-0.8,1.1-1.2,1.9-1.2c0.1,0,0.2,0,0.3,0c0.1,0,0.2,0,0.2-0.1c0-0.1,0-0.2-0.1-0.2c-0.1,0-0.3,0-0.4,0c-0.9,0-1.8,0.5-2.2,1.4
		c-0.1,0.3-0.2,0.6-0.2,0.9c0,0.4,0.1,0.8,0.3,1.2c0.2,0.4,0.5,0.7,0.9,0.8c0.1,0,0.2,0,0.2-0.1C47.4,34.6,47.4,34.5,47.3,34.5
		L47.3,34.5z"/>
	<path id="XMLID_167_" class="st2" d="M48.8,30.1c-0.4-0.1-0.7-0.3-0.9-0.7c-0.2-0.3-0.4-0.8-0.4-1.2c0-0.1,0-0.3,0-0.4
		c0.2-0.9,1.1-1.6,1.9-1.6c0.1,0,0.2-0.1,0.2-0.2c0-0.1-0.1-0.2-0.2-0.2c-1,0-2,0.7-2.3,1.8c0,0.2-0.1,0.3-0.1,0.5
		c0,0.5,0.2,1,0.4,1.4c0.3,0.4,0.7,0.7,1.1,0.8c0.1,0,0.2,0,0.2-0.1C48.9,30.3,48.9,30.2,48.8,30.1L48.8,30.1z"/>
	<path id="XMLID_168_" class="st2" d="M49.1,26c-0.4,0-0.8-0.3-1.2-0.6c-0.3-0.4-0.5-0.9-0.5-1.3c0,0,0-0.1,0-0.1
		c0-1,0.8-1.7,1.6-1.9c0.1,0,0.1-0.1,0.1-0.2c0-0.1-0.1-0.2-0.2-0.1c-1,0.2-1.8,1.1-1.9,2.2c0,0,0,0.1,0,0.1c0,0.6,0.2,1.1,0.6,1.5
		c0.4,0.4,0.8,0.7,1.4,0.8c0.1,0,0.2-0.1,0.2-0.2C49.3,26.1,49.2,26,49.1,26L49.1,26z"/>
	<path id="XMLID_169_" class="st2" d="M49.1,21.6c-0.1,0-0.1,0-0.2,0c-0.4,0-0.8-0.2-1.2-0.5c-0.3-0.3-0.6-0.8-0.6-1.2
		c0-0.1,0-0.2,0-0.3c0-0.8,0.5-1.6,1.3-1.9c0.1,0,0.1-0.1,0.1-0.2c0-0.1-0.1-0.1-0.2-0.1c-0.9,0.3-1.5,1.2-1.5,2.2
		c0,0.1,0,0.2,0,0.3c0.1,0.5,0.4,1,0.7,1.4c0.4,0.4,0.9,0.6,1.4,0.6c0.1,0,0.1,0,0.2,0c0.1,0,0.2-0.1,0.1-0.2
		C49.3,21.7,49.2,21.6,49.1,21.6L49.1,21.6z"/>
	<path id="XMLID_170_" class="st2" d="M48.1,17.5c-0.1,0-0.3,0.1-0.4,0.1c-0.4,0-0.8-0.2-1.1-0.4c-0.3-0.3-0.6-0.6-0.7-1
		c-0.1-0.2-0.1-0.4-0.1-0.6c0-0.7,0.4-1.4,0.9-1.7c0.1,0,0.1-0.1,0.1-0.2c0-0.1-0.1-0.1-0.2-0.1c-0.7,0.4-1.1,1.2-1.1,2
		c0,0.2,0,0.5,0.1,0.7c0.1,0.5,0.5,0.9,0.9,1.2c0.4,0.3,0.9,0.5,1.3,0.5c0.2,0,0.3,0,0.5-0.1c0.1,0,0.1-0.1,0.1-0.2
		C48.3,17.5,48.2,17.4,48.1,17.5L48.1,17.5z"/>
	<path id="XMLID_171_" class="st2" d="M46.4,13.4c-0.2,0.1-0.4,0.2-0.7,0.2c-0.3,0-0.7-0.1-1-0.3c-0.3-0.2-0.6-0.5-0.8-0.8
		c-0.2-0.3-0.2-0.6-0.2-1c0-0.6,0.2-1.1,0.7-1.5c0.1-0.1,0.1-0.2,0-0.2c-0.1-0.1-0.2-0.1-0.2,0c-0.5,0.4-0.8,1.1-0.8,1.7
		c0,0.4,0.1,0.8,0.3,1.1c0.2,0.4,0.5,0.7,0.9,0.9c0.4,0.2,0.8,0.3,1.2,0.3c0.3,0,0.6-0.1,0.8-0.2c0.1,0,0.1-0.1,0.1-0.2
		C46.6,13.4,46.5,13.3,46.4,13.4L46.4,13.4z"/>
	<path id="XMLID_172_" class="st2" d="M43.9,9.8c-0.3,0.2-0.6,0.3-1,0.3c-0.6,0-1.3-0.3-1.6-0.8C41,8.9,40.8,8.5,40.8,8
		c0-0.4,0.1-0.9,0.4-1.2c0.1-0.1,0-0.2,0-0.2c-0.1-0.1-0.2-0.1-0.2,0C40.7,7,40.5,7.5,40.5,8c0,0.5,0.2,1,0.5,1.5
		c0.5,0.6,1.2,0.9,1.9,0.9c0.4,0,0.8-0.1,1.2-0.4c0.1-0.1,0.1-0.2,0-0.2C44.1,9.7,44,9.7,43.9,9.8L43.9,9.8z"/>
	<path id="XMLID_173_" class="st1" d="M40.8,6.6c-0.3,0.3-0.8,0.5-1.3,0.5c-0.5,0-1-0.2-1.4-0.5c-0.5-0.4-0.7-1-0.7-1.5
		c0-0.3,0.1-0.6,0.2-0.9c0-0.1,0-0.2-0.1-0.2c-0.1,0-0.2,0-0.2,0.1c-0.2,0.3-0.3,0.7-0.3,1.1c0,0.7,0.3,1.3,0.8,1.8
		c0.4,0.4,1,0.6,1.6,0.6c0.6,0,1.1-0.2,1.5-0.6c0.1-0.1,0.1-0.2,0-0.2C41,6.5,40.9,6.6,40.8,6.6L40.8,6.6z"/>
	<path id="XMLID_174_" class="st1" d="M37.4,4.2c-0.1,0.2-0.4,0.4-0.6,0.5c-0.3,0.1-0.6,0.2-0.9,0.2c-0.4,0-0.7-0.1-1-0.3
		c-0.6-0.4-1-1.1-1-1.7c0-0.2,0-0.4,0.1-0.6c0-0.1,0-0.2-0.1-0.2c-0.1,0-0.2,0-0.2,0.1c-0.1,0.2-0.1,0.4-0.1,0.7
		c0,0.8,0.4,1.6,1.2,2c0.4,0.2,0.8,0.3,1.2,0.3c0.4,0,0.7-0.1,1-0.2c0.3-0.1,0.6-0.4,0.8-0.7c0-0.1,0-0.2-0.1-0.2
		C37.5,4,37.4,4.1,37.4,4.2L37.4,4.2z"/>
	<path id="XMLID_175_" class="st1" d="M33.5,2.1c-0.1,0.3-0.4,0.6-0.7,0.8c-0.3,0.2-0.7,0.3-1.1,0.3c-0.2,0-0.5,0-0.7-0.1
		c-0.8-0.3-1.3-1.1-1.3-1.9c0-0.1,0-0.2,0-0.2c0-0.1-0.1-0.2-0.1-0.2c-0.1,0-0.2,0.1-0.2,0.2c0,0.1,0,0.2,0,0.3
		c0,0.9,0.6,1.8,1.5,2.2c0.3,0.1,0.5,0.1,0.8,0.1c0.4,0,0.9-0.1,1.3-0.3c0.4-0.2,0.7-0.5,0.8-0.9c0-0.1,0-0.2-0.1-0.2
		C33.6,1.9,33.5,2,33.5,2.1L33.5,2.1z"/>
	<path id="XMLID_176_" class="st1" d="M29.2,1.1c-0.1,0.4-0.3,0.7-0.7,1c-0.4,0.2-0.8,0.4-1.2,0.4c-0.1,0-0.2,0-0.3,0
		c-1-0.2-1.6-1-1.7-1.8c0-0.1-0.1-0.2-0.2-0.2c-0.1,0-0.2,0.1-0.2,0.2c0.1,1,0.8,2,1.9,2.2c0.1,0,0.3,0,0.4,0c0.5,0,1-0.2,1.4-0.5
		c0.4-0.3,0.7-0.7,0.8-1.2c0-0.1,0-0.2-0.1-0.2C29.3,1,29.2,1,29.2,1.1L29.2,1.1z"/>
	<path id="XMLID_177_" class="st1" d="M27.3,0.6c0.3,0.1,0.5,0.3,0.5,0.6c-0.1,0.3-0.4,0.5-0.7,0.4c-0.3-0.1-0.5-0.3-0.5-0.6
		C26.7,0.7,27,0.5,27.3,0.6"/>
	<path id="XMLID_178_" class="st1" d="M24.9,4.3L24.9,4.3c5.7,0.1,10.9,2.4,14.6,6.1c3.7,3.7,6.1,8.9,6.1,14.5
		c0,5.7-2.3,10.8-6.1,14.5c-3.7,3.7-8.9,6-14.6,6c-5.7,0-10.9-2.3-14.6-6C6.5,35.8,4.2,30.6,4.2,25c0-5.7,2.3-10.8,6.1-14.5
		C14,6.7,19.2,4.4,24.9,4.3L24.9,4.3L24.9,4.3c-5.7-0.1-11,2.2-14.8,6C6.4,14.1,4,19.3,4,25c0,5.7,2.3,10.9,6.1,14.7
		c3.8,3.8,9,6.1,14.8,6.1c5.7,0,11-2.3,14.8-6.1c3.8-3.8,6.1-9,6.1-14.7c0-5.7-2.3-10.9-6.1-14.7C35.9,6.5,30.6,4.2,24.9,4.3
		L24.9,4.3z"/>
	<path id="XMLID_179_" class="st1" d="M24.9,11.2L24.9,11.2c3.8,0.1,7.2,1.6,9.7,4.1c2.5,2.5,4,5.9,4,9.7c0,3.8-1.5,7.2-4,9.7
		c-2.5,2.5-5.9,4-9.7,4c-3.8,0-7.2-1.5-9.7-4c-2.5-2.5-4-5.9-4-9.7c0-3.8,1.5-7.2,4-9.7C17.7,12.8,21.1,11.3,24.9,11.2L24.9,11.2
		L24.9,11.2c-3.8-0.1-7.3,1.5-9.9,4c-2.5,2.5-4.1,6-4.1,9.8c0,3.8,1.6,7.3,4.1,9.8c2.5,2.5,6,4.1,9.9,4.1c3.8,0,7.3-1.6,9.9-4.1
		c2.5-2.5,4.1-6,4.1-9.8c0-3.8-1.6-7.3-4.1-9.8C32.2,12.6,28.7,11.1,24.9,11.2L24.9,11.2z"/>
	<path id="XMLID_180_" class="st1" d="M7.8,24.1c0.5,0,1,0.4,1,1c0,0.5-0.4,1-1,1s-1-0.4-1-1C6.8,24.6,7.3,24.1,7.8,24.1"/>
	<path id="XMLID_181_" class="st1" d="M42.1,24.6c0.5,0,1,0.4,1,1c0,0.5-0.4,1-1,1c-0.5,0-1-0.4-1-1C41.1,25.1,41.5,24.6,42.1,24.6"
		/>
	<path id="XMLID_206_" class="st1" d="M9.4,28.5L9.5,29L8,29.5c-0.2,0.1-0.4,0.1-0.5,0.2c-0.1,0.1-0.2,0.2-0.2,0.3
		c0,0.1,0,0.3,0,0.4c0.1,0.2,0.1,0.3,0.2,0.3c0.1,0.1,0.2,0.1,0.3,0.1c0.1,0,0.3-0.1,0.5-0.1l1.6-0.5l0.2,0.6l-1.5,0.5
		c-0.3,0.1-0.6,0.2-0.7,0.2c-0.2,0-0.3,0-0.4-0.1c-0.1-0.1-0.2-0.1-0.3-0.3C7,31,6.9,30.8,6.8,30.6c-0.1-0.3-0.1-0.5-0.1-0.7
		s0.1-0.3,0.1-0.4c0.1-0.1,0.2-0.2,0.3-0.3c0.2-0.1,0.4-0.2,0.7-0.3L9.4,28.5z M7.5,32.5l2.7-1.4l0.3,0.5l-1.2,2l1.8-0.9l0.3,0.5
		l-2.7,1.4l-0.3-0.5l1.2-2L7.8,33L7.5,32.5z M9,35.1l2.6-1.6l0.3,0.5l-2.6,1.6L9,35.1z M10.2,36.9l1.9-1.6l-0.6-0.7l0.4-0.3l1.5,1.8
		l-0.4,0.3l-0.6-0.7l-1.9,1.6L10.2,36.9z M11.8,38.6l2-2.3l1.7,1.5l-0.3,0.4l-1.2-1.1l-0.4,0.5l1.1,1L14.3,39l-1.1-1l-0.5,0.6
		l1.3,1.1l-0.3,0.4L11.8,38.6z M15.7,37.9l1,0.6c0.2,0.1,0.4,0.2,0.5,0.3c0.1,0.1,0.2,0.3,0.3,0.5c0,0.2,0,0.4,0,0.6
		c0,0.2-0.1,0.4-0.3,0.7c-0.1,0.2-0.3,0.4-0.4,0.5c-0.2,0.2-0.4,0.3-0.5,0.3c-0.1,0-0.3,0-0.5,0c-0.1,0-0.3-0.1-0.5-0.2l-1-0.6
		L15.7,37.9z M15.9,38.7l-1,1.7l0.4,0.2c0.1,0.1,0.3,0.1,0.3,0.2c0.1,0,0.2,0,0.3,0c0.1,0,0.2-0.1,0.3-0.2c0.1-0.1,0.2-0.2,0.3-0.4
		c0.1-0.2,0.2-0.4,0.2-0.5c0-0.1,0-0.2,0-0.3c0-0.1-0.1-0.2-0.2-0.3c-0.1-0.1-0.2-0.2-0.4-0.3L15.9,38.7z M18.9,39.6L20,40
		c0.2,0.1,0.4,0.1,0.5,0.2c0.1,0.1,0.2,0.1,0.3,0.2c0.1,0.1,0.1,0.2,0.1,0.3c0,0.1,0,0.2,0,0.4c0,0.1-0.1,0.2-0.2,0.3
		c-0.1,0.1-0.2,0.1-0.4,0.2c0.2,0.1,0.3,0.2,0.3,0.4c0.1,0.2,0.1,0.3,0,0.5c0,0.1-0.1,0.2-0.2,0.3C20.3,42.9,20.1,43,20,43
		c-0.1,0-0.3,0-0.4,0c-0.1,0-0.3-0.1-0.7-0.2l-1-0.3L18.9,39.6z M19.3,40.3L19.1,41l0.4,0.1c0.2,0.1,0.4,0.1,0.4,0.1
		c0.1,0,0.2,0,0.3,0c0.1,0,0.1-0.1,0.2-0.2c0-0.1,0-0.2,0-0.2c0-0.1-0.1-0.1-0.2-0.2c-0.1,0-0.2-0.1-0.5-0.2L19.3,40.3z M18.9,41.4
		l-0.3,0.8l0.5,0.2c0.2,0.1,0.3,0.1,0.4,0.1c0.1,0,0.2,0,0.3,0c0.1,0,0.1-0.1,0.2-0.2c0-0.1,0-0.2,0-0.2c0-0.1-0.1-0.1-0.1-0.2
		c-0.1-0.1-0.2-0.1-0.5-0.2L18.9,41.4z M23.5,43.9l-0.7-0.1L22.7,43l-1.2-0.2l-0.4,0.6l-0.6-0.1l1.7-2.8l0.6,0.1L23.5,43.9z
		 M22.6,42.5l-0.2-1.2l-0.6,1L22.6,42.5z M24.2,43.9l-0.1-3l0.6,0l1.3,2l-0.1-2l0.6,0l0.1,3l-0.6,0l-1.3-1.9l0.1,2L24.2,43.9z
		 M27.4,43.7l-0.5-3l0.6-0.1l0.2,1.3l1-1.5l0.8-0.1l-0.9,1.4l1.5,1.6l-0.8,0.1l-1.1-1.2l-0.4,0.6l0.2,0.9L27.4,43.7z M30.8,41.5
		c-0.1-0.3-0.2-0.5-0.2-0.8c0-0.2,0-0.3,0.1-0.5c0.1-0.2,0.1-0.3,0.2-0.4c0.1-0.2,0.3-0.3,0.5-0.4c0.4-0.2,0.8-0.2,1.1-0.1
		c0.4,0.1,0.6,0.4,0.9,0.9c0.2,0.4,0.2,0.8,0.1,1.2c-0.1,0.4-0.4,0.6-0.8,0.8c-0.4,0.2-0.8,0.2-1.1,0.1C31.2,42.2,31,41.9,30.8,41.5
		z M31.3,41.2c0.1,0.3,0.3,0.5,0.5,0.6c0.2,0.1,0.4,0.1,0.7,0c0.2-0.1,0.4-0.3,0.4-0.5c0.1-0.2,0-0.5-0.1-0.8
		c-0.1-0.3-0.3-0.5-0.5-0.6c-0.2-0.1-0.4-0.1-0.7,0c-0.2,0.1-0.4,0.3-0.4,0.5C31.1,40.6,31.2,40.9,31.3,41.2z M34.7,41.2L33,38.7
		l1.7-1.1L35,38l-1.2,0.8l0.4,0.6l1.1-0.7l0.3,0.4l-1.1,0.7l0.7,1.1L34.7,41.2z M37.7,38.9l-2.1-2.2l0.4-0.4l2.1,2.2L37.7,38.9z
		 M38.9,37.8l-2.4-1.9l0.4-0.5l2.4,0.3l-1.6-1.2l0.3-0.4l2.4,1.9L40,36.4l-2.3-0.3l1.6,1.2L38.9,37.8L38.9,37.8z M38.3,33.7l0.5-1
		c0.1-0.2,0.2-0.4,0.3-0.5c0.1-0.1,0.3-0.2,0.5-0.3c0.2,0,0.4-0.1,0.6,0c0.2,0,0.4,0.1,0.7,0.3c0.2,0.1,0.4,0.3,0.5,0.4
		c0.2,0.2,0.3,0.4,0.3,0.5c0,0.1,0,0.3,0,0.5c0,0.1-0.1,0.3-0.2,0.5l-0.6,1L38.3,33.7z M39,33.5l1.8,1L41,34
		c0.1-0.1,0.1-0.3,0.2-0.3c0-0.1,0-0.2,0-0.3c0-0.1-0.1-0.2-0.2-0.3c-0.1-0.1-0.3-0.2-0.5-0.3c-0.2-0.1-0.4-0.2-0.5-0.2
		c-0.1,0-0.2,0-0.3,0c-0.1,0-0.2,0.1-0.3,0.2c-0.1,0.1-0.1,0.2-0.3,0.4L39,33.5z M42.3,32.6l-2.8-1.2l0.2-0.6l2.8,1.2L42.3,32.6z
		 M43.6,28.8l-0.2,0.6l-0.7,0.1l-0.3,1.2l0.6,0.4l-0.2,0.6l-2.6-2l0.2-0.6L43.6,28.8z M42.1,29.5l-1.2,0.1l1,0.7L42.1,29.5z"/>
	<path id="XMLID_229_" class="st1" d="M7.7,20.8c0.8,0.1,1.4-0.2,1.6-0.6c0.1-0.2,0.1-0.4,0-0.7l0.2,0.1l0.3,0.1l0.5-0.4l-0.6-0.2
		l-1.8-0.7c0.3-0.7,0.5-1.2,1-2.1l0.7,0.4l-0.6,1C9,17.9,9,18,9.1,18.1c0.1,0.1,0.3,0.1,0.5,0.1C9.8,18.1,10,18,10,18
		c0-0.1,0-0.2-0.1-0.2l-0.1,0c-0.1,0-0.1-0.1-0.1-0.2l0.3-0.6l0.6,0.3l0.2,0.1l0.6-0.3l-0.5-0.3l-1.7-0.9c0.3-0.5,0.2-0.4,0.6-0.9
		l1.6,1.1l0.2,0.2l0.6-0.2l-0.5-0.4l-1.6-1.1l0.3-0.4c0.3-0.4,0.7-0.8,1-1.2l0.2,0.2l-0.4,0.5c-0.2,0.2-0.2,0.5,0,0.6
		c0.1,0.1,0.4,0.2,0.6,0.2c0.3,0,0.5-0.1,0.6-0.2c0.1-0.1,0.1-0.3,0.2-0.5c0,0,0.1,0,0.1,0c0.2,0.2,0.1,0.6-0.1,0.9
		c-0.2,0-0.3,0-0.4,0.1c-0.1,0.1-0.1,0.3,0,0.4c0.2,0.2,0.6,0.1,0.8-0.2l0.7,0.3l0.1-0.3l-0.7-0.1c0.3-0.4,0.3-1,0-1.2
		c-0.1-0.1-0.3-0.1-0.5-0.1c-0.2,0-0.4,0.1-0.5,0.1c-0.2,0.2-0.2,0.4-0.4,0.6c0,0-0.1,0-0.2,0c-0.1-0.1-0.2-0.3,0-0.4l0.7-0.7
		l-0.5-0.5c0.5-0.5,1-1,1.5-1.3l0.2,0.2c0.1,0.1,0.1,0.3,0,0.4c-0.4,0.4-0.5,0.8-0.2,1.1c0.2,0.2,0.5,0.3,0.8,0.3
		c0.3,0,0.7-0.1,0.9-0.3c0.2-0.2,0.3-0.5,0.4-0.9l-0.5-0.1c-0.1,0.4-0.3,0.8-0.6,1c-0.2,0.1-0.4,0.1-0.5,0c-0.2-0.2-0.1-0.7,0.3-1
		c0.1-0.1,0.2-0.3,0.1-0.4l-0.4-0.5c0.7-0.7,1.4-1.1,2.3-1.5L16,9.5L15.3,10c-0.2,0.1-0.2,0.3-0.1,0.5c0.1,0.2,0.3,0.3,0.5,0.4
		c0.3,0.1,0.5,0.1,0.6,0c0.2-0.1,0.3-0.3,0.5-0.5c0.1,0,0.2,0,0.2,0c0.1,0.2-0.1,0.5-0.4,0.7c-0.3,0.2-0.8,0.2-1.2,0.1l-0.1,0.2
		c0.7,0.2,1.4,0.2,1.8,0c0.4-0.2,0.5-0.7,0.4-1c-0.1-0.1-0.2-0.2-0.5-0.3c-0.2-0.1-0.4-0.1-0.5,0c-0.2,0.1-0.4,0.3-0.6,0.5
		c-0.1,0.1-0.2,0-0.2,0c-0.1-0.1,0-0.3,0.2-0.4l0.9-0.5L16.3,9l0.4-0.3c0.2-0.1,0.3-0.2,0.5-0.3l-0.4-0.3c-1.2,0.6-2.4,1.3-3.4,2.1
		c-0.7-0.2-0.8-0.3-1-0.4c-0.4-0.1-0.8-0.1-1,0.1c-0.1,0-0.1,0.1-0.1,0.2l0.5,0.3c0-0.1,0.1-0.1,0.2-0.2c0.1-0.1,0.3-0.1,0.5-0.1
		l0.9,0.3h0c-1.1,0.9-2.1,1.9-3,3l-0.3,0.4c-1.3,1.8-2.3,3.7-2.9,5.7c-0.2,0.7-0.3,1.3-0.5,2l0.4,0c0.1-0.5,0.2-1,0.4-1.6
		c0.1,0,0.2,0,0.3,0C7.8,20.1,7.9,20.4,7.7,20.8z M15.7,12.3 M17.9,11 M25.9,9.3 M35.3,13.1 M39.1,17.9 M18.7,7.9L18.7,7.9L18.7,7.9
		l2-0.6L20.8,8c-0.3-0.2-0.7-0.2-1-0.1c-0.5,0.1-0.7,0.6-0.6,1c0.1,0.2,0.2,0.4,0.5,0.5c0.2,0.1,0.5,0.1,0.7,0.1
		c0.3-0.1,0.5-0.2,0.6-0.4l0,0.2l0.1,0.3l0.6,0.2L21.7,9l-0.5-1.8l0.1,0C21.5,7.1,21.9,7,22.2,7c0.5-0.1,1.1-0.1,1.6-0.2l0.1,0.9
		c-0.3-0.3-0.6-0.5-0.8-0.5c-0.4,0-0.7,0.4-0.7,0.7c0,0.2,0.1,0.4,0.4,0.6c0.2,0.2,0.4,0.3,0.6,0.3c0.2,0,0.4-0.1,0.6-0.3l0,0.2
		l0,0.3l0.6,0.3l0-0.6l0-0.5c0.2-0.2,0.4-0.4,0.6-0.4c0.1,0,0.2,0.1,0.2,0.2c0,0.1-0.1,0.4-0.3,0.8l0.5,0.3c0.2-0.3,0.3-0.6,0.2-0.9
		c0-0.2-0.1-0.4-0.3-0.6c-0.2-0.2-0.4-0.3-0.5-0.3c-0.2,0-0.4,0.1-0.5,0.2l-0.1-0.7c0.5,0,1,0,1.5,0l0-0.1l-0.1-0.4
		c-0.3,0-0.6,0-0.9,0c-0.8,0-1.7,0.1-2.5,0.2l-0.7,0.1c-0.1,0-0.4,0.1-0.4,0.1l-0.4,0.1c-0.7,0.2-1.4,0.3-2,0.6l-0.5,0.1l0,0l0,0
		L18.7,7.9z M43.5,22.4L43,22.6L43.5,22.4z M43.5,22.4c-0.2-1.6-0.6-2.9-1.2-4.4l-0.1-0.3c-0.1-0.1-0.1-0.2-0.2-0.4l0,0
		c-0.5-0.9-0.9-1.9-1.6-2.8l0,0l-0.1-0.1c0-0.1-0.1-0.1-0.1-0.2c0.1-0.1,0.2-0.3,0.3-0.4c0.2-0.2,0.6-0.1,0.9,0.2
		c0.3,0.4,0.4,1.1,0.3,1.9l0.1,0c0.2-1,0.1-1.9-0.3-2.5c-0.3-0.4-0.9-0.5-1.2-0.3c-0.2,0.1-0.3,0.3-0.3,0.6
		c-0.7-0.9-1.4-1.7-2.2-2.4L37.8,12c0.3,0.3,0.7,0.7,1,1.1l-0.2,0.2l-0.4-0.5c-0.2-0.2-0.5-0.2-0.6-0.1c-0.1,0.1-0.2,0.4-0.3,0.6
		c0,0.3,0,0.5,0.1,0.6c0.1,0.1,0.3,0.2,0.4,0.3c0,0,0,0.1,0,0.1c-0.2,0.2-0.6,0.1-0.9-0.2c0-0.2,0-0.3-0.1-0.4
		c-0.1-0.1-0.2-0.1-0.4,0c-0.2,0.2-0.1,0.6,0.1,0.8l-0.4,0.7l0.3,0.1l0.2-0.7c0.4,0.3,0.9,0.4,1.2,0.1c0.1-0.1,0.2-0.2,0.2-0.5
		c0-0.2,0-0.4-0.1-0.5c-0.2-0.2-0.4-0.3-0.6-0.4c0,0,0-0.1,0.1-0.2c0.1-0.1,0.3-0.1,0.4,0l0.7,0.7l0.5-0.5c0.2,0.2,0.3,0.4,0.5,0.7
		l-1.5,1.1l-0.2,0.2l0,0.6l0.5-0.4l1.5-1.1l0.4,0.7l0.9,1.6L41,17.1l-0.4-0.8c-0.1-0.2-0.3-0.3-0.5-0.1c-0.2,0.1-0.3,0.3-0.4,0.5
		c-0.1,0.3-0.1,0.5-0.1,0.6c0.1,0.2,0.3,0.3,0.4,0.5c0,0.1,0,0.2,0,0.2c-0.2,0.1-0.5-0.1-0.7-0.5c-0.2-0.3-0.2-0.8,0-1.2l-0.2-0.1
		c-0.3,0.7-0.3,1.4,0,1.8c0.2,0.4,0.6,0.6,1,0.4c0.1-0.1,0.2-0.2,0.3-0.5c0.1-0.2,0.1-0.4,0-0.5c-0.1-0.2-0.3-0.4-0.4-0.6
		c-0.1-0.1,0-0.2,0-0.2c0.1-0.1,0.3,0,0.4,0.2l0.5,0.9l0.7-0.4l0.4,0.8l0.2,0.7c0,0.1-0.1,0.2-0.2,0.2c-0.2,0.1-0.5-0.2-0.6-0.5
		c-0.6,0.4-1,1-0.8,1.5c0.1,0.2,0.2,0.4,0.5,0.5l-0.3,0.1l-0.3,0.1l-0.2,0.6l0.6-0.2l1.8-0.6l0.2,1L41,21.7l-0.3,0l-0.3,0.6l0.6-0.1
		l1.9-0.3l0.1,0.7L43.5,22.4L43.5,22.4z M36.5,10.3L36.5,10.3l-2.3-1.5c-0.4-0.2-0.8-0.4-1.2-0.6l-0.1,0v0c-0.4-0.2-0.9-0.4-1.3-0.6
		l-0.1,0v0c-0.5-0.2-0.9-0.3-1.4-0.5v0l0,0l0.1,0.3l0,0.2c0.1,0,0-0.2,0,0l0.3,0.1l-0.2,0.7c-0.2,0.1-0.3,0.1-0.5,0.1
		c-0.2-0.1-0.4-0.2-0.5-0.3c0.2-0.1,0.3-0.2,0.4-0.4c0.1-0.2,0-0.4-0.1-0.6c-0.2-0.2-0.4-0.4-0.6-0.5c-0.2-0.1-0.5,0-0.8,0.1
		l0.1,0.4c0.3-0.1,0.6-0.2,0.8-0.1c0.2,0.1,0.3,0.2,0.3,0.4c-0.1,0.2-0.3,0.4-0.5,0.4c-0.1-0.1-0.3-0.1-0.6-0.1l0.1,0.5
		c0.2,0,0.4,0,0.6,0c0.1,0.1,0.1,0.2,0,0.3c-0.1,0.3-0.4,0.5-0.7,0.4c-0.4-0.1-0.6-0.5-0.7-1L27.6,8c0.1,0.8,0.5,1.4,1,1.5
		c0.5,0.2,1-0.4,0.8-0.9C29.6,8.8,29.8,9,29.9,9c0.1,0,0.2,0,0.2,0L30,9.5L30,9.8l0.4,0.5l0.2-0.6l0.6-1.8l1.1,0.4L31.4,10l-0.1,0.2
		l0.3,0.5l0.3-0.6l0.8-1.7c0.4,0.2,0.3,0.2,0.7,0.3l-0.4,0.8c0,0.1,0,0.4,0.1,0.6c0.1,0.3,0.2,0.4,0.3,0.5c0.2,0.1,0.3,0.1,0.5,0.1
		l-0.1,0.3l-0.1,0.2l0.3,0.6l0.3-0.6l0.3-0.5c0.4-0.1,0.8-0.1,0.9,0c0.1,0,0.1,0.1,0.1,0.2c-0.2,0.3-0.5,0.5-0.8,0.6l0.3,0.5
		c0.3-0.2,0.6-0.4,0.7-0.6c0.1-0.2,0.1-0.4,0-0.7c-0.1-0.3-0.2-0.5-0.3-0.5c-0.2-0.1-0.4-0.1-0.6,0L35,9.8c0.5,0.3,1,0.7,1.4,1
		L36.5,10.3z M21.2,6.6l-0.6-0.8c-0.2-0.3-0.5-0.4-0.7-0.4c-0.1,0-0.3,0.1-0.3,0.1L20,5.9c0-0.1,0.1-0.1,0.3-0.1
		c0.1,0,0.3,0.1,0.5,0.3l0.4,0.5l-0.1,0c-0.8-0.5-1.2-0.7-1.5-0.7c-0.1,0-0.2,0.1-0.3,0.1l0.3,0.5c0.1-0.1,0.2-0.1,0.4-0.1
		c0.3,0,0.6,0.1,1.1,0.3C21.1,6.7,21.1,6.7,21.2,6.6z M8.7,20.2c-0.1,0.2-0.2,0.3-0.4,0.4c-0.1,0-0.1-0.1-0.1-0.1
		c0.1-0.4,0-0.7-0.1-0.8c-0.1,0-0.3,0-0.7,0.1l0.3-0.9l0.9,0.4C8.8,19.6,8.8,20,8.7,20.2z M11.3,20.2c0.2-0.4,0-0.9-0.3-1
		c-0.1-0.1-0.3,0-0.6,0c-0.2,0.1-0.4,0.2-0.4,0.4c-0.1,0.2-0.1,0.4,0,0.6l0.4-0.2c-0.1-0.2-0.1-0.3-0.1-0.5c0-0.1,0.1-0.2,0.2-0.1
		c0.3,0.1,0.4,0.5,0.3,0.8c-0.2,0.5-0.7,0.8-1.2,1l0.1,0.2C10.5,21.2,11.1,20.8,11.3,20.2z M20.1,9.1c-0.2,0.1-0.4,0-0.5-0.2
		c-0.1-0.2,0-0.4,0.2-0.6l0.7,0.6C20.4,9,20.3,9.1,20.1,9.1z M20.7,8.8L20,8.2c0.1,0,0.2-0.1,0.3-0.1c0.3-0.1,0.6,0,0.6,0.2
		C21,8.4,20.9,8.7,20.7,8.8z M21.3,6l0.3-0.5l-0.5-0.3l-0.3,0.5L21.3,6z M23.1,8.4c-0.1,0-0.3-0.1-0.3-0.2c0-0.2,0.2-0.5,0.4-0.5
		c0.2,0,0.4,0.1,0.6,0.3l-0.3,0.3C23.5,8.3,23.3,8.4,23.1,8.4z M32.4,7.5c0.3,0.2,0.8,0.1,1-0.2l-0.2-0.4c-0.2,0.2-0.5,0.3-0.7,0.2
		c-0.3-0.1-0.4-0.4-0.4-0.6l-0.2,0C31.9,6.9,32.1,7.3,32.4,7.5z M32.2,11.3l0.5-0.1l-0.2-0.5L32,10.9L32.2,11.3z M33.3,10.4
		c-0.1,0-0.1-0.1,0-0.2l0.6-1l0.7,0.4l-0.5,0.9C33.7,10.4,33.4,10.4,33.3,10.4z M39.8,12.7l0.6,0.1l0-0.6l-0.6-0.1L39.8,12.7z
		 M40.9,19.6c-0.1-0.2,0-0.4,0.1-0.6c0,0,0.1,0,0.1,0c0.2,0.4,0.4,0.6,0.6,0.5c0.1,0,0.3-0.2,0.5-0.5l0.3,0.9l-1,0.3
		C41.2,20,41,19.8,40.9,19.6"/>
	<polygon id="XMLID_230_" class="st3" points="20.9,6.7 21,6.7 21.3,6.7 21.2,6.6 	"/>
	<polygon id="XMLID_231_" class="st1" points="34,30.2 34,30.4 34.1,30.6 34.2,30.7 34.3,30.8 34.5,30.8 34.7,30.8 34.9,30.6 
		34.8,30.4 34.8,30.3 34.7,30.2 34.7,30.1 34.6,30 34.5,30 34.5,30 34.4,29.9 34.3,29.9 34.3,29.9 34.2,29.9 34.2,29.9 34.1,29.9 
		34,30 34,30 34,30.1 	"/>
	<polygon id="XMLID_232_" class="st1" points="26.3,14.4 26,14.6 25.8,14.9 25.6,15.2 25.5,15.5 25.5,15.8 25.7,16 26.1,16 
		26.4,15.8 26.6,15.7 26.7,15.6 26.7,15.4 26.8,15.3 26.8,15.1 26.9,15 26.9,14.9 26.9,14.7 26.9,14.7 26.8,14.6 26.8,14.5 
		26.7,14.4 26.6,14.4 26.5,14.4 26.4,14.4 	"/>
	<path id="XMLID_233_" class="st1" d="M25,12.2c7,0,12.8,5.7,12.8,12.7c0,7-5.7,12.7-12.8,12.7S12.2,32,12.2,25
		C12.2,18,17.9,12.2,25,12.2z"/>
	<path id="XMLID_234_" class="st0" d="M29.9,25.8c0,0,0.8,0,1.1-0.3c0.3-0.3,1.2-0.9,1.4-1.1c0.2-0.2,0.8-0.6,1-0.7
		c0.2-0.1,0.6-0.3,0.8-0.3c0.2,0,0.5,0,0.5,0c0.2,0.1,0.4,0.6,0.1,0.6c-0.2,0-0.7,0-1.2,0.3c-0.5,0.3-0.7,0.4-1,0.7
		c-0.3,0.3-0.9,0.8-1.1,1.1c-0.3,0.2-0.8,0.4-1,0.4c-0.2,0-0.9-0.1-0.7-0.4C29.8,25.8,29.9,25.8,29.9,25.8z"/>
	<path id="XMLID_235_" class="st0" d="M19,18c0,0,1.7,2,2.1,2.5c0.4,0.5,0.7,1.1,0.7,1.6c0.1,0.4,0.8,2,0.8,2l0.5,0.7
		c0.1,0,0.3,0.1,0.4,0.1c0.3,0.1,0.3,0.2,0.2,0.3c-0.2,0.3-0.2,0.6-0.2,0.8c0,0.2,0.5,0.9,0.6,1.3c0.1,0.4,0.5,0.4,0.5,0.4
		s0.2-0.4-0.3-1.5c-0.2-0.4,0-0.5,0.1-0.6c0.2-0.3,0.6-0.1,0.7,0c0,0.2,0.1,1.4,0.6,1.4c0.4,0,1.4-0.9,1.9-1
		c0.5-0.1,1.2-0.1,1.4,0.2s0.6,0.7,0.6,1.2c0,0.5-0.2,1-0.7,1.6c-0.4,0.7-0.7,1.4-1.1,2.1l-0.4,1c0,0-0.4-0.1-0.2-0.7
		c0.1-0.6,0.3-1.1,0.6-1.4s0.6-1,0.9-1.8c0.4-0.7,0.1-1.2,0.1-1.2s-0.6-0.4-0.9-0.3c-0.4,0.1-1.4,0.8-1.9,1.1
		c-0.5,0.4-0.7,0.6-0.8,1.4c-0.1,0.9,0,3,0.1,3.5c0.1,0.5,0.3,2.1,0.3,2.1l0.3,1.1c0,0-0.1,0.8-0.4,0.5c-0.3-0.3-0.4-1.5-0.5-1.8
		c-0.1-0.4-0.2-0.8-0.1-1.4c0.1-0.6-0.2-1.1-0.2-1.1s-0.5-0.4-0.6,0.2c-0.1,0.6-0.1,1.3-0.2,1.8c-0.1,0.6-0.1,1.7-0.1,1.7
		s0.3,0.4-0.2,0.4c-0.2,0-0.4-0.1-0.4-0.3c0-0.2,0-0.5-0.1-0.9c-0.1-0.8-1-4-1.2-4.7c-0.2-0.7-1.5-3.9-1.7-4.3
		c-0.2-0.4-1.2-2.1-1.5-2.4s-0.5-0.8-0.9-0.6c-0.4,0.1-0.9,1-1.1,2c-0.2,1-0.2,2.5-0.1,2.9c0.1,0.4,0.2,1.5,0.2,1.5
		s-0.5,0.3-0.7-1.6c-0.2-1.9-0.4-3.3-0.1-4.3c0.4-0.9,0.7-1.5,1.1-1.9c0.5-0.4,0.6-0.4,1.1,0.4c0.6,0.8,1.6,2.2,1.9,2.9
		c0.3,0.7,1.3,2.4,1.5,2.8c0.2,0.4,0.5,1.4,0.5,1.4s0.6-1.5,0.6-2.5c0-1-0.4-1.6-0.8-2.5c-0.4-0.9-1-2.5-1.2-3
		c-0.2-0.4-0.9-1.5-0.9-1.5l-0.6-1L19,18z"/>
	<polygon id="XMLID_236_" class="st0" points="29.4,20.5 29.1,20.4 28.9,20.5 28.6,20.6 28.4,20.8 28.3,21 28.3,21.3 28.5,21.5 
		28.8,21.6 29,21.5 29.1,21.5 29.2,21.4 29.3,21.4 29.4,21.3 29.5,21.2 29.6,21.1 29.6,21 29.7,21 29.7,20.9 29.7,20.8 29.7,20.7 
		29.7,20.6 29.6,20.6 29.5,20.5 	"/>
	<polygon id="XMLID_237_" class="st0" points="32.4,29.9 32.4,30.2 32.6,30.5 32.8,30.7 33,30.9 33.3,30.9 33.6,30.9 33.7,30.6 
		33.7,30.3 33.6,30.1 33.6,30 33.5,29.8 33.3,29.8 33.2,29.7 33.1,29.6 33,29.6 32.9,29.6 32.8,29.5 32.7,29.5 32.7,29.5 32.6,29.6 
		32.5,29.6 32.4,29.7 32.4,29.8 	"/>
	<polygon id="XMLID_238_" class="st0" points="30.3,27.3 30.1,27.6 30.1,27.9 30.1,28.1 30.2,28.4 30.3,28.6 30.6,28.7 30.9,28.6 
		31.1,28.3 31.1,28.2 31.1,28 31.1,27.9 31.1,27.8 31,27.6 31,27.5 30.9,27.4 30.9,27.3 30.8,27.3 30.8,27.2 30.7,27.2 30.6,27.2 
		30.5,27.2 30.4,27.2 30.3,27.2 	"/>
	<polygon id="XMLID_239_" class="st0" points="31.1,27.2 31.3,27.4 31.6,27.6 31.8,27.6 32.1,27.6 32.3,27.5 32.4,27.3 32.4,27 
		32.2,26.8 32.1,26.7 32,26.6 31.8,26.6 31.7,26.6 31.6,26.6 31.5,26.6 31.4,26.7 31.3,26.7 31.2,26.7 31.2,26.8 31.1,26.8 
		31.1,26.9 31.1,27 31.1,27.1 31.1,27.1 	"/>
	<polygon id="XMLID_240_" class="st0" points="24.9,22.6 24.6,22.6 24.2,22.7 23.9,22.8 23.7,23.1 23.6,23.3 23.6,23.6 23.9,23.8 
		24.2,23.8 24.4,23.8 24.6,23.7 24.7,23.7 24.8,23.6 25,23.5 25,23.3 25.1,23.2 25.2,23.1 25.2,23.1 25.2,23 25.2,22.9 25.2,22.8 
		25.2,22.7 25.1,22.6 25,22.6 	"/>
	<polygon id="XMLID_241_" class="st0" points="24.4,15.7 24.3,16 24.3,16.3 24.4,16.6 24.5,16.8 24.7,17 25,17 25.2,16.8 25.3,16.5 
		25.3,16.4 25.3,16.2 25.2,16.1 25.2,16 25.1,15.9 25.1,15.8 25,15.7 24.9,15.6 24.9,15.6 24.8,15.5 24.7,15.5 24.6,15.5 24.5,15.5 
		24.5,15.6 24.4,15.7 	"/>
	<polygon id="XMLID_242_" class="st0" points="28.6,21.9 28.4,21.8 28.1,21.9 27.9,22 27.7,22.1 27.6,22.3 27.6,22.6 27.8,22.8 
		28.1,22.8 28.2,22.8 28.4,22.8 28.5,22.7 28.6,22.7 28.6,22.6 28.7,22.5 28.8,22.4 28.8,22.4 28.9,22.3 28.9,22.2 28.9,22.2 
		28.9,22.1 28.9,22 28.8,21.9 28.7,21.9 	"/>
	<polygon id="XMLID_243_" class="st0" points="27.8,23.2 27.6,23.1 27.3,23.2 27.1,23.3 26.9,23.5 26.8,23.7 26.8,23.9 27,24.1 
		27.3,24.2 27.4,24.1 27.5,24.1 27.6,24.1 27.7,24 27.8,23.9 27.9,23.8 28,23.8 28,23.7 28,23.6 28.1,23.6 28.1,23.5 28.1,23.4 
		28,23.3 28,23.2 27.9,23.2 	"/>
	<polygon id="XMLID_244_" class="st0" points="32.2,28.3 32.4,28.6 32.7,28.7 32.9,28.7 33.2,28.7 33.4,28.7 33.6,28.4 33.6,28.1 
		33.3,27.9 33.2,27.8 33.1,27.8 33,27.7 32.8,27.7 32.7,27.7 32.6,27.7 32.5,27.8 32.4,27.8 32.3,27.8 32.2,27.9 32.2,27.9 32.1,28 
		32.1,28.1 32.1,28.2 32.2,28.3 	"/>
	<polygon id="XMLID_245_" class="st0" points="25.9,22 25.8,22.2 25.8,22.5 25.9,22.7 26,23 26.2,23.1 26.5,23.2 26.7,23 26.8,22.7 
		26.8,22.6 26.8,22.4 26.8,22.3 26.7,22.2 26.7,22.1 26.6,22 26.5,21.9 26.5,21.9 26.4,21.8 26.4,21.8 26.3,21.8 26.2,21.8 
		26.1,21.8 26,21.8 26,21.9 	"/>
	<polygon id="XMLID_246_" class="st0" points="27.4,20 27.2,20.2 27.1,20.5 27,20.7 27,21 27,21.2 27.2,21.4 27.5,21.4 27.8,21.2 
		27.9,21.1 27.9,21 28,20.9 28,20.7 28,20.6 28,20.5 28,20.4 28,20.3 27.9,20.2 27.9,20.1 27.9,20.1 27.8,20 27.7,20 27.6,20 
		27.5,20 	"/>
	<polygon id="XMLID_247_" class="st0" points="26.1,17.9 25.7,17.9 25.4,17.9 25.2,18.1 25,18.3 24.8,18.5 24.8,18.8 25.1,19 
		25.4,19 25.6,19 25.7,18.9 25.9,18.9 26,18.8 26.1,18.7 26.2,18.6 26.2,18.5 26.3,18.4 26.3,18.3 26.4,18.3 26.4,18.2 26.4,18.1 
		26.3,18 26.2,17.9 26.2,17.9 	"/>
	<polygon id="XMLID_248_" class="st0" points="27.3,33 27.2,33.2 27,33.4 27,33.6 27,33.9 27.1,34.1 27.3,34.2 27.6,34.2 27.8,34 
		27.9,33.9 27.9,33.8 27.9,33.6 27.9,33.5 27.9,33.4 27.9,33.3 27.9,33.2 27.8,33.1 27.8,33.1 27.8,33 27.7,33 27.7,32.9 27.6,32.9 
		27.5,32.9 27.4,32.9 	"/>
	<polygon id="XMLID_249_" class="st0" points="23.6,17.5 23.6,17.8 23.6,18.2 23.8,18.5 24,18.7 24.2,18.9 24.5,18.8 24.7,18.6 
		24.7,18.2 24.7,18 24.7,17.9 24.6,17.7 24.5,17.6 24.4,17.5 24.3,17.4 24.2,17.3 24.1,17.3 24.1,17.2 24,17.2 23.9,17.2 23.8,17.2 
		23.7,17.2 23.6,17.3 23.6,17.4 	"/>
	<polygon id="XMLID_250_" class="st0" points="30.5,19.2 30.2,19.2 29.9,19.2 29.6,19.4 29.4,19.5 29.3,19.8 29.3,20.1 29.5,20.3 
		29.8,20.3 30,20.3 30.1,20.3 30.3,20.2 30.4,20.1 30.5,20 30.5,20 30.6,19.9 30.7,19.8 30.7,19.7 30.7,19.6 30.8,19.6 30.7,19.5 
		30.7,19.4 30.6,19.3 30.6,19.3 	"/>
	<polygon id="XMLID_251_" class="st0" points="25.3,23.6 25.2,23.8 25.1,24.1 25.1,24.4 25.2,24.6 25.4,24.8 25.6,24.9 25.9,24.8 
		26.1,24.6 26.1,24.4 26.1,24.3 26.1,24.1 26.1,24 26.1,23.9 26,23.8 26,23.7 25.9,23.6 25.9,23.6 25.8,23.5 25.7,23.5 25.7,23.4 
		25.6,23.4 25.5,23.5 25.4,23.5 	"/>
	<polygon id="XMLID_252_" class="st0" points="31.2,18 30.9,17.9 30.6,18 30.4,18.1 30.2,18.3 30.1,18.5 30.1,18.7 30.3,18.9 
		30.6,19 30.7,19 30.9,19 31,18.9 31.1,18.8 31.2,18.7 31.3,18.7 31.3,18.6 31.4,18.5 31.4,18.4 31.4,18.4 31.5,18.3 31.5,18.2 
		31.4,18.1 31.4,18 31.3,18 	"/>
	<polygon id="XMLID_253_" class="st0" points="33.3,29.3 33.5,29.5 33.7,29.6 34,29.7 34.2,29.7 34.5,29.6 34.6,29.4 34.6,29.1 
		34.4,28.9 34.3,28.8 34.1,28.7 34,28.7 33.9,28.7 33.8,28.7 33.7,28.7 33.6,28.7 33.5,28.8 33.4,28.8 33.4,28.8 33.3,28.9 33.3,29 
		33.3,29.1 33.3,29.1 33.3,29.2 	"/>
	<polygon id="XMLID_254_" class="st0" points="22.4,20.7 22.4,21.1 22.4,21.4 22.5,21.8 22.7,22 22.9,22.2 23.2,22.3 23.4,22.1 
		23.6,21.7 23.6,21.5 23.5,21.3 23.5,21.2 23.4,21 23.3,20.9 23.3,20.8 23.2,20.7 23.1,20.6 23,20.5 22.9,20.5 22.8,20.5 22.7,20.5 
		22.6,20.5 22.6,20.6 22.5,20.6 	"/>
	<polygon id="XMLID_255_" class="st0" points="26.1,35.3 26,35.4 25.9,35.6 25.9,35.8 25.9,36 25.9,36.2 26.1,36.4 26.4,36.3 
		26.6,36.2 26.6,36 26.7,35.9 26.7,35.8 26.7,35.7 26.7,35.6 26.7,35.6 26.7,35.5 26.6,35.4 26.6,35.4 26.6,35.3 26.5,35.2 
		26.5,35.2 26.4,35.2 26.3,35.2 26.2,35.2 26.1,35.3 	"/>
	<polygon id="XMLID_256_" class="st0" points="24.9,20.9 24.6,21 24.3,21.2 24,21.4 23.9,21.7 23.8,22 23.9,22.3 24.2,22.4 
		24.6,22.3 24.8,22.2 24.9,22.1 25,22 25.1,21.9 25.2,21.8 25.2,21.6 25.3,21.5 25.3,21.4 25.3,21.3 25.3,21.2 25.3,21.1 25.3,21.1 
		25.2,21 25.1,20.9 25,20.9 	"/>
	<polygon id="XMLID_257_" class="st0" points="29.2,16.8 29,17.1 29,17.4 29,17.8 29.1,18.1 29.2,18.3 29.5,18.5 29.8,18.4 30,18 
		30,17.9 30.1,17.7 30.1,17.5 30,17.4 30,17.2 29.9,17.1 29.9,17 29.8,16.9 29.8,16.8 29.7,16.7 29.6,16.7 29.6,16.6 29.4,16.6 
		29.3,16.6 29.3,16.7 	"/>
	<polygon id="XMLID_258_" class="st0" points="25.6,19.2 25.3,19.3 25,19.4 24.8,19.6 24.7,19.8 24.6,20 24.6,20.3 24.9,20.4 
		25.2,20.4 25.4,20.3 25.5,20.2 25.6,20.2 25.7,20.1 25.8,20 25.8,19.9 25.9,19.8 25.9,19.7 25.9,19.6 25.9,19.5 25.9,19.5 
		25.9,19.4 25.8,19.3 25.7,19.2 25.7,19.2 	"/>
	<polygon id="XMLID_259_" class="st0" points="28.2,18.5 28,18.8 27.9,19.1 27.9,19.4 28,19.8 28.1,20 28.4,20.2 28.7,20.1 29,19.8 
		29,19.6 29.1,19.4 29.1,19.2 29.1,19.1 29,18.9 29,18.8 28.9,18.7 28.8,18.6 28.8,18.5 28.7,18.4 28.7,18.4 28.6,18.3 28.5,18.3 
		28.4,18.3 28.3,18.4 	"/>
	<polygon id="XMLID_260_" class="st0" points="31.2,28.6 31.2,28.9 31.2,29.2 31.3,29.5 31.4,29.7 31.6,29.8 31.9,29.9 32.1,29.7 
		32.2,29.4 32.3,29.2 32.2,29.1 32.2,29 32.1,28.8 32.1,28.7 32,28.6 31.9,28.5 31.8,28.5 31.8,28.4 31.7,28.4 31.6,28.4 31.5,28.4 
		31.4,28.4 31.3,28.4 31.3,28.5 	"/>
	<polygon id="XMLID_261_" class="st0" points="31.4,16.1 31.1,16.1 30.8,16.2 30.6,16.4 30.5,16.6 30.4,16.8 30.4,17.1 30.6,17.2 
		30.9,17.3 31.1,17.2 31.2,17.2 31.3,17.1 31.4,17 31.5,16.9 31.6,16.8 31.6,16.7 31.7,16.6 31.7,16.6 31.7,16.5 31.7,16.4 
		31.7,16.3 31.6,16.3 31.6,16.2 31.5,16.2 	"/>
	<polygon id="XMLID_262_" class="st0" points="26.9,24.7 26.6,24.8 26.3,24.9 26.1,25.1 25.9,25.4 25.8,25.7 25.9,25.9 26.2,26.1 
		26.5,26.1 26.7,26 26.8,25.9 26.9,25.8 27,25.7 27.1,25.6 27.2,25.5 27.2,25.4 27.3,25.3 27.3,25.2 27.3,25.1 27.3,25 27.3,24.9 
		27.2,24.8 27.1,24.8 27,24.7 	"/>
	<polygon id="XMLID_263_" class="st0" points="26.3,16.7 26,16.6 25.8,16.7 25.6,16.8 25.4,17 25.3,17.2 25.3,17.4 25.5,17.6 
		25.7,17.7 25.9,17.6 26,17.6 26.1,17.5 26.2,17.5 26.3,17.4 26.3,17.3 26.4,17.2 26.4,17.2 26.5,17.1 26.5,17 26.5,17 26.5,16.9 
		26.5,16.8 26.4,16.7 26.3,16.7 	"/>
	<polygon id="XMLID_264_" class="st0" points="23,19 23,19.3 23,19.6 23.1,19.9 23.2,20.2 23.4,20.4 23.7,20.4 24,20.2 24.1,19.8 
		24.1,19.7 24.1,19.5 24,19.4 24,19.2 23.9,19.1 23.8,19 23.7,18.9 23.6,18.9 23.6,18.8 23.5,18.8 23.4,18.7 23.3,18.7 23.2,18.8 
		23.1,18.8 23.1,18.9 	"/>
	<path id="XMLID_265_" class="st1" d="M23.7,28.3c0.2,0.4,0.1,0.7,0.2,1c0.1,0.4,0.1,0.8,0,1.2c-0.1,0.4-0.3,0.5-0.4,0.9
		c-0.1,0.4-0.4,0.4-0.4,0.4s-0.5-0.8-0.5-1.6c0-0.7,0-1.6,0-1.6C22.9,27.9,23.1,26.9,23.7,28.3"/>
</g>
</svg>
