<?xml version="1.0" encoding="utf-8"?>
<!-- Generator: Adobe Illustrator 23.0.5, SVG Export Plug-In . SVG Version: 6.00 Build 0)  -->
<svg version="1.1" id="Layer_1" xmlns="http://www.w3.org/2000/svg" xmlns:xlink="http://www.w3.org/1999/xlink" x="0px" y="0px"
	 viewBox="0 0 50 50" style="enable-background:new 0 0 50 50;" xml:space="preserve">
<style type="text/css">
	.st0{fill:#D40000;}
	.st1{fill:#FFFFFF;}
	.st2{fill:#0000AA;}
	.st3{fill:#000080;}
	.st4{fill:#231F20;}
	.st5{fill:#F9F9F9;}
</style>
<g id="XMLID_1_">
	<rect id="XMLID_51_" x="0.4" y="0.2" class="st0" width="49.2" height="49.4"/>
	<path id="XMLID_52_" class="st1" d="M25.6,6.6L25.6,6.6c-0.1,0.2-0.2,0.5-0.3,0.5l0,0v0.2l0,0C25.1,7.5,25,8,25,8.2l0,0h-0.1l0,0
		c0,0.1-0.1,0.3-0.1,0.4l0,0h-0.1v0.2h-0.1v0.2l0,0l0,0l0,0l0,0l0,0l0,0v0c0,0,0,0,0,0l0,0h0v0.2c0,0.4,0,1,0.1,1.3l0,0h0.1v0.2h0.1
		v0.4h0.1v0.2h0.1l0,0l0,0l0,0l0,0l0,0.1l0,0.1l0,0.1l0,0.1l0,0l0,0l0,0l0,0v0.2l0,0c0.2,0,0.1,0.7,0.3,0.8l0,0l0,0.1
		c0,0.1,0.1,0.6,0,0.7l0,0h-0.1v0.2l-0.1,0.1h-0.1L25.1,14l0,0l0,0l0,0l0,0l0,0l0,0c0,0-0.1,0.1-0.1,0.1l0,0l0,0h0
		c-0.1,0-0.1,0.1-0.2,0.1h0l0,0c-0.1,0.4-1.1,0.6-1.4,0.6h-0.1l0,0l0,0l0,0c-0.1,0-0.1,0-0.2,0.1l-0.1,0l-0.1,0l-0.1,0l-0.1,0
		l-0.1,0l0,0l0,0l0,0l0,0l0,0c-0.5,0.2-1.1,0.5-1.6,0.6l0,0h0v0c0,0.1-0.3,0.3-0.4,0.3l0,0l0,0c0,0.2-0.4,0.5-0.5,0.6l0,0v0
		c0,0.2-0.2,0.2-0.2,0.4v0l0,0c-0.1,0-0.4,0.2-0.4,0.3v0h0c-0.3,0-0.5,0.5-0.6,0.7l0,0h-0.1l0,0c-0.1,0.1-0.1,0.2-0.1,0.4v0l0,0
		c-0.1,0.1-0.1,0.2-0.3,0.2h0l0,0c-0.2,0.3-0.7,0.8-0.9,1.1v0.2h-0.1v0.2h-0.1l0,0c0,0.1,0,0.3-0.1,0.4h0V21l0,0
		c-0.1,0.1-0.2,0.4-0.3,0.5l0,0l0,0c0,0.1,0,0.2-0.1,0.3l0,0h-0.1l-0.2,0.3h-0.1v0c0,0.1-0.1,0.1-0.1,0.1l0,0L16,22.6h-0.1l0,0
		c-0.1,0.1,0,0.6,0,0.8l0,0.1h0l0,0l0,0v0c0,0,0,0,0,0l0,0h0v0c0,0.1,0.1,0.2,0.1,0.2l0,0V24l0.1,0.1h0.2v0c0,0.1,0.1,0,0.1,0.1v0
		h0.2l0,0l0,0l0,0l0,0l0.1,0l0.1,0l0,0l0,0l0,0l0,0l0.1,0.1v0.1l0.1,0.1c0.3,0.2,0.2-0.1,0.5,0.3l0,0v0h0.2V25H18v0.1h0.2l0.1,0.1
		v0.2l0.3,0.3h0l0,0l0,0l0,0l0,0c0,0,0,0,0.1,0.1l0,0l0,0l0,0l0,0l0,0v0l0.1,0.1l0.1,0.1h0l0,0l0,0c0.1,0,0.1,0.1,0.2,0.1l0,0h0.2
		l0.2,0.2v0.1h0c0.1,0,0.1,0,0.1,0.1l0,0h0.2l0.1,0.1v0.1l0.1,0.1h0.2l0.2,0.2v0.2h0c0.1,0,0.2,0.1,0.2,0.2v0.1h0.1v0.1h0.1l0.1,0.1
		c0,0.6,1.4,1.9,1.9,2.2l0.1,0l0,0c0.9,0.2,2.5,0.2,3.3,0l0.1,0l0,0v-0.1l0,0c0.2-0.1,0.5-0.1,0.7-0.1l0.1,0l0,0
		c0-0.1,0.2-0.1,0.2-0.2l0,0l0,0c0.1,0,0.5-0.1,0.5-0.2l0,0h0.4l0.1-0.1v-0.1h0.1v-0.1h0.1l0.1-0.1c0-0.1,0.1-0.2,0.1-0.3l0,0l0,0
		c0,0,0-0.1,0.1-0.1l0,0l0,0V28c0.1-0.1,0.1-0.3,0.2-0.5l0,0h0.1c0.1-0.1,0.1-0.2,0.2-0.3l0,0l0,0V27h0l0,0l0,0
		c0.1,0,0.1-0.1,0.1-0.1v0l0,0l0,0l0-0.1l0.1-0.1l0.1-0.1l0-0.1l0,0l0,0l0,0l0,0l0.3-0.3h0l0,0l0,0l0,0l0,0l0,0l0,0l0,0l0,0l0,0l0,0
		l0,0l0.1-0.1v0l0,0l0,0l0,0l0,0l0,0l0,0l0,0c0.1-0.1,0.2-0.1,0.3-0.2l0,0l0,0l0,0h0c0.1,0,0.3-0.1,0.3-0.1l0,0h0.2l0,0l0,0l0,0l0,0
		l0.1,0l0.1,0c0.1,0,0.2,0,0.2-0.1l0,0v-0.1h0.2V25l0,0c0.1,0,0.2,0.1,0.2-0.1l0,0h0.2l0,0c0-0.1,0.2-0.1,0.2-0.2l0,0h0.2v-0.1H33
		v-0.1h0.2v-0.2h0.1v-0.2h0.1v-0.6h-0.1v-0.2h-0.1l0,0c-0.1-0.3,0-1.1,0-1.5l0-0.1l0,0c0.1-0.1,0.1-0.6,0.1-0.7v-0.1h-0.1l0,0
		c0-0.1,0-0.2-0.1-0.2h0l0-0.1c0-0.4,0.1-1.1,0-1.5l0,0H33v-0.2h-0.1V18h-0.1l-0.1-0.4l-0.1-0.1h-0.1v-0.1h-0.1l-0.1-0.1v-0.2h0
		c-0.1,0,0-0.1-0.1-0.1l0,0l0,0c0-0.1-0.1-0.2-0.1-0.2l0,0h0l0,0l0,0l0,0l0,0l0,0l0,0l0,0l0,0l0,0v-0.2l-0.1-0.1l0,0l0,0
		c-0.1,0-0.2-0.1-0.2-0.1l0,0l0,0h0c-0.3,0-0.6-0.1-0.9-0.2l0,0v-0.1l-0.3-0.1v0c0-0.1-0.1,0-0.1-0.1v0h-0.2v-0.1H30v-0.1h-0.2v0
		c0-0.1-0.1,0-0.1-0.1v0h0c-0.1,0-0.3-0.1-0.3-0.1v0h-0.2V15h-0.1v-0.2l0,0c0.1,0,0-0.1,0.1-0.1h0v-0.2l0.1-0.1h0.2l0.1-0.1v-0.1
		l0.1-0.1h0.2v-0.1H30l0.1-0.1v-0.1h0.1l0.1-0.1c0,0,0-0.1,0-0.1l0,0l0,0c0,0,0-0.1,0-0.1l0.1-0.1h0.1v-0.1h0.1l0.1-0.1v-0.2l0,0
		c0.1,0,0-0.1,0.1-0.1h0v-0.2h0.1V13h0.1v-0.2l0.1-0.1h0.1l0.1-0.1v-0.2h0.1v-0.2h0c0.1,0,0-0.1,0.1-0.1l0,0v-0.2h0
		c0.1,0,0-0.1,0.1-0.1l0,0v-0.2h0.1v-0.2h0.1v-0.2h0.1l0,0c0.1-0.2,0.1-0.5,0.1-0.6l0,0H32v-0.3h0.1V10h0.1l0,0
		c0.1-0.2,0-0.7,0.1-0.9l0,0h0.1l0,0c0.1-0.2-0.1-0.5,0-0.7l0,0h0.1V8h-0.1V7.7h-0.1V7.5h-0.1V7.2h-0.1V7.1H32V6.9l-0.1-0.1
		l-0.1-0.1l-0.1,0l-0.1,0l-0.1,0l-0.1,0l-0.1,0l-0.1,0c-0.1,0-0.2,0-0.2,0l0,0l0,0V6.7h-0.4V6.6l0,0c-0.1-0.1-0.6,0.1-0.6-0.1v0l0,0
		c-0.1,0-0.4-0.1-0.5-0.2l0,0h-0.2V6.2l0,0c-0.1,0-0.1,0-0.1-0.1v0h0c-0.1,0-0.1,0-0.2-0.1l-1.8,0.1l0,0C26.9,6.4,26,6.4,25.6,6.6
		L25.6,6.6"/>
	<path id="XMLID_55_" class="st2" d="M32.1,9.2l0-0.1l0-0.1l0-0.1c0.4-1.9-1.9-1.1-2.7-1.3l-0.2,0l-0.2,0c-1,0-2.6-1.4-3.2-0.5l0,0
		l0,0l0,0.1l0,0.1l0,0.1c-0.1,0.4,0,0.9,0,1.3v0.2c0,0.2-0.1,0.6-0.2,0.7l0,0l0,0l0,0c-0.4-0.1-0.7-0.9-1.1,0l0,0l0,0l0,0l0,0
		c-0.2-0.4-0.1-0.9,0.2-1.1l0,0l0-0.2l0-0.2c-0.2-2.7,2.9-3.1,4.7-3l0.1,0l0.1,0c2,0.3,3.4,1.7,2.8,4l0,0.1l0,0.1l0,0
		C32.3,9.2,32.3,9.2,32.1,9.2L32.1,9.2L32.1,9.2z M21,25.4l-0.1,0.1c-0.2,0.2-0.4,0.4-0.6,0.6l-0.1,0.1l0.1,0.4l0.1,0.4l0.1,0.4
		c0.1,0.6,0.2,1.3,0.3,1.9l0.2,1.7l0.2,1.7c0.3,3.4,0.6,6.8,1,10.2l0,0l0,0l0,0c-0.1,0.4,0.1,0.9-0.1,1.3l0,0l0,0l0.3,0
		c0.8,0,1.6,0,2.3,0l0.3,0l-0.8-1.3l0,0c0-0.1-0.1-0.2-0.1-0.3l0,0v0c0.1-2,0.2-3.9,0.3-5.9l0-0.4l0-0.4l0.1,0.1
		c1.3,1.5,1.4,5.9,1.5,7.9l0,0.4l0.2,0c0.8,0,1.7,0,2.5,0l0.2,0l-0.1-0.2c-0.2-0.4-0.5-0.7-0.8-1l-0.1-0.1l0-0.8l0-0.8l0-0.8l0-0.8
		c0-2.5-0.1-5,0.1-7.4l0-0.4l0-0.4l0-0.4c0.1-0.5,0-1.2,0.3-1.6l0.1-0.1l0.1-0.2c0.4-0.6,0.7-1.2,1.1-1.8l0.1-0.1l0.1-0.1l0.1-0.1
		l0.1-0.1l0.1-0.1c0.4-0.5,0.8-0.9,1.3-1.2l0.1-0.1l0.1-0.1c0.7-0.4,1.5-0.6,2.1-1l0,0l0,0l0,0l0,0l0,0l0,0c0.2-0.3,0.2-0.6,0.1-1
		l0-0.2l0-0.2c-0.1-1.6,0-3.2-0.2-4.8l0-0.1l0-0.1l0-0.1C32.8,16,31.4,16,29.8,15l-0.2-0.1l-0.2-0.1l-0.2-0.1l0,0.1
		c0,0.2-0.1,0.4-0.1,0.5l0,0.1l0.2,0.1c0.9,0.5,1.9,1,2.7,1.8l0.1,0.1l-0.6,1.4l-0.2,0.1l-0.8-0.1L30.5,18l-0.3,0l-0.1,0.5l-0.2,0
		l0.1,0.3c0,0.3,0,0.7,0,1l0,0.1l0.1,0c0.1,0,0.2,0,0.3,0l0.1,0l0-0.1c0-0.2,0.1-0.3,0.1-0.5l0-0.1l0.1,0c0.2,0,0.4,0,0.7,0l0.1,0
		l0,0.2c-0.5,3.2-1.8,6.2-3.3,8.9l-0.2,0.3l-0.1,0c-0.3,0-0.5,0-0.8-0.1l-0.1,0l0-0.1l0-0.1l0-0.1c0.2-0.5,0.9-1.5,0.9-2l0-0.1
		l0-0.1l0-0.2c0.1-0.4,0.1-0.9,0.2-1.3l0-0.1l0-0.1l0-0.1l0-0.1l0-0.1l0-0.1l0-0.1l0-0.1l0-0.1l0.1-0.1l0.1-0.1l0.2-0.4l-0.1-0.6
		l0.2-1.9l0.2-0.4l0,0l0,0l0,0v0c0-0.2-0.1-0.4-0.2-0.7l0-0.1l0-0.1c0-0.7-0.1-1.4,0.1-2l0,0v-0.1c0-0.2-0.1-0.3-0.1-0.4l0,0l0,0
		c-0.1-0.3,0-0.5,0-0.8l0-0.1l0-0.1l0-0.1l0-0.1l-0.1,0c-0.2,0-0.4,0.1-0.6,0.1l-0.1,0l0.1,0.3c0.7,3.7,0.1,9.3-1.9,12.5l0,0.1
		l-4.8,0.1l-0.1-2.1l0.2,0c0.8,0,1.6,0,2.4-0.1l0.2,0v-0.1c0-0.1,0-0.2,0-0.3v-0.1l-2.2,0l0-0.1c-0.1-0.4-0.2-0.7-0.3-1.1l0-0.1
		l-0.1,0c-0.2,0.1-0.3,0.2-0.5,0.3L21,25.4"/>
	<path id="XMLID_58_" class="st3" d="M31.4,9.5L31.4,9.5c0.2-0.1,0.5-0.1,0.7,0l0,0l0.3-0.2l0,0c-0.3-0.3-0.7-0.2-1-0.1l-0.1,0
		L31.4,9.5z M28.2,8.8L28.2,8.8c0.5-0.1,0.9-0.1,1.2,0.2l0,0l0.2-0.3l0,0c-0.5-0.4-0.9-0.5-1.5-0.3l-0.1,0"/>
	<path id="XMLID_62_" class="st3" d="M30.4,12.8l-0.1,0c-0.9,0.3-1.8,0.2-2.4-0.6l-0.1-0.1l-0.3,0.2l0.1,0.1c0.8,1,1.7,1.1,2.8,0.7
		l0.1,0L30.4,12.8z M31.6,11v-0.2h-0.8v0.4h0.8V11z M28.7,9.5L28.7,9.5c-0.2,0.5-0.5,0.6-0.9,0.6l0,0l-0.1,0.4l0.1,0
		c0.6,0.1,1-0.1,1.3-0.7l0-0.1"/>
	<path id="XMLID_63_" class="st3" d="M32.4,9.1L32.4,9.1L32.4,9.1c-0.1,0.2-0.3,0.3-0.5,0.6l0,0l0,0c0,0.2-0.1,0.6-0.2,0.7l0,0l0,0
		l0,0l0,0l0,0l0,0c-0.1,1.1,0.1,0.8-0.5,1.9l0,0.1l0,0.1c-0.3,0.6-0.9,1.2-1.4,1.5l-0.1,0.1l-0.1,0.1l-0.1,0.1l-0.2,0
		c-0.9,0.1-1.7-0.2-2.5-0.8l-0.1-0.1l-0.1-0.1l-0.1-0.1l-0.1,0l-0.1,0l-0.1,0l-0.1,0l-0.3-0.2l0,0l0,0l0,0l0,0l0,0l0,0
		c-0.1-0.4-0.2-0.6-0.3-1l0-0.1l0-0.1l0-0.1l0-0.1l0,0l0,0l0,0c-0.2-0.4-0.7-1.5-0.6-1.9l0-0.1l0-0.1l0-0.1l0-0.1l0-0.1l0-0.1l0-0.1
		l0-0.1l0,0l0,0l0,0l0,0l0,0l0,0c-0.1,0-0.1,0-0.1,0.1l0,0l0,0.1l0,0.1l0,0.1c-0.3,1.5,1.4,3.2,0.6,4.5l0,0.1l-0.1,0.1l-0.1,0.2
		l0.7,0.5l0.1-1L28,15c0.1,0.3,0.1,0.7,0.2,1l0,0l0,0l0,0l0,0l0,0l0.1,0l0.1,0l0.1,0l0.1,0l0,0l0,0l0,0h0l0,0l0,0l0,0l0,0l0,0l0,0
		l0,0c0-0.1-0.1-0.2,0-0.3l0,0l0,0l0,0l0,0c0-0.1,0.1,0,0.2,0l0,0l0,0l0,0c0,0,0-0.1,0.1-0.1l0,0l0,0c0-0.1,0-0.3,0.1-0.4l0,0l0,0
		l0-0.1l0,0l0,0l0,0v0l0,0c0,0,0,0,0-0.1l0,0l0.1-0.1c0.2-0.1,0.3-0.2,0.5-0.3l0.1-0.1l0.1-0.1l0,0c0.2-0.2,0.4-0.5,0.6-0.7l0.1-0.1
		l0.1-0.1l0.1-0.1c0.7-1.1,1-2.4,1.3-3.7l0-0.1l0-0.1L32.4,9.1"/>
	<path id="XMLID_66_" class="st4" d="M20.1,21.5h0.5v2.9h-0.5V21.5z M25.2,9.8l-0.2,0l0.2,0.8l0.3-0.1l-0.2-0.8"/>
	<path id="XMLID_67_" class="st3" d="M32.6,18.6l-0.4,0l0,0.7c-0.4,0.9-0.6,1.8-0.9,2.7l0,1.2l-0.6,0.6l-0.2,0.7L30.2,25l-0.1,0.6
		l1.7-0.9l0.7-0.2l0.3-0.2L33,24l-0.1-2.8"/>
	<path id="XMLID_68_" class="st5" d="M32.6,18.6l-0.4,0l0,0.7c-0.4,0.9-0.6,1.8-0.9,2.7l0,1.2l-0.6,0.6l-0.2,0.7L30.2,25l-0.1,0.6
		l1.7-0.9l0.7-0.2l0.3-0.2L33,24l-0.1-2.8L32.6,18.6z"/>
	<path id="XMLID_69_" class="st1" d="M32.6,18.6L32.6,18.6l-0.4,0l0,0.7l0,0l0,0c-0.4,0.9-0.6,1.8-0.9,2.7l0,0l0,1.1l-0.6,0.6
		l-0.2,0.7L30.2,25l-0.2,0.6l1.7-0.9l0.7-0.2l0.3-0.2L33,24l-0.1-2.8L32.6,18.6L32.6,18.6L32.6,18.6L32.6,18.6l0.3,2.6L33,24
		l-0.2,0.4l-0.3,0.1l-0.7,0.2l-1.6,0.8l0.1-0.5l0.2-0.6l0,0l0,0l0.2-0.7l0.6-0.6l0-1.2l0,0l0,0c0.3-0.9,0.5-1.8,0.9-2.7l0,0l0-0.7
		L32.6,18.6L32.6,18.6L32.6,18.6L32.6,18.6z"/>
	<path id="XMLID_70_" class="st3" d="M29.6,10.6L29.6,10.6c0,0.3,0,0.5,0,0.6l0,0.1l0,0c0.7,0.4,0.8-0.2,0.8-0.8l0-0.1l0,0
		c0.1,0,0.2,0,0.2,0l0,0l0,0.1c0,1.9-1.7,1.7-1.5,0.1l0-0.1l0,0C29.3,10.6,29.4,10.6,29.6,10.6L29.6,10.6"/>
	<path id="XMLID_71_" class="st3" d="M20.1,22c-0.5,0.1-0.8,0.5-1.1,1c0.4,0.4,0.7,0.7,1.1,1C20.1,23.4,20.1,22.7,20.1,22"/>
</g>
</svg>
